%TF.GenerationSoftware,KiCad,Pcbnew,8.0.8*%
%TF.CreationDate,2025-07-18T21:43:41+01:00*%
%TF.ProjectId,_autosave-EDMX,5f617574-6f73-4617-9665-2d45444d582e,rev?*%
%TF.SameCoordinates,Original*%
%TF.FileFunction,Drillmap*%
%TF.FilePolarity,Positive*%
%FSLAX45Y45*%
G04 Gerber Fmt 4.5, Leading zero omitted, Abs format (unit mm)*
G04 Created by KiCad (PCBNEW 8.0.8) date 2025-07-18 21:43:41*
%MOMM*%
%LPD*%
G01*
G04 APERTURE LIST*
%ADD10C,0.050000*%
%ADD11C,0.200000*%
%ADD12C,0.100000*%
%ADD13C,0.120000*%
%ADD14C,0.130000*%
%ADD15C,0.160000*%
G04 APERTURE END LIST*
D10*
X5150000Y-5200000D02*
X5100000Y-10000000D01*
X5600000Y-10500000D02*
G75*
G02*
X5100000Y-10000000I0J500000D01*
G01*
X11000000Y-10500000D02*
X5600000Y-10500000D01*
X11000000Y-10500000D02*
G75*
G02*
X11353553Y-10646447I0J-500000D01*
G01*
X18500000Y-12000000D02*
G75*
G02*
X18000000Y-12500000I-500000J0D01*
G01*
X19400000Y-9000000D02*
G75*
G02*
X18500000Y-9900000I-900000J0D01*
G01*
X19200000Y-4950000D02*
X5400000Y-4950000D01*
X19400000Y-7500000D02*
X19400000Y-9000000D01*
X13100000Y-12300000D02*
X11353553Y-10646447D01*
X18500000Y-11000000D02*
X18500000Y-12000000D01*
X19200000Y-4950000D02*
G75*
G02*
X19400000Y-5150000I0J-200000D01*
G01*
X19400000Y-7500000D02*
X19400000Y-5150000D01*
X18500000Y-10050000D02*
X18500000Y-11000000D01*
X13500000Y-12500000D02*
G75*
G02*
X13288000Y-12439199I0J400000D01*
G01*
X18500000Y-9900000D02*
X18500000Y-10050000D01*
X5150000Y-5200000D02*
G75*
G02*
X5400000Y-4950000I250000J0D01*
G01*
X13100000Y-12300000D02*
X13288000Y-12439199D01*
X18000000Y-12500000D02*
X13500000Y-12500000D01*
D11*
D12*
X13285500Y-8476500D02*
X13360500Y-8551500D01*
X13360500Y-8476500D02*
X13285500Y-8551500D01*
X13412500Y-8476500D02*
X13487500Y-8551500D01*
X13487500Y-8476500D02*
X13412500Y-8551500D01*
X13539500Y-8476500D02*
X13614500Y-8551500D01*
X13614500Y-8476500D02*
X13539500Y-8551500D01*
X15954500Y-12012500D02*
X16029500Y-12087500D01*
X16029500Y-12012500D02*
X15954500Y-12087500D01*
X16970500Y-12012500D02*
X17045500Y-12087500D01*
X17045500Y-12012500D02*
X16970500Y-12087500D01*
X9021000Y-6850000D02*
G75*
G02*
X8941000Y-6850000I-40000J0D01*
G01*
X8941000Y-6850000D02*
G75*
G02*
X9021000Y-6850000I40000J0D01*
G01*
X9021000Y-7612000D02*
G75*
G02*
X8941000Y-7612000I-40000J0D01*
G01*
X8941000Y-7612000D02*
G75*
G02*
X9021000Y-7612000I40000J0D01*
G01*
X9309000Y-6600000D02*
G75*
G02*
X9229000Y-6600000I-40000J0D01*
G01*
X9229000Y-6600000D02*
G75*
G02*
X9309000Y-6600000I40000J0D01*
G01*
X10071000Y-6600000D02*
G75*
G02*
X9991000Y-6600000I-40000J0D01*
G01*
X9991000Y-6600000D02*
G75*
G02*
X10071000Y-6600000I40000J0D01*
G01*
X10610000Y-6920000D02*
G75*
G02*
X10530000Y-6920000I-40000J0D01*
G01*
X10530000Y-6920000D02*
G75*
G02*
X10610000Y-6920000I40000J0D01*
G01*
X10610000Y-7174000D02*
G75*
G02*
X10530000Y-7174000I-40000J0D01*
G01*
X10530000Y-7174000D02*
G75*
G02*
X10610000Y-7174000I40000J0D01*
G01*
X10610000Y-7428000D02*
G75*
G02*
X10530000Y-7428000I-40000J0D01*
G01*
X10530000Y-7428000D02*
G75*
G02*
X10610000Y-7428000I40000J0D01*
G01*
X10610000Y-7682000D02*
G75*
G02*
X10530000Y-7682000I-40000J0D01*
G01*
X10530000Y-7682000D02*
G75*
G02*
X10610000Y-7682000I40000J0D01*
G01*
X11372000Y-6920000D02*
G75*
G02*
X11292000Y-6920000I-40000J0D01*
G01*
X11292000Y-6920000D02*
G75*
G02*
X11372000Y-6920000I40000J0D01*
G01*
X11372000Y-7174000D02*
G75*
G02*
X11292000Y-7174000I-40000J0D01*
G01*
X11292000Y-7174000D02*
G75*
G02*
X11372000Y-7174000I40000J0D01*
G01*
X11372000Y-7428000D02*
G75*
G02*
X11292000Y-7428000I-40000J0D01*
G01*
X11292000Y-7428000D02*
G75*
G02*
X11372000Y-7428000I40000J0D01*
G01*
X11372000Y-7682000D02*
G75*
G02*
X11292000Y-7682000I-40000J0D01*
G01*
X11292000Y-7682000D02*
G75*
G02*
X11372000Y-7682000I40000J0D01*
G01*
X13640000Y-7219000D02*
G75*
G02*
X13560000Y-7219000I-40000J0D01*
G01*
X13560000Y-7219000D02*
G75*
G02*
X13640000Y-7219000I40000J0D01*
G01*
X13640000Y-7981000D02*
G75*
G02*
X13560000Y-7981000I-40000J0D01*
G01*
X13560000Y-7981000D02*
G75*
G02*
X13640000Y-7981000I40000J0D01*
G01*
X14990000Y-5969000D02*
G75*
G02*
X14910000Y-5969000I-40000J0D01*
G01*
X14910000Y-5969000D02*
G75*
G02*
X14990000Y-5969000I40000J0D01*
G01*
X14990000Y-6731000D02*
G75*
G02*
X14910000Y-6731000I-40000J0D01*
G01*
X14910000Y-6731000D02*
G75*
G02*
X14990000Y-6731000I40000J0D01*
G01*
X16040000Y-6338000D02*
G75*
G02*
X15960000Y-6338000I-40000J0D01*
G01*
X15960000Y-6338000D02*
G75*
G02*
X16040000Y-6338000I40000J0D01*
G01*
X16040000Y-7100000D02*
G75*
G02*
X15960000Y-7100000I-40000J0D01*
G01*
X15960000Y-7100000D02*
G75*
G02*
X16040000Y-7100000I40000J0D01*
G01*
X16496000Y-9681550D02*
X16496000Y-9770450D01*
X16451550Y-9726000D02*
X16540450Y-9726000D01*
X16496000Y-11205550D02*
X16496000Y-11294450D01*
X16451550Y-11250000D02*
X16540450Y-11250000D01*
X16750000Y-9681550D02*
X16750000Y-9770450D01*
X16705550Y-9726000D02*
X16794450Y-9726000D01*
X16750000Y-11205550D02*
X16750000Y-11294450D01*
X16705550Y-11250000D02*
X16794450Y-11250000D01*
X17004000Y-9681550D02*
X17004000Y-9770450D01*
X16959550Y-9726000D02*
X17048450Y-9726000D01*
X17004000Y-11205550D02*
X17004000Y-11294450D01*
X16959550Y-11250000D02*
X17048450Y-11250000D01*
X17258000Y-9681550D02*
X17258000Y-9770450D01*
X17213550Y-9726000D02*
X17302450Y-9726000D01*
X17258000Y-11205550D02*
X17258000Y-11294450D01*
X17213550Y-11250000D02*
X17302450Y-11250000D01*
X17512000Y-9681550D02*
X17512000Y-9770450D01*
X17467550Y-9726000D02*
X17556450Y-9726000D01*
X17512000Y-11205550D02*
X17512000Y-11294450D01*
X17467550Y-11250000D02*
X17556450Y-11250000D01*
X17766000Y-9681550D02*
X17766000Y-9770450D01*
X17721550Y-9726000D02*
X17810450Y-9726000D01*
X17766000Y-11205550D02*
X17766000Y-11294450D01*
X17721550Y-11250000D02*
X17810450Y-11250000D01*
X18020000Y-9681550D02*
X18020000Y-9770450D01*
X17975550Y-9726000D02*
X18064450Y-9726000D01*
X18020000Y-11205550D02*
X18020000Y-11294450D01*
X17975550Y-11250000D02*
X18064450Y-11250000D01*
X15885356Y-10635356D02*
X15885356Y-10564644D01*
X15814644Y-10564644D01*
X15814644Y-10635356D01*
X15885356Y-10635356D01*
X11261500Y-8880500D02*
X11311500Y-8830500D01*
X11261500Y-8780500D01*
X11211500Y-8830500D01*
X11261500Y-8880500D01*
X11261500Y-9134500D02*
X11311500Y-9084500D01*
X11261500Y-9034500D01*
X11211500Y-9084500D01*
X11261500Y-9134500D01*
X11261500Y-9388500D02*
X11311500Y-9338500D01*
X11261500Y-9288500D01*
X11211500Y-9338500D01*
X11261500Y-9388500D01*
X11261500Y-9642500D02*
X11311500Y-9592500D01*
X11261500Y-9542500D01*
X11211500Y-9592500D01*
X11261500Y-9642500D01*
D13*
X6148000Y-7080000D02*
X6268000Y-7200000D01*
X6268000Y-7080000D02*
X6148000Y-7200000D01*
X6268000Y-7140000D02*
G75*
G02*
X6148000Y-7140000I-60000J0D01*
G01*
X6148000Y-7140000D02*
G75*
G02*
X6268000Y-7140000I60000J0D01*
G01*
X7165000Y-6255000D02*
X7285000Y-6375000D01*
X7285000Y-6255000D02*
X7165000Y-6375000D01*
X7285000Y-6315000D02*
G75*
G02*
X7165000Y-6315000I-60000J0D01*
G01*
X7165000Y-6315000D02*
G75*
G02*
X7285000Y-6315000I60000J0D01*
G01*
X17193000Y-6259000D02*
X17313000Y-6379000D01*
X17313000Y-6259000D02*
X17193000Y-6379000D01*
X17313000Y-6319000D02*
G75*
G02*
X17193000Y-6319000I-60000J0D01*
G01*
X17193000Y-6319000D02*
G75*
G02*
X17313000Y-6319000I60000J0D01*
G01*
X17701000Y-6259000D02*
X17821000Y-6379000D01*
X17821000Y-6259000D02*
X17701000Y-6379000D01*
X17821000Y-6319000D02*
G75*
G02*
X17701000Y-6319000I-60000J0D01*
G01*
X17701000Y-6319000D02*
G75*
G02*
X17821000Y-6319000I60000J0D01*
G01*
D14*
X14885000Y-7123000D02*
X15015000Y-7253000D01*
X15015000Y-7123000D02*
X14885000Y-7253000D01*
X14950000Y-7123000D02*
X14950000Y-7253000D01*
X14885000Y-7188000D02*
X15015000Y-7188000D01*
X14885000Y-8647000D02*
X15015000Y-8777000D01*
X15015000Y-8647000D02*
X14885000Y-8777000D01*
X14950000Y-8647000D02*
X14950000Y-8777000D01*
X14885000Y-8712000D02*
X15015000Y-8712000D01*
X15935000Y-7473000D02*
X16065000Y-7603000D01*
X16065000Y-7473000D02*
X15935000Y-7603000D01*
X16000000Y-7473000D02*
X16000000Y-7603000D01*
X15935000Y-7538000D02*
X16065000Y-7538000D01*
X15935000Y-8997000D02*
X16065000Y-9127000D01*
X16065000Y-8997000D02*
X15935000Y-9127000D01*
X16000000Y-8997000D02*
X16000000Y-9127000D01*
X15935000Y-9062000D02*
X16065000Y-9062000D01*
D15*
X6700000Y-6616000D02*
X6860000Y-6776000D01*
X6860000Y-6616000D02*
X6700000Y-6776000D01*
X6836569Y-6752569D02*
X6836569Y-6639431D01*
X6723431Y-6639431D01*
X6723431Y-6752569D01*
X6836569Y-6752569D01*
X6763500Y-5854000D02*
X6923500Y-6014000D01*
X6923500Y-5854000D02*
X6763500Y-6014000D01*
X6900069Y-5990569D02*
X6900069Y-5877431D01*
X6786931Y-5877431D01*
X6786931Y-5990569D01*
X6900069Y-5990569D01*
X17173000Y-5858000D02*
X17333000Y-6018000D01*
X17333000Y-5858000D02*
X17173000Y-6018000D01*
X17309569Y-5994569D02*
X17309569Y-5881431D01*
X17196431Y-5881431D01*
X17196431Y-5994569D01*
X17309569Y-5994569D01*
X17173000Y-6620000D02*
X17333000Y-6780000D01*
X17333000Y-6620000D02*
X17173000Y-6780000D01*
X17309569Y-6756569D02*
X17309569Y-6643431D01*
X17196431Y-6643431D01*
X17196431Y-6756569D01*
X17309569Y-6756569D01*
D11*
X5358277Y-12813984D02*
X5358277Y-12613984D01*
X5358277Y-12613984D02*
X5405896Y-12613984D01*
X5405896Y-12613984D02*
X5434467Y-12623508D01*
X5434467Y-12623508D02*
X5453515Y-12642555D01*
X5453515Y-12642555D02*
X5463039Y-12661603D01*
X5463039Y-12661603D02*
X5472563Y-12699698D01*
X5472563Y-12699698D02*
X5472563Y-12728269D01*
X5472563Y-12728269D02*
X5463039Y-12766365D01*
X5463039Y-12766365D02*
X5453515Y-12785412D01*
X5453515Y-12785412D02*
X5434467Y-12804460D01*
X5434467Y-12804460D02*
X5405896Y-12813984D01*
X5405896Y-12813984D02*
X5358277Y-12813984D01*
X5558277Y-12813984D02*
X5558277Y-12680650D01*
X5558277Y-12718746D02*
X5567801Y-12699698D01*
X5567801Y-12699698D02*
X5577324Y-12690174D01*
X5577324Y-12690174D02*
X5596372Y-12680650D01*
X5596372Y-12680650D02*
X5615420Y-12680650D01*
X5682086Y-12813984D02*
X5682086Y-12680650D01*
X5682086Y-12613984D02*
X5672562Y-12623508D01*
X5672562Y-12623508D02*
X5682086Y-12633031D01*
X5682086Y-12633031D02*
X5691610Y-12623508D01*
X5691610Y-12623508D02*
X5682086Y-12613984D01*
X5682086Y-12613984D02*
X5682086Y-12633031D01*
X5805896Y-12813984D02*
X5786848Y-12804460D01*
X5786848Y-12804460D02*
X5777324Y-12785412D01*
X5777324Y-12785412D02*
X5777324Y-12613984D01*
X5910658Y-12813984D02*
X5891610Y-12804460D01*
X5891610Y-12804460D02*
X5882086Y-12785412D01*
X5882086Y-12785412D02*
X5882086Y-12613984D01*
X6139229Y-12813984D02*
X6139229Y-12613984D01*
X6139229Y-12613984D02*
X6205896Y-12756841D01*
X6205896Y-12756841D02*
X6272562Y-12613984D01*
X6272562Y-12613984D02*
X6272562Y-12813984D01*
X6453515Y-12813984D02*
X6453515Y-12709222D01*
X6453515Y-12709222D02*
X6443991Y-12690174D01*
X6443991Y-12690174D02*
X6424943Y-12680650D01*
X6424943Y-12680650D02*
X6386848Y-12680650D01*
X6386848Y-12680650D02*
X6367801Y-12690174D01*
X6453515Y-12804460D02*
X6434467Y-12813984D01*
X6434467Y-12813984D02*
X6386848Y-12813984D01*
X6386848Y-12813984D02*
X6367801Y-12804460D01*
X6367801Y-12804460D02*
X6358277Y-12785412D01*
X6358277Y-12785412D02*
X6358277Y-12766365D01*
X6358277Y-12766365D02*
X6367801Y-12747317D01*
X6367801Y-12747317D02*
X6386848Y-12737793D01*
X6386848Y-12737793D02*
X6434467Y-12737793D01*
X6434467Y-12737793D02*
X6453515Y-12728269D01*
X6548753Y-12680650D02*
X6548753Y-12880650D01*
X6548753Y-12690174D02*
X6567801Y-12680650D01*
X6567801Y-12680650D02*
X6605896Y-12680650D01*
X6605896Y-12680650D02*
X6624943Y-12690174D01*
X6624943Y-12690174D02*
X6634467Y-12699698D01*
X6634467Y-12699698D02*
X6643991Y-12718746D01*
X6643991Y-12718746D02*
X6643991Y-12775888D01*
X6643991Y-12775888D02*
X6634467Y-12794936D01*
X6634467Y-12794936D02*
X6624943Y-12804460D01*
X6624943Y-12804460D02*
X6605896Y-12813984D01*
X6605896Y-12813984D02*
X6567801Y-12813984D01*
X6567801Y-12813984D02*
X6548753Y-12804460D01*
X6729705Y-12794936D02*
X6739229Y-12804460D01*
X6739229Y-12804460D02*
X6729705Y-12813984D01*
X6729705Y-12813984D02*
X6720182Y-12804460D01*
X6720182Y-12804460D02*
X6729705Y-12794936D01*
X6729705Y-12794936D02*
X6729705Y-12813984D01*
X6729705Y-12690174D02*
X6739229Y-12699698D01*
X6739229Y-12699698D02*
X6729705Y-12709222D01*
X6729705Y-12709222D02*
X6720182Y-12699698D01*
X6720182Y-12699698D02*
X6729705Y-12690174D01*
X6729705Y-12690174D02*
X6729705Y-12709222D01*
D12*
X5022500Y-13105000D02*
X5097500Y-13180000D01*
X5097500Y-13105000D02*
X5022500Y-13180000D01*
D11*
X5396372Y-13033984D02*
X5415420Y-13033984D01*
X5415420Y-13033984D02*
X5434467Y-13043508D01*
X5434467Y-13043508D02*
X5443991Y-13053031D01*
X5443991Y-13053031D02*
X5453515Y-13072079D01*
X5453515Y-13072079D02*
X5463039Y-13110174D01*
X5463039Y-13110174D02*
X5463039Y-13157793D01*
X5463039Y-13157793D02*
X5453515Y-13195888D01*
X5453515Y-13195888D02*
X5443991Y-13214936D01*
X5443991Y-13214936D02*
X5434467Y-13224460D01*
X5434467Y-13224460D02*
X5415420Y-13233984D01*
X5415420Y-13233984D02*
X5396372Y-13233984D01*
X5396372Y-13233984D02*
X5377324Y-13224460D01*
X5377324Y-13224460D02*
X5367801Y-13214936D01*
X5367801Y-13214936D02*
X5358277Y-13195888D01*
X5358277Y-13195888D02*
X5348753Y-13157793D01*
X5348753Y-13157793D02*
X5348753Y-13110174D01*
X5348753Y-13110174D02*
X5358277Y-13072079D01*
X5358277Y-13072079D02*
X5367801Y-13053031D01*
X5367801Y-13053031D02*
X5377324Y-13043508D01*
X5377324Y-13043508D02*
X5396372Y-13033984D01*
X5548753Y-13214936D02*
X5558277Y-13224460D01*
X5558277Y-13224460D02*
X5548753Y-13233984D01*
X5548753Y-13233984D02*
X5539229Y-13224460D01*
X5539229Y-13224460D02*
X5548753Y-13214936D01*
X5548753Y-13214936D02*
X5548753Y-13233984D01*
X5624943Y-13033984D02*
X5758277Y-13033984D01*
X5758277Y-13033984D02*
X5672562Y-13233984D01*
X5929705Y-13033984D02*
X5834467Y-13033984D01*
X5834467Y-13033984D02*
X5824943Y-13129222D01*
X5824943Y-13129222D02*
X5834467Y-13119698D01*
X5834467Y-13119698D02*
X5853515Y-13110174D01*
X5853515Y-13110174D02*
X5901134Y-13110174D01*
X5901134Y-13110174D02*
X5920182Y-13119698D01*
X5920182Y-13119698D02*
X5929705Y-13129222D01*
X5929705Y-13129222D02*
X5939229Y-13148269D01*
X5939229Y-13148269D02*
X5939229Y-13195888D01*
X5939229Y-13195888D02*
X5929705Y-13214936D01*
X5929705Y-13214936D02*
X5920182Y-13224460D01*
X5920182Y-13224460D02*
X5901134Y-13233984D01*
X5901134Y-13233984D02*
X5853515Y-13233984D01*
X5853515Y-13233984D02*
X5834467Y-13224460D01*
X5834467Y-13224460D02*
X5824943Y-13214936D01*
X6063039Y-13033984D02*
X6082086Y-13033984D01*
X6082086Y-13033984D02*
X6101134Y-13043508D01*
X6101134Y-13043508D02*
X6110658Y-13053031D01*
X6110658Y-13053031D02*
X6120182Y-13072079D01*
X6120182Y-13072079D02*
X6129705Y-13110174D01*
X6129705Y-13110174D02*
X6129705Y-13157793D01*
X6129705Y-13157793D02*
X6120182Y-13195888D01*
X6120182Y-13195888D02*
X6110658Y-13214936D01*
X6110658Y-13214936D02*
X6101134Y-13224460D01*
X6101134Y-13224460D02*
X6082086Y-13233984D01*
X6082086Y-13233984D02*
X6063039Y-13233984D01*
X6063039Y-13233984D02*
X6043991Y-13224460D01*
X6043991Y-13224460D02*
X6034467Y-13214936D01*
X6034467Y-13214936D02*
X6024943Y-13195888D01*
X6024943Y-13195888D02*
X6015420Y-13157793D01*
X6015420Y-13157793D02*
X6015420Y-13110174D01*
X6015420Y-13110174D02*
X6024943Y-13072079D01*
X6024943Y-13072079D02*
X6034467Y-13053031D01*
X6034467Y-13053031D02*
X6043991Y-13043508D01*
X6043991Y-13043508D02*
X6063039Y-13033984D01*
X6215420Y-13233984D02*
X6215420Y-13100650D01*
X6215420Y-13119698D02*
X6224943Y-13110174D01*
X6224943Y-13110174D02*
X6243991Y-13100650D01*
X6243991Y-13100650D02*
X6272563Y-13100650D01*
X6272563Y-13100650D02*
X6291610Y-13110174D01*
X6291610Y-13110174D02*
X6301134Y-13129222D01*
X6301134Y-13129222D02*
X6301134Y-13233984D01*
X6301134Y-13129222D02*
X6310658Y-13110174D01*
X6310658Y-13110174D02*
X6329705Y-13100650D01*
X6329705Y-13100650D02*
X6358277Y-13100650D01*
X6358277Y-13100650D02*
X6377324Y-13110174D01*
X6377324Y-13110174D02*
X6386848Y-13129222D01*
X6386848Y-13129222D02*
X6386848Y-13233984D01*
X6482086Y-13233984D02*
X6482086Y-13100650D01*
X6482086Y-13119698D02*
X6491610Y-13110174D01*
X6491610Y-13110174D02*
X6510658Y-13100650D01*
X6510658Y-13100650D02*
X6539229Y-13100650D01*
X6539229Y-13100650D02*
X6558277Y-13110174D01*
X6558277Y-13110174D02*
X6567801Y-13129222D01*
X6567801Y-13129222D02*
X6567801Y-13233984D01*
X6567801Y-13129222D02*
X6577324Y-13110174D01*
X6577324Y-13110174D02*
X6596372Y-13100650D01*
X6596372Y-13100650D02*
X6624943Y-13100650D01*
X6624943Y-13100650D02*
X6643991Y-13110174D01*
X6643991Y-13110174D02*
X6653515Y-13129222D01*
X6653515Y-13129222D02*
X6653515Y-13233984D01*
X7043991Y-13024460D02*
X6872563Y-13281603D01*
X7301134Y-13033984D02*
X7320182Y-13033984D01*
X7320182Y-13033984D02*
X7339229Y-13043508D01*
X7339229Y-13043508D02*
X7348753Y-13053031D01*
X7348753Y-13053031D02*
X7358277Y-13072079D01*
X7358277Y-13072079D02*
X7367801Y-13110174D01*
X7367801Y-13110174D02*
X7367801Y-13157793D01*
X7367801Y-13157793D02*
X7358277Y-13195888D01*
X7358277Y-13195888D02*
X7348753Y-13214936D01*
X7348753Y-13214936D02*
X7339229Y-13224460D01*
X7339229Y-13224460D02*
X7320182Y-13233984D01*
X7320182Y-13233984D02*
X7301134Y-13233984D01*
X7301134Y-13233984D02*
X7282086Y-13224460D01*
X7282086Y-13224460D02*
X7272563Y-13214936D01*
X7272563Y-13214936D02*
X7263039Y-13195888D01*
X7263039Y-13195888D02*
X7253515Y-13157793D01*
X7253515Y-13157793D02*
X7253515Y-13110174D01*
X7253515Y-13110174D02*
X7263039Y-13072079D01*
X7263039Y-13072079D02*
X7272563Y-13053031D01*
X7272563Y-13053031D02*
X7282086Y-13043508D01*
X7282086Y-13043508D02*
X7301134Y-13033984D01*
X7453515Y-13214936D02*
X7463039Y-13224460D01*
X7463039Y-13224460D02*
X7453515Y-13233984D01*
X7453515Y-13233984D02*
X7443991Y-13224460D01*
X7443991Y-13224460D02*
X7453515Y-13214936D01*
X7453515Y-13214936D02*
X7453515Y-13233984D01*
X7586848Y-13033984D02*
X7605896Y-13033984D01*
X7605896Y-13033984D02*
X7624944Y-13043508D01*
X7624944Y-13043508D02*
X7634467Y-13053031D01*
X7634467Y-13053031D02*
X7643991Y-13072079D01*
X7643991Y-13072079D02*
X7653515Y-13110174D01*
X7653515Y-13110174D02*
X7653515Y-13157793D01*
X7653515Y-13157793D02*
X7643991Y-13195888D01*
X7643991Y-13195888D02*
X7634467Y-13214936D01*
X7634467Y-13214936D02*
X7624944Y-13224460D01*
X7624944Y-13224460D02*
X7605896Y-13233984D01*
X7605896Y-13233984D02*
X7586848Y-13233984D01*
X7586848Y-13233984D02*
X7567801Y-13224460D01*
X7567801Y-13224460D02*
X7558277Y-13214936D01*
X7558277Y-13214936D02*
X7548753Y-13195888D01*
X7548753Y-13195888D02*
X7539229Y-13157793D01*
X7539229Y-13157793D02*
X7539229Y-13110174D01*
X7539229Y-13110174D02*
X7548753Y-13072079D01*
X7548753Y-13072079D02*
X7558277Y-13053031D01*
X7558277Y-13053031D02*
X7567801Y-13043508D01*
X7567801Y-13043508D02*
X7586848Y-13033984D01*
X7729706Y-13053031D02*
X7739229Y-13043508D01*
X7739229Y-13043508D02*
X7758277Y-13033984D01*
X7758277Y-13033984D02*
X7805896Y-13033984D01*
X7805896Y-13033984D02*
X7824944Y-13043508D01*
X7824944Y-13043508D02*
X7834467Y-13053031D01*
X7834467Y-13053031D02*
X7843991Y-13072079D01*
X7843991Y-13072079D02*
X7843991Y-13091127D01*
X7843991Y-13091127D02*
X7834467Y-13119698D01*
X7834467Y-13119698D02*
X7720182Y-13233984D01*
X7720182Y-13233984D02*
X7843991Y-13233984D01*
X7939229Y-13233984D02*
X7977325Y-13233984D01*
X7977325Y-13233984D02*
X7996372Y-13224460D01*
X7996372Y-13224460D02*
X8005896Y-13214936D01*
X8005896Y-13214936D02*
X8024944Y-13186365D01*
X8024944Y-13186365D02*
X8034467Y-13148269D01*
X8034467Y-13148269D02*
X8034467Y-13072079D01*
X8034467Y-13072079D02*
X8024944Y-13053031D01*
X8024944Y-13053031D02*
X8015420Y-13043508D01*
X8015420Y-13043508D02*
X7996372Y-13033984D01*
X7996372Y-13033984D02*
X7958277Y-13033984D01*
X7958277Y-13033984D02*
X7939229Y-13043508D01*
X7939229Y-13043508D02*
X7929706Y-13053031D01*
X7929706Y-13053031D02*
X7920182Y-13072079D01*
X7920182Y-13072079D02*
X7920182Y-13119698D01*
X7920182Y-13119698D02*
X7929706Y-13138746D01*
X7929706Y-13138746D02*
X7939229Y-13148269D01*
X7939229Y-13148269D02*
X7958277Y-13157793D01*
X7958277Y-13157793D02*
X7996372Y-13157793D01*
X7996372Y-13157793D02*
X8015420Y-13148269D01*
X8015420Y-13148269D02*
X8024944Y-13138746D01*
X8024944Y-13138746D02*
X8034467Y-13119698D01*
X8215420Y-13033984D02*
X8120182Y-13033984D01*
X8120182Y-13033984D02*
X8110658Y-13129222D01*
X8110658Y-13129222D02*
X8120182Y-13119698D01*
X8120182Y-13119698D02*
X8139229Y-13110174D01*
X8139229Y-13110174D02*
X8186848Y-13110174D01*
X8186848Y-13110174D02*
X8205896Y-13119698D01*
X8205896Y-13119698D02*
X8215420Y-13129222D01*
X8215420Y-13129222D02*
X8224944Y-13148269D01*
X8224944Y-13148269D02*
X8224944Y-13195888D01*
X8224944Y-13195888D02*
X8215420Y-13214936D01*
X8215420Y-13214936D02*
X8205896Y-13224460D01*
X8205896Y-13224460D02*
X8186848Y-13233984D01*
X8186848Y-13233984D02*
X8139229Y-13233984D01*
X8139229Y-13233984D02*
X8120182Y-13224460D01*
X8120182Y-13224460D02*
X8110658Y-13214936D01*
X8301134Y-13033984D02*
X8301134Y-13072079D01*
X8377325Y-13033984D02*
X8377325Y-13072079D01*
X8672563Y-13310174D02*
X8663039Y-13300650D01*
X8663039Y-13300650D02*
X8643991Y-13272079D01*
X8643991Y-13272079D02*
X8634468Y-13253031D01*
X8634468Y-13253031D02*
X8624944Y-13224460D01*
X8624944Y-13224460D02*
X8615420Y-13176841D01*
X8615420Y-13176841D02*
X8615420Y-13138746D01*
X8615420Y-13138746D02*
X8624944Y-13091127D01*
X8624944Y-13091127D02*
X8634468Y-13062555D01*
X8634468Y-13062555D02*
X8643991Y-13043508D01*
X8643991Y-13043508D02*
X8663039Y-13014936D01*
X8663039Y-13014936D02*
X8672563Y-13005412D01*
X8843991Y-13033984D02*
X8748753Y-13033984D01*
X8748753Y-13033984D02*
X8739230Y-13129222D01*
X8739230Y-13129222D02*
X8748753Y-13119698D01*
X8748753Y-13119698D02*
X8767801Y-13110174D01*
X8767801Y-13110174D02*
X8815420Y-13110174D01*
X8815420Y-13110174D02*
X8834468Y-13119698D01*
X8834468Y-13119698D02*
X8843991Y-13129222D01*
X8843991Y-13129222D02*
X8853515Y-13148269D01*
X8853515Y-13148269D02*
X8853515Y-13195888D01*
X8853515Y-13195888D02*
X8843991Y-13214936D01*
X8843991Y-13214936D02*
X8834468Y-13224460D01*
X8834468Y-13224460D02*
X8815420Y-13233984D01*
X8815420Y-13233984D02*
X8767801Y-13233984D01*
X8767801Y-13233984D02*
X8748753Y-13224460D01*
X8748753Y-13224460D02*
X8739230Y-13214936D01*
X9091611Y-13233984D02*
X9091611Y-13033984D01*
X9177325Y-13233984D02*
X9177325Y-13129222D01*
X9177325Y-13129222D02*
X9167801Y-13110174D01*
X9167801Y-13110174D02*
X9148753Y-13100650D01*
X9148753Y-13100650D02*
X9120182Y-13100650D01*
X9120182Y-13100650D02*
X9101134Y-13110174D01*
X9101134Y-13110174D02*
X9091611Y-13119698D01*
X9301134Y-13233984D02*
X9282087Y-13224460D01*
X9282087Y-13224460D02*
X9272563Y-13214936D01*
X9272563Y-13214936D02*
X9263039Y-13195888D01*
X9263039Y-13195888D02*
X9263039Y-13138746D01*
X9263039Y-13138746D02*
X9272563Y-13119698D01*
X9272563Y-13119698D02*
X9282087Y-13110174D01*
X9282087Y-13110174D02*
X9301134Y-13100650D01*
X9301134Y-13100650D02*
X9329706Y-13100650D01*
X9329706Y-13100650D02*
X9348753Y-13110174D01*
X9348753Y-13110174D02*
X9358277Y-13119698D01*
X9358277Y-13119698D02*
X9367801Y-13138746D01*
X9367801Y-13138746D02*
X9367801Y-13195888D01*
X9367801Y-13195888D02*
X9358277Y-13214936D01*
X9358277Y-13214936D02*
X9348753Y-13224460D01*
X9348753Y-13224460D02*
X9329706Y-13233984D01*
X9329706Y-13233984D02*
X9301134Y-13233984D01*
X9482087Y-13233984D02*
X9463039Y-13224460D01*
X9463039Y-13224460D02*
X9453515Y-13205412D01*
X9453515Y-13205412D02*
X9453515Y-13033984D01*
X9634468Y-13224460D02*
X9615420Y-13233984D01*
X9615420Y-13233984D02*
X9577325Y-13233984D01*
X9577325Y-13233984D02*
X9558277Y-13224460D01*
X9558277Y-13224460D02*
X9548753Y-13205412D01*
X9548753Y-13205412D02*
X9548753Y-13129222D01*
X9548753Y-13129222D02*
X9558277Y-13110174D01*
X9558277Y-13110174D02*
X9577325Y-13100650D01*
X9577325Y-13100650D02*
X9615420Y-13100650D01*
X9615420Y-13100650D02*
X9634468Y-13110174D01*
X9634468Y-13110174D02*
X9643992Y-13129222D01*
X9643992Y-13129222D02*
X9643992Y-13148269D01*
X9643992Y-13148269D02*
X9548753Y-13167317D01*
X9720182Y-13224460D02*
X9739230Y-13233984D01*
X9739230Y-13233984D02*
X9777325Y-13233984D01*
X9777325Y-13233984D02*
X9796373Y-13224460D01*
X9796373Y-13224460D02*
X9805896Y-13205412D01*
X9805896Y-13205412D02*
X9805896Y-13195888D01*
X9805896Y-13195888D02*
X9796373Y-13176841D01*
X9796373Y-13176841D02*
X9777325Y-13167317D01*
X9777325Y-13167317D02*
X9748753Y-13167317D01*
X9748753Y-13167317D02*
X9729706Y-13157793D01*
X9729706Y-13157793D02*
X9720182Y-13138746D01*
X9720182Y-13138746D02*
X9720182Y-13129222D01*
X9720182Y-13129222D02*
X9729706Y-13110174D01*
X9729706Y-13110174D02*
X9748753Y-13100650D01*
X9748753Y-13100650D02*
X9777325Y-13100650D01*
X9777325Y-13100650D02*
X9796373Y-13110174D01*
X9872563Y-13310174D02*
X9882087Y-13300650D01*
X9882087Y-13300650D02*
X9901134Y-13272079D01*
X9901134Y-13272079D02*
X9910658Y-13253031D01*
X9910658Y-13253031D02*
X9920182Y-13224460D01*
X9920182Y-13224460D02*
X9929706Y-13176841D01*
X9929706Y-13176841D02*
X9929706Y-13138746D01*
X9929706Y-13138746D02*
X9920182Y-13091127D01*
X9920182Y-13091127D02*
X9910658Y-13062555D01*
X9910658Y-13062555D02*
X9901134Y-13043508D01*
X9901134Y-13043508D02*
X9882087Y-13014936D01*
X9882087Y-13014936D02*
X9872563Y-13005412D01*
D12*
X5097500Y-13406500D02*
G75*
G02*
X5017500Y-13406500I-40000J0D01*
G01*
X5017500Y-13406500D02*
G75*
G02*
X5097500Y-13406500I40000J0D01*
G01*
D11*
X5396372Y-13297984D02*
X5415420Y-13297984D01*
X5415420Y-13297984D02*
X5434467Y-13307508D01*
X5434467Y-13307508D02*
X5443991Y-13317031D01*
X5443991Y-13317031D02*
X5453515Y-13336079D01*
X5453515Y-13336079D02*
X5463039Y-13374174D01*
X5463039Y-13374174D02*
X5463039Y-13421793D01*
X5463039Y-13421793D02*
X5453515Y-13459888D01*
X5453515Y-13459888D02*
X5443991Y-13478936D01*
X5443991Y-13478936D02*
X5434467Y-13488460D01*
X5434467Y-13488460D02*
X5415420Y-13497984D01*
X5415420Y-13497984D02*
X5396372Y-13497984D01*
X5396372Y-13497984D02*
X5377324Y-13488460D01*
X5377324Y-13488460D02*
X5367801Y-13478936D01*
X5367801Y-13478936D02*
X5358277Y-13459888D01*
X5358277Y-13459888D02*
X5348753Y-13421793D01*
X5348753Y-13421793D02*
X5348753Y-13374174D01*
X5348753Y-13374174D02*
X5358277Y-13336079D01*
X5358277Y-13336079D02*
X5367801Y-13317031D01*
X5367801Y-13317031D02*
X5377324Y-13307508D01*
X5377324Y-13307508D02*
X5396372Y-13297984D01*
X5548753Y-13478936D02*
X5558277Y-13488460D01*
X5558277Y-13488460D02*
X5548753Y-13497984D01*
X5548753Y-13497984D02*
X5539229Y-13488460D01*
X5539229Y-13488460D02*
X5548753Y-13478936D01*
X5548753Y-13478936D02*
X5548753Y-13497984D01*
X5672562Y-13383698D02*
X5653515Y-13374174D01*
X5653515Y-13374174D02*
X5643991Y-13364650D01*
X5643991Y-13364650D02*
X5634467Y-13345603D01*
X5634467Y-13345603D02*
X5634467Y-13336079D01*
X5634467Y-13336079D02*
X5643991Y-13317031D01*
X5643991Y-13317031D02*
X5653515Y-13307508D01*
X5653515Y-13307508D02*
X5672562Y-13297984D01*
X5672562Y-13297984D02*
X5710658Y-13297984D01*
X5710658Y-13297984D02*
X5729705Y-13307508D01*
X5729705Y-13307508D02*
X5739229Y-13317031D01*
X5739229Y-13317031D02*
X5748753Y-13336079D01*
X5748753Y-13336079D02*
X5748753Y-13345603D01*
X5748753Y-13345603D02*
X5739229Y-13364650D01*
X5739229Y-13364650D02*
X5729705Y-13374174D01*
X5729705Y-13374174D02*
X5710658Y-13383698D01*
X5710658Y-13383698D02*
X5672562Y-13383698D01*
X5672562Y-13383698D02*
X5653515Y-13393222D01*
X5653515Y-13393222D02*
X5643991Y-13402746D01*
X5643991Y-13402746D02*
X5634467Y-13421793D01*
X5634467Y-13421793D02*
X5634467Y-13459888D01*
X5634467Y-13459888D02*
X5643991Y-13478936D01*
X5643991Y-13478936D02*
X5653515Y-13488460D01*
X5653515Y-13488460D02*
X5672562Y-13497984D01*
X5672562Y-13497984D02*
X5710658Y-13497984D01*
X5710658Y-13497984D02*
X5729705Y-13488460D01*
X5729705Y-13488460D02*
X5739229Y-13478936D01*
X5739229Y-13478936D02*
X5748753Y-13459888D01*
X5748753Y-13459888D02*
X5748753Y-13421793D01*
X5748753Y-13421793D02*
X5739229Y-13402746D01*
X5739229Y-13402746D02*
X5729705Y-13393222D01*
X5729705Y-13393222D02*
X5710658Y-13383698D01*
X5872562Y-13297984D02*
X5891610Y-13297984D01*
X5891610Y-13297984D02*
X5910658Y-13307508D01*
X5910658Y-13307508D02*
X5920182Y-13317031D01*
X5920182Y-13317031D02*
X5929705Y-13336079D01*
X5929705Y-13336079D02*
X5939229Y-13374174D01*
X5939229Y-13374174D02*
X5939229Y-13421793D01*
X5939229Y-13421793D02*
X5929705Y-13459888D01*
X5929705Y-13459888D02*
X5920182Y-13478936D01*
X5920182Y-13478936D02*
X5910658Y-13488460D01*
X5910658Y-13488460D02*
X5891610Y-13497984D01*
X5891610Y-13497984D02*
X5872562Y-13497984D01*
X5872562Y-13497984D02*
X5853515Y-13488460D01*
X5853515Y-13488460D02*
X5843991Y-13478936D01*
X5843991Y-13478936D02*
X5834467Y-13459888D01*
X5834467Y-13459888D02*
X5824943Y-13421793D01*
X5824943Y-13421793D02*
X5824943Y-13374174D01*
X5824943Y-13374174D02*
X5834467Y-13336079D01*
X5834467Y-13336079D02*
X5843991Y-13317031D01*
X5843991Y-13317031D02*
X5853515Y-13307508D01*
X5853515Y-13307508D02*
X5872562Y-13297984D01*
X6063039Y-13297984D02*
X6082086Y-13297984D01*
X6082086Y-13297984D02*
X6101134Y-13307508D01*
X6101134Y-13307508D02*
X6110658Y-13317031D01*
X6110658Y-13317031D02*
X6120182Y-13336079D01*
X6120182Y-13336079D02*
X6129705Y-13374174D01*
X6129705Y-13374174D02*
X6129705Y-13421793D01*
X6129705Y-13421793D02*
X6120182Y-13459888D01*
X6120182Y-13459888D02*
X6110658Y-13478936D01*
X6110658Y-13478936D02*
X6101134Y-13488460D01*
X6101134Y-13488460D02*
X6082086Y-13497984D01*
X6082086Y-13497984D02*
X6063039Y-13497984D01*
X6063039Y-13497984D02*
X6043991Y-13488460D01*
X6043991Y-13488460D02*
X6034467Y-13478936D01*
X6034467Y-13478936D02*
X6024943Y-13459888D01*
X6024943Y-13459888D02*
X6015420Y-13421793D01*
X6015420Y-13421793D02*
X6015420Y-13374174D01*
X6015420Y-13374174D02*
X6024943Y-13336079D01*
X6024943Y-13336079D02*
X6034467Y-13317031D01*
X6034467Y-13317031D02*
X6043991Y-13307508D01*
X6043991Y-13307508D02*
X6063039Y-13297984D01*
X6215420Y-13497984D02*
X6215420Y-13364650D01*
X6215420Y-13383698D02*
X6224943Y-13374174D01*
X6224943Y-13374174D02*
X6243991Y-13364650D01*
X6243991Y-13364650D02*
X6272563Y-13364650D01*
X6272563Y-13364650D02*
X6291610Y-13374174D01*
X6291610Y-13374174D02*
X6301134Y-13393222D01*
X6301134Y-13393222D02*
X6301134Y-13497984D01*
X6301134Y-13393222D02*
X6310658Y-13374174D01*
X6310658Y-13374174D02*
X6329705Y-13364650D01*
X6329705Y-13364650D02*
X6358277Y-13364650D01*
X6358277Y-13364650D02*
X6377324Y-13374174D01*
X6377324Y-13374174D02*
X6386848Y-13393222D01*
X6386848Y-13393222D02*
X6386848Y-13497984D01*
X6482086Y-13497984D02*
X6482086Y-13364650D01*
X6482086Y-13383698D02*
X6491610Y-13374174D01*
X6491610Y-13374174D02*
X6510658Y-13364650D01*
X6510658Y-13364650D02*
X6539229Y-13364650D01*
X6539229Y-13364650D02*
X6558277Y-13374174D01*
X6558277Y-13374174D02*
X6567801Y-13393222D01*
X6567801Y-13393222D02*
X6567801Y-13497984D01*
X6567801Y-13393222D02*
X6577324Y-13374174D01*
X6577324Y-13374174D02*
X6596372Y-13364650D01*
X6596372Y-13364650D02*
X6624943Y-13364650D01*
X6624943Y-13364650D02*
X6643991Y-13374174D01*
X6643991Y-13374174D02*
X6653515Y-13393222D01*
X6653515Y-13393222D02*
X6653515Y-13497984D01*
X7043991Y-13288460D02*
X6872563Y-13545603D01*
X7301134Y-13297984D02*
X7320182Y-13297984D01*
X7320182Y-13297984D02*
X7339229Y-13307508D01*
X7339229Y-13307508D02*
X7348753Y-13317031D01*
X7348753Y-13317031D02*
X7358277Y-13336079D01*
X7358277Y-13336079D02*
X7367801Y-13374174D01*
X7367801Y-13374174D02*
X7367801Y-13421793D01*
X7367801Y-13421793D02*
X7358277Y-13459888D01*
X7358277Y-13459888D02*
X7348753Y-13478936D01*
X7348753Y-13478936D02*
X7339229Y-13488460D01*
X7339229Y-13488460D02*
X7320182Y-13497984D01*
X7320182Y-13497984D02*
X7301134Y-13497984D01*
X7301134Y-13497984D02*
X7282086Y-13488460D01*
X7282086Y-13488460D02*
X7272563Y-13478936D01*
X7272563Y-13478936D02*
X7263039Y-13459888D01*
X7263039Y-13459888D02*
X7253515Y-13421793D01*
X7253515Y-13421793D02*
X7253515Y-13374174D01*
X7253515Y-13374174D02*
X7263039Y-13336079D01*
X7263039Y-13336079D02*
X7272563Y-13317031D01*
X7272563Y-13317031D02*
X7282086Y-13307508D01*
X7282086Y-13307508D02*
X7301134Y-13297984D01*
X7453515Y-13478936D02*
X7463039Y-13488460D01*
X7463039Y-13488460D02*
X7453515Y-13497984D01*
X7453515Y-13497984D02*
X7443991Y-13488460D01*
X7443991Y-13488460D02*
X7453515Y-13478936D01*
X7453515Y-13478936D02*
X7453515Y-13497984D01*
X7586848Y-13297984D02*
X7605896Y-13297984D01*
X7605896Y-13297984D02*
X7624944Y-13307508D01*
X7624944Y-13307508D02*
X7634467Y-13317031D01*
X7634467Y-13317031D02*
X7643991Y-13336079D01*
X7643991Y-13336079D02*
X7653515Y-13374174D01*
X7653515Y-13374174D02*
X7653515Y-13421793D01*
X7653515Y-13421793D02*
X7643991Y-13459888D01*
X7643991Y-13459888D02*
X7634467Y-13478936D01*
X7634467Y-13478936D02*
X7624944Y-13488460D01*
X7624944Y-13488460D02*
X7605896Y-13497984D01*
X7605896Y-13497984D02*
X7586848Y-13497984D01*
X7586848Y-13497984D02*
X7567801Y-13488460D01*
X7567801Y-13488460D02*
X7558277Y-13478936D01*
X7558277Y-13478936D02*
X7548753Y-13459888D01*
X7548753Y-13459888D02*
X7539229Y-13421793D01*
X7539229Y-13421793D02*
X7539229Y-13374174D01*
X7539229Y-13374174D02*
X7548753Y-13336079D01*
X7548753Y-13336079D02*
X7558277Y-13317031D01*
X7558277Y-13317031D02*
X7567801Y-13307508D01*
X7567801Y-13307508D02*
X7586848Y-13297984D01*
X7720182Y-13297984D02*
X7843991Y-13297984D01*
X7843991Y-13297984D02*
X7777325Y-13374174D01*
X7777325Y-13374174D02*
X7805896Y-13374174D01*
X7805896Y-13374174D02*
X7824944Y-13383698D01*
X7824944Y-13383698D02*
X7834467Y-13393222D01*
X7834467Y-13393222D02*
X7843991Y-13412269D01*
X7843991Y-13412269D02*
X7843991Y-13459888D01*
X7843991Y-13459888D02*
X7834467Y-13478936D01*
X7834467Y-13478936D02*
X7824944Y-13488460D01*
X7824944Y-13488460D02*
X7805896Y-13497984D01*
X7805896Y-13497984D02*
X7748753Y-13497984D01*
X7748753Y-13497984D02*
X7729706Y-13488460D01*
X7729706Y-13488460D02*
X7720182Y-13478936D01*
X8034467Y-13497984D02*
X7920182Y-13497984D01*
X7977325Y-13497984D02*
X7977325Y-13297984D01*
X7977325Y-13297984D02*
X7958277Y-13326555D01*
X7958277Y-13326555D02*
X7939229Y-13345603D01*
X7939229Y-13345603D02*
X7920182Y-13355127D01*
X8215420Y-13297984D02*
X8120182Y-13297984D01*
X8120182Y-13297984D02*
X8110658Y-13393222D01*
X8110658Y-13393222D02*
X8120182Y-13383698D01*
X8120182Y-13383698D02*
X8139229Y-13374174D01*
X8139229Y-13374174D02*
X8186848Y-13374174D01*
X8186848Y-13374174D02*
X8205896Y-13383698D01*
X8205896Y-13383698D02*
X8215420Y-13393222D01*
X8215420Y-13393222D02*
X8224944Y-13412269D01*
X8224944Y-13412269D02*
X8224944Y-13459888D01*
X8224944Y-13459888D02*
X8215420Y-13478936D01*
X8215420Y-13478936D02*
X8205896Y-13488460D01*
X8205896Y-13488460D02*
X8186848Y-13497984D01*
X8186848Y-13497984D02*
X8139229Y-13497984D01*
X8139229Y-13497984D02*
X8120182Y-13488460D01*
X8120182Y-13488460D02*
X8110658Y-13478936D01*
X8301134Y-13297984D02*
X8301134Y-13336079D01*
X8377325Y-13297984D02*
X8377325Y-13336079D01*
X8672563Y-13574174D02*
X8663039Y-13564650D01*
X8663039Y-13564650D02*
X8643991Y-13536079D01*
X8643991Y-13536079D02*
X8634468Y-13517031D01*
X8634468Y-13517031D02*
X8624944Y-13488460D01*
X8624944Y-13488460D02*
X8615420Y-13440841D01*
X8615420Y-13440841D02*
X8615420Y-13402746D01*
X8615420Y-13402746D02*
X8624944Y-13355127D01*
X8624944Y-13355127D02*
X8634468Y-13326555D01*
X8634468Y-13326555D02*
X8643991Y-13307508D01*
X8643991Y-13307508D02*
X8663039Y-13278936D01*
X8663039Y-13278936D02*
X8672563Y-13269412D01*
X8853515Y-13497984D02*
X8739230Y-13497984D01*
X8796372Y-13497984D02*
X8796372Y-13297984D01*
X8796372Y-13297984D02*
X8777325Y-13326555D01*
X8777325Y-13326555D02*
X8758277Y-13345603D01*
X8758277Y-13345603D02*
X8739230Y-13355127D01*
X8967801Y-13383698D02*
X8948753Y-13374174D01*
X8948753Y-13374174D02*
X8939230Y-13364650D01*
X8939230Y-13364650D02*
X8929706Y-13345603D01*
X8929706Y-13345603D02*
X8929706Y-13336079D01*
X8929706Y-13336079D02*
X8939230Y-13317031D01*
X8939230Y-13317031D02*
X8948753Y-13307508D01*
X8948753Y-13307508D02*
X8967801Y-13297984D01*
X8967801Y-13297984D02*
X9005896Y-13297984D01*
X9005896Y-13297984D02*
X9024944Y-13307508D01*
X9024944Y-13307508D02*
X9034468Y-13317031D01*
X9034468Y-13317031D02*
X9043991Y-13336079D01*
X9043991Y-13336079D02*
X9043991Y-13345603D01*
X9043991Y-13345603D02*
X9034468Y-13364650D01*
X9034468Y-13364650D02*
X9024944Y-13374174D01*
X9024944Y-13374174D02*
X9005896Y-13383698D01*
X9005896Y-13383698D02*
X8967801Y-13383698D01*
X8967801Y-13383698D02*
X8948753Y-13393222D01*
X8948753Y-13393222D02*
X8939230Y-13402746D01*
X8939230Y-13402746D02*
X8929706Y-13421793D01*
X8929706Y-13421793D02*
X8929706Y-13459888D01*
X8929706Y-13459888D02*
X8939230Y-13478936D01*
X8939230Y-13478936D02*
X8948753Y-13488460D01*
X8948753Y-13488460D02*
X8967801Y-13497984D01*
X8967801Y-13497984D02*
X9005896Y-13497984D01*
X9005896Y-13497984D02*
X9024944Y-13488460D01*
X9024944Y-13488460D02*
X9034468Y-13478936D01*
X9034468Y-13478936D02*
X9043991Y-13459888D01*
X9043991Y-13459888D02*
X9043991Y-13421793D01*
X9043991Y-13421793D02*
X9034468Y-13402746D01*
X9034468Y-13402746D02*
X9024944Y-13393222D01*
X9024944Y-13393222D02*
X9005896Y-13383698D01*
X9282087Y-13497984D02*
X9282087Y-13297984D01*
X9367801Y-13497984D02*
X9367801Y-13393222D01*
X9367801Y-13393222D02*
X9358277Y-13374174D01*
X9358277Y-13374174D02*
X9339230Y-13364650D01*
X9339230Y-13364650D02*
X9310658Y-13364650D01*
X9310658Y-13364650D02*
X9291611Y-13374174D01*
X9291611Y-13374174D02*
X9282087Y-13383698D01*
X9491611Y-13497984D02*
X9472563Y-13488460D01*
X9472563Y-13488460D02*
X9463039Y-13478936D01*
X9463039Y-13478936D02*
X9453515Y-13459888D01*
X9453515Y-13459888D02*
X9453515Y-13402746D01*
X9453515Y-13402746D02*
X9463039Y-13383698D01*
X9463039Y-13383698D02*
X9472563Y-13374174D01*
X9472563Y-13374174D02*
X9491611Y-13364650D01*
X9491611Y-13364650D02*
X9520182Y-13364650D01*
X9520182Y-13364650D02*
X9539230Y-13374174D01*
X9539230Y-13374174D02*
X9548753Y-13383698D01*
X9548753Y-13383698D02*
X9558277Y-13402746D01*
X9558277Y-13402746D02*
X9558277Y-13459888D01*
X9558277Y-13459888D02*
X9548753Y-13478936D01*
X9548753Y-13478936D02*
X9539230Y-13488460D01*
X9539230Y-13488460D02*
X9520182Y-13497984D01*
X9520182Y-13497984D02*
X9491611Y-13497984D01*
X9672563Y-13497984D02*
X9653515Y-13488460D01*
X9653515Y-13488460D02*
X9643992Y-13469412D01*
X9643992Y-13469412D02*
X9643992Y-13297984D01*
X9824944Y-13488460D02*
X9805896Y-13497984D01*
X9805896Y-13497984D02*
X9767801Y-13497984D01*
X9767801Y-13497984D02*
X9748753Y-13488460D01*
X9748753Y-13488460D02*
X9739230Y-13469412D01*
X9739230Y-13469412D02*
X9739230Y-13393222D01*
X9739230Y-13393222D02*
X9748753Y-13374174D01*
X9748753Y-13374174D02*
X9767801Y-13364650D01*
X9767801Y-13364650D02*
X9805896Y-13364650D01*
X9805896Y-13364650D02*
X9824944Y-13374174D01*
X9824944Y-13374174D02*
X9834468Y-13393222D01*
X9834468Y-13393222D02*
X9834468Y-13412269D01*
X9834468Y-13412269D02*
X9739230Y-13431317D01*
X9910658Y-13488460D02*
X9929706Y-13497984D01*
X9929706Y-13497984D02*
X9967801Y-13497984D01*
X9967801Y-13497984D02*
X9986849Y-13488460D01*
X9986849Y-13488460D02*
X9996373Y-13469412D01*
X9996373Y-13469412D02*
X9996373Y-13459888D01*
X9996373Y-13459888D02*
X9986849Y-13440841D01*
X9986849Y-13440841D02*
X9967801Y-13431317D01*
X9967801Y-13431317D02*
X9939230Y-13431317D01*
X9939230Y-13431317D02*
X9920182Y-13421793D01*
X9920182Y-13421793D02*
X9910658Y-13402746D01*
X9910658Y-13402746D02*
X9910658Y-13393222D01*
X9910658Y-13393222D02*
X9920182Y-13374174D01*
X9920182Y-13374174D02*
X9939230Y-13364650D01*
X9939230Y-13364650D02*
X9967801Y-13364650D01*
X9967801Y-13364650D02*
X9986849Y-13374174D01*
X10063039Y-13574174D02*
X10072563Y-13564650D01*
X10072563Y-13564650D02*
X10091611Y-13536079D01*
X10091611Y-13536079D02*
X10101134Y-13517031D01*
X10101134Y-13517031D02*
X10110658Y-13488460D01*
X10110658Y-13488460D02*
X10120182Y-13440841D01*
X10120182Y-13440841D02*
X10120182Y-13402746D01*
X10120182Y-13402746D02*
X10110658Y-13355127D01*
X10110658Y-13355127D02*
X10101134Y-13326555D01*
X10101134Y-13326555D02*
X10091611Y-13307508D01*
X10091611Y-13307508D02*
X10072563Y-13278936D01*
X10072563Y-13278936D02*
X10063039Y-13269412D01*
D12*
X5053050Y-13626050D02*
X5053050Y-13714950D01*
X5008600Y-13670500D02*
X5097500Y-13670500D01*
D11*
X5396372Y-13561984D02*
X5415420Y-13561984D01*
X5415420Y-13561984D02*
X5434467Y-13571508D01*
X5434467Y-13571508D02*
X5443991Y-13581031D01*
X5443991Y-13581031D02*
X5453515Y-13600079D01*
X5453515Y-13600079D02*
X5463039Y-13638174D01*
X5463039Y-13638174D02*
X5463039Y-13685793D01*
X5463039Y-13685793D02*
X5453515Y-13723888D01*
X5453515Y-13723888D02*
X5443991Y-13742936D01*
X5443991Y-13742936D02*
X5434467Y-13752460D01*
X5434467Y-13752460D02*
X5415420Y-13761984D01*
X5415420Y-13761984D02*
X5396372Y-13761984D01*
X5396372Y-13761984D02*
X5377324Y-13752460D01*
X5377324Y-13752460D02*
X5367801Y-13742936D01*
X5367801Y-13742936D02*
X5358277Y-13723888D01*
X5358277Y-13723888D02*
X5348753Y-13685793D01*
X5348753Y-13685793D02*
X5348753Y-13638174D01*
X5348753Y-13638174D02*
X5358277Y-13600079D01*
X5358277Y-13600079D02*
X5367801Y-13581031D01*
X5367801Y-13581031D02*
X5377324Y-13571508D01*
X5377324Y-13571508D02*
X5396372Y-13561984D01*
X5548753Y-13742936D02*
X5558277Y-13752460D01*
X5558277Y-13752460D02*
X5548753Y-13761984D01*
X5548753Y-13761984D02*
X5539229Y-13752460D01*
X5539229Y-13752460D02*
X5548753Y-13742936D01*
X5548753Y-13742936D02*
X5548753Y-13761984D01*
X5672562Y-13647698D02*
X5653515Y-13638174D01*
X5653515Y-13638174D02*
X5643991Y-13628650D01*
X5643991Y-13628650D02*
X5634467Y-13609603D01*
X5634467Y-13609603D02*
X5634467Y-13600079D01*
X5634467Y-13600079D02*
X5643991Y-13581031D01*
X5643991Y-13581031D02*
X5653515Y-13571508D01*
X5653515Y-13571508D02*
X5672562Y-13561984D01*
X5672562Y-13561984D02*
X5710658Y-13561984D01*
X5710658Y-13561984D02*
X5729705Y-13571508D01*
X5729705Y-13571508D02*
X5739229Y-13581031D01*
X5739229Y-13581031D02*
X5748753Y-13600079D01*
X5748753Y-13600079D02*
X5748753Y-13609603D01*
X5748753Y-13609603D02*
X5739229Y-13628650D01*
X5739229Y-13628650D02*
X5729705Y-13638174D01*
X5729705Y-13638174D02*
X5710658Y-13647698D01*
X5710658Y-13647698D02*
X5672562Y-13647698D01*
X5672562Y-13647698D02*
X5653515Y-13657222D01*
X5653515Y-13657222D02*
X5643991Y-13666746D01*
X5643991Y-13666746D02*
X5634467Y-13685793D01*
X5634467Y-13685793D02*
X5634467Y-13723888D01*
X5634467Y-13723888D02*
X5643991Y-13742936D01*
X5643991Y-13742936D02*
X5653515Y-13752460D01*
X5653515Y-13752460D02*
X5672562Y-13761984D01*
X5672562Y-13761984D02*
X5710658Y-13761984D01*
X5710658Y-13761984D02*
X5729705Y-13752460D01*
X5729705Y-13752460D02*
X5739229Y-13742936D01*
X5739229Y-13742936D02*
X5748753Y-13723888D01*
X5748753Y-13723888D02*
X5748753Y-13685793D01*
X5748753Y-13685793D02*
X5739229Y-13666746D01*
X5739229Y-13666746D02*
X5729705Y-13657222D01*
X5729705Y-13657222D02*
X5710658Y-13647698D01*
X5863039Y-13647698D02*
X5843991Y-13638174D01*
X5843991Y-13638174D02*
X5834467Y-13628650D01*
X5834467Y-13628650D02*
X5824943Y-13609603D01*
X5824943Y-13609603D02*
X5824943Y-13600079D01*
X5824943Y-13600079D02*
X5834467Y-13581031D01*
X5834467Y-13581031D02*
X5843991Y-13571508D01*
X5843991Y-13571508D02*
X5863039Y-13561984D01*
X5863039Y-13561984D02*
X5901134Y-13561984D01*
X5901134Y-13561984D02*
X5920182Y-13571508D01*
X5920182Y-13571508D02*
X5929705Y-13581031D01*
X5929705Y-13581031D02*
X5939229Y-13600079D01*
X5939229Y-13600079D02*
X5939229Y-13609603D01*
X5939229Y-13609603D02*
X5929705Y-13628650D01*
X5929705Y-13628650D02*
X5920182Y-13638174D01*
X5920182Y-13638174D02*
X5901134Y-13647698D01*
X5901134Y-13647698D02*
X5863039Y-13647698D01*
X5863039Y-13647698D02*
X5843991Y-13657222D01*
X5843991Y-13657222D02*
X5834467Y-13666746D01*
X5834467Y-13666746D02*
X5824943Y-13685793D01*
X5824943Y-13685793D02*
X5824943Y-13723888D01*
X5824943Y-13723888D02*
X5834467Y-13742936D01*
X5834467Y-13742936D02*
X5843991Y-13752460D01*
X5843991Y-13752460D02*
X5863039Y-13761984D01*
X5863039Y-13761984D02*
X5901134Y-13761984D01*
X5901134Y-13761984D02*
X5920182Y-13752460D01*
X5920182Y-13752460D02*
X5929705Y-13742936D01*
X5929705Y-13742936D02*
X5939229Y-13723888D01*
X5939229Y-13723888D02*
X5939229Y-13685793D01*
X5939229Y-13685793D02*
X5929705Y-13666746D01*
X5929705Y-13666746D02*
X5920182Y-13657222D01*
X5920182Y-13657222D02*
X5901134Y-13647698D01*
X6034467Y-13761984D02*
X6072562Y-13761984D01*
X6072562Y-13761984D02*
X6091610Y-13752460D01*
X6091610Y-13752460D02*
X6101134Y-13742936D01*
X6101134Y-13742936D02*
X6120182Y-13714365D01*
X6120182Y-13714365D02*
X6129705Y-13676269D01*
X6129705Y-13676269D02*
X6129705Y-13600079D01*
X6129705Y-13600079D02*
X6120182Y-13581031D01*
X6120182Y-13581031D02*
X6110658Y-13571508D01*
X6110658Y-13571508D02*
X6091610Y-13561984D01*
X6091610Y-13561984D02*
X6053515Y-13561984D01*
X6053515Y-13561984D02*
X6034467Y-13571508D01*
X6034467Y-13571508D02*
X6024943Y-13581031D01*
X6024943Y-13581031D02*
X6015420Y-13600079D01*
X6015420Y-13600079D02*
X6015420Y-13647698D01*
X6015420Y-13647698D02*
X6024943Y-13666746D01*
X6024943Y-13666746D02*
X6034467Y-13676269D01*
X6034467Y-13676269D02*
X6053515Y-13685793D01*
X6053515Y-13685793D02*
X6091610Y-13685793D01*
X6091610Y-13685793D02*
X6110658Y-13676269D01*
X6110658Y-13676269D02*
X6120182Y-13666746D01*
X6120182Y-13666746D02*
X6129705Y-13647698D01*
X6215420Y-13761984D02*
X6215420Y-13628650D01*
X6215420Y-13647698D02*
X6224943Y-13638174D01*
X6224943Y-13638174D02*
X6243991Y-13628650D01*
X6243991Y-13628650D02*
X6272563Y-13628650D01*
X6272563Y-13628650D02*
X6291610Y-13638174D01*
X6291610Y-13638174D02*
X6301134Y-13657222D01*
X6301134Y-13657222D02*
X6301134Y-13761984D01*
X6301134Y-13657222D02*
X6310658Y-13638174D01*
X6310658Y-13638174D02*
X6329705Y-13628650D01*
X6329705Y-13628650D02*
X6358277Y-13628650D01*
X6358277Y-13628650D02*
X6377324Y-13638174D01*
X6377324Y-13638174D02*
X6386848Y-13657222D01*
X6386848Y-13657222D02*
X6386848Y-13761984D01*
X6482086Y-13761984D02*
X6482086Y-13628650D01*
X6482086Y-13647698D02*
X6491610Y-13638174D01*
X6491610Y-13638174D02*
X6510658Y-13628650D01*
X6510658Y-13628650D02*
X6539229Y-13628650D01*
X6539229Y-13628650D02*
X6558277Y-13638174D01*
X6558277Y-13638174D02*
X6567801Y-13657222D01*
X6567801Y-13657222D02*
X6567801Y-13761984D01*
X6567801Y-13657222D02*
X6577324Y-13638174D01*
X6577324Y-13638174D02*
X6596372Y-13628650D01*
X6596372Y-13628650D02*
X6624943Y-13628650D01*
X6624943Y-13628650D02*
X6643991Y-13638174D01*
X6643991Y-13638174D02*
X6653515Y-13657222D01*
X6653515Y-13657222D02*
X6653515Y-13761984D01*
X7043991Y-13552460D02*
X6872563Y-13809603D01*
X7301134Y-13561984D02*
X7320182Y-13561984D01*
X7320182Y-13561984D02*
X7339229Y-13571508D01*
X7339229Y-13571508D02*
X7348753Y-13581031D01*
X7348753Y-13581031D02*
X7358277Y-13600079D01*
X7358277Y-13600079D02*
X7367801Y-13638174D01*
X7367801Y-13638174D02*
X7367801Y-13685793D01*
X7367801Y-13685793D02*
X7358277Y-13723888D01*
X7358277Y-13723888D02*
X7348753Y-13742936D01*
X7348753Y-13742936D02*
X7339229Y-13752460D01*
X7339229Y-13752460D02*
X7320182Y-13761984D01*
X7320182Y-13761984D02*
X7301134Y-13761984D01*
X7301134Y-13761984D02*
X7282086Y-13752460D01*
X7282086Y-13752460D02*
X7272563Y-13742936D01*
X7272563Y-13742936D02*
X7263039Y-13723888D01*
X7263039Y-13723888D02*
X7253515Y-13685793D01*
X7253515Y-13685793D02*
X7253515Y-13638174D01*
X7253515Y-13638174D02*
X7263039Y-13600079D01*
X7263039Y-13600079D02*
X7272563Y-13581031D01*
X7272563Y-13581031D02*
X7282086Y-13571508D01*
X7282086Y-13571508D02*
X7301134Y-13561984D01*
X7453515Y-13742936D02*
X7463039Y-13752460D01*
X7463039Y-13752460D02*
X7453515Y-13761984D01*
X7453515Y-13761984D02*
X7443991Y-13752460D01*
X7443991Y-13752460D02*
X7453515Y-13742936D01*
X7453515Y-13742936D02*
X7453515Y-13761984D01*
X7586848Y-13561984D02*
X7605896Y-13561984D01*
X7605896Y-13561984D02*
X7624944Y-13571508D01*
X7624944Y-13571508D02*
X7634467Y-13581031D01*
X7634467Y-13581031D02*
X7643991Y-13600079D01*
X7643991Y-13600079D02*
X7653515Y-13638174D01*
X7653515Y-13638174D02*
X7653515Y-13685793D01*
X7653515Y-13685793D02*
X7643991Y-13723888D01*
X7643991Y-13723888D02*
X7634467Y-13742936D01*
X7634467Y-13742936D02*
X7624944Y-13752460D01*
X7624944Y-13752460D02*
X7605896Y-13761984D01*
X7605896Y-13761984D02*
X7586848Y-13761984D01*
X7586848Y-13761984D02*
X7567801Y-13752460D01*
X7567801Y-13752460D02*
X7558277Y-13742936D01*
X7558277Y-13742936D02*
X7548753Y-13723888D01*
X7548753Y-13723888D02*
X7539229Y-13685793D01*
X7539229Y-13685793D02*
X7539229Y-13638174D01*
X7539229Y-13638174D02*
X7548753Y-13600079D01*
X7548753Y-13600079D02*
X7558277Y-13581031D01*
X7558277Y-13581031D02*
X7567801Y-13571508D01*
X7567801Y-13571508D02*
X7586848Y-13561984D01*
X7720182Y-13561984D02*
X7843991Y-13561984D01*
X7843991Y-13561984D02*
X7777325Y-13638174D01*
X7777325Y-13638174D02*
X7805896Y-13638174D01*
X7805896Y-13638174D02*
X7824944Y-13647698D01*
X7824944Y-13647698D02*
X7834467Y-13657222D01*
X7834467Y-13657222D02*
X7843991Y-13676269D01*
X7843991Y-13676269D02*
X7843991Y-13723888D01*
X7843991Y-13723888D02*
X7834467Y-13742936D01*
X7834467Y-13742936D02*
X7824944Y-13752460D01*
X7824944Y-13752460D02*
X7805896Y-13761984D01*
X7805896Y-13761984D02*
X7748753Y-13761984D01*
X7748753Y-13761984D02*
X7729706Y-13752460D01*
X7729706Y-13752460D02*
X7720182Y-13742936D01*
X8024944Y-13561984D02*
X7929706Y-13561984D01*
X7929706Y-13561984D02*
X7920182Y-13657222D01*
X7920182Y-13657222D02*
X7929706Y-13647698D01*
X7929706Y-13647698D02*
X7948753Y-13638174D01*
X7948753Y-13638174D02*
X7996372Y-13638174D01*
X7996372Y-13638174D02*
X8015420Y-13647698D01*
X8015420Y-13647698D02*
X8024944Y-13657222D01*
X8024944Y-13657222D02*
X8034467Y-13676269D01*
X8034467Y-13676269D02*
X8034467Y-13723888D01*
X8034467Y-13723888D02*
X8024944Y-13742936D01*
X8024944Y-13742936D02*
X8015420Y-13752460D01*
X8015420Y-13752460D02*
X7996372Y-13761984D01*
X7996372Y-13761984D02*
X7948753Y-13761984D01*
X7948753Y-13761984D02*
X7929706Y-13752460D01*
X7929706Y-13752460D02*
X7920182Y-13742936D01*
X8158277Y-13561984D02*
X8177325Y-13561984D01*
X8177325Y-13561984D02*
X8196372Y-13571508D01*
X8196372Y-13571508D02*
X8205896Y-13581031D01*
X8205896Y-13581031D02*
X8215420Y-13600079D01*
X8215420Y-13600079D02*
X8224944Y-13638174D01*
X8224944Y-13638174D02*
X8224944Y-13685793D01*
X8224944Y-13685793D02*
X8215420Y-13723888D01*
X8215420Y-13723888D02*
X8205896Y-13742936D01*
X8205896Y-13742936D02*
X8196372Y-13752460D01*
X8196372Y-13752460D02*
X8177325Y-13761984D01*
X8177325Y-13761984D02*
X8158277Y-13761984D01*
X8158277Y-13761984D02*
X8139229Y-13752460D01*
X8139229Y-13752460D02*
X8129706Y-13742936D01*
X8129706Y-13742936D02*
X8120182Y-13723888D01*
X8120182Y-13723888D02*
X8110658Y-13685793D01*
X8110658Y-13685793D02*
X8110658Y-13638174D01*
X8110658Y-13638174D02*
X8120182Y-13600079D01*
X8120182Y-13600079D02*
X8129706Y-13581031D01*
X8129706Y-13581031D02*
X8139229Y-13571508D01*
X8139229Y-13571508D02*
X8158277Y-13561984D01*
X8301134Y-13561984D02*
X8301134Y-13600079D01*
X8377325Y-13561984D02*
X8377325Y-13600079D01*
X8672563Y-13838174D02*
X8663039Y-13828650D01*
X8663039Y-13828650D02*
X8643991Y-13800079D01*
X8643991Y-13800079D02*
X8634468Y-13781031D01*
X8634468Y-13781031D02*
X8624944Y-13752460D01*
X8624944Y-13752460D02*
X8615420Y-13704841D01*
X8615420Y-13704841D02*
X8615420Y-13666746D01*
X8615420Y-13666746D02*
X8624944Y-13619127D01*
X8624944Y-13619127D02*
X8634468Y-13590555D01*
X8634468Y-13590555D02*
X8643991Y-13571508D01*
X8643991Y-13571508D02*
X8663039Y-13542936D01*
X8663039Y-13542936D02*
X8672563Y-13533412D01*
X8853515Y-13761984D02*
X8739230Y-13761984D01*
X8796372Y-13761984D02*
X8796372Y-13561984D01*
X8796372Y-13561984D02*
X8777325Y-13590555D01*
X8777325Y-13590555D02*
X8758277Y-13609603D01*
X8758277Y-13609603D02*
X8739230Y-13619127D01*
X9024944Y-13628650D02*
X9024944Y-13761984D01*
X8977325Y-13552460D02*
X8929706Y-13695317D01*
X8929706Y-13695317D02*
X9053515Y-13695317D01*
X9282087Y-13761984D02*
X9282087Y-13561984D01*
X9367801Y-13761984D02*
X9367801Y-13657222D01*
X9367801Y-13657222D02*
X9358277Y-13638174D01*
X9358277Y-13638174D02*
X9339230Y-13628650D01*
X9339230Y-13628650D02*
X9310658Y-13628650D01*
X9310658Y-13628650D02*
X9291611Y-13638174D01*
X9291611Y-13638174D02*
X9282087Y-13647698D01*
X9491611Y-13761984D02*
X9472563Y-13752460D01*
X9472563Y-13752460D02*
X9463039Y-13742936D01*
X9463039Y-13742936D02*
X9453515Y-13723888D01*
X9453515Y-13723888D02*
X9453515Y-13666746D01*
X9453515Y-13666746D02*
X9463039Y-13647698D01*
X9463039Y-13647698D02*
X9472563Y-13638174D01*
X9472563Y-13638174D02*
X9491611Y-13628650D01*
X9491611Y-13628650D02*
X9520182Y-13628650D01*
X9520182Y-13628650D02*
X9539230Y-13638174D01*
X9539230Y-13638174D02*
X9548753Y-13647698D01*
X9548753Y-13647698D02*
X9558277Y-13666746D01*
X9558277Y-13666746D02*
X9558277Y-13723888D01*
X9558277Y-13723888D02*
X9548753Y-13742936D01*
X9548753Y-13742936D02*
X9539230Y-13752460D01*
X9539230Y-13752460D02*
X9520182Y-13761984D01*
X9520182Y-13761984D02*
X9491611Y-13761984D01*
X9672563Y-13761984D02*
X9653515Y-13752460D01*
X9653515Y-13752460D02*
X9643992Y-13733412D01*
X9643992Y-13733412D02*
X9643992Y-13561984D01*
X9824944Y-13752460D02*
X9805896Y-13761984D01*
X9805896Y-13761984D02*
X9767801Y-13761984D01*
X9767801Y-13761984D02*
X9748753Y-13752460D01*
X9748753Y-13752460D02*
X9739230Y-13733412D01*
X9739230Y-13733412D02*
X9739230Y-13657222D01*
X9739230Y-13657222D02*
X9748753Y-13638174D01*
X9748753Y-13638174D02*
X9767801Y-13628650D01*
X9767801Y-13628650D02*
X9805896Y-13628650D01*
X9805896Y-13628650D02*
X9824944Y-13638174D01*
X9824944Y-13638174D02*
X9834468Y-13657222D01*
X9834468Y-13657222D02*
X9834468Y-13676269D01*
X9834468Y-13676269D02*
X9739230Y-13695317D01*
X9910658Y-13752460D02*
X9929706Y-13761984D01*
X9929706Y-13761984D02*
X9967801Y-13761984D01*
X9967801Y-13761984D02*
X9986849Y-13752460D01*
X9986849Y-13752460D02*
X9996373Y-13733412D01*
X9996373Y-13733412D02*
X9996373Y-13723888D01*
X9996373Y-13723888D02*
X9986849Y-13704841D01*
X9986849Y-13704841D02*
X9967801Y-13695317D01*
X9967801Y-13695317D02*
X9939230Y-13695317D01*
X9939230Y-13695317D02*
X9920182Y-13685793D01*
X9920182Y-13685793D02*
X9910658Y-13666746D01*
X9910658Y-13666746D02*
X9910658Y-13657222D01*
X9910658Y-13657222D02*
X9920182Y-13638174D01*
X9920182Y-13638174D02*
X9939230Y-13628650D01*
X9939230Y-13628650D02*
X9967801Y-13628650D01*
X9967801Y-13628650D02*
X9986849Y-13638174D01*
X10063039Y-13838174D02*
X10072563Y-13828650D01*
X10072563Y-13828650D02*
X10091611Y-13800079D01*
X10091611Y-13800079D02*
X10101134Y-13781031D01*
X10101134Y-13781031D02*
X10110658Y-13752460D01*
X10110658Y-13752460D02*
X10120182Y-13704841D01*
X10120182Y-13704841D02*
X10120182Y-13666746D01*
X10120182Y-13666746D02*
X10110658Y-13619127D01*
X10110658Y-13619127D02*
X10101134Y-13590555D01*
X10101134Y-13590555D02*
X10091611Y-13571508D01*
X10091611Y-13571508D02*
X10072563Y-13542936D01*
X10072563Y-13542936D02*
X10063039Y-13533412D01*
D12*
X5082856Y-13969856D02*
X5082856Y-13899144D01*
X5012144Y-13899144D01*
X5012144Y-13969856D01*
X5082856Y-13969856D01*
D11*
X5463039Y-14025984D02*
X5348753Y-14025984D01*
X5405896Y-14025984D02*
X5405896Y-13825984D01*
X5405896Y-13825984D02*
X5386848Y-13854555D01*
X5386848Y-13854555D02*
X5367801Y-13873603D01*
X5367801Y-13873603D02*
X5348753Y-13883127D01*
X5548753Y-14006936D02*
X5558277Y-14016460D01*
X5558277Y-14016460D02*
X5548753Y-14025984D01*
X5548753Y-14025984D02*
X5539229Y-14016460D01*
X5539229Y-14016460D02*
X5548753Y-14006936D01*
X5548753Y-14006936D02*
X5548753Y-14025984D01*
X5682086Y-13825984D02*
X5701134Y-13825984D01*
X5701134Y-13825984D02*
X5720182Y-13835508D01*
X5720182Y-13835508D02*
X5729705Y-13845031D01*
X5729705Y-13845031D02*
X5739229Y-13864079D01*
X5739229Y-13864079D02*
X5748753Y-13902174D01*
X5748753Y-13902174D02*
X5748753Y-13949793D01*
X5748753Y-13949793D02*
X5739229Y-13987888D01*
X5739229Y-13987888D02*
X5729705Y-14006936D01*
X5729705Y-14006936D02*
X5720182Y-14016460D01*
X5720182Y-14016460D02*
X5701134Y-14025984D01*
X5701134Y-14025984D02*
X5682086Y-14025984D01*
X5682086Y-14025984D02*
X5663039Y-14016460D01*
X5663039Y-14016460D02*
X5653515Y-14006936D01*
X5653515Y-14006936D02*
X5643991Y-13987888D01*
X5643991Y-13987888D02*
X5634467Y-13949793D01*
X5634467Y-13949793D02*
X5634467Y-13902174D01*
X5634467Y-13902174D02*
X5643991Y-13864079D01*
X5643991Y-13864079D02*
X5653515Y-13845031D01*
X5653515Y-13845031D02*
X5663039Y-13835508D01*
X5663039Y-13835508D02*
X5682086Y-13825984D01*
X5872562Y-13825984D02*
X5891610Y-13825984D01*
X5891610Y-13825984D02*
X5910658Y-13835508D01*
X5910658Y-13835508D02*
X5920182Y-13845031D01*
X5920182Y-13845031D02*
X5929705Y-13864079D01*
X5929705Y-13864079D02*
X5939229Y-13902174D01*
X5939229Y-13902174D02*
X5939229Y-13949793D01*
X5939229Y-13949793D02*
X5929705Y-13987888D01*
X5929705Y-13987888D02*
X5920182Y-14006936D01*
X5920182Y-14006936D02*
X5910658Y-14016460D01*
X5910658Y-14016460D02*
X5891610Y-14025984D01*
X5891610Y-14025984D02*
X5872562Y-14025984D01*
X5872562Y-14025984D02*
X5853515Y-14016460D01*
X5853515Y-14016460D02*
X5843991Y-14006936D01*
X5843991Y-14006936D02*
X5834467Y-13987888D01*
X5834467Y-13987888D02*
X5824943Y-13949793D01*
X5824943Y-13949793D02*
X5824943Y-13902174D01*
X5824943Y-13902174D02*
X5834467Y-13864079D01*
X5834467Y-13864079D02*
X5843991Y-13845031D01*
X5843991Y-13845031D02*
X5853515Y-13835508D01*
X5853515Y-13835508D02*
X5872562Y-13825984D01*
X6063039Y-13825984D02*
X6082086Y-13825984D01*
X6082086Y-13825984D02*
X6101134Y-13835508D01*
X6101134Y-13835508D02*
X6110658Y-13845031D01*
X6110658Y-13845031D02*
X6120182Y-13864079D01*
X6120182Y-13864079D02*
X6129705Y-13902174D01*
X6129705Y-13902174D02*
X6129705Y-13949793D01*
X6129705Y-13949793D02*
X6120182Y-13987888D01*
X6120182Y-13987888D02*
X6110658Y-14006936D01*
X6110658Y-14006936D02*
X6101134Y-14016460D01*
X6101134Y-14016460D02*
X6082086Y-14025984D01*
X6082086Y-14025984D02*
X6063039Y-14025984D01*
X6063039Y-14025984D02*
X6043991Y-14016460D01*
X6043991Y-14016460D02*
X6034467Y-14006936D01*
X6034467Y-14006936D02*
X6024943Y-13987888D01*
X6024943Y-13987888D02*
X6015420Y-13949793D01*
X6015420Y-13949793D02*
X6015420Y-13902174D01*
X6015420Y-13902174D02*
X6024943Y-13864079D01*
X6024943Y-13864079D02*
X6034467Y-13845031D01*
X6034467Y-13845031D02*
X6043991Y-13835508D01*
X6043991Y-13835508D02*
X6063039Y-13825984D01*
X6215420Y-14025984D02*
X6215420Y-13892650D01*
X6215420Y-13911698D02*
X6224943Y-13902174D01*
X6224943Y-13902174D02*
X6243991Y-13892650D01*
X6243991Y-13892650D02*
X6272563Y-13892650D01*
X6272563Y-13892650D02*
X6291610Y-13902174D01*
X6291610Y-13902174D02*
X6301134Y-13921222D01*
X6301134Y-13921222D02*
X6301134Y-14025984D01*
X6301134Y-13921222D02*
X6310658Y-13902174D01*
X6310658Y-13902174D02*
X6329705Y-13892650D01*
X6329705Y-13892650D02*
X6358277Y-13892650D01*
X6358277Y-13892650D02*
X6377324Y-13902174D01*
X6377324Y-13902174D02*
X6386848Y-13921222D01*
X6386848Y-13921222D02*
X6386848Y-14025984D01*
X6482086Y-14025984D02*
X6482086Y-13892650D01*
X6482086Y-13911698D02*
X6491610Y-13902174D01*
X6491610Y-13902174D02*
X6510658Y-13892650D01*
X6510658Y-13892650D02*
X6539229Y-13892650D01*
X6539229Y-13892650D02*
X6558277Y-13902174D01*
X6558277Y-13902174D02*
X6567801Y-13921222D01*
X6567801Y-13921222D02*
X6567801Y-14025984D01*
X6567801Y-13921222D02*
X6577324Y-13902174D01*
X6577324Y-13902174D02*
X6596372Y-13892650D01*
X6596372Y-13892650D02*
X6624943Y-13892650D01*
X6624943Y-13892650D02*
X6643991Y-13902174D01*
X6643991Y-13902174D02*
X6653515Y-13921222D01*
X6653515Y-13921222D02*
X6653515Y-14025984D01*
X7043991Y-13816460D02*
X6872563Y-14073603D01*
X7301134Y-13825984D02*
X7320182Y-13825984D01*
X7320182Y-13825984D02*
X7339229Y-13835508D01*
X7339229Y-13835508D02*
X7348753Y-13845031D01*
X7348753Y-13845031D02*
X7358277Y-13864079D01*
X7358277Y-13864079D02*
X7367801Y-13902174D01*
X7367801Y-13902174D02*
X7367801Y-13949793D01*
X7367801Y-13949793D02*
X7358277Y-13987888D01*
X7358277Y-13987888D02*
X7348753Y-14006936D01*
X7348753Y-14006936D02*
X7339229Y-14016460D01*
X7339229Y-14016460D02*
X7320182Y-14025984D01*
X7320182Y-14025984D02*
X7301134Y-14025984D01*
X7301134Y-14025984D02*
X7282086Y-14016460D01*
X7282086Y-14016460D02*
X7272563Y-14006936D01*
X7272563Y-14006936D02*
X7263039Y-13987888D01*
X7263039Y-13987888D02*
X7253515Y-13949793D01*
X7253515Y-13949793D02*
X7253515Y-13902174D01*
X7253515Y-13902174D02*
X7263039Y-13864079D01*
X7263039Y-13864079D02*
X7272563Y-13845031D01*
X7272563Y-13845031D02*
X7282086Y-13835508D01*
X7282086Y-13835508D02*
X7301134Y-13825984D01*
X7453515Y-14006936D02*
X7463039Y-14016460D01*
X7463039Y-14016460D02*
X7453515Y-14025984D01*
X7453515Y-14025984D02*
X7443991Y-14016460D01*
X7443991Y-14016460D02*
X7453515Y-14006936D01*
X7453515Y-14006936D02*
X7453515Y-14025984D01*
X7586848Y-13825984D02*
X7605896Y-13825984D01*
X7605896Y-13825984D02*
X7624944Y-13835508D01*
X7624944Y-13835508D02*
X7634467Y-13845031D01*
X7634467Y-13845031D02*
X7643991Y-13864079D01*
X7643991Y-13864079D02*
X7653515Y-13902174D01*
X7653515Y-13902174D02*
X7653515Y-13949793D01*
X7653515Y-13949793D02*
X7643991Y-13987888D01*
X7643991Y-13987888D02*
X7634467Y-14006936D01*
X7634467Y-14006936D02*
X7624944Y-14016460D01*
X7624944Y-14016460D02*
X7605896Y-14025984D01*
X7605896Y-14025984D02*
X7586848Y-14025984D01*
X7586848Y-14025984D02*
X7567801Y-14016460D01*
X7567801Y-14016460D02*
X7558277Y-14006936D01*
X7558277Y-14006936D02*
X7548753Y-13987888D01*
X7548753Y-13987888D02*
X7539229Y-13949793D01*
X7539229Y-13949793D02*
X7539229Y-13902174D01*
X7539229Y-13902174D02*
X7548753Y-13864079D01*
X7548753Y-13864079D02*
X7558277Y-13845031D01*
X7558277Y-13845031D02*
X7567801Y-13835508D01*
X7567801Y-13835508D02*
X7586848Y-13825984D01*
X7720182Y-13825984D02*
X7843991Y-13825984D01*
X7843991Y-13825984D02*
X7777325Y-13902174D01*
X7777325Y-13902174D02*
X7805896Y-13902174D01*
X7805896Y-13902174D02*
X7824944Y-13911698D01*
X7824944Y-13911698D02*
X7834467Y-13921222D01*
X7834467Y-13921222D02*
X7843991Y-13940269D01*
X7843991Y-13940269D02*
X7843991Y-13987888D01*
X7843991Y-13987888D02*
X7834467Y-14006936D01*
X7834467Y-14006936D02*
X7824944Y-14016460D01*
X7824944Y-14016460D02*
X7805896Y-14025984D01*
X7805896Y-14025984D02*
X7748753Y-14025984D01*
X7748753Y-14025984D02*
X7729706Y-14016460D01*
X7729706Y-14016460D02*
X7720182Y-14006936D01*
X7939229Y-14025984D02*
X7977325Y-14025984D01*
X7977325Y-14025984D02*
X7996372Y-14016460D01*
X7996372Y-14016460D02*
X8005896Y-14006936D01*
X8005896Y-14006936D02*
X8024944Y-13978365D01*
X8024944Y-13978365D02*
X8034467Y-13940269D01*
X8034467Y-13940269D02*
X8034467Y-13864079D01*
X8034467Y-13864079D02*
X8024944Y-13845031D01*
X8024944Y-13845031D02*
X8015420Y-13835508D01*
X8015420Y-13835508D02*
X7996372Y-13825984D01*
X7996372Y-13825984D02*
X7958277Y-13825984D01*
X7958277Y-13825984D02*
X7939229Y-13835508D01*
X7939229Y-13835508D02*
X7929706Y-13845031D01*
X7929706Y-13845031D02*
X7920182Y-13864079D01*
X7920182Y-13864079D02*
X7920182Y-13911698D01*
X7920182Y-13911698D02*
X7929706Y-13930746D01*
X7929706Y-13930746D02*
X7939229Y-13940269D01*
X7939229Y-13940269D02*
X7958277Y-13949793D01*
X7958277Y-13949793D02*
X7996372Y-13949793D01*
X7996372Y-13949793D02*
X8015420Y-13940269D01*
X8015420Y-13940269D02*
X8024944Y-13930746D01*
X8024944Y-13930746D02*
X8034467Y-13911698D01*
X8205896Y-13892650D02*
X8205896Y-14025984D01*
X8158277Y-13816460D02*
X8110658Y-13959317D01*
X8110658Y-13959317D02*
X8234467Y-13959317D01*
X8301134Y-13825984D02*
X8301134Y-13864079D01*
X8377325Y-13825984D02*
X8377325Y-13864079D01*
X8672563Y-14102174D02*
X8663039Y-14092650D01*
X8663039Y-14092650D02*
X8643991Y-14064079D01*
X8643991Y-14064079D02*
X8634468Y-14045031D01*
X8634468Y-14045031D02*
X8624944Y-14016460D01*
X8624944Y-14016460D02*
X8615420Y-13968841D01*
X8615420Y-13968841D02*
X8615420Y-13930746D01*
X8615420Y-13930746D02*
X8624944Y-13883127D01*
X8624944Y-13883127D02*
X8634468Y-13854555D01*
X8634468Y-13854555D02*
X8643991Y-13835508D01*
X8643991Y-13835508D02*
X8663039Y-13806936D01*
X8663039Y-13806936D02*
X8672563Y-13797412D01*
X8853515Y-14025984D02*
X8739230Y-14025984D01*
X8796372Y-14025984D02*
X8796372Y-13825984D01*
X8796372Y-13825984D02*
X8777325Y-13854555D01*
X8777325Y-13854555D02*
X8758277Y-13873603D01*
X8758277Y-13873603D02*
X8739230Y-13883127D01*
X9091611Y-14025984D02*
X9091611Y-13825984D01*
X9177325Y-14025984D02*
X9177325Y-13921222D01*
X9177325Y-13921222D02*
X9167801Y-13902174D01*
X9167801Y-13902174D02*
X9148753Y-13892650D01*
X9148753Y-13892650D02*
X9120182Y-13892650D01*
X9120182Y-13892650D02*
X9101134Y-13902174D01*
X9101134Y-13902174D02*
X9091611Y-13911698D01*
X9301134Y-14025984D02*
X9282087Y-14016460D01*
X9282087Y-14016460D02*
X9272563Y-14006936D01*
X9272563Y-14006936D02*
X9263039Y-13987888D01*
X9263039Y-13987888D02*
X9263039Y-13930746D01*
X9263039Y-13930746D02*
X9272563Y-13911698D01*
X9272563Y-13911698D02*
X9282087Y-13902174D01*
X9282087Y-13902174D02*
X9301134Y-13892650D01*
X9301134Y-13892650D02*
X9329706Y-13892650D01*
X9329706Y-13892650D02*
X9348753Y-13902174D01*
X9348753Y-13902174D02*
X9358277Y-13911698D01*
X9358277Y-13911698D02*
X9367801Y-13930746D01*
X9367801Y-13930746D02*
X9367801Y-13987888D01*
X9367801Y-13987888D02*
X9358277Y-14006936D01*
X9358277Y-14006936D02*
X9348753Y-14016460D01*
X9348753Y-14016460D02*
X9329706Y-14025984D01*
X9329706Y-14025984D02*
X9301134Y-14025984D01*
X9482087Y-14025984D02*
X9463039Y-14016460D01*
X9463039Y-14016460D02*
X9453515Y-13997412D01*
X9453515Y-13997412D02*
X9453515Y-13825984D01*
X9634468Y-14016460D02*
X9615420Y-14025984D01*
X9615420Y-14025984D02*
X9577325Y-14025984D01*
X9577325Y-14025984D02*
X9558277Y-14016460D01*
X9558277Y-14016460D02*
X9548753Y-13997412D01*
X9548753Y-13997412D02*
X9548753Y-13921222D01*
X9548753Y-13921222D02*
X9558277Y-13902174D01*
X9558277Y-13902174D02*
X9577325Y-13892650D01*
X9577325Y-13892650D02*
X9615420Y-13892650D01*
X9615420Y-13892650D02*
X9634468Y-13902174D01*
X9634468Y-13902174D02*
X9643992Y-13921222D01*
X9643992Y-13921222D02*
X9643992Y-13940269D01*
X9643992Y-13940269D02*
X9548753Y-13959317D01*
X9710658Y-14102174D02*
X9720182Y-14092650D01*
X9720182Y-14092650D02*
X9739230Y-14064079D01*
X9739230Y-14064079D02*
X9748753Y-14045031D01*
X9748753Y-14045031D02*
X9758277Y-14016460D01*
X9758277Y-14016460D02*
X9767801Y-13968841D01*
X9767801Y-13968841D02*
X9767801Y-13930746D01*
X9767801Y-13930746D02*
X9758277Y-13883127D01*
X9758277Y-13883127D02*
X9748753Y-13854555D01*
X9748753Y-13854555D02*
X9739230Y-13835508D01*
X9739230Y-13835508D02*
X9720182Y-13806936D01*
X9720182Y-13806936D02*
X9710658Y-13797412D01*
D12*
X5047500Y-14248500D02*
X5097500Y-14198500D01*
X5047500Y-14148500D01*
X4997500Y-14198500D01*
X5047500Y-14248500D01*
D11*
X5463039Y-14289984D02*
X5348753Y-14289984D01*
X5405896Y-14289984D02*
X5405896Y-14089984D01*
X5405896Y-14089984D02*
X5386848Y-14118555D01*
X5386848Y-14118555D02*
X5367801Y-14137603D01*
X5367801Y-14137603D02*
X5348753Y-14147127D01*
X5548753Y-14270936D02*
X5558277Y-14280460D01*
X5558277Y-14280460D02*
X5548753Y-14289984D01*
X5548753Y-14289984D02*
X5539229Y-14280460D01*
X5539229Y-14280460D02*
X5548753Y-14270936D01*
X5548753Y-14270936D02*
X5548753Y-14289984D01*
X5682086Y-14089984D02*
X5701134Y-14089984D01*
X5701134Y-14089984D02*
X5720182Y-14099508D01*
X5720182Y-14099508D02*
X5729705Y-14109031D01*
X5729705Y-14109031D02*
X5739229Y-14128079D01*
X5739229Y-14128079D02*
X5748753Y-14166174D01*
X5748753Y-14166174D02*
X5748753Y-14213793D01*
X5748753Y-14213793D02*
X5739229Y-14251888D01*
X5739229Y-14251888D02*
X5729705Y-14270936D01*
X5729705Y-14270936D02*
X5720182Y-14280460D01*
X5720182Y-14280460D02*
X5701134Y-14289984D01*
X5701134Y-14289984D02*
X5682086Y-14289984D01*
X5682086Y-14289984D02*
X5663039Y-14280460D01*
X5663039Y-14280460D02*
X5653515Y-14270936D01*
X5653515Y-14270936D02*
X5643991Y-14251888D01*
X5643991Y-14251888D02*
X5634467Y-14213793D01*
X5634467Y-14213793D02*
X5634467Y-14166174D01*
X5634467Y-14166174D02*
X5643991Y-14128079D01*
X5643991Y-14128079D02*
X5653515Y-14109031D01*
X5653515Y-14109031D02*
X5663039Y-14099508D01*
X5663039Y-14099508D02*
X5682086Y-14089984D01*
X5872562Y-14089984D02*
X5891610Y-14089984D01*
X5891610Y-14089984D02*
X5910658Y-14099508D01*
X5910658Y-14099508D02*
X5920182Y-14109031D01*
X5920182Y-14109031D02*
X5929705Y-14128079D01*
X5929705Y-14128079D02*
X5939229Y-14166174D01*
X5939229Y-14166174D02*
X5939229Y-14213793D01*
X5939229Y-14213793D02*
X5929705Y-14251888D01*
X5929705Y-14251888D02*
X5920182Y-14270936D01*
X5920182Y-14270936D02*
X5910658Y-14280460D01*
X5910658Y-14280460D02*
X5891610Y-14289984D01*
X5891610Y-14289984D02*
X5872562Y-14289984D01*
X5872562Y-14289984D02*
X5853515Y-14280460D01*
X5853515Y-14280460D02*
X5843991Y-14270936D01*
X5843991Y-14270936D02*
X5834467Y-14251888D01*
X5834467Y-14251888D02*
X5824943Y-14213793D01*
X5824943Y-14213793D02*
X5824943Y-14166174D01*
X5824943Y-14166174D02*
X5834467Y-14128079D01*
X5834467Y-14128079D02*
X5843991Y-14109031D01*
X5843991Y-14109031D02*
X5853515Y-14099508D01*
X5853515Y-14099508D02*
X5872562Y-14089984D01*
X6063039Y-14089984D02*
X6082086Y-14089984D01*
X6082086Y-14089984D02*
X6101134Y-14099508D01*
X6101134Y-14099508D02*
X6110658Y-14109031D01*
X6110658Y-14109031D02*
X6120182Y-14128079D01*
X6120182Y-14128079D02*
X6129705Y-14166174D01*
X6129705Y-14166174D02*
X6129705Y-14213793D01*
X6129705Y-14213793D02*
X6120182Y-14251888D01*
X6120182Y-14251888D02*
X6110658Y-14270936D01*
X6110658Y-14270936D02*
X6101134Y-14280460D01*
X6101134Y-14280460D02*
X6082086Y-14289984D01*
X6082086Y-14289984D02*
X6063039Y-14289984D01*
X6063039Y-14289984D02*
X6043991Y-14280460D01*
X6043991Y-14280460D02*
X6034467Y-14270936D01*
X6034467Y-14270936D02*
X6024943Y-14251888D01*
X6024943Y-14251888D02*
X6015420Y-14213793D01*
X6015420Y-14213793D02*
X6015420Y-14166174D01*
X6015420Y-14166174D02*
X6024943Y-14128079D01*
X6024943Y-14128079D02*
X6034467Y-14109031D01*
X6034467Y-14109031D02*
X6043991Y-14099508D01*
X6043991Y-14099508D02*
X6063039Y-14089984D01*
X6215420Y-14289984D02*
X6215420Y-14156650D01*
X6215420Y-14175698D02*
X6224943Y-14166174D01*
X6224943Y-14166174D02*
X6243991Y-14156650D01*
X6243991Y-14156650D02*
X6272563Y-14156650D01*
X6272563Y-14156650D02*
X6291610Y-14166174D01*
X6291610Y-14166174D02*
X6301134Y-14185222D01*
X6301134Y-14185222D02*
X6301134Y-14289984D01*
X6301134Y-14185222D02*
X6310658Y-14166174D01*
X6310658Y-14166174D02*
X6329705Y-14156650D01*
X6329705Y-14156650D02*
X6358277Y-14156650D01*
X6358277Y-14156650D02*
X6377324Y-14166174D01*
X6377324Y-14166174D02*
X6386848Y-14185222D01*
X6386848Y-14185222D02*
X6386848Y-14289984D01*
X6482086Y-14289984D02*
X6482086Y-14156650D01*
X6482086Y-14175698D02*
X6491610Y-14166174D01*
X6491610Y-14166174D02*
X6510658Y-14156650D01*
X6510658Y-14156650D02*
X6539229Y-14156650D01*
X6539229Y-14156650D02*
X6558277Y-14166174D01*
X6558277Y-14166174D02*
X6567801Y-14185222D01*
X6567801Y-14185222D02*
X6567801Y-14289984D01*
X6567801Y-14185222D02*
X6577324Y-14166174D01*
X6577324Y-14166174D02*
X6596372Y-14156650D01*
X6596372Y-14156650D02*
X6624943Y-14156650D01*
X6624943Y-14156650D02*
X6643991Y-14166174D01*
X6643991Y-14166174D02*
X6653515Y-14185222D01*
X6653515Y-14185222D02*
X6653515Y-14289984D01*
X7043991Y-14080460D02*
X6872563Y-14337603D01*
X7301134Y-14089984D02*
X7320182Y-14089984D01*
X7320182Y-14089984D02*
X7339229Y-14099508D01*
X7339229Y-14099508D02*
X7348753Y-14109031D01*
X7348753Y-14109031D02*
X7358277Y-14128079D01*
X7358277Y-14128079D02*
X7367801Y-14166174D01*
X7367801Y-14166174D02*
X7367801Y-14213793D01*
X7367801Y-14213793D02*
X7358277Y-14251888D01*
X7358277Y-14251888D02*
X7348753Y-14270936D01*
X7348753Y-14270936D02*
X7339229Y-14280460D01*
X7339229Y-14280460D02*
X7320182Y-14289984D01*
X7320182Y-14289984D02*
X7301134Y-14289984D01*
X7301134Y-14289984D02*
X7282086Y-14280460D01*
X7282086Y-14280460D02*
X7272563Y-14270936D01*
X7272563Y-14270936D02*
X7263039Y-14251888D01*
X7263039Y-14251888D02*
X7253515Y-14213793D01*
X7253515Y-14213793D02*
X7253515Y-14166174D01*
X7253515Y-14166174D02*
X7263039Y-14128079D01*
X7263039Y-14128079D02*
X7272563Y-14109031D01*
X7272563Y-14109031D02*
X7282086Y-14099508D01*
X7282086Y-14099508D02*
X7301134Y-14089984D01*
X7453515Y-14270936D02*
X7463039Y-14280460D01*
X7463039Y-14280460D02*
X7453515Y-14289984D01*
X7453515Y-14289984D02*
X7443991Y-14280460D01*
X7443991Y-14280460D02*
X7453515Y-14270936D01*
X7453515Y-14270936D02*
X7453515Y-14289984D01*
X7586848Y-14089984D02*
X7605896Y-14089984D01*
X7605896Y-14089984D02*
X7624944Y-14099508D01*
X7624944Y-14099508D02*
X7634467Y-14109031D01*
X7634467Y-14109031D02*
X7643991Y-14128079D01*
X7643991Y-14128079D02*
X7653515Y-14166174D01*
X7653515Y-14166174D02*
X7653515Y-14213793D01*
X7653515Y-14213793D02*
X7643991Y-14251888D01*
X7643991Y-14251888D02*
X7634467Y-14270936D01*
X7634467Y-14270936D02*
X7624944Y-14280460D01*
X7624944Y-14280460D02*
X7605896Y-14289984D01*
X7605896Y-14289984D02*
X7586848Y-14289984D01*
X7586848Y-14289984D02*
X7567801Y-14280460D01*
X7567801Y-14280460D02*
X7558277Y-14270936D01*
X7558277Y-14270936D02*
X7548753Y-14251888D01*
X7548753Y-14251888D02*
X7539229Y-14213793D01*
X7539229Y-14213793D02*
X7539229Y-14166174D01*
X7539229Y-14166174D02*
X7548753Y-14128079D01*
X7548753Y-14128079D02*
X7558277Y-14109031D01*
X7558277Y-14109031D02*
X7567801Y-14099508D01*
X7567801Y-14099508D02*
X7586848Y-14089984D01*
X7720182Y-14089984D02*
X7843991Y-14089984D01*
X7843991Y-14089984D02*
X7777325Y-14166174D01*
X7777325Y-14166174D02*
X7805896Y-14166174D01*
X7805896Y-14166174D02*
X7824944Y-14175698D01*
X7824944Y-14175698D02*
X7834467Y-14185222D01*
X7834467Y-14185222D02*
X7843991Y-14204269D01*
X7843991Y-14204269D02*
X7843991Y-14251888D01*
X7843991Y-14251888D02*
X7834467Y-14270936D01*
X7834467Y-14270936D02*
X7824944Y-14280460D01*
X7824944Y-14280460D02*
X7805896Y-14289984D01*
X7805896Y-14289984D02*
X7748753Y-14289984D01*
X7748753Y-14289984D02*
X7729706Y-14280460D01*
X7729706Y-14280460D02*
X7720182Y-14270936D01*
X7939229Y-14289984D02*
X7977325Y-14289984D01*
X7977325Y-14289984D02*
X7996372Y-14280460D01*
X7996372Y-14280460D02*
X8005896Y-14270936D01*
X8005896Y-14270936D02*
X8024944Y-14242365D01*
X8024944Y-14242365D02*
X8034467Y-14204269D01*
X8034467Y-14204269D02*
X8034467Y-14128079D01*
X8034467Y-14128079D02*
X8024944Y-14109031D01*
X8024944Y-14109031D02*
X8015420Y-14099508D01*
X8015420Y-14099508D02*
X7996372Y-14089984D01*
X7996372Y-14089984D02*
X7958277Y-14089984D01*
X7958277Y-14089984D02*
X7939229Y-14099508D01*
X7939229Y-14099508D02*
X7929706Y-14109031D01*
X7929706Y-14109031D02*
X7920182Y-14128079D01*
X7920182Y-14128079D02*
X7920182Y-14175698D01*
X7920182Y-14175698D02*
X7929706Y-14194746D01*
X7929706Y-14194746D02*
X7939229Y-14204269D01*
X7939229Y-14204269D02*
X7958277Y-14213793D01*
X7958277Y-14213793D02*
X7996372Y-14213793D01*
X7996372Y-14213793D02*
X8015420Y-14204269D01*
X8015420Y-14204269D02*
X8024944Y-14194746D01*
X8024944Y-14194746D02*
X8034467Y-14175698D01*
X8205896Y-14156650D02*
X8205896Y-14289984D01*
X8158277Y-14080460D02*
X8110658Y-14223317D01*
X8110658Y-14223317D02*
X8234467Y-14223317D01*
X8301134Y-14089984D02*
X8301134Y-14128079D01*
X8377325Y-14089984D02*
X8377325Y-14128079D01*
X8672563Y-14366174D02*
X8663039Y-14356650D01*
X8663039Y-14356650D02*
X8643991Y-14328079D01*
X8643991Y-14328079D02*
X8634468Y-14309031D01*
X8634468Y-14309031D02*
X8624944Y-14280460D01*
X8624944Y-14280460D02*
X8615420Y-14232841D01*
X8615420Y-14232841D02*
X8615420Y-14194746D01*
X8615420Y-14194746D02*
X8624944Y-14147127D01*
X8624944Y-14147127D02*
X8634468Y-14118555D01*
X8634468Y-14118555D02*
X8643991Y-14099508D01*
X8643991Y-14099508D02*
X8663039Y-14070936D01*
X8663039Y-14070936D02*
X8672563Y-14061412D01*
X8834468Y-14156650D02*
X8834468Y-14289984D01*
X8786849Y-14080460D02*
X8739230Y-14223317D01*
X8739230Y-14223317D02*
X8863039Y-14223317D01*
X9091611Y-14289984D02*
X9091611Y-14089984D01*
X9177325Y-14289984D02*
X9177325Y-14185222D01*
X9177325Y-14185222D02*
X9167801Y-14166174D01*
X9167801Y-14166174D02*
X9148753Y-14156650D01*
X9148753Y-14156650D02*
X9120182Y-14156650D01*
X9120182Y-14156650D02*
X9101134Y-14166174D01*
X9101134Y-14166174D02*
X9091611Y-14175698D01*
X9301134Y-14289984D02*
X9282087Y-14280460D01*
X9282087Y-14280460D02*
X9272563Y-14270936D01*
X9272563Y-14270936D02*
X9263039Y-14251888D01*
X9263039Y-14251888D02*
X9263039Y-14194746D01*
X9263039Y-14194746D02*
X9272563Y-14175698D01*
X9272563Y-14175698D02*
X9282087Y-14166174D01*
X9282087Y-14166174D02*
X9301134Y-14156650D01*
X9301134Y-14156650D02*
X9329706Y-14156650D01*
X9329706Y-14156650D02*
X9348753Y-14166174D01*
X9348753Y-14166174D02*
X9358277Y-14175698D01*
X9358277Y-14175698D02*
X9367801Y-14194746D01*
X9367801Y-14194746D02*
X9367801Y-14251888D01*
X9367801Y-14251888D02*
X9358277Y-14270936D01*
X9358277Y-14270936D02*
X9348753Y-14280460D01*
X9348753Y-14280460D02*
X9329706Y-14289984D01*
X9329706Y-14289984D02*
X9301134Y-14289984D01*
X9482087Y-14289984D02*
X9463039Y-14280460D01*
X9463039Y-14280460D02*
X9453515Y-14261412D01*
X9453515Y-14261412D02*
X9453515Y-14089984D01*
X9634468Y-14280460D02*
X9615420Y-14289984D01*
X9615420Y-14289984D02*
X9577325Y-14289984D01*
X9577325Y-14289984D02*
X9558277Y-14280460D01*
X9558277Y-14280460D02*
X9548753Y-14261412D01*
X9548753Y-14261412D02*
X9548753Y-14185222D01*
X9548753Y-14185222D02*
X9558277Y-14166174D01*
X9558277Y-14166174D02*
X9577325Y-14156650D01*
X9577325Y-14156650D02*
X9615420Y-14156650D01*
X9615420Y-14156650D02*
X9634468Y-14166174D01*
X9634468Y-14166174D02*
X9643992Y-14185222D01*
X9643992Y-14185222D02*
X9643992Y-14204269D01*
X9643992Y-14204269D02*
X9548753Y-14223317D01*
X9720182Y-14280460D02*
X9739230Y-14289984D01*
X9739230Y-14289984D02*
X9777325Y-14289984D01*
X9777325Y-14289984D02*
X9796373Y-14280460D01*
X9796373Y-14280460D02*
X9805896Y-14261412D01*
X9805896Y-14261412D02*
X9805896Y-14251888D01*
X9805896Y-14251888D02*
X9796373Y-14232841D01*
X9796373Y-14232841D02*
X9777325Y-14223317D01*
X9777325Y-14223317D02*
X9748753Y-14223317D01*
X9748753Y-14223317D02*
X9729706Y-14213793D01*
X9729706Y-14213793D02*
X9720182Y-14194746D01*
X9720182Y-14194746D02*
X9720182Y-14185222D01*
X9720182Y-14185222D02*
X9729706Y-14166174D01*
X9729706Y-14166174D02*
X9748753Y-14156650D01*
X9748753Y-14156650D02*
X9777325Y-14156650D01*
X9777325Y-14156650D02*
X9796373Y-14166174D01*
X9872563Y-14366174D02*
X9882087Y-14356650D01*
X9882087Y-14356650D02*
X9901134Y-14328079D01*
X9901134Y-14328079D02*
X9910658Y-14309031D01*
X9910658Y-14309031D02*
X9920182Y-14280460D01*
X9920182Y-14280460D02*
X9929706Y-14232841D01*
X9929706Y-14232841D02*
X9929706Y-14194746D01*
X9929706Y-14194746D02*
X9920182Y-14147127D01*
X9920182Y-14147127D02*
X9910658Y-14118555D01*
X9910658Y-14118555D02*
X9901134Y-14099508D01*
X9901134Y-14099508D02*
X9882087Y-14070936D01*
X9882087Y-14070936D02*
X9872563Y-14061412D01*
D13*
X4977500Y-14402500D02*
X5097500Y-14522500D01*
X5097500Y-14402500D02*
X4977500Y-14522500D01*
X5097500Y-14462500D02*
G75*
G02*
X4977500Y-14462500I-60000J0D01*
G01*
X4977500Y-14462500D02*
G75*
G02*
X5097500Y-14462500I60000J0D01*
G01*
D11*
X5463039Y-14553984D02*
X5348753Y-14553984D01*
X5405896Y-14553984D02*
X5405896Y-14353984D01*
X5405896Y-14353984D02*
X5386848Y-14382555D01*
X5386848Y-14382555D02*
X5367801Y-14401603D01*
X5367801Y-14401603D02*
X5348753Y-14411127D01*
X5548753Y-14534936D02*
X5558277Y-14544460D01*
X5558277Y-14544460D02*
X5548753Y-14553984D01*
X5548753Y-14553984D02*
X5539229Y-14544460D01*
X5539229Y-14544460D02*
X5548753Y-14534936D01*
X5548753Y-14534936D02*
X5548753Y-14553984D01*
X5634467Y-14373031D02*
X5643991Y-14363508D01*
X5643991Y-14363508D02*
X5663039Y-14353984D01*
X5663039Y-14353984D02*
X5710658Y-14353984D01*
X5710658Y-14353984D02*
X5729705Y-14363508D01*
X5729705Y-14363508D02*
X5739229Y-14373031D01*
X5739229Y-14373031D02*
X5748753Y-14392079D01*
X5748753Y-14392079D02*
X5748753Y-14411127D01*
X5748753Y-14411127D02*
X5739229Y-14439698D01*
X5739229Y-14439698D02*
X5624943Y-14553984D01*
X5624943Y-14553984D02*
X5748753Y-14553984D01*
X5872562Y-14353984D02*
X5891610Y-14353984D01*
X5891610Y-14353984D02*
X5910658Y-14363508D01*
X5910658Y-14363508D02*
X5920182Y-14373031D01*
X5920182Y-14373031D02*
X5929705Y-14392079D01*
X5929705Y-14392079D02*
X5939229Y-14430174D01*
X5939229Y-14430174D02*
X5939229Y-14477793D01*
X5939229Y-14477793D02*
X5929705Y-14515888D01*
X5929705Y-14515888D02*
X5920182Y-14534936D01*
X5920182Y-14534936D02*
X5910658Y-14544460D01*
X5910658Y-14544460D02*
X5891610Y-14553984D01*
X5891610Y-14553984D02*
X5872562Y-14553984D01*
X5872562Y-14553984D02*
X5853515Y-14544460D01*
X5853515Y-14544460D02*
X5843991Y-14534936D01*
X5843991Y-14534936D02*
X5834467Y-14515888D01*
X5834467Y-14515888D02*
X5824943Y-14477793D01*
X5824943Y-14477793D02*
X5824943Y-14430174D01*
X5824943Y-14430174D02*
X5834467Y-14392079D01*
X5834467Y-14392079D02*
X5843991Y-14373031D01*
X5843991Y-14373031D02*
X5853515Y-14363508D01*
X5853515Y-14363508D02*
X5872562Y-14353984D01*
X6063039Y-14353984D02*
X6082086Y-14353984D01*
X6082086Y-14353984D02*
X6101134Y-14363508D01*
X6101134Y-14363508D02*
X6110658Y-14373031D01*
X6110658Y-14373031D02*
X6120182Y-14392079D01*
X6120182Y-14392079D02*
X6129705Y-14430174D01*
X6129705Y-14430174D02*
X6129705Y-14477793D01*
X6129705Y-14477793D02*
X6120182Y-14515888D01*
X6120182Y-14515888D02*
X6110658Y-14534936D01*
X6110658Y-14534936D02*
X6101134Y-14544460D01*
X6101134Y-14544460D02*
X6082086Y-14553984D01*
X6082086Y-14553984D02*
X6063039Y-14553984D01*
X6063039Y-14553984D02*
X6043991Y-14544460D01*
X6043991Y-14544460D02*
X6034467Y-14534936D01*
X6034467Y-14534936D02*
X6024943Y-14515888D01*
X6024943Y-14515888D02*
X6015420Y-14477793D01*
X6015420Y-14477793D02*
X6015420Y-14430174D01*
X6015420Y-14430174D02*
X6024943Y-14392079D01*
X6024943Y-14392079D02*
X6034467Y-14373031D01*
X6034467Y-14373031D02*
X6043991Y-14363508D01*
X6043991Y-14363508D02*
X6063039Y-14353984D01*
X6215420Y-14553984D02*
X6215420Y-14420650D01*
X6215420Y-14439698D02*
X6224943Y-14430174D01*
X6224943Y-14430174D02*
X6243991Y-14420650D01*
X6243991Y-14420650D02*
X6272563Y-14420650D01*
X6272563Y-14420650D02*
X6291610Y-14430174D01*
X6291610Y-14430174D02*
X6301134Y-14449222D01*
X6301134Y-14449222D02*
X6301134Y-14553984D01*
X6301134Y-14449222D02*
X6310658Y-14430174D01*
X6310658Y-14430174D02*
X6329705Y-14420650D01*
X6329705Y-14420650D02*
X6358277Y-14420650D01*
X6358277Y-14420650D02*
X6377324Y-14430174D01*
X6377324Y-14430174D02*
X6386848Y-14449222D01*
X6386848Y-14449222D02*
X6386848Y-14553984D01*
X6482086Y-14553984D02*
X6482086Y-14420650D01*
X6482086Y-14439698D02*
X6491610Y-14430174D01*
X6491610Y-14430174D02*
X6510658Y-14420650D01*
X6510658Y-14420650D02*
X6539229Y-14420650D01*
X6539229Y-14420650D02*
X6558277Y-14430174D01*
X6558277Y-14430174D02*
X6567801Y-14449222D01*
X6567801Y-14449222D02*
X6567801Y-14553984D01*
X6567801Y-14449222D02*
X6577324Y-14430174D01*
X6577324Y-14430174D02*
X6596372Y-14420650D01*
X6596372Y-14420650D02*
X6624943Y-14420650D01*
X6624943Y-14420650D02*
X6643991Y-14430174D01*
X6643991Y-14430174D02*
X6653515Y-14449222D01*
X6653515Y-14449222D02*
X6653515Y-14553984D01*
X7043991Y-14344460D02*
X6872563Y-14601603D01*
X7301134Y-14353984D02*
X7320182Y-14353984D01*
X7320182Y-14353984D02*
X7339229Y-14363508D01*
X7339229Y-14363508D02*
X7348753Y-14373031D01*
X7348753Y-14373031D02*
X7358277Y-14392079D01*
X7358277Y-14392079D02*
X7367801Y-14430174D01*
X7367801Y-14430174D02*
X7367801Y-14477793D01*
X7367801Y-14477793D02*
X7358277Y-14515888D01*
X7358277Y-14515888D02*
X7348753Y-14534936D01*
X7348753Y-14534936D02*
X7339229Y-14544460D01*
X7339229Y-14544460D02*
X7320182Y-14553984D01*
X7320182Y-14553984D02*
X7301134Y-14553984D01*
X7301134Y-14553984D02*
X7282086Y-14544460D01*
X7282086Y-14544460D02*
X7272563Y-14534936D01*
X7272563Y-14534936D02*
X7263039Y-14515888D01*
X7263039Y-14515888D02*
X7253515Y-14477793D01*
X7253515Y-14477793D02*
X7253515Y-14430174D01*
X7253515Y-14430174D02*
X7263039Y-14392079D01*
X7263039Y-14392079D02*
X7272563Y-14373031D01*
X7272563Y-14373031D02*
X7282086Y-14363508D01*
X7282086Y-14363508D02*
X7301134Y-14353984D01*
X7453515Y-14534936D02*
X7463039Y-14544460D01*
X7463039Y-14544460D02*
X7453515Y-14553984D01*
X7453515Y-14553984D02*
X7443991Y-14544460D01*
X7443991Y-14544460D02*
X7453515Y-14534936D01*
X7453515Y-14534936D02*
X7453515Y-14553984D01*
X7586848Y-14353984D02*
X7605896Y-14353984D01*
X7605896Y-14353984D02*
X7624944Y-14363508D01*
X7624944Y-14363508D02*
X7634467Y-14373031D01*
X7634467Y-14373031D02*
X7643991Y-14392079D01*
X7643991Y-14392079D02*
X7653515Y-14430174D01*
X7653515Y-14430174D02*
X7653515Y-14477793D01*
X7653515Y-14477793D02*
X7643991Y-14515888D01*
X7643991Y-14515888D02*
X7634467Y-14534936D01*
X7634467Y-14534936D02*
X7624944Y-14544460D01*
X7624944Y-14544460D02*
X7605896Y-14553984D01*
X7605896Y-14553984D02*
X7586848Y-14553984D01*
X7586848Y-14553984D02*
X7567801Y-14544460D01*
X7567801Y-14544460D02*
X7558277Y-14534936D01*
X7558277Y-14534936D02*
X7548753Y-14515888D01*
X7548753Y-14515888D02*
X7539229Y-14477793D01*
X7539229Y-14477793D02*
X7539229Y-14430174D01*
X7539229Y-14430174D02*
X7548753Y-14392079D01*
X7548753Y-14392079D02*
X7558277Y-14373031D01*
X7558277Y-14373031D02*
X7567801Y-14363508D01*
X7567801Y-14363508D02*
X7586848Y-14353984D01*
X7824944Y-14420650D02*
X7824944Y-14553984D01*
X7777325Y-14344460D02*
X7729706Y-14487317D01*
X7729706Y-14487317D02*
X7853515Y-14487317D01*
X7910658Y-14353984D02*
X8043991Y-14353984D01*
X8043991Y-14353984D02*
X7958277Y-14553984D01*
X8110658Y-14373031D02*
X8120182Y-14363508D01*
X8120182Y-14363508D02*
X8139229Y-14353984D01*
X8139229Y-14353984D02*
X8186848Y-14353984D01*
X8186848Y-14353984D02*
X8205896Y-14363508D01*
X8205896Y-14363508D02*
X8215420Y-14373031D01*
X8215420Y-14373031D02*
X8224944Y-14392079D01*
X8224944Y-14392079D02*
X8224944Y-14411127D01*
X8224944Y-14411127D02*
X8215420Y-14439698D01*
X8215420Y-14439698D02*
X8101134Y-14553984D01*
X8101134Y-14553984D02*
X8224944Y-14553984D01*
X8301134Y-14353984D02*
X8301134Y-14392079D01*
X8377325Y-14353984D02*
X8377325Y-14392079D01*
X8672563Y-14630174D02*
X8663039Y-14620650D01*
X8663039Y-14620650D02*
X8643991Y-14592079D01*
X8643991Y-14592079D02*
X8634468Y-14573031D01*
X8634468Y-14573031D02*
X8624944Y-14544460D01*
X8624944Y-14544460D02*
X8615420Y-14496841D01*
X8615420Y-14496841D02*
X8615420Y-14458746D01*
X8615420Y-14458746D02*
X8624944Y-14411127D01*
X8624944Y-14411127D02*
X8634468Y-14382555D01*
X8634468Y-14382555D02*
X8643991Y-14363508D01*
X8643991Y-14363508D02*
X8663039Y-14334936D01*
X8663039Y-14334936D02*
X8672563Y-14325412D01*
X8834468Y-14420650D02*
X8834468Y-14553984D01*
X8786849Y-14344460D02*
X8739230Y-14487317D01*
X8739230Y-14487317D02*
X8863039Y-14487317D01*
X9091611Y-14553984D02*
X9091611Y-14353984D01*
X9177325Y-14553984D02*
X9177325Y-14449222D01*
X9177325Y-14449222D02*
X9167801Y-14430174D01*
X9167801Y-14430174D02*
X9148753Y-14420650D01*
X9148753Y-14420650D02*
X9120182Y-14420650D01*
X9120182Y-14420650D02*
X9101134Y-14430174D01*
X9101134Y-14430174D02*
X9091611Y-14439698D01*
X9301134Y-14553984D02*
X9282087Y-14544460D01*
X9282087Y-14544460D02*
X9272563Y-14534936D01*
X9272563Y-14534936D02*
X9263039Y-14515888D01*
X9263039Y-14515888D02*
X9263039Y-14458746D01*
X9263039Y-14458746D02*
X9272563Y-14439698D01*
X9272563Y-14439698D02*
X9282087Y-14430174D01*
X9282087Y-14430174D02*
X9301134Y-14420650D01*
X9301134Y-14420650D02*
X9329706Y-14420650D01*
X9329706Y-14420650D02*
X9348753Y-14430174D01*
X9348753Y-14430174D02*
X9358277Y-14439698D01*
X9358277Y-14439698D02*
X9367801Y-14458746D01*
X9367801Y-14458746D02*
X9367801Y-14515888D01*
X9367801Y-14515888D02*
X9358277Y-14534936D01*
X9358277Y-14534936D02*
X9348753Y-14544460D01*
X9348753Y-14544460D02*
X9329706Y-14553984D01*
X9329706Y-14553984D02*
X9301134Y-14553984D01*
X9482087Y-14553984D02*
X9463039Y-14544460D01*
X9463039Y-14544460D02*
X9453515Y-14525412D01*
X9453515Y-14525412D02*
X9453515Y-14353984D01*
X9634468Y-14544460D02*
X9615420Y-14553984D01*
X9615420Y-14553984D02*
X9577325Y-14553984D01*
X9577325Y-14553984D02*
X9558277Y-14544460D01*
X9558277Y-14544460D02*
X9548753Y-14525412D01*
X9548753Y-14525412D02*
X9548753Y-14449222D01*
X9548753Y-14449222D02*
X9558277Y-14430174D01*
X9558277Y-14430174D02*
X9577325Y-14420650D01*
X9577325Y-14420650D02*
X9615420Y-14420650D01*
X9615420Y-14420650D02*
X9634468Y-14430174D01*
X9634468Y-14430174D02*
X9643992Y-14449222D01*
X9643992Y-14449222D02*
X9643992Y-14468269D01*
X9643992Y-14468269D02*
X9548753Y-14487317D01*
X9720182Y-14544460D02*
X9739230Y-14553984D01*
X9739230Y-14553984D02*
X9777325Y-14553984D01*
X9777325Y-14553984D02*
X9796373Y-14544460D01*
X9796373Y-14544460D02*
X9805896Y-14525412D01*
X9805896Y-14525412D02*
X9805896Y-14515888D01*
X9805896Y-14515888D02*
X9796373Y-14496841D01*
X9796373Y-14496841D02*
X9777325Y-14487317D01*
X9777325Y-14487317D02*
X9748753Y-14487317D01*
X9748753Y-14487317D02*
X9729706Y-14477793D01*
X9729706Y-14477793D02*
X9720182Y-14458746D01*
X9720182Y-14458746D02*
X9720182Y-14449222D01*
X9720182Y-14449222D02*
X9729706Y-14430174D01*
X9729706Y-14430174D02*
X9748753Y-14420650D01*
X9748753Y-14420650D02*
X9777325Y-14420650D01*
X9777325Y-14420650D02*
X9796373Y-14430174D01*
X9872563Y-14630174D02*
X9882087Y-14620650D01*
X9882087Y-14620650D02*
X9901134Y-14592079D01*
X9901134Y-14592079D02*
X9910658Y-14573031D01*
X9910658Y-14573031D02*
X9920182Y-14544460D01*
X9920182Y-14544460D02*
X9929706Y-14496841D01*
X9929706Y-14496841D02*
X9929706Y-14458746D01*
X9929706Y-14458746D02*
X9920182Y-14411127D01*
X9920182Y-14411127D02*
X9910658Y-14382555D01*
X9910658Y-14382555D02*
X9901134Y-14363508D01*
X9901134Y-14363508D02*
X9882087Y-14334936D01*
X9882087Y-14334936D02*
X9872563Y-14325412D01*
D14*
X4967500Y-14661500D02*
X5097500Y-14791500D01*
X5097500Y-14661500D02*
X4967500Y-14791500D01*
X5032500Y-14661500D02*
X5032500Y-14791500D01*
X4967500Y-14726500D02*
X5097500Y-14726500D01*
D11*
X5463039Y-14817984D02*
X5348753Y-14817984D01*
X5405896Y-14817984D02*
X5405896Y-14617984D01*
X5405896Y-14617984D02*
X5386848Y-14646555D01*
X5386848Y-14646555D02*
X5367801Y-14665603D01*
X5367801Y-14665603D02*
X5348753Y-14675127D01*
X5548753Y-14798936D02*
X5558277Y-14808460D01*
X5558277Y-14808460D02*
X5548753Y-14817984D01*
X5548753Y-14817984D02*
X5539229Y-14808460D01*
X5539229Y-14808460D02*
X5548753Y-14798936D01*
X5548753Y-14798936D02*
X5548753Y-14817984D01*
X5624943Y-14617984D02*
X5748753Y-14617984D01*
X5748753Y-14617984D02*
X5682086Y-14694174D01*
X5682086Y-14694174D02*
X5710658Y-14694174D01*
X5710658Y-14694174D02*
X5729705Y-14703698D01*
X5729705Y-14703698D02*
X5739229Y-14713222D01*
X5739229Y-14713222D02*
X5748753Y-14732269D01*
X5748753Y-14732269D02*
X5748753Y-14779888D01*
X5748753Y-14779888D02*
X5739229Y-14798936D01*
X5739229Y-14798936D02*
X5729705Y-14808460D01*
X5729705Y-14808460D02*
X5710658Y-14817984D01*
X5710658Y-14817984D02*
X5653515Y-14817984D01*
X5653515Y-14817984D02*
X5634467Y-14808460D01*
X5634467Y-14808460D02*
X5624943Y-14798936D01*
X5872562Y-14617984D02*
X5891610Y-14617984D01*
X5891610Y-14617984D02*
X5910658Y-14627508D01*
X5910658Y-14627508D02*
X5920182Y-14637031D01*
X5920182Y-14637031D02*
X5929705Y-14656079D01*
X5929705Y-14656079D02*
X5939229Y-14694174D01*
X5939229Y-14694174D02*
X5939229Y-14741793D01*
X5939229Y-14741793D02*
X5929705Y-14779888D01*
X5929705Y-14779888D02*
X5920182Y-14798936D01*
X5920182Y-14798936D02*
X5910658Y-14808460D01*
X5910658Y-14808460D02*
X5891610Y-14817984D01*
X5891610Y-14817984D02*
X5872562Y-14817984D01*
X5872562Y-14817984D02*
X5853515Y-14808460D01*
X5853515Y-14808460D02*
X5843991Y-14798936D01*
X5843991Y-14798936D02*
X5834467Y-14779888D01*
X5834467Y-14779888D02*
X5824943Y-14741793D01*
X5824943Y-14741793D02*
X5824943Y-14694174D01*
X5824943Y-14694174D02*
X5834467Y-14656079D01*
X5834467Y-14656079D02*
X5843991Y-14637031D01*
X5843991Y-14637031D02*
X5853515Y-14627508D01*
X5853515Y-14627508D02*
X5872562Y-14617984D01*
X6063039Y-14617984D02*
X6082086Y-14617984D01*
X6082086Y-14617984D02*
X6101134Y-14627508D01*
X6101134Y-14627508D02*
X6110658Y-14637031D01*
X6110658Y-14637031D02*
X6120182Y-14656079D01*
X6120182Y-14656079D02*
X6129705Y-14694174D01*
X6129705Y-14694174D02*
X6129705Y-14741793D01*
X6129705Y-14741793D02*
X6120182Y-14779888D01*
X6120182Y-14779888D02*
X6110658Y-14798936D01*
X6110658Y-14798936D02*
X6101134Y-14808460D01*
X6101134Y-14808460D02*
X6082086Y-14817984D01*
X6082086Y-14817984D02*
X6063039Y-14817984D01*
X6063039Y-14817984D02*
X6043991Y-14808460D01*
X6043991Y-14808460D02*
X6034467Y-14798936D01*
X6034467Y-14798936D02*
X6024943Y-14779888D01*
X6024943Y-14779888D02*
X6015420Y-14741793D01*
X6015420Y-14741793D02*
X6015420Y-14694174D01*
X6015420Y-14694174D02*
X6024943Y-14656079D01*
X6024943Y-14656079D02*
X6034467Y-14637031D01*
X6034467Y-14637031D02*
X6043991Y-14627508D01*
X6043991Y-14627508D02*
X6063039Y-14617984D01*
X6215420Y-14817984D02*
X6215420Y-14684650D01*
X6215420Y-14703698D02*
X6224943Y-14694174D01*
X6224943Y-14694174D02*
X6243991Y-14684650D01*
X6243991Y-14684650D02*
X6272563Y-14684650D01*
X6272563Y-14684650D02*
X6291610Y-14694174D01*
X6291610Y-14694174D02*
X6301134Y-14713222D01*
X6301134Y-14713222D02*
X6301134Y-14817984D01*
X6301134Y-14713222D02*
X6310658Y-14694174D01*
X6310658Y-14694174D02*
X6329705Y-14684650D01*
X6329705Y-14684650D02*
X6358277Y-14684650D01*
X6358277Y-14684650D02*
X6377324Y-14694174D01*
X6377324Y-14694174D02*
X6386848Y-14713222D01*
X6386848Y-14713222D02*
X6386848Y-14817984D01*
X6482086Y-14817984D02*
X6482086Y-14684650D01*
X6482086Y-14703698D02*
X6491610Y-14694174D01*
X6491610Y-14694174D02*
X6510658Y-14684650D01*
X6510658Y-14684650D02*
X6539229Y-14684650D01*
X6539229Y-14684650D02*
X6558277Y-14694174D01*
X6558277Y-14694174D02*
X6567801Y-14713222D01*
X6567801Y-14713222D02*
X6567801Y-14817984D01*
X6567801Y-14713222D02*
X6577324Y-14694174D01*
X6577324Y-14694174D02*
X6596372Y-14684650D01*
X6596372Y-14684650D02*
X6624943Y-14684650D01*
X6624943Y-14684650D02*
X6643991Y-14694174D01*
X6643991Y-14694174D02*
X6653515Y-14713222D01*
X6653515Y-14713222D02*
X6653515Y-14817984D01*
X7043991Y-14608460D02*
X6872563Y-14865603D01*
X7301134Y-14617984D02*
X7320182Y-14617984D01*
X7320182Y-14617984D02*
X7339229Y-14627508D01*
X7339229Y-14627508D02*
X7348753Y-14637031D01*
X7348753Y-14637031D02*
X7358277Y-14656079D01*
X7358277Y-14656079D02*
X7367801Y-14694174D01*
X7367801Y-14694174D02*
X7367801Y-14741793D01*
X7367801Y-14741793D02*
X7358277Y-14779888D01*
X7358277Y-14779888D02*
X7348753Y-14798936D01*
X7348753Y-14798936D02*
X7339229Y-14808460D01*
X7339229Y-14808460D02*
X7320182Y-14817984D01*
X7320182Y-14817984D02*
X7301134Y-14817984D01*
X7301134Y-14817984D02*
X7282086Y-14808460D01*
X7282086Y-14808460D02*
X7272563Y-14798936D01*
X7272563Y-14798936D02*
X7263039Y-14779888D01*
X7263039Y-14779888D02*
X7253515Y-14741793D01*
X7253515Y-14741793D02*
X7253515Y-14694174D01*
X7253515Y-14694174D02*
X7263039Y-14656079D01*
X7263039Y-14656079D02*
X7272563Y-14637031D01*
X7272563Y-14637031D02*
X7282086Y-14627508D01*
X7282086Y-14627508D02*
X7301134Y-14617984D01*
X7453515Y-14798936D02*
X7463039Y-14808460D01*
X7463039Y-14808460D02*
X7453515Y-14817984D01*
X7453515Y-14817984D02*
X7443991Y-14808460D01*
X7443991Y-14808460D02*
X7453515Y-14798936D01*
X7453515Y-14798936D02*
X7453515Y-14817984D01*
X7586848Y-14617984D02*
X7605896Y-14617984D01*
X7605896Y-14617984D02*
X7624944Y-14627508D01*
X7624944Y-14627508D02*
X7634467Y-14637031D01*
X7634467Y-14637031D02*
X7643991Y-14656079D01*
X7643991Y-14656079D02*
X7653515Y-14694174D01*
X7653515Y-14694174D02*
X7653515Y-14741793D01*
X7653515Y-14741793D02*
X7643991Y-14779888D01*
X7643991Y-14779888D02*
X7634467Y-14798936D01*
X7634467Y-14798936D02*
X7624944Y-14808460D01*
X7624944Y-14808460D02*
X7605896Y-14817984D01*
X7605896Y-14817984D02*
X7586848Y-14817984D01*
X7586848Y-14817984D02*
X7567801Y-14808460D01*
X7567801Y-14808460D02*
X7558277Y-14798936D01*
X7558277Y-14798936D02*
X7548753Y-14779888D01*
X7548753Y-14779888D02*
X7539229Y-14741793D01*
X7539229Y-14741793D02*
X7539229Y-14694174D01*
X7539229Y-14694174D02*
X7548753Y-14656079D01*
X7548753Y-14656079D02*
X7558277Y-14637031D01*
X7558277Y-14637031D02*
X7567801Y-14627508D01*
X7567801Y-14627508D02*
X7586848Y-14617984D01*
X7834467Y-14617984D02*
X7739229Y-14617984D01*
X7739229Y-14617984D02*
X7729706Y-14713222D01*
X7729706Y-14713222D02*
X7739229Y-14703698D01*
X7739229Y-14703698D02*
X7758277Y-14694174D01*
X7758277Y-14694174D02*
X7805896Y-14694174D01*
X7805896Y-14694174D02*
X7824944Y-14703698D01*
X7824944Y-14703698D02*
X7834467Y-14713222D01*
X7834467Y-14713222D02*
X7843991Y-14732269D01*
X7843991Y-14732269D02*
X7843991Y-14779888D01*
X7843991Y-14779888D02*
X7834467Y-14798936D01*
X7834467Y-14798936D02*
X7824944Y-14808460D01*
X7824944Y-14808460D02*
X7805896Y-14817984D01*
X7805896Y-14817984D02*
X7758277Y-14817984D01*
X7758277Y-14817984D02*
X7739229Y-14808460D01*
X7739229Y-14808460D02*
X7729706Y-14798936D01*
X8034467Y-14817984D02*
X7920182Y-14817984D01*
X7977325Y-14817984D02*
X7977325Y-14617984D01*
X7977325Y-14617984D02*
X7958277Y-14646555D01*
X7958277Y-14646555D02*
X7939229Y-14665603D01*
X7939229Y-14665603D02*
X7920182Y-14675127D01*
X8110658Y-14637031D02*
X8120182Y-14627508D01*
X8120182Y-14627508D02*
X8139229Y-14617984D01*
X8139229Y-14617984D02*
X8186848Y-14617984D01*
X8186848Y-14617984D02*
X8205896Y-14627508D01*
X8205896Y-14627508D02*
X8215420Y-14637031D01*
X8215420Y-14637031D02*
X8224944Y-14656079D01*
X8224944Y-14656079D02*
X8224944Y-14675127D01*
X8224944Y-14675127D02*
X8215420Y-14703698D01*
X8215420Y-14703698D02*
X8101134Y-14817984D01*
X8101134Y-14817984D02*
X8224944Y-14817984D01*
X8301134Y-14617984D02*
X8301134Y-14656079D01*
X8377325Y-14617984D02*
X8377325Y-14656079D01*
X8672563Y-14894174D02*
X8663039Y-14884650D01*
X8663039Y-14884650D02*
X8643991Y-14856079D01*
X8643991Y-14856079D02*
X8634468Y-14837031D01*
X8634468Y-14837031D02*
X8624944Y-14808460D01*
X8624944Y-14808460D02*
X8615420Y-14760841D01*
X8615420Y-14760841D02*
X8615420Y-14722746D01*
X8615420Y-14722746D02*
X8624944Y-14675127D01*
X8624944Y-14675127D02*
X8634468Y-14646555D01*
X8634468Y-14646555D02*
X8643991Y-14627508D01*
X8643991Y-14627508D02*
X8663039Y-14598936D01*
X8663039Y-14598936D02*
X8672563Y-14589412D01*
X8834468Y-14684650D02*
X8834468Y-14817984D01*
X8786849Y-14608460D02*
X8739230Y-14751317D01*
X8739230Y-14751317D02*
X8863039Y-14751317D01*
X9091611Y-14817984D02*
X9091611Y-14617984D01*
X9177325Y-14817984D02*
X9177325Y-14713222D01*
X9177325Y-14713222D02*
X9167801Y-14694174D01*
X9167801Y-14694174D02*
X9148753Y-14684650D01*
X9148753Y-14684650D02*
X9120182Y-14684650D01*
X9120182Y-14684650D02*
X9101134Y-14694174D01*
X9101134Y-14694174D02*
X9091611Y-14703698D01*
X9301134Y-14817984D02*
X9282087Y-14808460D01*
X9282087Y-14808460D02*
X9272563Y-14798936D01*
X9272563Y-14798936D02*
X9263039Y-14779888D01*
X9263039Y-14779888D02*
X9263039Y-14722746D01*
X9263039Y-14722746D02*
X9272563Y-14703698D01*
X9272563Y-14703698D02*
X9282087Y-14694174D01*
X9282087Y-14694174D02*
X9301134Y-14684650D01*
X9301134Y-14684650D02*
X9329706Y-14684650D01*
X9329706Y-14684650D02*
X9348753Y-14694174D01*
X9348753Y-14694174D02*
X9358277Y-14703698D01*
X9358277Y-14703698D02*
X9367801Y-14722746D01*
X9367801Y-14722746D02*
X9367801Y-14779888D01*
X9367801Y-14779888D02*
X9358277Y-14798936D01*
X9358277Y-14798936D02*
X9348753Y-14808460D01*
X9348753Y-14808460D02*
X9329706Y-14817984D01*
X9329706Y-14817984D02*
X9301134Y-14817984D01*
X9482087Y-14817984D02*
X9463039Y-14808460D01*
X9463039Y-14808460D02*
X9453515Y-14789412D01*
X9453515Y-14789412D02*
X9453515Y-14617984D01*
X9634468Y-14808460D02*
X9615420Y-14817984D01*
X9615420Y-14817984D02*
X9577325Y-14817984D01*
X9577325Y-14817984D02*
X9558277Y-14808460D01*
X9558277Y-14808460D02*
X9548753Y-14789412D01*
X9548753Y-14789412D02*
X9548753Y-14713222D01*
X9548753Y-14713222D02*
X9558277Y-14694174D01*
X9558277Y-14694174D02*
X9577325Y-14684650D01*
X9577325Y-14684650D02*
X9615420Y-14684650D01*
X9615420Y-14684650D02*
X9634468Y-14694174D01*
X9634468Y-14694174D02*
X9643992Y-14713222D01*
X9643992Y-14713222D02*
X9643992Y-14732269D01*
X9643992Y-14732269D02*
X9548753Y-14751317D01*
X9720182Y-14808460D02*
X9739230Y-14817984D01*
X9739230Y-14817984D02*
X9777325Y-14817984D01*
X9777325Y-14817984D02*
X9796373Y-14808460D01*
X9796373Y-14808460D02*
X9805896Y-14789412D01*
X9805896Y-14789412D02*
X9805896Y-14779888D01*
X9805896Y-14779888D02*
X9796373Y-14760841D01*
X9796373Y-14760841D02*
X9777325Y-14751317D01*
X9777325Y-14751317D02*
X9748753Y-14751317D01*
X9748753Y-14751317D02*
X9729706Y-14741793D01*
X9729706Y-14741793D02*
X9720182Y-14722746D01*
X9720182Y-14722746D02*
X9720182Y-14713222D01*
X9720182Y-14713222D02*
X9729706Y-14694174D01*
X9729706Y-14694174D02*
X9748753Y-14684650D01*
X9748753Y-14684650D02*
X9777325Y-14684650D01*
X9777325Y-14684650D02*
X9796373Y-14694174D01*
X9872563Y-14894174D02*
X9882087Y-14884650D01*
X9882087Y-14884650D02*
X9901134Y-14856079D01*
X9901134Y-14856079D02*
X9910658Y-14837031D01*
X9910658Y-14837031D02*
X9920182Y-14808460D01*
X9920182Y-14808460D02*
X9929706Y-14760841D01*
X9929706Y-14760841D02*
X9929706Y-14722746D01*
X9929706Y-14722746D02*
X9920182Y-14675127D01*
X9920182Y-14675127D02*
X9910658Y-14646555D01*
X9910658Y-14646555D02*
X9901134Y-14627508D01*
X9901134Y-14627508D02*
X9882087Y-14598936D01*
X9882087Y-14598936D02*
X9872563Y-14589412D01*
D15*
X4937500Y-14910500D02*
X5097500Y-15070500D01*
X5097500Y-14910500D02*
X4937500Y-15070500D01*
X5074069Y-15047069D02*
X5074069Y-14933931D01*
X4960931Y-14933931D01*
X4960931Y-15047069D01*
X5074069Y-15047069D01*
D11*
X5463039Y-15081984D02*
X5348753Y-15081984D01*
X5405896Y-15081984D02*
X5405896Y-14881984D01*
X5405896Y-14881984D02*
X5386848Y-14910555D01*
X5386848Y-14910555D02*
X5367801Y-14929603D01*
X5367801Y-14929603D02*
X5348753Y-14939127D01*
X5548753Y-15062936D02*
X5558277Y-15072460D01*
X5558277Y-15072460D02*
X5548753Y-15081984D01*
X5548753Y-15081984D02*
X5539229Y-15072460D01*
X5539229Y-15072460D02*
X5548753Y-15062936D01*
X5548753Y-15062936D02*
X5548753Y-15081984D01*
X5729705Y-14881984D02*
X5691610Y-14881984D01*
X5691610Y-14881984D02*
X5672562Y-14891508D01*
X5672562Y-14891508D02*
X5663039Y-14901031D01*
X5663039Y-14901031D02*
X5643991Y-14929603D01*
X5643991Y-14929603D02*
X5634467Y-14967698D01*
X5634467Y-14967698D02*
X5634467Y-15043888D01*
X5634467Y-15043888D02*
X5643991Y-15062936D01*
X5643991Y-15062936D02*
X5653515Y-15072460D01*
X5653515Y-15072460D02*
X5672562Y-15081984D01*
X5672562Y-15081984D02*
X5710658Y-15081984D01*
X5710658Y-15081984D02*
X5729705Y-15072460D01*
X5729705Y-15072460D02*
X5739229Y-15062936D01*
X5739229Y-15062936D02*
X5748753Y-15043888D01*
X5748753Y-15043888D02*
X5748753Y-14996269D01*
X5748753Y-14996269D02*
X5739229Y-14977222D01*
X5739229Y-14977222D02*
X5729705Y-14967698D01*
X5729705Y-14967698D02*
X5710658Y-14958174D01*
X5710658Y-14958174D02*
X5672562Y-14958174D01*
X5672562Y-14958174D02*
X5653515Y-14967698D01*
X5653515Y-14967698D02*
X5643991Y-14977222D01*
X5643991Y-14977222D02*
X5634467Y-14996269D01*
X5872562Y-14881984D02*
X5891610Y-14881984D01*
X5891610Y-14881984D02*
X5910658Y-14891508D01*
X5910658Y-14891508D02*
X5920182Y-14901031D01*
X5920182Y-14901031D02*
X5929705Y-14920079D01*
X5929705Y-14920079D02*
X5939229Y-14958174D01*
X5939229Y-14958174D02*
X5939229Y-15005793D01*
X5939229Y-15005793D02*
X5929705Y-15043888D01*
X5929705Y-15043888D02*
X5920182Y-15062936D01*
X5920182Y-15062936D02*
X5910658Y-15072460D01*
X5910658Y-15072460D02*
X5891610Y-15081984D01*
X5891610Y-15081984D02*
X5872562Y-15081984D01*
X5872562Y-15081984D02*
X5853515Y-15072460D01*
X5853515Y-15072460D02*
X5843991Y-15062936D01*
X5843991Y-15062936D02*
X5834467Y-15043888D01*
X5834467Y-15043888D02*
X5824943Y-15005793D01*
X5824943Y-15005793D02*
X5824943Y-14958174D01*
X5824943Y-14958174D02*
X5834467Y-14920079D01*
X5834467Y-14920079D02*
X5843991Y-14901031D01*
X5843991Y-14901031D02*
X5853515Y-14891508D01*
X5853515Y-14891508D02*
X5872562Y-14881984D01*
X6063039Y-14881984D02*
X6082086Y-14881984D01*
X6082086Y-14881984D02*
X6101134Y-14891508D01*
X6101134Y-14891508D02*
X6110658Y-14901031D01*
X6110658Y-14901031D02*
X6120182Y-14920079D01*
X6120182Y-14920079D02*
X6129705Y-14958174D01*
X6129705Y-14958174D02*
X6129705Y-15005793D01*
X6129705Y-15005793D02*
X6120182Y-15043888D01*
X6120182Y-15043888D02*
X6110658Y-15062936D01*
X6110658Y-15062936D02*
X6101134Y-15072460D01*
X6101134Y-15072460D02*
X6082086Y-15081984D01*
X6082086Y-15081984D02*
X6063039Y-15081984D01*
X6063039Y-15081984D02*
X6043991Y-15072460D01*
X6043991Y-15072460D02*
X6034467Y-15062936D01*
X6034467Y-15062936D02*
X6024943Y-15043888D01*
X6024943Y-15043888D02*
X6015420Y-15005793D01*
X6015420Y-15005793D02*
X6015420Y-14958174D01*
X6015420Y-14958174D02*
X6024943Y-14920079D01*
X6024943Y-14920079D02*
X6034467Y-14901031D01*
X6034467Y-14901031D02*
X6043991Y-14891508D01*
X6043991Y-14891508D02*
X6063039Y-14881984D01*
X6215420Y-15081984D02*
X6215420Y-14948650D01*
X6215420Y-14967698D02*
X6224943Y-14958174D01*
X6224943Y-14958174D02*
X6243991Y-14948650D01*
X6243991Y-14948650D02*
X6272563Y-14948650D01*
X6272563Y-14948650D02*
X6291610Y-14958174D01*
X6291610Y-14958174D02*
X6301134Y-14977222D01*
X6301134Y-14977222D02*
X6301134Y-15081984D01*
X6301134Y-14977222D02*
X6310658Y-14958174D01*
X6310658Y-14958174D02*
X6329705Y-14948650D01*
X6329705Y-14948650D02*
X6358277Y-14948650D01*
X6358277Y-14948650D02*
X6377324Y-14958174D01*
X6377324Y-14958174D02*
X6386848Y-14977222D01*
X6386848Y-14977222D02*
X6386848Y-15081984D01*
X6482086Y-15081984D02*
X6482086Y-14948650D01*
X6482086Y-14967698D02*
X6491610Y-14958174D01*
X6491610Y-14958174D02*
X6510658Y-14948650D01*
X6510658Y-14948650D02*
X6539229Y-14948650D01*
X6539229Y-14948650D02*
X6558277Y-14958174D01*
X6558277Y-14958174D02*
X6567801Y-14977222D01*
X6567801Y-14977222D02*
X6567801Y-15081984D01*
X6567801Y-14977222D02*
X6577324Y-14958174D01*
X6577324Y-14958174D02*
X6596372Y-14948650D01*
X6596372Y-14948650D02*
X6624943Y-14948650D01*
X6624943Y-14948650D02*
X6643991Y-14958174D01*
X6643991Y-14958174D02*
X6653515Y-14977222D01*
X6653515Y-14977222D02*
X6653515Y-15081984D01*
X7043991Y-14872460D02*
X6872563Y-15129603D01*
X7301134Y-14881984D02*
X7320182Y-14881984D01*
X7320182Y-14881984D02*
X7339229Y-14891508D01*
X7339229Y-14891508D02*
X7348753Y-14901031D01*
X7348753Y-14901031D02*
X7358277Y-14920079D01*
X7358277Y-14920079D02*
X7367801Y-14958174D01*
X7367801Y-14958174D02*
X7367801Y-15005793D01*
X7367801Y-15005793D02*
X7358277Y-15043888D01*
X7358277Y-15043888D02*
X7348753Y-15062936D01*
X7348753Y-15062936D02*
X7339229Y-15072460D01*
X7339229Y-15072460D02*
X7320182Y-15081984D01*
X7320182Y-15081984D02*
X7301134Y-15081984D01*
X7301134Y-15081984D02*
X7282086Y-15072460D01*
X7282086Y-15072460D02*
X7272563Y-15062936D01*
X7272563Y-15062936D02*
X7263039Y-15043888D01*
X7263039Y-15043888D02*
X7253515Y-15005793D01*
X7253515Y-15005793D02*
X7253515Y-14958174D01*
X7253515Y-14958174D02*
X7263039Y-14920079D01*
X7263039Y-14920079D02*
X7272563Y-14901031D01*
X7272563Y-14901031D02*
X7282086Y-14891508D01*
X7282086Y-14891508D02*
X7301134Y-14881984D01*
X7453515Y-15062936D02*
X7463039Y-15072460D01*
X7463039Y-15072460D02*
X7453515Y-15081984D01*
X7453515Y-15081984D02*
X7443991Y-15072460D01*
X7443991Y-15072460D02*
X7453515Y-15062936D01*
X7453515Y-15062936D02*
X7453515Y-15081984D01*
X7586848Y-14881984D02*
X7605896Y-14881984D01*
X7605896Y-14881984D02*
X7624944Y-14891508D01*
X7624944Y-14891508D02*
X7634467Y-14901031D01*
X7634467Y-14901031D02*
X7643991Y-14920079D01*
X7643991Y-14920079D02*
X7653515Y-14958174D01*
X7653515Y-14958174D02*
X7653515Y-15005793D01*
X7653515Y-15005793D02*
X7643991Y-15043888D01*
X7643991Y-15043888D02*
X7634467Y-15062936D01*
X7634467Y-15062936D02*
X7624944Y-15072460D01*
X7624944Y-15072460D02*
X7605896Y-15081984D01*
X7605896Y-15081984D02*
X7586848Y-15081984D01*
X7586848Y-15081984D02*
X7567801Y-15072460D01*
X7567801Y-15072460D02*
X7558277Y-15062936D01*
X7558277Y-15062936D02*
X7548753Y-15043888D01*
X7548753Y-15043888D02*
X7539229Y-15005793D01*
X7539229Y-15005793D02*
X7539229Y-14958174D01*
X7539229Y-14958174D02*
X7548753Y-14920079D01*
X7548753Y-14920079D02*
X7558277Y-14901031D01*
X7558277Y-14901031D02*
X7567801Y-14891508D01*
X7567801Y-14891508D02*
X7586848Y-14881984D01*
X7824944Y-14881984D02*
X7786848Y-14881984D01*
X7786848Y-14881984D02*
X7767801Y-14891508D01*
X7767801Y-14891508D02*
X7758277Y-14901031D01*
X7758277Y-14901031D02*
X7739229Y-14929603D01*
X7739229Y-14929603D02*
X7729706Y-14967698D01*
X7729706Y-14967698D02*
X7729706Y-15043888D01*
X7729706Y-15043888D02*
X7739229Y-15062936D01*
X7739229Y-15062936D02*
X7748753Y-15072460D01*
X7748753Y-15072460D02*
X7767801Y-15081984D01*
X7767801Y-15081984D02*
X7805896Y-15081984D01*
X7805896Y-15081984D02*
X7824944Y-15072460D01*
X7824944Y-15072460D02*
X7834467Y-15062936D01*
X7834467Y-15062936D02*
X7843991Y-15043888D01*
X7843991Y-15043888D02*
X7843991Y-14996269D01*
X7843991Y-14996269D02*
X7834467Y-14977222D01*
X7834467Y-14977222D02*
X7824944Y-14967698D01*
X7824944Y-14967698D02*
X7805896Y-14958174D01*
X7805896Y-14958174D02*
X7767801Y-14958174D01*
X7767801Y-14958174D02*
X7748753Y-14967698D01*
X7748753Y-14967698D02*
X7739229Y-14977222D01*
X7739229Y-14977222D02*
X7729706Y-14996269D01*
X7910658Y-14881984D02*
X8034467Y-14881984D01*
X8034467Y-14881984D02*
X7967801Y-14958174D01*
X7967801Y-14958174D02*
X7996372Y-14958174D01*
X7996372Y-14958174D02*
X8015420Y-14967698D01*
X8015420Y-14967698D02*
X8024944Y-14977222D01*
X8024944Y-14977222D02*
X8034467Y-14996269D01*
X8034467Y-14996269D02*
X8034467Y-15043888D01*
X8034467Y-15043888D02*
X8024944Y-15062936D01*
X8024944Y-15062936D02*
X8015420Y-15072460D01*
X8015420Y-15072460D02*
X7996372Y-15081984D01*
X7996372Y-15081984D02*
X7939229Y-15081984D01*
X7939229Y-15081984D02*
X7920182Y-15072460D01*
X7920182Y-15072460D02*
X7910658Y-15062936D01*
X8158277Y-14881984D02*
X8177325Y-14881984D01*
X8177325Y-14881984D02*
X8196372Y-14891508D01*
X8196372Y-14891508D02*
X8205896Y-14901031D01*
X8205896Y-14901031D02*
X8215420Y-14920079D01*
X8215420Y-14920079D02*
X8224944Y-14958174D01*
X8224944Y-14958174D02*
X8224944Y-15005793D01*
X8224944Y-15005793D02*
X8215420Y-15043888D01*
X8215420Y-15043888D02*
X8205896Y-15062936D01*
X8205896Y-15062936D02*
X8196372Y-15072460D01*
X8196372Y-15072460D02*
X8177325Y-15081984D01*
X8177325Y-15081984D02*
X8158277Y-15081984D01*
X8158277Y-15081984D02*
X8139229Y-15072460D01*
X8139229Y-15072460D02*
X8129706Y-15062936D01*
X8129706Y-15062936D02*
X8120182Y-15043888D01*
X8120182Y-15043888D02*
X8110658Y-15005793D01*
X8110658Y-15005793D02*
X8110658Y-14958174D01*
X8110658Y-14958174D02*
X8120182Y-14920079D01*
X8120182Y-14920079D02*
X8129706Y-14901031D01*
X8129706Y-14901031D02*
X8139229Y-14891508D01*
X8139229Y-14891508D02*
X8158277Y-14881984D01*
X8301134Y-14881984D02*
X8301134Y-14920079D01*
X8377325Y-14881984D02*
X8377325Y-14920079D01*
X8672563Y-15158174D02*
X8663039Y-15148650D01*
X8663039Y-15148650D02*
X8643991Y-15120079D01*
X8643991Y-15120079D02*
X8634468Y-15101031D01*
X8634468Y-15101031D02*
X8624944Y-15072460D01*
X8624944Y-15072460D02*
X8615420Y-15024841D01*
X8615420Y-15024841D02*
X8615420Y-14986746D01*
X8615420Y-14986746D02*
X8624944Y-14939127D01*
X8624944Y-14939127D02*
X8634468Y-14910555D01*
X8634468Y-14910555D02*
X8643991Y-14891508D01*
X8643991Y-14891508D02*
X8663039Y-14862936D01*
X8663039Y-14862936D02*
X8672563Y-14853412D01*
X8834468Y-14948650D02*
X8834468Y-15081984D01*
X8786849Y-14872460D02*
X8739230Y-15015317D01*
X8739230Y-15015317D02*
X8863039Y-15015317D01*
X9091611Y-15081984D02*
X9091611Y-14881984D01*
X9177325Y-15081984D02*
X9177325Y-14977222D01*
X9177325Y-14977222D02*
X9167801Y-14958174D01*
X9167801Y-14958174D02*
X9148753Y-14948650D01*
X9148753Y-14948650D02*
X9120182Y-14948650D01*
X9120182Y-14948650D02*
X9101134Y-14958174D01*
X9101134Y-14958174D02*
X9091611Y-14967698D01*
X9301134Y-15081984D02*
X9282087Y-15072460D01*
X9282087Y-15072460D02*
X9272563Y-15062936D01*
X9272563Y-15062936D02*
X9263039Y-15043888D01*
X9263039Y-15043888D02*
X9263039Y-14986746D01*
X9263039Y-14986746D02*
X9272563Y-14967698D01*
X9272563Y-14967698D02*
X9282087Y-14958174D01*
X9282087Y-14958174D02*
X9301134Y-14948650D01*
X9301134Y-14948650D02*
X9329706Y-14948650D01*
X9329706Y-14948650D02*
X9348753Y-14958174D01*
X9348753Y-14958174D02*
X9358277Y-14967698D01*
X9358277Y-14967698D02*
X9367801Y-14986746D01*
X9367801Y-14986746D02*
X9367801Y-15043888D01*
X9367801Y-15043888D02*
X9358277Y-15062936D01*
X9358277Y-15062936D02*
X9348753Y-15072460D01*
X9348753Y-15072460D02*
X9329706Y-15081984D01*
X9329706Y-15081984D02*
X9301134Y-15081984D01*
X9482087Y-15081984D02*
X9463039Y-15072460D01*
X9463039Y-15072460D02*
X9453515Y-15053412D01*
X9453515Y-15053412D02*
X9453515Y-14881984D01*
X9634468Y-15072460D02*
X9615420Y-15081984D01*
X9615420Y-15081984D02*
X9577325Y-15081984D01*
X9577325Y-15081984D02*
X9558277Y-15072460D01*
X9558277Y-15072460D02*
X9548753Y-15053412D01*
X9548753Y-15053412D02*
X9548753Y-14977222D01*
X9548753Y-14977222D02*
X9558277Y-14958174D01*
X9558277Y-14958174D02*
X9577325Y-14948650D01*
X9577325Y-14948650D02*
X9615420Y-14948650D01*
X9615420Y-14948650D02*
X9634468Y-14958174D01*
X9634468Y-14958174D02*
X9643992Y-14977222D01*
X9643992Y-14977222D02*
X9643992Y-14996269D01*
X9643992Y-14996269D02*
X9548753Y-15015317D01*
X9720182Y-15072460D02*
X9739230Y-15081984D01*
X9739230Y-15081984D02*
X9777325Y-15081984D01*
X9777325Y-15081984D02*
X9796373Y-15072460D01*
X9796373Y-15072460D02*
X9805896Y-15053412D01*
X9805896Y-15053412D02*
X9805896Y-15043888D01*
X9805896Y-15043888D02*
X9796373Y-15024841D01*
X9796373Y-15024841D02*
X9777325Y-15015317D01*
X9777325Y-15015317D02*
X9748753Y-15015317D01*
X9748753Y-15015317D02*
X9729706Y-15005793D01*
X9729706Y-15005793D02*
X9720182Y-14986746D01*
X9720182Y-14986746D02*
X9720182Y-14977222D01*
X9720182Y-14977222D02*
X9729706Y-14958174D01*
X9729706Y-14958174D02*
X9748753Y-14948650D01*
X9748753Y-14948650D02*
X9777325Y-14948650D01*
X9777325Y-14948650D02*
X9796373Y-14958174D01*
X9872563Y-15158174D02*
X9882087Y-15148650D01*
X9882087Y-15148650D02*
X9901134Y-15120079D01*
X9901134Y-15120079D02*
X9910658Y-15101031D01*
X9910658Y-15101031D02*
X9920182Y-15072460D01*
X9920182Y-15072460D02*
X9929706Y-15024841D01*
X9929706Y-15024841D02*
X9929706Y-14986746D01*
X9929706Y-14986746D02*
X9920182Y-14939127D01*
X9920182Y-14939127D02*
X9910658Y-14910555D01*
X9910658Y-14910555D02*
X9901134Y-14891508D01*
X9901134Y-14891508D02*
X9882087Y-14862936D01*
X9882087Y-14862936D02*
X9872563Y-14853412D01*
M02*
