%TF.GenerationSoftware,KiCad,Pcbnew,8.0.8*%
%TF.CreationDate,2025-07-18T21:43:57+01:00*%
%TF.ProjectId,_autosave-EDMX,5f617574-6f73-4617-9665-2d45444d582e,rev?*%
%TF.SameCoordinates,Original*%
%TF.FileFunction,Legend,Top*%
%TF.FilePolarity,Positive*%
%FSLAX46Y46*%
G04 Gerber Fmt 4.6, Leading zero omitted, Abs format (unit mm)*
G04 Created by KiCad (PCBNEW 8.0.8) date 2025-07-18 21:43:57*
%MOMM*%
%LPD*%
G01*
G04 APERTURE LIST*
%ADD10C,0.100000*%
%ADD11C,0.150000*%
%ADD12C,0.300000*%
%ADD13C,0.400000*%
%ADD14C,0.000000*%
%ADD15C,0.500000*%
%ADD16C,0.101600*%
%ADD17C,0.120000*%
%ADD18C,0.127000*%
%ADD19C,0.504000*%
%ADD20C,0.040000*%
G04 APERTURE END LIST*
D10*
D11*
X177002200Y-166007200D02*
X285002200Y-166007200D01*
X285002200Y-198007200D01*
X177002200Y-198007200D01*
X177002200Y-166007200D01*
D10*
D11*
X10000000Y-10000000D02*
X287002200Y-10000000D01*
X287002200Y-200007200D01*
X10000000Y-200007200D01*
X10000000Y-10000000D01*
D10*
D11*
X12000000Y-12000000D02*
X285002200Y-12000000D01*
X285002200Y-198007200D01*
X12000000Y-198007200D01*
X12000000Y-12000000D01*
D10*
D11*
X60000000Y-12000000D02*
X60000000Y-10000000D01*
D10*
D11*
X110000000Y-12000000D02*
X110000000Y-10000000D01*
D10*
D11*
X160000000Y-12000000D02*
X160000000Y-10000000D01*
D10*
D11*
X210000000Y-12000000D02*
X210000000Y-10000000D01*
D10*
D11*
X260000000Y-12000000D02*
X260000000Y-10000000D01*
D10*
D11*
X36089160Y-11593604D02*
X35346303Y-11593604D01*
X35717731Y-11593604D02*
X35717731Y-10293604D01*
X35717731Y-10293604D02*
X35593922Y-10479319D01*
X35593922Y-10479319D02*
X35470112Y-10603128D01*
X35470112Y-10603128D02*
X35346303Y-10665033D01*
D10*
D11*
X85346303Y-10417414D02*
X85408207Y-10355509D01*
X85408207Y-10355509D02*
X85532017Y-10293604D01*
X85532017Y-10293604D02*
X85841541Y-10293604D01*
X85841541Y-10293604D02*
X85965350Y-10355509D01*
X85965350Y-10355509D02*
X86027255Y-10417414D01*
X86027255Y-10417414D02*
X86089160Y-10541223D01*
X86089160Y-10541223D02*
X86089160Y-10665033D01*
X86089160Y-10665033D02*
X86027255Y-10850747D01*
X86027255Y-10850747D02*
X85284398Y-11593604D01*
X85284398Y-11593604D02*
X86089160Y-11593604D01*
D10*
D11*
X135284398Y-10293604D02*
X136089160Y-10293604D01*
X136089160Y-10293604D02*
X135655826Y-10788842D01*
X135655826Y-10788842D02*
X135841541Y-10788842D01*
X135841541Y-10788842D02*
X135965350Y-10850747D01*
X135965350Y-10850747D02*
X136027255Y-10912652D01*
X136027255Y-10912652D02*
X136089160Y-11036461D01*
X136089160Y-11036461D02*
X136089160Y-11345985D01*
X136089160Y-11345985D02*
X136027255Y-11469795D01*
X136027255Y-11469795D02*
X135965350Y-11531700D01*
X135965350Y-11531700D02*
X135841541Y-11593604D01*
X135841541Y-11593604D02*
X135470112Y-11593604D01*
X135470112Y-11593604D02*
X135346303Y-11531700D01*
X135346303Y-11531700D02*
X135284398Y-11469795D01*
D10*
D11*
X185965350Y-10726938D02*
X185965350Y-11593604D01*
X185655826Y-10231700D02*
X185346303Y-11160271D01*
X185346303Y-11160271D02*
X186151064Y-11160271D01*
D10*
D11*
X236027255Y-10293604D02*
X235408207Y-10293604D01*
X235408207Y-10293604D02*
X235346303Y-10912652D01*
X235346303Y-10912652D02*
X235408207Y-10850747D01*
X235408207Y-10850747D02*
X235532017Y-10788842D01*
X235532017Y-10788842D02*
X235841541Y-10788842D01*
X235841541Y-10788842D02*
X235965350Y-10850747D01*
X235965350Y-10850747D02*
X236027255Y-10912652D01*
X236027255Y-10912652D02*
X236089160Y-11036461D01*
X236089160Y-11036461D02*
X236089160Y-11345985D01*
X236089160Y-11345985D02*
X236027255Y-11469795D01*
X236027255Y-11469795D02*
X235965350Y-11531700D01*
X235965350Y-11531700D02*
X235841541Y-11593604D01*
X235841541Y-11593604D02*
X235532017Y-11593604D01*
X235532017Y-11593604D02*
X235408207Y-11531700D01*
X235408207Y-11531700D02*
X235346303Y-11469795D01*
D10*
D11*
X285965350Y-10293604D02*
X285717731Y-10293604D01*
X285717731Y-10293604D02*
X285593922Y-10355509D01*
X285593922Y-10355509D02*
X285532017Y-10417414D01*
X285532017Y-10417414D02*
X285408207Y-10603128D01*
X285408207Y-10603128D02*
X285346303Y-10850747D01*
X285346303Y-10850747D02*
X285346303Y-11345985D01*
X285346303Y-11345985D02*
X285408207Y-11469795D01*
X285408207Y-11469795D02*
X285470112Y-11531700D01*
X285470112Y-11531700D02*
X285593922Y-11593604D01*
X285593922Y-11593604D02*
X285841541Y-11593604D01*
X285841541Y-11593604D02*
X285965350Y-11531700D01*
X285965350Y-11531700D02*
X286027255Y-11469795D01*
X286027255Y-11469795D02*
X286089160Y-11345985D01*
X286089160Y-11345985D02*
X286089160Y-11036461D01*
X286089160Y-11036461D02*
X286027255Y-10912652D01*
X286027255Y-10912652D02*
X285965350Y-10850747D01*
X285965350Y-10850747D02*
X285841541Y-10788842D01*
X285841541Y-10788842D02*
X285593922Y-10788842D01*
X285593922Y-10788842D02*
X285470112Y-10850747D01*
X285470112Y-10850747D02*
X285408207Y-10912652D01*
X285408207Y-10912652D02*
X285346303Y-11036461D01*
D10*
D11*
X60000000Y-198007200D02*
X60000000Y-200007200D01*
D10*
D11*
X110000000Y-198007200D02*
X110000000Y-200007200D01*
D10*
D11*
X160000000Y-198007200D02*
X160000000Y-200007200D01*
D10*
D11*
X210000000Y-198007200D02*
X210000000Y-200007200D01*
D10*
D11*
X260000000Y-198007200D02*
X260000000Y-200007200D01*
D10*
D11*
X36089160Y-199600804D02*
X35346303Y-199600804D01*
X35717731Y-199600804D02*
X35717731Y-198300804D01*
X35717731Y-198300804D02*
X35593922Y-198486519D01*
X35593922Y-198486519D02*
X35470112Y-198610328D01*
X35470112Y-198610328D02*
X35346303Y-198672233D01*
D10*
D11*
X85346303Y-198424614D02*
X85408207Y-198362709D01*
X85408207Y-198362709D02*
X85532017Y-198300804D01*
X85532017Y-198300804D02*
X85841541Y-198300804D01*
X85841541Y-198300804D02*
X85965350Y-198362709D01*
X85965350Y-198362709D02*
X86027255Y-198424614D01*
X86027255Y-198424614D02*
X86089160Y-198548423D01*
X86089160Y-198548423D02*
X86089160Y-198672233D01*
X86089160Y-198672233D02*
X86027255Y-198857947D01*
X86027255Y-198857947D02*
X85284398Y-199600804D01*
X85284398Y-199600804D02*
X86089160Y-199600804D01*
D10*
D11*
X135284398Y-198300804D02*
X136089160Y-198300804D01*
X136089160Y-198300804D02*
X135655826Y-198796042D01*
X135655826Y-198796042D02*
X135841541Y-198796042D01*
X135841541Y-198796042D02*
X135965350Y-198857947D01*
X135965350Y-198857947D02*
X136027255Y-198919852D01*
X136027255Y-198919852D02*
X136089160Y-199043661D01*
X136089160Y-199043661D02*
X136089160Y-199353185D01*
X136089160Y-199353185D02*
X136027255Y-199476995D01*
X136027255Y-199476995D02*
X135965350Y-199538900D01*
X135965350Y-199538900D02*
X135841541Y-199600804D01*
X135841541Y-199600804D02*
X135470112Y-199600804D01*
X135470112Y-199600804D02*
X135346303Y-199538900D01*
X135346303Y-199538900D02*
X135284398Y-199476995D01*
D10*
D11*
X185965350Y-198734138D02*
X185965350Y-199600804D01*
X185655826Y-198238900D02*
X185346303Y-199167471D01*
X185346303Y-199167471D02*
X186151064Y-199167471D01*
D10*
D11*
X236027255Y-198300804D02*
X235408207Y-198300804D01*
X235408207Y-198300804D02*
X235346303Y-198919852D01*
X235346303Y-198919852D02*
X235408207Y-198857947D01*
X235408207Y-198857947D02*
X235532017Y-198796042D01*
X235532017Y-198796042D02*
X235841541Y-198796042D01*
X235841541Y-198796042D02*
X235965350Y-198857947D01*
X235965350Y-198857947D02*
X236027255Y-198919852D01*
X236027255Y-198919852D02*
X236089160Y-199043661D01*
X236089160Y-199043661D02*
X236089160Y-199353185D01*
X236089160Y-199353185D02*
X236027255Y-199476995D01*
X236027255Y-199476995D02*
X235965350Y-199538900D01*
X235965350Y-199538900D02*
X235841541Y-199600804D01*
X235841541Y-199600804D02*
X235532017Y-199600804D01*
X235532017Y-199600804D02*
X235408207Y-199538900D01*
X235408207Y-199538900D02*
X235346303Y-199476995D01*
D10*
D11*
X285965350Y-198300804D02*
X285717731Y-198300804D01*
X285717731Y-198300804D02*
X285593922Y-198362709D01*
X285593922Y-198362709D02*
X285532017Y-198424614D01*
X285532017Y-198424614D02*
X285408207Y-198610328D01*
X285408207Y-198610328D02*
X285346303Y-198857947D01*
X285346303Y-198857947D02*
X285346303Y-199353185D01*
X285346303Y-199353185D02*
X285408207Y-199476995D01*
X285408207Y-199476995D02*
X285470112Y-199538900D01*
X285470112Y-199538900D02*
X285593922Y-199600804D01*
X285593922Y-199600804D02*
X285841541Y-199600804D01*
X285841541Y-199600804D02*
X285965350Y-199538900D01*
X285965350Y-199538900D02*
X286027255Y-199476995D01*
X286027255Y-199476995D02*
X286089160Y-199353185D01*
X286089160Y-199353185D02*
X286089160Y-199043661D01*
X286089160Y-199043661D02*
X286027255Y-198919852D01*
X286027255Y-198919852D02*
X285965350Y-198857947D01*
X285965350Y-198857947D02*
X285841541Y-198796042D01*
X285841541Y-198796042D02*
X285593922Y-198796042D01*
X285593922Y-198796042D02*
X285470112Y-198857947D01*
X285470112Y-198857947D02*
X285408207Y-198919852D01*
X285408207Y-198919852D02*
X285346303Y-199043661D01*
D10*
D11*
X10000000Y-60000000D02*
X12000000Y-60000000D01*
D10*
D11*
X10000000Y-110000000D02*
X12000000Y-110000000D01*
D10*
D11*
X10000000Y-160000000D02*
X12000000Y-160000000D01*
D10*
D11*
X10690476Y-35222176D02*
X11309523Y-35222176D01*
X10566666Y-35593604D02*
X10999999Y-34293604D01*
X10999999Y-34293604D02*
X11433333Y-35593604D01*
D10*
D11*
X11092857Y-84912652D02*
X11278571Y-84974557D01*
X11278571Y-84974557D02*
X11340476Y-85036461D01*
X11340476Y-85036461D02*
X11402380Y-85160271D01*
X11402380Y-85160271D02*
X11402380Y-85345985D01*
X11402380Y-85345985D02*
X11340476Y-85469795D01*
X11340476Y-85469795D02*
X11278571Y-85531700D01*
X11278571Y-85531700D02*
X11154761Y-85593604D01*
X11154761Y-85593604D02*
X10659523Y-85593604D01*
X10659523Y-85593604D02*
X10659523Y-84293604D01*
X10659523Y-84293604D02*
X11092857Y-84293604D01*
X11092857Y-84293604D02*
X11216666Y-84355509D01*
X11216666Y-84355509D02*
X11278571Y-84417414D01*
X11278571Y-84417414D02*
X11340476Y-84541223D01*
X11340476Y-84541223D02*
X11340476Y-84665033D01*
X11340476Y-84665033D02*
X11278571Y-84788842D01*
X11278571Y-84788842D02*
X11216666Y-84850747D01*
X11216666Y-84850747D02*
X11092857Y-84912652D01*
X11092857Y-84912652D02*
X10659523Y-84912652D01*
D10*
D11*
X11402380Y-135469795D02*
X11340476Y-135531700D01*
X11340476Y-135531700D02*
X11154761Y-135593604D01*
X11154761Y-135593604D02*
X11030952Y-135593604D01*
X11030952Y-135593604D02*
X10845238Y-135531700D01*
X10845238Y-135531700D02*
X10721428Y-135407890D01*
X10721428Y-135407890D02*
X10659523Y-135284080D01*
X10659523Y-135284080D02*
X10597619Y-135036461D01*
X10597619Y-135036461D02*
X10597619Y-134850747D01*
X10597619Y-134850747D02*
X10659523Y-134603128D01*
X10659523Y-134603128D02*
X10721428Y-134479319D01*
X10721428Y-134479319D02*
X10845238Y-134355509D01*
X10845238Y-134355509D02*
X11030952Y-134293604D01*
X11030952Y-134293604D02*
X11154761Y-134293604D01*
X11154761Y-134293604D02*
X11340476Y-134355509D01*
X11340476Y-134355509D02*
X11402380Y-134417414D01*
D10*
D11*
X10659523Y-185593604D02*
X10659523Y-184293604D01*
X10659523Y-184293604D02*
X10969047Y-184293604D01*
X10969047Y-184293604D02*
X11154761Y-184355509D01*
X11154761Y-184355509D02*
X11278571Y-184479319D01*
X11278571Y-184479319D02*
X11340476Y-184603128D01*
X11340476Y-184603128D02*
X11402380Y-184850747D01*
X11402380Y-184850747D02*
X11402380Y-185036461D01*
X11402380Y-185036461D02*
X11340476Y-185284080D01*
X11340476Y-185284080D02*
X11278571Y-185407890D01*
X11278571Y-185407890D02*
X11154761Y-185531700D01*
X11154761Y-185531700D02*
X10969047Y-185593604D01*
X10969047Y-185593604D02*
X10659523Y-185593604D01*
D10*
D11*
X287002200Y-60000000D02*
X285002200Y-60000000D01*
D10*
D11*
X287002200Y-110000000D02*
X285002200Y-110000000D01*
D10*
D11*
X287002200Y-160000000D02*
X285002200Y-160000000D01*
D10*
D11*
X285692676Y-35222176D02*
X286311723Y-35222176D01*
X285568866Y-35593604D02*
X286002199Y-34293604D01*
X286002199Y-34293604D02*
X286435533Y-35593604D01*
D10*
D11*
X286095057Y-84912652D02*
X286280771Y-84974557D01*
X286280771Y-84974557D02*
X286342676Y-85036461D01*
X286342676Y-85036461D02*
X286404580Y-85160271D01*
X286404580Y-85160271D02*
X286404580Y-85345985D01*
X286404580Y-85345985D02*
X286342676Y-85469795D01*
X286342676Y-85469795D02*
X286280771Y-85531700D01*
X286280771Y-85531700D02*
X286156961Y-85593604D01*
X286156961Y-85593604D02*
X285661723Y-85593604D01*
X285661723Y-85593604D02*
X285661723Y-84293604D01*
X285661723Y-84293604D02*
X286095057Y-84293604D01*
X286095057Y-84293604D02*
X286218866Y-84355509D01*
X286218866Y-84355509D02*
X286280771Y-84417414D01*
X286280771Y-84417414D02*
X286342676Y-84541223D01*
X286342676Y-84541223D02*
X286342676Y-84665033D01*
X286342676Y-84665033D02*
X286280771Y-84788842D01*
X286280771Y-84788842D02*
X286218866Y-84850747D01*
X286218866Y-84850747D02*
X286095057Y-84912652D01*
X286095057Y-84912652D02*
X285661723Y-84912652D01*
D10*
D11*
X286404580Y-135469795D02*
X286342676Y-135531700D01*
X286342676Y-135531700D02*
X286156961Y-135593604D01*
X286156961Y-135593604D02*
X286033152Y-135593604D01*
X286033152Y-135593604D02*
X285847438Y-135531700D01*
X285847438Y-135531700D02*
X285723628Y-135407890D01*
X285723628Y-135407890D02*
X285661723Y-135284080D01*
X285661723Y-135284080D02*
X285599819Y-135036461D01*
X285599819Y-135036461D02*
X285599819Y-134850747D01*
X285599819Y-134850747D02*
X285661723Y-134603128D01*
X285661723Y-134603128D02*
X285723628Y-134479319D01*
X285723628Y-134479319D02*
X285847438Y-134355509D01*
X285847438Y-134355509D02*
X286033152Y-134293604D01*
X286033152Y-134293604D02*
X286156961Y-134293604D01*
X286156961Y-134293604D02*
X286342676Y-134355509D01*
X286342676Y-134355509D02*
X286404580Y-134417414D01*
D10*
D11*
X285661723Y-185593604D02*
X285661723Y-184293604D01*
X285661723Y-184293604D02*
X285971247Y-184293604D01*
X285971247Y-184293604D02*
X286156961Y-184355509D01*
X286156961Y-184355509D02*
X286280771Y-184479319D01*
X286280771Y-184479319D02*
X286342676Y-184603128D01*
X286342676Y-184603128D02*
X286404580Y-184850747D01*
X286404580Y-184850747D02*
X286404580Y-185036461D01*
X286404580Y-185036461D02*
X286342676Y-185284080D01*
X286342676Y-185284080D02*
X286280771Y-185407890D01*
X286280771Y-185407890D02*
X286156961Y-185531700D01*
X286156961Y-185531700D02*
X285971247Y-185593604D01*
X285971247Y-185593604D02*
X285661723Y-185593604D01*
D10*
D11*
X200458026Y-193793328D02*
X200458026Y-192293328D01*
X200458026Y-192293328D02*
X200815169Y-192293328D01*
X200815169Y-192293328D02*
X201029455Y-192364757D01*
X201029455Y-192364757D02*
X201172312Y-192507614D01*
X201172312Y-192507614D02*
X201243741Y-192650471D01*
X201243741Y-192650471D02*
X201315169Y-192936185D01*
X201315169Y-192936185D02*
X201315169Y-193150471D01*
X201315169Y-193150471D02*
X201243741Y-193436185D01*
X201243741Y-193436185D02*
X201172312Y-193579042D01*
X201172312Y-193579042D02*
X201029455Y-193721900D01*
X201029455Y-193721900D02*
X200815169Y-193793328D01*
X200815169Y-193793328D02*
X200458026Y-193793328D01*
X202600884Y-193793328D02*
X202600884Y-193007614D01*
X202600884Y-193007614D02*
X202529455Y-192864757D01*
X202529455Y-192864757D02*
X202386598Y-192793328D01*
X202386598Y-192793328D02*
X202100884Y-192793328D01*
X202100884Y-192793328D02*
X201958026Y-192864757D01*
X202600884Y-193721900D02*
X202458026Y-193793328D01*
X202458026Y-193793328D02*
X202100884Y-193793328D01*
X202100884Y-193793328D02*
X201958026Y-193721900D01*
X201958026Y-193721900D02*
X201886598Y-193579042D01*
X201886598Y-193579042D02*
X201886598Y-193436185D01*
X201886598Y-193436185D02*
X201958026Y-193293328D01*
X201958026Y-193293328D02*
X202100884Y-193221900D01*
X202100884Y-193221900D02*
X202458026Y-193221900D01*
X202458026Y-193221900D02*
X202600884Y-193150471D01*
X203100884Y-192793328D02*
X203672312Y-192793328D01*
X203315169Y-192293328D02*
X203315169Y-193579042D01*
X203315169Y-193579042D02*
X203386598Y-193721900D01*
X203386598Y-193721900D02*
X203529455Y-193793328D01*
X203529455Y-193793328D02*
X203672312Y-193793328D01*
X204743741Y-193721900D02*
X204600884Y-193793328D01*
X204600884Y-193793328D02*
X204315170Y-193793328D01*
X204315170Y-193793328D02*
X204172312Y-193721900D01*
X204172312Y-193721900D02*
X204100884Y-193579042D01*
X204100884Y-193579042D02*
X204100884Y-193007614D01*
X204100884Y-193007614D02*
X204172312Y-192864757D01*
X204172312Y-192864757D02*
X204315170Y-192793328D01*
X204315170Y-192793328D02*
X204600884Y-192793328D01*
X204600884Y-192793328D02*
X204743741Y-192864757D01*
X204743741Y-192864757D02*
X204815170Y-193007614D01*
X204815170Y-193007614D02*
X204815170Y-193150471D01*
X204815170Y-193150471D02*
X204100884Y-193293328D01*
X205458026Y-193650471D02*
X205529455Y-193721900D01*
X205529455Y-193721900D02*
X205458026Y-193793328D01*
X205458026Y-193793328D02*
X205386598Y-193721900D01*
X205386598Y-193721900D02*
X205458026Y-193650471D01*
X205458026Y-193650471D02*
X205458026Y-193793328D01*
X205458026Y-192864757D02*
X205529455Y-192936185D01*
X205529455Y-192936185D02*
X205458026Y-193007614D01*
X205458026Y-193007614D02*
X205386598Y-192936185D01*
X205386598Y-192936185D02*
X205458026Y-192864757D01*
X205458026Y-192864757D02*
X205458026Y-193007614D01*
D10*
D11*
X177002200Y-194507200D02*
X285002200Y-194507200D01*
D10*
D11*
X178458026Y-196593328D02*
X178458026Y-195093328D01*
X179315169Y-196593328D02*
X178672312Y-195736185D01*
X179315169Y-195093328D02*
X178458026Y-195950471D01*
X179958026Y-196593328D02*
X179958026Y-195593328D01*
X179958026Y-195093328D02*
X179886598Y-195164757D01*
X179886598Y-195164757D02*
X179958026Y-195236185D01*
X179958026Y-195236185D02*
X180029455Y-195164757D01*
X180029455Y-195164757D02*
X179958026Y-195093328D01*
X179958026Y-195093328D02*
X179958026Y-195236185D01*
X181529455Y-196450471D02*
X181458027Y-196521900D01*
X181458027Y-196521900D02*
X181243741Y-196593328D01*
X181243741Y-196593328D02*
X181100884Y-196593328D01*
X181100884Y-196593328D02*
X180886598Y-196521900D01*
X180886598Y-196521900D02*
X180743741Y-196379042D01*
X180743741Y-196379042D02*
X180672312Y-196236185D01*
X180672312Y-196236185D02*
X180600884Y-195950471D01*
X180600884Y-195950471D02*
X180600884Y-195736185D01*
X180600884Y-195736185D02*
X180672312Y-195450471D01*
X180672312Y-195450471D02*
X180743741Y-195307614D01*
X180743741Y-195307614D02*
X180886598Y-195164757D01*
X180886598Y-195164757D02*
X181100884Y-195093328D01*
X181100884Y-195093328D02*
X181243741Y-195093328D01*
X181243741Y-195093328D02*
X181458027Y-195164757D01*
X181458027Y-195164757D02*
X181529455Y-195236185D01*
X182815170Y-196593328D02*
X182815170Y-195807614D01*
X182815170Y-195807614D02*
X182743741Y-195664757D01*
X182743741Y-195664757D02*
X182600884Y-195593328D01*
X182600884Y-195593328D02*
X182315170Y-195593328D01*
X182315170Y-195593328D02*
X182172312Y-195664757D01*
X182815170Y-196521900D02*
X182672312Y-196593328D01*
X182672312Y-196593328D02*
X182315170Y-196593328D01*
X182315170Y-196593328D02*
X182172312Y-196521900D01*
X182172312Y-196521900D02*
X182100884Y-196379042D01*
X182100884Y-196379042D02*
X182100884Y-196236185D01*
X182100884Y-196236185D02*
X182172312Y-196093328D01*
X182172312Y-196093328D02*
X182315170Y-196021900D01*
X182315170Y-196021900D02*
X182672312Y-196021900D01*
X182672312Y-196021900D02*
X182815170Y-195950471D01*
X184172313Y-196593328D02*
X184172313Y-195093328D01*
X184172313Y-196521900D02*
X184029455Y-196593328D01*
X184029455Y-196593328D02*
X183743741Y-196593328D01*
X183743741Y-196593328D02*
X183600884Y-196521900D01*
X183600884Y-196521900D02*
X183529455Y-196450471D01*
X183529455Y-196450471D02*
X183458027Y-196307614D01*
X183458027Y-196307614D02*
X183458027Y-195879042D01*
X183458027Y-195879042D02*
X183529455Y-195736185D01*
X183529455Y-195736185D02*
X183600884Y-195664757D01*
X183600884Y-195664757D02*
X183743741Y-195593328D01*
X183743741Y-195593328D02*
X184029455Y-195593328D01*
X184029455Y-195593328D02*
X184172313Y-195664757D01*
X186029455Y-195807614D02*
X186529455Y-195807614D01*
X186743741Y-196593328D02*
X186029455Y-196593328D01*
X186029455Y-196593328D02*
X186029455Y-195093328D01*
X186029455Y-195093328D02*
X186743741Y-195093328D01*
X187386598Y-196450471D02*
X187458027Y-196521900D01*
X187458027Y-196521900D02*
X187386598Y-196593328D01*
X187386598Y-196593328D02*
X187315170Y-196521900D01*
X187315170Y-196521900D02*
X187386598Y-196450471D01*
X187386598Y-196450471D02*
X187386598Y-196593328D01*
X188100884Y-196593328D02*
X188100884Y-195093328D01*
X188100884Y-195093328D02*
X188458027Y-195093328D01*
X188458027Y-195093328D02*
X188672313Y-195164757D01*
X188672313Y-195164757D02*
X188815170Y-195307614D01*
X188815170Y-195307614D02*
X188886599Y-195450471D01*
X188886599Y-195450471D02*
X188958027Y-195736185D01*
X188958027Y-195736185D02*
X188958027Y-195950471D01*
X188958027Y-195950471D02*
X188886599Y-196236185D01*
X188886599Y-196236185D02*
X188815170Y-196379042D01*
X188815170Y-196379042D02*
X188672313Y-196521900D01*
X188672313Y-196521900D02*
X188458027Y-196593328D01*
X188458027Y-196593328D02*
X188100884Y-196593328D01*
X189600884Y-196450471D02*
X189672313Y-196521900D01*
X189672313Y-196521900D02*
X189600884Y-196593328D01*
X189600884Y-196593328D02*
X189529456Y-196521900D01*
X189529456Y-196521900D02*
X189600884Y-196450471D01*
X189600884Y-196450471D02*
X189600884Y-196593328D01*
X190243742Y-196164757D02*
X190958028Y-196164757D01*
X190100885Y-196593328D02*
X190600885Y-195093328D01*
X190600885Y-195093328D02*
X191100885Y-196593328D01*
X191600884Y-196450471D02*
X191672313Y-196521900D01*
X191672313Y-196521900D02*
X191600884Y-196593328D01*
X191600884Y-196593328D02*
X191529456Y-196521900D01*
X191529456Y-196521900D02*
X191600884Y-196450471D01*
X191600884Y-196450471D02*
X191600884Y-196593328D01*
X193672313Y-195736185D02*
X193529456Y-195664757D01*
X193529456Y-195664757D02*
X193458027Y-195593328D01*
X193458027Y-195593328D02*
X193386599Y-195450471D01*
X193386599Y-195450471D02*
X193386599Y-195379042D01*
X193386599Y-195379042D02*
X193458027Y-195236185D01*
X193458027Y-195236185D02*
X193529456Y-195164757D01*
X193529456Y-195164757D02*
X193672313Y-195093328D01*
X193672313Y-195093328D02*
X193958027Y-195093328D01*
X193958027Y-195093328D02*
X194100885Y-195164757D01*
X194100885Y-195164757D02*
X194172313Y-195236185D01*
X194172313Y-195236185D02*
X194243742Y-195379042D01*
X194243742Y-195379042D02*
X194243742Y-195450471D01*
X194243742Y-195450471D02*
X194172313Y-195593328D01*
X194172313Y-195593328D02*
X194100885Y-195664757D01*
X194100885Y-195664757D02*
X193958027Y-195736185D01*
X193958027Y-195736185D02*
X193672313Y-195736185D01*
X193672313Y-195736185D02*
X193529456Y-195807614D01*
X193529456Y-195807614D02*
X193458027Y-195879042D01*
X193458027Y-195879042D02*
X193386599Y-196021900D01*
X193386599Y-196021900D02*
X193386599Y-196307614D01*
X193386599Y-196307614D02*
X193458027Y-196450471D01*
X193458027Y-196450471D02*
X193529456Y-196521900D01*
X193529456Y-196521900D02*
X193672313Y-196593328D01*
X193672313Y-196593328D02*
X193958027Y-196593328D01*
X193958027Y-196593328D02*
X194100885Y-196521900D01*
X194100885Y-196521900D02*
X194172313Y-196450471D01*
X194172313Y-196450471D02*
X194243742Y-196307614D01*
X194243742Y-196307614D02*
X194243742Y-196021900D01*
X194243742Y-196021900D02*
X194172313Y-195879042D01*
X194172313Y-195879042D02*
X194100885Y-195807614D01*
X194100885Y-195807614D02*
X193958027Y-195736185D01*
X194886598Y-196450471D02*
X194958027Y-196521900D01*
X194958027Y-196521900D02*
X194886598Y-196593328D01*
X194886598Y-196593328D02*
X194815170Y-196521900D01*
X194815170Y-196521900D02*
X194886598Y-196450471D01*
X194886598Y-196450471D02*
X194886598Y-196593328D01*
X195886599Y-195093328D02*
X196029456Y-195093328D01*
X196029456Y-195093328D02*
X196172313Y-195164757D01*
X196172313Y-195164757D02*
X196243742Y-195236185D01*
X196243742Y-195236185D02*
X196315170Y-195379042D01*
X196315170Y-195379042D02*
X196386599Y-195664757D01*
X196386599Y-195664757D02*
X196386599Y-196021900D01*
X196386599Y-196021900D02*
X196315170Y-196307614D01*
X196315170Y-196307614D02*
X196243742Y-196450471D01*
X196243742Y-196450471D02*
X196172313Y-196521900D01*
X196172313Y-196521900D02*
X196029456Y-196593328D01*
X196029456Y-196593328D02*
X195886599Y-196593328D01*
X195886599Y-196593328D02*
X195743742Y-196521900D01*
X195743742Y-196521900D02*
X195672313Y-196450471D01*
X195672313Y-196450471D02*
X195600884Y-196307614D01*
X195600884Y-196307614D02*
X195529456Y-196021900D01*
X195529456Y-196021900D02*
X195529456Y-195664757D01*
X195529456Y-195664757D02*
X195600884Y-195379042D01*
X195600884Y-195379042D02*
X195672313Y-195236185D01*
X195672313Y-195236185D02*
X195743742Y-195164757D01*
X195743742Y-195164757D02*
X195886599Y-195093328D01*
X197029455Y-196450471D02*
X197100884Y-196521900D01*
X197100884Y-196521900D02*
X197029455Y-196593328D01*
X197029455Y-196593328D02*
X196958027Y-196521900D01*
X196958027Y-196521900D02*
X197029455Y-196450471D01*
X197029455Y-196450471D02*
X197029455Y-196593328D01*
X197958027Y-195736185D02*
X197815170Y-195664757D01*
X197815170Y-195664757D02*
X197743741Y-195593328D01*
X197743741Y-195593328D02*
X197672313Y-195450471D01*
X197672313Y-195450471D02*
X197672313Y-195379042D01*
X197672313Y-195379042D02*
X197743741Y-195236185D01*
X197743741Y-195236185D02*
X197815170Y-195164757D01*
X197815170Y-195164757D02*
X197958027Y-195093328D01*
X197958027Y-195093328D02*
X198243741Y-195093328D01*
X198243741Y-195093328D02*
X198386599Y-195164757D01*
X198386599Y-195164757D02*
X198458027Y-195236185D01*
X198458027Y-195236185D02*
X198529456Y-195379042D01*
X198529456Y-195379042D02*
X198529456Y-195450471D01*
X198529456Y-195450471D02*
X198458027Y-195593328D01*
X198458027Y-195593328D02*
X198386599Y-195664757D01*
X198386599Y-195664757D02*
X198243741Y-195736185D01*
X198243741Y-195736185D02*
X197958027Y-195736185D01*
X197958027Y-195736185D02*
X197815170Y-195807614D01*
X197815170Y-195807614D02*
X197743741Y-195879042D01*
X197743741Y-195879042D02*
X197672313Y-196021900D01*
X197672313Y-196021900D02*
X197672313Y-196307614D01*
X197672313Y-196307614D02*
X197743741Y-196450471D01*
X197743741Y-196450471D02*
X197815170Y-196521900D01*
X197815170Y-196521900D02*
X197958027Y-196593328D01*
X197958027Y-196593328D02*
X198243741Y-196593328D01*
X198243741Y-196593328D02*
X198386599Y-196521900D01*
X198386599Y-196521900D02*
X198458027Y-196450471D01*
X198458027Y-196450471D02*
X198529456Y-196307614D01*
X198529456Y-196307614D02*
X198529456Y-196021900D01*
X198529456Y-196021900D02*
X198458027Y-195879042D01*
X198458027Y-195879042D02*
X198386599Y-195807614D01*
X198386599Y-195807614D02*
X198243741Y-195736185D01*
D10*
D11*
X177002200Y-191507200D02*
X285002200Y-191507200D01*
D10*
D12*
X264413853Y-193785528D02*
X263913853Y-193071242D01*
X263556710Y-193785528D02*
X263556710Y-192285528D01*
X263556710Y-192285528D02*
X264128139Y-192285528D01*
X264128139Y-192285528D02*
X264270996Y-192356957D01*
X264270996Y-192356957D02*
X264342425Y-192428385D01*
X264342425Y-192428385D02*
X264413853Y-192571242D01*
X264413853Y-192571242D02*
X264413853Y-192785528D01*
X264413853Y-192785528D02*
X264342425Y-192928385D01*
X264342425Y-192928385D02*
X264270996Y-192999814D01*
X264270996Y-192999814D02*
X264128139Y-193071242D01*
X264128139Y-193071242D02*
X263556710Y-193071242D01*
X265628139Y-193714100D02*
X265485282Y-193785528D01*
X265485282Y-193785528D02*
X265199568Y-193785528D01*
X265199568Y-193785528D02*
X265056710Y-193714100D01*
X265056710Y-193714100D02*
X264985282Y-193571242D01*
X264985282Y-193571242D02*
X264985282Y-192999814D01*
X264985282Y-192999814D02*
X265056710Y-192856957D01*
X265056710Y-192856957D02*
X265199568Y-192785528D01*
X265199568Y-192785528D02*
X265485282Y-192785528D01*
X265485282Y-192785528D02*
X265628139Y-192856957D01*
X265628139Y-192856957D02*
X265699568Y-192999814D01*
X265699568Y-192999814D02*
X265699568Y-193142671D01*
X265699568Y-193142671D02*
X264985282Y-193285528D01*
X266199567Y-192785528D02*
X266556710Y-193785528D01*
X266556710Y-193785528D02*
X266913853Y-192785528D01*
X267485281Y-193642671D02*
X267556710Y-193714100D01*
X267556710Y-193714100D02*
X267485281Y-193785528D01*
X267485281Y-193785528D02*
X267413853Y-193714100D01*
X267413853Y-193714100D02*
X267485281Y-193642671D01*
X267485281Y-193642671D02*
X267485281Y-193785528D01*
X267485281Y-192856957D02*
X267556710Y-192928385D01*
X267556710Y-192928385D02*
X267485281Y-192999814D01*
X267485281Y-192999814D02*
X267413853Y-192928385D01*
X267413853Y-192928385D02*
X267485281Y-192856957D01*
X267485281Y-192856957D02*
X267485281Y-192999814D01*
D10*
D11*
X178386598Y-193721900D02*
X178600884Y-193793328D01*
X178600884Y-193793328D02*
X178958026Y-193793328D01*
X178958026Y-193793328D02*
X179100884Y-193721900D01*
X179100884Y-193721900D02*
X179172312Y-193650471D01*
X179172312Y-193650471D02*
X179243741Y-193507614D01*
X179243741Y-193507614D02*
X179243741Y-193364757D01*
X179243741Y-193364757D02*
X179172312Y-193221900D01*
X179172312Y-193221900D02*
X179100884Y-193150471D01*
X179100884Y-193150471D02*
X178958026Y-193079042D01*
X178958026Y-193079042D02*
X178672312Y-193007614D01*
X178672312Y-193007614D02*
X178529455Y-192936185D01*
X178529455Y-192936185D02*
X178458026Y-192864757D01*
X178458026Y-192864757D02*
X178386598Y-192721900D01*
X178386598Y-192721900D02*
X178386598Y-192579042D01*
X178386598Y-192579042D02*
X178458026Y-192436185D01*
X178458026Y-192436185D02*
X178529455Y-192364757D01*
X178529455Y-192364757D02*
X178672312Y-192293328D01*
X178672312Y-192293328D02*
X179029455Y-192293328D01*
X179029455Y-192293328D02*
X179243741Y-192364757D01*
X179886597Y-193793328D02*
X179886597Y-192793328D01*
X179886597Y-192293328D02*
X179815169Y-192364757D01*
X179815169Y-192364757D02*
X179886597Y-192436185D01*
X179886597Y-192436185D02*
X179958026Y-192364757D01*
X179958026Y-192364757D02*
X179886597Y-192293328D01*
X179886597Y-192293328D02*
X179886597Y-192436185D01*
X180458026Y-192793328D02*
X181243741Y-192793328D01*
X181243741Y-192793328D02*
X180458026Y-193793328D01*
X180458026Y-193793328D02*
X181243741Y-193793328D01*
X182386598Y-193721900D02*
X182243741Y-193793328D01*
X182243741Y-193793328D02*
X181958027Y-193793328D01*
X181958027Y-193793328D02*
X181815169Y-193721900D01*
X181815169Y-193721900D02*
X181743741Y-193579042D01*
X181743741Y-193579042D02*
X181743741Y-193007614D01*
X181743741Y-193007614D02*
X181815169Y-192864757D01*
X181815169Y-192864757D02*
X181958027Y-192793328D01*
X181958027Y-192793328D02*
X182243741Y-192793328D01*
X182243741Y-192793328D02*
X182386598Y-192864757D01*
X182386598Y-192864757D02*
X182458027Y-193007614D01*
X182458027Y-193007614D02*
X182458027Y-193150471D01*
X182458027Y-193150471D02*
X181743741Y-193293328D01*
X183100883Y-193650471D02*
X183172312Y-193721900D01*
X183172312Y-193721900D02*
X183100883Y-193793328D01*
X183100883Y-193793328D02*
X183029455Y-193721900D01*
X183029455Y-193721900D02*
X183100883Y-193650471D01*
X183100883Y-193650471D02*
X183100883Y-193793328D01*
X183100883Y-192864757D02*
X183172312Y-192936185D01*
X183172312Y-192936185D02*
X183100883Y-193007614D01*
X183100883Y-193007614D02*
X183029455Y-192936185D01*
X183029455Y-192936185D02*
X183100883Y-192864757D01*
X183100883Y-192864757D02*
X183100883Y-193007614D01*
X184886598Y-193364757D02*
X185600884Y-193364757D01*
X184743741Y-193793328D02*
X185243741Y-192293328D01*
X185243741Y-192293328D02*
X185743741Y-193793328D01*
X186886598Y-192793328D02*
X186886598Y-193793328D01*
X186529455Y-192221900D02*
X186172312Y-193293328D01*
X186172312Y-193293328D02*
X187100883Y-193293328D01*
D10*
D11*
X263458026Y-196593328D02*
X263458026Y-195093328D01*
X264815170Y-196593328D02*
X264815170Y-195093328D01*
X264815170Y-196521900D02*
X264672312Y-196593328D01*
X264672312Y-196593328D02*
X264386598Y-196593328D01*
X264386598Y-196593328D02*
X264243741Y-196521900D01*
X264243741Y-196521900D02*
X264172312Y-196450471D01*
X264172312Y-196450471D02*
X264100884Y-196307614D01*
X264100884Y-196307614D02*
X264100884Y-195879042D01*
X264100884Y-195879042D02*
X264172312Y-195736185D01*
X264172312Y-195736185D02*
X264243741Y-195664757D01*
X264243741Y-195664757D02*
X264386598Y-195593328D01*
X264386598Y-195593328D02*
X264672312Y-195593328D01*
X264672312Y-195593328D02*
X264815170Y-195664757D01*
X265529455Y-196450471D02*
X265600884Y-196521900D01*
X265600884Y-196521900D02*
X265529455Y-196593328D01*
X265529455Y-196593328D02*
X265458027Y-196521900D01*
X265458027Y-196521900D02*
X265529455Y-196450471D01*
X265529455Y-196450471D02*
X265529455Y-196593328D01*
X265529455Y-195664757D02*
X265600884Y-195736185D01*
X265600884Y-195736185D02*
X265529455Y-195807614D01*
X265529455Y-195807614D02*
X265458027Y-195736185D01*
X265458027Y-195736185D02*
X265529455Y-195664757D01*
X265529455Y-195664757D02*
X265529455Y-195807614D01*
X268172313Y-196593328D02*
X267315170Y-196593328D01*
X267743741Y-196593328D02*
X267743741Y-195093328D01*
X267743741Y-195093328D02*
X267600884Y-195307614D01*
X267600884Y-195307614D02*
X267458027Y-195450471D01*
X267458027Y-195450471D02*
X267315170Y-195521900D01*
X269886598Y-195021900D02*
X268600884Y-196950471D01*
X271172313Y-196593328D02*
X270315170Y-196593328D01*
X270743741Y-196593328D02*
X270743741Y-195093328D01*
X270743741Y-195093328D02*
X270600884Y-195307614D01*
X270600884Y-195307614D02*
X270458027Y-195450471D01*
X270458027Y-195450471D02*
X270315170Y-195521900D01*
D10*
D11*
X177002200Y-187507200D02*
X285002200Y-187507200D01*
D10*
D13*
X178693928Y-188211638D02*
X179836785Y-188211638D01*
X179015357Y-190211638D02*
X179265357Y-188211638D01*
X180253452Y-190211638D02*
X180420119Y-188878304D01*
X180503452Y-188211638D02*
X180396309Y-188306876D01*
X180396309Y-188306876D02*
X180479643Y-188402114D01*
X180479643Y-188402114D02*
X180586786Y-188306876D01*
X180586786Y-188306876D02*
X180503452Y-188211638D01*
X180503452Y-188211638D02*
X180479643Y-188402114D01*
X181086786Y-188878304D02*
X181848690Y-188878304D01*
X181455833Y-188211638D02*
X181241548Y-189925923D01*
X181241548Y-189925923D02*
X181312976Y-190116400D01*
X181312976Y-190116400D02*
X181491548Y-190211638D01*
X181491548Y-190211638D02*
X181682024Y-190211638D01*
X182634405Y-190211638D02*
X182455833Y-190116400D01*
X182455833Y-190116400D02*
X182384405Y-189925923D01*
X182384405Y-189925923D02*
X182598690Y-188211638D01*
X184170119Y-190116400D02*
X183967738Y-190211638D01*
X183967738Y-190211638D02*
X183586785Y-190211638D01*
X183586785Y-190211638D02*
X183408214Y-190116400D01*
X183408214Y-190116400D02*
X183336785Y-189925923D01*
X183336785Y-189925923D02*
X183432024Y-189164019D01*
X183432024Y-189164019D02*
X183551071Y-188973542D01*
X183551071Y-188973542D02*
X183753452Y-188878304D01*
X183753452Y-188878304D02*
X184134404Y-188878304D01*
X184134404Y-188878304D02*
X184312976Y-188973542D01*
X184312976Y-188973542D02*
X184384404Y-189164019D01*
X184384404Y-189164019D02*
X184360595Y-189354495D01*
X184360595Y-189354495D02*
X183384404Y-189544971D01*
X185134405Y-190021161D02*
X185217738Y-190116400D01*
X185217738Y-190116400D02*
X185110595Y-190211638D01*
X185110595Y-190211638D02*
X185027262Y-190116400D01*
X185027262Y-190116400D02*
X185134405Y-190021161D01*
X185134405Y-190021161D02*
X185110595Y-190211638D01*
X185265357Y-188973542D02*
X185348690Y-189068780D01*
X185348690Y-189068780D02*
X185241548Y-189164019D01*
X185241548Y-189164019D02*
X185158214Y-189068780D01*
X185158214Y-189068780D02*
X185265357Y-188973542D01*
X185265357Y-188973542D02*
X185241548Y-189164019D01*
D10*
D11*
X178958026Y-185607614D02*
X178458026Y-185607614D01*
X178458026Y-186393328D02*
X178458026Y-184893328D01*
X178458026Y-184893328D02*
X179172312Y-184893328D01*
X179743740Y-186393328D02*
X179743740Y-185393328D01*
X179743740Y-184893328D02*
X179672312Y-184964757D01*
X179672312Y-184964757D02*
X179743740Y-185036185D01*
X179743740Y-185036185D02*
X179815169Y-184964757D01*
X179815169Y-184964757D02*
X179743740Y-184893328D01*
X179743740Y-184893328D02*
X179743740Y-185036185D01*
X180672312Y-186393328D02*
X180529455Y-186321900D01*
X180529455Y-186321900D02*
X180458026Y-186179042D01*
X180458026Y-186179042D02*
X180458026Y-184893328D01*
X181815169Y-186321900D02*
X181672312Y-186393328D01*
X181672312Y-186393328D02*
X181386598Y-186393328D01*
X181386598Y-186393328D02*
X181243740Y-186321900D01*
X181243740Y-186321900D02*
X181172312Y-186179042D01*
X181172312Y-186179042D02*
X181172312Y-185607614D01*
X181172312Y-185607614D02*
X181243740Y-185464757D01*
X181243740Y-185464757D02*
X181386598Y-185393328D01*
X181386598Y-185393328D02*
X181672312Y-185393328D01*
X181672312Y-185393328D02*
X181815169Y-185464757D01*
X181815169Y-185464757D02*
X181886598Y-185607614D01*
X181886598Y-185607614D02*
X181886598Y-185750471D01*
X181886598Y-185750471D02*
X181172312Y-185893328D01*
X182529454Y-186250471D02*
X182600883Y-186321900D01*
X182600883Y-186321900D02*
X182529454Y-186393328D01*
X182529454Y-186393328D02*
X182458026Y-186321900D01*
X182458026Y-186321900D02*
X182529454Y-186250471D01*
X182529454Y-186250471D02*
X182529454Y-186393328D01*
X182529454Y-185464757D02*
X182600883Y-185536185D01*
X182600883Y-185536185D02*
X182529454Y-185607614D01*
X182529454Y-185607614D02*
X182458026Y-185536185D01*
X182458026Y-185536185D02*
X182529454Y-185464757D01*
X182529454Y-185464757D02*
X182529454Y-185607614D01*
X184029455Y-186536185D02*
X185172312Y-186536185D01*
X186172312Y-186393328D02*
X186172312Y-185607614D01*
X186172312Y-185607614D02*
X186100883Y-185464757D01*
X186100883Y-185464757D02*
X185958026Y-185393328D01*
X185958026Y-185393328D02*
X185672312Y-185393328D01*
X185672312Y-185393328D02*
X185529454Y-185464757D01*
X186172312Y-186321900D02*
X186029454Y-186393328D01*
X186029454Y-186393328D02*
X185672312Y-186393328D01*
X185672312Y-186393328D02*
X185529454Y-186321900D01*
X185529454Y-186321900D02*
X185458026Y-186179042D01*
X185458026Y-186179042D02*
X185458026Y-186036185D01*
X185458026Y-186036185D02*
X185529454Y-185893328D01*
X185529454Y-185893328D02*
X185672312Y-185821900D01*
X185672312Y-185821900D02*
X186029454Y-185821900D01*
X186029454Y-185821900D02*
X186172312Y-185750471D01*
X187529455Y-185393328D02*
X187529455Y-186393328D01*
X186886597Y-185393328D02*
X186886597Y-186179042D01*
X186886597Y-186179042D02*
X186958026Y-186321900D01*
X186958026Y-186321900D02*
X187100883Y-186393328D01*
X187100883Y-186393328D02*
X187315169Y-186393328D01*
X187315169Y-186393328D02*
X187458026Y-186321900D01*
X187458026Y-186321900D02*
X187529455Y-186250471D01*
X188029455Y-185393328D02*
X188600883Y-185393328D01*
X188243740Y-184893328D02*
X188243740Y-186179042D01*
X188243740Y-186179042D02*
X188315169Y-186321900D01*
X188315169Y-186321900D02*
X188458026Y-186393328D01*
X188458026Y-186393328D02*
X188600883Y-186393328D01*
X189315169Y-186393328D02*
X189172312Y-186321900D01*
X189172312Y-186321900D02*
X189100883Y-186250471D01*
X189100883Y-186250471D02*
X189029455Y-186107614D01*
X189029455Y-186107614D02*
X189029455Y-185679042D01*
X189029455Y-185679042D02*
X189100883Y-185536185D01*
X189100883Y-185536185D02*
X189172312Y-185464757D01*
X189172312Y-185464757D02*
X189315169Y-185393328D01*
X189315169Y-185393328D02*
X189529455Y-185393328D01*
X189529455Y-185393328D02*
X189672312Y-185464757D01*
X189672312Y-185464757D02*
X189743741Y-185536185D01*
X189743741Y-185536185D02*
X189815169Y-185679042D01*
X189815169Y-185679042D02*
X189815169Y-186107614D01*
X189815169Y-186107614D02*
X189743741Y-186250471D01*
X189743741Y-186250471D02*
X189672312Y-186321900D01*
X189672312Y-186321900D02*
X189529455Y-186393328D01*
X189529455Y-186393328D02*
X189315169Y-186393328D01*
X190386598Y-186321900D02*
X190529455Y-186393328D01*
X190529455Y-186393328D02*
X190815169Y-186393328D01*
X190815169Y-186393328D02*
X190958026Y-186321900D01*
X190958026Y-186321900D02*
X191029455Y-186179042D01*
X191029455Y-186179042D02*
X191029455Y-186107614D01*
X191029455Y-186107614D02*
X190958026Y-185964757D01*
X190958026Y-185964757D02*
X190815169Y-185893328D01*
X190815169Y-185893328D02*
X190600884Y-185893328D01*
X190600884Y-185893328D02*
X190458026Y-185821900D01*
X190458026Y-185821900D02*
X190386598Y-185679042D01*
X190386598Y-185679042D02*
X190386598Y-185607614D01*
X190386598Y-185607614D02*
X190458026Y-185464757D01*
X190458026Y-185464757D02*
X190600884Y-185393328D01*
X190600884Y-185393328D02*
X190815169Y-185393328D01*
X190815169Y-185393328D02*
X190958026Y-185464757D01*
X192315170Y-186393328D02*
X192315170Y-185607614D01*
X192315170Y-185607614D02*
X192243741Y-185464757D01*
X192243741Y-185464757D02*
X192100884Y-185393328D01*
X192100884Y-185393328D02*
X191815170Y-185393328D01*
X191815170Y-185393328D02*
X191672312Y-185464757D01*
X192315170Y-186321900D02*
X192172312Y-186393328D01*
X192172312Y-186393328D02*
X191815170Y-186393328D01*
X191815170Y-186393328D02*
X191672312Y-186321900D01*
X191672312Y-186321900D02*
X191600884Y-186179042D01*
X191600884Y-186179042D02*
X191600884Y-186036185D01*
X191600884Y-186036185D02*
X191672312Y-185893328D01*
X191672312Y-185893328D02*
X191815170Y-185821900D01*
X191815170Y-185821900D02*
X192172312Y-185821900D01*
X192172312Y-185821900D02*
X192315170Y-185750471D01*
X192886598Y-185393328D02*
X193243741Y-186393328D01*
X193243741Y-186393328D02*
X193600884Y-185393328D01*
X194743741Y-186321900D02*
X194600884Y-186393328D01*
X194600884Y-186393328D02*
X194315170Y-186393328D01*
X194315170Y-186393328D02*
X194172312Y-186321900D01*
X194172312Y-186321900D02*
X194100884Y-186179042D01*
X194100884Y-186179042D02*
X194100884Y-185607614D01*
X194100884Y-185607614D02*
X194172312Y-185464757D01*
X194172312Y-185464757D02*
X194315170Y-185393328D01*
X194315170Y-185393328D02*
X194600884Y-185393328D01*
X194600884Y-185393328D02*
X194743741Y-185464757D01*
X194743741Y-185464757D02*
X194815170Y-185607614D01*
X194815170Y-185607614D02*
X194815170Y-185750471D01*
X194815170Y-185750471D02*
X194100884Y-185893328D01*
X195458026Y-185821900D02*
X196600884Y-185821900D01*
X197315169Y-185607614D02*
X197815169Y-185607614D01*
X198029455Y-186393328D02*
X197315169Y-186393328D01*
X197315169Y-186393328D02*
X197315169Y-184893328D01*
X197315169Y-184893328D02*
X198029455Y-184893328D01*
X198672312Y-186393328D02*
X198672312Y-184893328D01*
X198672312Y-184893328D02*
X199029455Y-184893328D01*
X199029455Y-184893328D02*
X199243741Y-184964757D01*
X199243741Y-184964757D02*
X199386598Y-185107614D01*
X199386598Y-185107614D02*
X199458027Y-185250471D01*
X199458027Y-185250471D02*
X199529455Y-185536185D01*
X199529455Y-185536185D02*
X199529455Y-185750471D01*
X199529455Y-185750471D02*
X199458027Y-186036185D01*
X199458027Y-186036185D02*
X199386598Y-186179042D01*
X199386598Y-186179042D02*
X199243741Y-186321900D01*
X199243741Y-186321900D02*
X199029455Y-186393328D01*
X199029455Y-186393328D02*
X198672312Y-186393328D01*
X200172312Y-186393328D02*
X200172312Y-184893328D01*
X200172312Y-184893328D02*
X200672312Y-185964757D01*
X200672312Y-185964757D02*
X201172312Y-184893328D01*
X201172312Y-184893328D02*
X201172312Y-186393328D01*
X201743741Y-184893328D02*
X202743741Y-186393328D01*
X202743741Y-184893328D02*
X201743741Y-186393328D01*
X203315169Y-186250471D02*
X203386598Y-186321900D01*
X203386598Y-186321900D02*
X203315169Y-186393328D01*
X203315169Y-186393328D02*
X203243741Y-186321900D01*
X203243741Y-186321900D02*
X203315169Y-186250471D01*
X203315169Y-186250471D02*
X203315169Y-186393328D01*
X204029455Y-186393328D02*
X204029455Y-184893328D01*
X204172313Y-185821900D02*
X204600884Y-186393328D01*
X204600884Y-185393328D02*
X204029455Y-185964757D01*
X205243741Y-186393328D02*
X205243741Y-185393328D01*
X205243741Y-184893328D02*
X205172313Y-184964757D01*
X205172313Y-184964757D02*
X205243741Y-185036185D01*
X205243741Y-185036185D02*
X205315170Y-184964757D01*
X205315170Y-184964757D02*
X205243741Y-184893328D01*
X205243741Y-184893328D02*
X205243741Y-185036185D01*
X206600885Y-186321900D02*
X206458027Y-186393328D01*
X206458027Y-186393328D02*
X206172313Y-186393328D01*
X206172313Y-186393328D02*
X206029456Y-186321900D01*
X206029456Y-186321900D02*
X205958027Y-186250471D01*
X205958027Y-186250471D02*
X205886599Y-186107614D01*
X205886599Y-186107614D02*
X205886599Y-185679042D01*
X205886599Y-185679042D02*
X205958027Y-185536185D01*
X205958027Y-185536185D02*
X206029456Y-185464757D01*
X206029456Y-185464757D02*
X206172313Y-185393328D01*
X206172313Y-185393328D02*
X206458027Y-185393328D01*
X206458027Y-185393328D02*
X206600885Y-185464757D01*
X207886599Y-186393328D02*
X207886599Y-185607614D01*
X207886599Y-185607614D02*
X207815170Y-185464757D01*
X207815170Y-185464757D02*
X207672313Y-185393328D01*
X207672313Y-185393328D02*
X207386599Y-185393328D01*
X207386599Y-185393328D02*
X207243741Y-185464757D01*
X207886599Y-186321900D02*
X207743741Y-186393328D01*
X207743741Y-186393328D02*
X207386599Y-186393328D01*
X207386599Y-186393328D02*
X207243741Y-186321900D01*
X207243741Y-186321900D02*
X207172313Y-186179042D01*
X207172313Y-186179042D02*
X207172313Y-186036185D01*
X207172313Y-186036185D02*
X207243741Y-185893328D01*
X207243741Y-185893328D02*
X207386599Y-185821900D01*
X207386599Y-185821900D02*
X207743741Y-185821900D01*
X207743741Y-185821900D02*
X207886599Y-185750471D01*
X209243742Y-186393328D02*
X209243742Y-184893328D01*
X209243742Y-186321900D02*
X209100884Y-186393328D01*
X209100884Y-186393328D02*
X208815170Y-186393328D01*
X208815170Y-186393328D02*
X208672313Y-186321900D01*
X208672313Y-186321900D02*
X208600884Y-186250471D01*
X208600884Y-186250471D02*
X208529456Y-186107614D01*
X208529456Y-186107614D02*
X208529456Y-185679042D01*
X208529456Y-185679042D02*
X208600884Y-185536185D01*
X208600884Y-185536185D02*
X208672313Y-185464757D01*
X208672313Y-185464757D02*
X208815170Y-185393328D01*
X208815170Y-185393328D02*
X209100884Y-185393328D01*
X209100884Y-185393328D02*
X209243742Y-185464757D01*
X209600885Y-186536185D02*
X210743742Y-186536185D01*
X211100884Y-185393328D02*
X211100884Y-186893328D01*
X211100884Y-185464757D02*
X211243742Y-185393328D01*
X211243742Y-185393328D02*
X211529456Y-185393328D01*
X211529456Y-185393328D02*
X211672313Y-185464757D01*
X211672313Y-185464757D02*
X211743742Y-185536185D01*
X211743742Y-185536185D02*
X211815170Y-185679042D01*
X211815170Y-185679042D02*
X211815170Y-186107614D01*
X211815170Y-186107614D02*
X211743742Y-186250471D01*
X211743742Y-186250471D02*
X211672313Y-186321900D01*
X211672313Y-186321900D02*
X211529456Y-186393328D01*
X211529456Y-186393328D02*
X211243742Y-186393328D01*
X211243742Y-186393328D02*
X211100884Y-186321900D01*
X213100885Y-186321900D02*
X212958027Y-186393328D01*
X212958027Y-186393328D02*
X212672313Y-186393328D01*
X212672313Y-186393328D02*
X212529456Y-186321900D01*
X212529456Y-186321900D02*
X212458027Y-186250471D01*
X212458027Y-186250471D02*
X212386599Y-186107614D01*
X212386599Y-186107614D02*
X212386599Y-185679042D01*
X212386599Y-185679042D02*
X212458027Y-185536185D01*
X212458027Y-185536185D02*
X212529456Y-185464757D01*
X212529456Y-185464757D02*
X212672313Y-185393328D01*
X212672313Y-185393328D02*
X212958027Y-185393328D01*
X212958027Y-185393328D02*
X213100885Y-185464757D01*
X213743741Y-186393328D02*
X213743741Y-184893328D01*
X213743741Y-185464757D02*
X213886599Y-185393328D01*
X213886599Y-185393328D02*
X214172313Y-185393328D01*
X214172313Y-185393328D02*
X214315170Y-185464757D01*
X214315170Y-185464757D02*
X214386599Y-185536185D01*
X214386599Y-185536185D02*
X214458027Y-185679042D01*
X214458027Y-185679042D02*
X214458027Y-186107614D01*
X214458027Y-186107614D02*
X214386599Y-186250471D01*
X214386599Y-186250471D02*
X214315170Y-186321900D01*
X214315170Y-186321900D02*
X214172313Y-186393328D01*
X214172313Y-186393328D02*
X213886599Y-186393328D01*
X213886599Y-186393328D02*
X213743741Y-186321900D01*
D10*
D11*
X177002200Y-181507200D02*
X285002200Y-181507200D01*
D10*
D11*
X178386598Y-183621900D02*
X178600884Y-183693328D01*
X178600884Y-183693328D02*
X178958026Y-183693328D01*
X178958026Y-183693328D02*
X179100884Y-183621900D01*
X179100884Y-183621900D02*
X179172312Y-183550471D01*
X179172312Y-183550471D02*
X179243741Y-183407614D01*
X179243741Y-183407614D02*
X179243741Y-183264757D01*
X179243741Y-183264757D02*
X179172312Y-183121900D01*
X179172312Y-183121900D02*
X179100884Y-183050471D01*
X179100884Y-183050471D02*
X178958026Y-182979042D01*
X178958026Y-182979042D02*
X178672312Y-182907614D01*
X178672312Y-182907614D02*
X178529455Y-182836185D01*
X178529455Y-182836185D02*
X178458026Y-182764757D01*
X178458026Y-182764757D02*
X178386598Y-182621900D01*
X178386598Y-182621900D02*
X178386598Y-182479042D01*
X178386598Y-182479042D02*
X178458026Y-182336185D01*
X178458026Y-182336185D02*
X178529455Y-182264757D01*
X178529455Y-182264757D02*
X178672312Y-182193328D01*
X178672312Y-182193328D02*
X179029455Y-182193328D01*
X179029455Y-182193328D02*
X179243741Y-182264757D01*
X179886597Y-183693328D02*
X179886597Y-182193328D01*
X180529455Y-183693328D02*
X180529455Y-182907614D01*
X180529455Y-182907614D02*
X180458026Y-182764757D01*
X180458026Y-182764757D02*
X180315169Y-182693328D01*
X180315169Y-182693328D02*
X180100883Y-182693328D01*
X180100883Y-182693328D02*
X179958026Y-182764757D01*
X179958026Y-182764757D02*
X179886597Y-182836185D01*
X181815169Y-183621900D02*
X181672312Y-183693328D01*
X181672312Y-183693328D02*
X181386598Y-183693328D01*
X181386598Y-183693328D02*
X181243740Y-183621900D01*
X181243740Y-183621900D02*
X181172312Y-183479042D01*
X181172312Y-183479042D02*
X181172312Y-182907614D01*
X181172312Y-182907614D02*
X181243740Y-182764757D01*
X181243740Y-182764757D02*
X181386598Y-182693328D01*
X181386598Y-182693328D02*
X181672312Y-182693328D01*
X181672312Y-182693328D02*
X181815169Y-182764757D01*
X181815169Y-182764757D02*
X181886598Y-182907614D01*
X181886598Y-182907614D02*
X181886598Y-183050471D01*
X181886598Y-183050471D02*
X181172312Y-183193328D01*
X183100883Y-183621900D02*
X182958026Y-183693328D01*
X182958026Y-183693328D02*
X182672312Y-183693328D01*
X182672312Y-183693328D02*
X182529454Y-183621900D01*
X182529454Y-183621900D02*
X182458026Y-183479042D01*
X182458026Y-183479042D02*
X182458026Y-182907614D01*
X182458026Y-182907614D02*
X182529454Y-182764757D01*
X182529454Y-182764757D02*
X182672312Y-182693328D01*
X182672312Y-182693328D02*
X182958026Y-182693328D01*
X182958026Y-182693328D02*
X183100883Y-182764757D01*
X183100883Y-182764757D02*
X183172312Y-182907614D01*
X183172312Y-182907614D02*
X183172312Y-183050471D01*
X183172312Y-183050471D02*
X182458026Y-183193328D01*
X183600883Y-182693328D02*
X184172311Y-182693328D01*
X183815168Y-182193328D02*
X183815168Y-183479042D01*
X183815168Y-183479042D02*
X183886597Y-183621900D01*
X183886597Y-183621900D02*
X184029454Y-183693328D01*
X184029454Y-183693328D02*
X184172311Y-183693328D01*
X184672311Y-183550471D02*
X184743740Y-183621900D01*
X184743740Y-183621900D02*
X184672311Y-183693328D01*
X184672311Y-183693328D02*
X184600883Y-183621900D01*
X184600883Y-183621900D02*
X184672311Y-183550471D01*
X184672311Y-183550471D02*
X184672311Y-183693328D01*
X184672311Y-182764757D02*
X184743740Y-182836185D01*
X184743740Y-182836185D02*
X184672311Y-182907614D01*
X184672311Y-182907614D02*
X184600883Y-182836185D01*
X184600883Y-182836185D02*
X184672311Y-182764757D01*
X184672311Y-182764757D02*
X184672311Y-182907614D01*
D10*
D11*
X197002200Y-191507200D02*
X197002200Y-194507200D01*
D10*
D11*
X261002200Y-191507200D02*
X261002200Y-198007200D01*
D14*
G36*
X146653418Y-102810516D02*
G01*
X146675008Y-102812123D01*
X146696415Y-102814783D01*
X146717602Y-102818480D01*
X146738534Y-102823201D01*
X146759175Y-102828929D01*
X146779488Y-102835651D01*
X146799439Y-102843351D01*
X146818990Y-102852015D01*
X146838107Y-102861627D01*
X146856752Y-102872172D01*
X146874891Y-102883636D01*
X146892487Y-102896004D01*
X146909504Y-102909260D01*
X146925907Y-102923391D01*
X146941658Y-102938380D01*
X147251626Y-103248366D01*
X146631681Y-103868311D01*
X146011722Y-103248366D01*
X146321700Y-102938380D01*
X146337452Y-102923391D01*
X146353854Y-102909260D01*
X146370872Y-102896004D01*
X146388468Y-102883636D01*
X146406606Y-102872172D01*
X146425252Y-102861627D01*
X146444368Y-102852015D01*
X146463920Y-102843351D01*
X146483870Y-102835651D01*
X146504184Y-102828929D01*
X146524825Y-102823201D01*
X146545757Y-102818480D01*
X146566945Y-102814783D01*
X146588352Y-102812123D01*
X146609943Y-102810516D01*
X146631681Y-102809978D01*
X146653418Y-102810516D01*
G37*
D10*
X135000000Y-92500000D02*
X134500000Y-92500000D01*
D14*
G36*
X153503804Y-102000000D02*
G01*
X153517240Y-102001022D01*
X153530482Y-102002704D01*
X153543511Y-102005031D01*
X153556312Y-102007986D01*
X153568867Y-102011551D01*
X153581161Y-102015711D01*
X153593176Y-102020448D01*
X153604896Y-102025747D01*
X153616304Y-102031590D01*
X153627384Y-102037960D01*
X153638119Y-102044843D01*
X153648493Y-102052219D01*
X153658488Y-102060074D01*
X153668088Y-102068390D01*
X153677277Y-102077150D01*
X153686038Y-102086339D01*
X153694354Y-102095940D01*
X153702208Y-102105935D01*
X153709585Y-102116308D01*
X153716467Y-102127043D01*
X153722838Y-102138123D01*
X153728681Y-102149531D01*
X153733979Y-102161251D01*
X153738717Y-102173267D01*
X153742876Y-102185560D01*
X153746442Y-102198116D01*
X153749396Y-102210916D01*
X153751723Y-102223946D01*
X153753406Y-102237187D01*
X153754427Y-102250624D01*
X153754772Y-102264239D01*
X153754427Y-102277855D01*
X153753406Y-102291291D01*
X153751723Y-102304533D01*
X153749396Y-102317562D01*
X153746442Y-102330363D01*
X153742876Y-102342918D01*
X153738717Y-102355212D01*
X153733979Y-102367227D01*
X153728681Y-102378947D01*
X153722838Y-102390355D01*
X153716467Y-102401435D01*
X153709585Y-102412170D01*
X153702208Y-102422544D01*
X153694354Y-102432539D01*
X153686038Y-102442139D01*
X153677277Y-102451328D01*
X153668088Y-102460089D01*
X153658488Y-102468405D01*
X153648493Y-102476259D01*
X153638119Y-102483636D01*
X153627384Y-102490518D01*
X153616304Y-102496889D01*
X153604896Y-102502732D01*
X153593176Y-102508030D01*
X153581161Y-102512768D01*
X153568867Y-102516927D01*
X153556312Y-102520493D01*
X153543511Y-102523447D01*
X153530482Y-102525774D01*
X153517240Y-102527457D01*
X153503804Y-102528478D01*
X153490188Y-102528823D01*
X153476573Y-102528478D01*
X153463136Y-102527457D01*
X153449895Y-102525774D01*
X153436865Y-102523447D01*
X153424065Y-102520493D01*
X153411509Y-102516927D01*
X153399216Y-102512768D01*
X153387200Y-102508030D01*
X153375480Y-102502732D01*
X153364072Y-102496889D01*
X153352992Y-102490518D01*
X153342257Y-102483636D01*
X153331884Y-102476259D01*
X153321889Y-102468405D01*
X153312288Y-102460089D01*
X153303099Y-102451328D01*
X153294339Y-102442139D01*
X153286023Y-102432539D01*
X153278168Y-102422544D01*
X153270792Y-102412170D01*
X153263909Y-102401435D01*
X153257539Y-102390355D01*
X153251696Y-102378947D01*
X153246397Y-102367227D01*
X153241660Y-102355212D01*
X153237500Y-102342918D01*
X153233935Y-102330363D01*
X153230980Y-102317562D01*
X153228653Y-102304533D01*
X153226971Y-102291291D01*
X153225949Y-102277855D01*
X153225605Y-102264239D01*
X153225949Y-102250624D01*
X153226971Y-102237187D01*
X153228653Y-102223946D01*
X153230980Y-102210916D01*
X153233935Y-102198116D01*
X153237500Y-102185560D01*
X153241660Y-102173267D01*
X153246397Y-102161251D01*
X153251696Y-102149531D01*
X153257539Y-102138123D01*
X153263909Y-102127043D01*
X153270792Y-102116308D01*
X153278168Y-102105935D01*
X153286023Y-102095940D01*
X153294339Y-102086339D01*
X153303099Y-102077150D01*
X153312288Y-102068390D01*
X153321889Y-102060074D01*
X153331884Y-102052219D01*
X153342257Y-102044843D01*
X153352992Y-102037960D01*
X153364072Y-102031590D01*
X153375480Y-102025747D01*
X153387200Y-102020448D01*
X153399216Y-102015711D01*
X153411509Y-102011551D01*
X153424065Y-102007986D01*
X153436865Y-102005031D01*
X153449895Y-102002704D01*
X153463136Y-102001022D01*
X153476573Y-102000000D01*
X153490188Y-101999656D01*
X153503804Y-102000000D01*
G37*
D10*
X135000000Y-105000000D02*
X134500000Y-105000000D01*
D14*
G36*
X146758380Y-100696451D02*
G01*
X146884218Y-100705814D01*
X147008987Y-100721312D01*
X147132476Y-100742859D01*
X147254477Y-100770369D01*
X147374780Y-100803753D01*
X147493176Y-100842927D01*
X147609455Y-100887803D01*
X147723408Y-100938293D01*
X147834825Y-100994312D01*
X147943498Y-101055773D01*
X148049216Y-101122589D01*
X148151771Y-101194673D01*
X148250953Y-101271938D01*
X148346553Y-101354298D01*
X148438361Y-101441666D01*
X148748347Y-101751644D01*
X148374174Y-102125821D01*
X148064188Y-101815843D01*
X147991395Y-101746569D01*
X147915595Y-101681266D01*
X147836954Y-101620003D01*
X147755638Y-101562848D01*
X147671814Y-101509871D01*
X147585647Y-101461139D01*
X147497303Y-101416722D01*
X147406949Y-101376688D01*
X147314751Y-101341107D01*
X147220875Y-101310046D01*
X147125487Y-101283576D01*
X147028753Y-101261764D01*
X146930839Y-101244679D01*
X146831912Y-101232391D01*
X146732137Y-101224967D01*
X146631681Y-101222478D01*
X146531223Y-101224967D01*
X146431448Y-101232391D01*
X146332520Y-101244679D01*
X146234607Y-101261764D01*
X146137873Y-101283576D01*
X146042485Y-101310046D01*
X145948610Y-101341107D01*
X145856412Y-101376688D01*
X145766059Y-101416722D01*
X145677716Y-101461139D01*
X145591549Y-101509871D01*
X145507725Y-101562848D01*
X145426408Y-101620003D01*
X145347767Y-101681266D01*
X145271966Y-101746569D01*
X145199171Y-101815843D01*
X144889190Y-102125821D01*
X144515014Y-101751644D01*
X144824992Y-101441666D01*
X144916801Y-101354298D01*
X145012402Y-101271938D01*
X145111586Y-101194672D01*
X145214142Y-101122588D01*
X145319862Y-101055772D01*
X145428536Y-100994311D01*
X145539954Y-100938292D01*
X145653908Y-100887802D01*
X145770188Y-100842926D01*
X145888584Y-100803753D01*
X146008888Y-100770368D01*
X146130889Y-100742859D01*
X146254378Y-100721312D01*
X146379146Y-100705814D01*
X146504983Y-100696451D01*
X146631681Y-100693311D01*
X146758380Y-100696451D01*
G37*
D10*
X158000000Y-105000000D02*
X135000000Y-105000000D01*
D14*
G36*
X138382704Y-100368388D02*
G01*
X138428764Y-100371517D01*
X138474208Y-100376674D01*
X138518977Y-100383808D01*
X138563014Y-100392873D01*
X138606261Y-100403820D01*
X138648660Y-100416600D01*
X138690155Y-100431165D01*
X138730686Y-100447466D01*
X138770198Y-100465455D01*
X138808632Y-100485083D01*
X138845930Y-100506302D01*
X138882035Y-100529064D01*
X138916890Y-100553320D01*
X138950437Y-100579022D01*
X138982617Y-100606120D01*
X139013375Y-100634568D01*
X139042651Y-100664316D01*
X139070389Y-100695316D01*
X139096531Y-100727519D01*
X139121019Y-100760877D01*
X139143796Y-100795341D01*
X139164804Y-100830864D01*
X139183985Y-100867396D01*
X139201282Y-100904890D01*
X139216638Y-100943296D01*
X139229994Y-100982567D01*
X139241293Y-101022653D01*
X139250478Y-101063507D01*
X139257491Y-101105080D01*
X139262275Y-101147323D01*
X139264771Y-101190188D01*
X139267417Y-101203417D01*
X139267417Y-101214001D01*
X139266870Y-101273692D01*
X139265277Y-101331710D01*
X139262708Y-101388041D01*
X139259231Y-101442669D01*
X139254917Y-101495580D01*
X139249836Y-101546759D01*
X139244058Y-101596193D01*
X139237651Y-101643866D01*
X139230686Y-101689764D01*
X139223233Y-101733872D01*
X139207141Y-101816661D01*
X139189933Y-101892118D01*
X139172167Y-101960126D01*
X139154400Y-102020568D01*
X139137192Y-102073328D01*
X139121100Y-102118290D01*
X139106682Y-102155338D01*
X139085102Y-102205227D01*
X139076917Y-102222063D01*
X139075770Y-102223798D01*
X139074565Y-102225525D01*
X139073306Y-102227237D01*
X139071997Y-102228926D01*
X139070641Y-102230583D01*
X139069243Y-102232202D01*
X139067805Y-102233774D01*
X139066333Y-102235292D01*
X139053865Y-102249617D01*
X139017065Y-102287382D01*
X138989824Y-102312613D01*
X138956840Y-102340774D01*
X138918226Y-102370889D01*
X138874097Y-102401980D01*
X138824565Y-102433071D01*
X138769743Y-102463185D01*
X138709745Y-102491346D01*
X138644685Y-102516577D01*
X138574675Y-102537902D01*
X138537849Y-102546794D01*
X138499829Y-102554342D01*
X138460628Y-102560426D01*
X138420261Y-102564923D01*
X138378741Y-102567711D01*
X138336083Y-102568667D01*
X138293425Y-102567711D01*
X138251906Y-102564923D01*
X138211538Y-102560426D01*
X138172337Y-102554342D01*
X138134317Y-102546794D01*
X138097492Y-102537902D01*
X138061875Y-102527789D01*
X138027482Y-102516577D01*
X137994326Y-102504389D01*
X137962422Y-102491346D01*
X137931783Y-102477571D01*
X137902424Y-102463185D01*
X137874359Y-102448311D01*
X137847602Y-102433071D01*
X137822168Y-102417586D01*
X137798070Y-102401980D01*
X137775322Y-102386373D01*
X137753940Y-102370889D01*
X137715327Y-102340774D01*
X137682343Y-102312613D01*
X137655102Y-102287382D01*
X137633717Y-102266058D01*
X137618302Y-102249617D01*
X137605833Y-102235292D01*
X137604361Y-102233774D01*
X137602924Y-102232202D01*
X137601525Y-102230583D01*
X137600170Y-102228926D01*
X137598860Y-102227237D01*
X137597601Y-102225525D01*
X137596397Y-102223798D01*
X137595250Y-102222063D01*
X137565484Y-102155338D01*
X137534975Y-102073328D01*
X137500000Y-101960126D01*
X137482234Y-101892118D01*
X137465025Y-101816661D01*
X137453826Y-101759042D01*
X137624354Y-101759042D01*
X137633729Y-101803790D01*
X137643415Y-101845757D01*
X137653291Y-101884934D01*
X137663235Y-101921317D01*
X137673125Y-101954897D01*
X137682839Y-101985668D01*
X137692254Y-102013623D01*
X137701249Y-102038756D01*
X137709701Y-102061060D01*
X137717488Y-102080528D01*
X137724488Y-102097153D01*
X137730580Y-102110928D01*
X137739549Y-102129902D01*
X137743417Y-102137396D01*
X137757054Y-102152640D01*
X137788954Y-102184184D01*
X137811597Y-102204304D01*
X137838620Y-102226379D01*
X137869961Y-102249705D01*
X137905557Y-102273574D01*
X137945346Y-102297280D01*
X137989267Y-102320118D01*
X138037258Y-102341380D01*
X138089256Y-102360359D01*
X138145200Y-102376351D01*
X138174632Y-102383006D01*
X138205027Y-102388648D01*
X138236377Y-102393191D01*
X138268675Y-102396545D01*
X138301913Y-102398622D01*
X138336083Y-102399334D01*
X138370253Y-102398622D01*
X138403491Y-102396545D01*
X138435789Y-102393191D01*
X138467140Y-102388648D01*
X138497535Y-102383006D01*
X138526967Y-102376351D01*
X138555428Y-102368773D01*
X138582911Y-102360359D01*
X138609407Y-102351199D01*
X138634909Y-102341380D01*
X138659409Y-102330990D01*
X138682899Y-102320118D01*
X138705372Y-102308852D01*
X138726820Y-102297280D01*
X138747235Y-102285492D01*
X138766610Y-102273574D01*
X138784936Y-102261616D01*
X138802206Y-102249705D01*
X138833546Y-102226379D01*
X138860569Y-102204304D01*
X138883213Y-102184184D01*
X138901414Y-102166727D01*
X138915112Y-102152640D01*
X138928750Y-102137396D01*
X138941586Y-102110928D01*
X138954679Y-102080528D01*
X138970918Y-102038756D01*
X138989328Y-101985668D01*
X139008931Y-101921317D01*
X139018875Y-101884934D01*
X139028751Y-101845757D01*
X139038438Y-101803790D01*
X139047812Y-101759042D01*
X139014646Y-101792842D01*
X138979574Y-101824988D01*
X138942679Y-101855407D01*
X138904048Y-101884027D01*
X138863767Y-101910775D01*
X138821919Y-101935578D01*
X138778591Y-101958364D01*
X138733868Y-101979060D01*
X138687834Y-101997593D01*
X138640576Y-102013891D01*
X138592179Y-102027881D01*
X138542727Y-102039490D01*
X138492306Y-102048646D01*
X138441002Y-102055276D01*
X138388899Y-102059307D01*
X138336083Y-102060667D01*
X138283267Y-102059307D01*
X138231165Y-102055276D01*
X138179860Y-102048646D01*
X138129440Y-102039490D01*
X138079988Y-102027881D01*
X138031590Y-102013891D01*
X137984332Y-101997593D01*
X137938299Y-101979060D01*
X137893575Y-101958364D01*
X137850247Y-101935578D01*
X137808400Y-101910775D01*
X137768118Y-101884027D01*
X137729487Y-101855407D01*
X137692593Y-101824988D01*
X137657520Y-101792842D01*
X137624354Y-101759042D01*
X137453826Y-101759042D01*
X137448933Y-101733872D01*
X137434516Y-101643866D01*
X137422330Y-101546759D01*
X137412935Y-101442669D01*
X137406889Y-101331710D01*
X137404750Y-101214001D01*
X137574083Y-101214001D01*
X137574125Y-101231354D01*
X137574223Y-101240011D01*
X137574414Y-101248645D01*
X137574729Y-101257247D01*
X137575200Y-101265811D01*
X137575856Y-101274329D01*
X137576729Y-101282792D01*
X137581148Y-101314335D01*
X137587186Y-101345437D01*
X137594807Y-101376063D01*
X137603972Y-101406175D01*
X137614645Y-101435737D01*
X137626788Y-101464711D01*
X137640363Y-101493062D01*
X137655334Y-101520752D01*
X137671663Y-101547744D01*
X137689312Y-101574002D01*
X137708245Y-101599488D01*
X137728423Y-101624167D01*
X137749810Y-101648000D01*
X137772368Y-101670952D01*
X137796060Y-101692985D01*
X137820849Y-101714063D01*
X137873565Y-101753205D01*
X137930219Y-101788084D01*
X137959928Y-101803833D01*
X137990510Y-101818406D01*
X138021927Y-101831765D01*
X138054142Y-101843874D01*
X138087116Y-101854697D01*
X138120814Y-101864196D01*
X138155196Y-101872335D01*
X138190227Y-101879076D01*
X138225869Y-101884384D01*
X138262083Y-101888220D01*
X138298834Y-101890549D01*
X138336083Y-101891334D01*
X138373332Y-101890549D01*
X138410083Y-101888220D01*
X138446298Y-101884384D01*
X138481939Y-101879076D01*
X138516970Y-101872335D01*
X138551353Y-101864196D01*
X138585050Y-101854697D01*
X138618025Y-101843874D01*
X138650239Y-101831765D01*
X138681656Y-101818406D01*
X138712238Y-101803833D01*
X138741948Y-101788084D01*
X138770748Y-101771196D01*
X138798602Y-101753205D01*
X138825471Y-101734149D01*
X138851318Y-101714063D01*
X138876106Y-101692985D01*
X138899798Y-101670952D01*
X138922356Y-101648000D01*
X138943743Y-101624167D01*
X138963922Y-101599488D01*
X138982854Y-101574002D01*
X139000504Y-101547744D01*
X139016832Y-101520752D01*
X139031803Y-101493062D01*
X139045379Y-101464711D01*
X139057522Y-101435737D01*
X139068194Y-101406175D01*
X139077360Y-101376063D01*
X139084980Y-101345437D01*
X139091019Y-101314335D01*
X139095437Y-101282792D01*
X139096311Y-101274329D01*
X139096967Y-101265811D01*
X139097437Y-101257247D01*
X139097752Y-101248645D01*
X139097944Y-101240011D01*
X139098042Y-101231354D01*
X139098083Y-101214001D01*
X139097975Y-101212374D01*
X139097897Y-101210724D01*
X139097851Y-101209059D01*
X139097835Y-101207386D01*
X139097851Y-101205713D01*
X139097897Y-101204048D01*
X139097975Y-101202398D01*
X139098083Y-101200771D01*
X139096395Y-101166829D01*
X139092846Y-101133306D01*
X139087482Y-101100245D01*
X139080344Y-101067690D01*
X139071476Y-101035683D01*
X139060921Y-101004268D01*
X139048723Y-100973488D01*
X139034924Y-100943387D01*
X139019569Y-100914006D01*
X139002699Y-100885391D01*
X138984359Y-100857583D01*
X138964591Y-100830625D01*
X138943440Y-100804562D01*
X138920947Y-100779437D01*
X138897157Y-100755291D01*
X138872112Y-100732170D01*
X138845857Y-100710115D01*
X138818433Y-100689170D01*
X138789885Y-100669378D01*
X138760255Y-100650782D01*
X138729587Y-100633426D01*
X138697924Y-100617353D01*
X138665309Y-100602606D01*
X138631786Y-100589227D01*
X138597398Y-100577261D01*
X138562187Y-100566751D01*
X138526198Y-100557738D01*
X138489473Y-100550268D01*
X138452056Y-100544382D01*
X138413990Y-100540125D01*
X138375318Y-100537539D01*
X138336083Y-100536667D01*
X138296941Y-100537535D01*
X138258358Y-100540110D01*
X138220379Y-100544349D01*
X138183046Y-100550208D01*
X138146402Y-100557646D01*
X138110489Y-100566620D01*
X138075352Y-100577085D01*
X138041032Y-100589000D01*
X138007572Y-100602321D01*
X137975015Y-100617006D01*
X137943405Y-100633011D01*
X137912784Y-100650294D01*
X137883194Y-100668812D01*
X137854680Y-100688521D01*
X137827283Y-100709379D01*
X137801046Y-100731343D01*
X137776013Y-100754370D01*
X137752226Y-100778416D01*
X137729729Y-100803440D01*
X137708563Y-100829398D01*
X137688773Y-100856247D01*
X137670400Y-100883945D01*
X137653488Y-100912447D01*
X137638079Y-100941712D01*
X137624217Y-100971697D01*
X137611944Y-101002358D01*
X137601304Y-101033652D01*
X137592338Y-101065537D01*
X137585090Y-101097970D01*
X137579603Y-101130908D01*
X137575920Y-101164307D01*
X137574083Y-101198126D01*
X137574300Y-101200110D01*
X137574455Y-101202094D01*
X137574548Y-101204079D01*
X137574579Y-101206063D01*
X137574548Y-101208048D01*
X137574455Y-101210032D01*
X137574300Y-101212016D01*
X137574083Y-101214001D01*
X137404750Y-101214001D01*
X137404533Y-101211658D01*
X137404378Y-101209339D01*
X137404285Y-101207036D01*
X137404254Y-101204740D01*
X137404285Y-101202444D01*
X137404378Y-101200141D01*
X137404513Y-101198126D01*
X137404533Y-101197822D01*
X137404750Y-101195480D01*
X137407396Y-101190188D01*
X137409892Y-101147323D01*
X137414675Y-101105080D01*
X137421688Y-101063507D01*
X137430873Y-101022653D01*
X137442172Y-100982567D01*
X137455529Y-100943296D01*
X137470884Y-100904890D01*
X137488182Y-100867396D01*
X137507363Y-100830864D01*
X137528371Y-100795341D01*
X137551147Y-100760877D01*
X137575636Y-100727519D01*
X137601777Y-100695316D01*
X137629515Y-100664316D01*
X137658792Y-100634568D01*
X137689549Y-100606120D01*
X137721730Y-100579022D01*
X137755276Y-100553320D01*
X137790131Y-100529064D01*
X137826237Y-100506302D01*
X137863535Y-100485083D01*
X137901969Y-100465455D01*
X137941480Y-100447466D01*
X137982012Y-100431165D01*
X138023506Y-100416600D01*
X138065906Y-100403820D01*
X138109153Y-100392873D01*
X138153189Y-100383808D01*
X138197958Y-100376674D01*
X138243402Y-100371517D01*
X138289463Y-100368388D01*
X138336083Y-100367334D01*
X138382704Y-100368388D01*
G37*
G36*
X137277988Y-101479168D02*
G01*
X137278659Y-101491419D01*
X137279703Y-101504506D01*
X137281057Y-101518178D01*
X137284447Y-101546287D01*
X137288333Y-101573751D01*
X137292219Y-101598580D01*
X137295609Y-101618782D01*
X137298917Y-101637334D01*
X137150750Y-101637334D01*
X137150750Y-102595126D01*
X137931271Y-102907334D01*
X138740896Y-102907334D01*
X139521416Y-102595126D01*
X139521416Y-101637334D01*
X139373250Y-101637334D01*
X139376557Y-101618782D01*
X139383833Y-101573751D01*
X139387719Y-101546287D01*
X139391109Y-101518178D01*
X139393507Y-101491419D01*
X139394179Y-101479168D01*
X139394416Y-101468001D01*
X139944750Y-101468001D01*
X139949096Y-101468111D01*
X139953386Y-101468439D01*
X139957614Y-101468979D01*
X139961777Y-101469726D01*
X139965867Y-101470674D01*
X139969880Y-101471818D01*
X139973810Y-101473152D01*
X139977652Y-101474672D01*
X139981401Y-101476371D01*
X139985051Y-101478245D01*
X139988596Y-101480288D01*
X139992032Y-101482494D01*
X139995353Y-101484858D01*
X139998553Y-101487375D01*
X140001627Y-101490040D01*
X140004570Y-101492847D01*
X140007377Y-101495790D01*
X140010042Y-101498864D01*
X140012559Y-101502065D01*
X140014923Y-101505385D01*
X140017129Y-101508821D01*
X140019172Y-101512367D01*
X140021046Y-101516016D01*
X140022745Y-101519765D01*
X140024265Y-101523607D01*
X140025599Y-101527537D01*
X140026743Y-101531550D01*
X140027691Y-101535641D01*
X140028438Y-101539803D01*
X140028978Y-101544032D01*
X140029306Y-101548322D01*
X140029416Y-101552667D01*
X140029416Y-103076667D01*
X140029374Y-103080219D01*
X140029187Y-103083740D01*
X140028858Y-103087227D01*
X140028389Y-103090677D01*
X140027782Y-103094087D01*
X140027041Y-103097453D01*
X140026167Y-103100772D01*
X140025163Y-103104040D01*
X140024032Y-103107255D01*
X140022776Y-103110412D01*
X140021398Y-103113509D01*
X140019900Y-103116543D01*
X140018284Y-103119509D01*
X140016553Y-103122405D01*
X140014709Y-103125227D01*
X140012756Y-103127972D01*
X140010695Y-103130636D01*
X140008529Y-103133217D01*
X140006260Y-103135710D01*
X140003891Y-103138114D01*
X140001425Y-103140423D01*
X139998864Y-103142636D01*
X139996209Y-103144748D01*
X139993465Y-103146756D01*
X139990633Y-103148657D01*
X139987716Y-103150448D01*
X139984716Y-103152125D01*
X139981636Y-103153685D01*
X139978478Y-103155125D01*
X139975245Y-103156441D01*
X139971939Y-103157629D01*
X139968562Y-103158688D01*
X138867896Y-103497355D01*
X138865014Y-103498052D01*
X138862082Y-103498652D01*
X138859111Y-103499151D01*
X138856113Y-103499546D01*
X138853100Y-103499832D01*
X138850083Y-103500006D01*
X138847073Y-103500063D01*
X138844083Y-103500000D01*
X138627125Y-103500000D01*
X138631190Y-103507244D01*
X138635075Y-103514587D01*
X138638778Y-103522027D01*
X138642297Y-103529565D01*
X138645630Y-103537197D01*
X138648775Y-103544922D01*
X138651730Y-103552740D01*
X138654493Y-103560648D01*
X138657062Y-103568645D01*
X138659436Y-103576730D01*
X138661611Y-103584902D01*
X138663588Y-103593158D01*
X138665363Y-103601497D01*
X138666934Y-103609918D01*
X138668300Y-103618420D01*
X138669458Y-103627001D01*
X139616666Y-103754000D01*
X139620634Y-103754587D01*
X139624533Y-103755351D01*
X139628361Y-103756288D01*
X139632113Y-103757394D01*
X139635785Y-103758665D01*
X139639374Y-103760095D01*
X139642876Y-103761680D01*
X139646287Y-103763416D01*
X139649603Y-103765298D01*
X139652821Y-103767323D01*
X139655935Y-103769484D01*
X139658943Y-103771779D01*
X139661840Y-103774201D01*
X139664624Y-103776748D01*
X139667288Y-103779414D01*
X139669831Y-103782195D01*
X139672248Y-103785087D01*
X139674535Y-103788084D01*
X139676688Y-103791183D01*
X139678704Y-103794379D01*
X139680578Y-103797668D01*
X139682307Y-103801044D01*
X139683887Y-103804505D01*
X139685313Y-103808044D01*
X139686583Y-103811658D01*
X139687692Y-103815342D01*
X139688636Y-103819091D01*
X139689411Y-103822902D01*
X139690014Y-103826769D01*
X139690441Y-103830689D01*
X139690687Y-103834657D01*
X139690750Y-103838667D01*
X139690750Y-104177334D01*
X139690639Y-104181680D01*
X139690311Y-104185970D01*
X139689771Y-104190198D01*
X139689024Y-104194361D01*
X139688076Y-104198451D01*
X139686932Y-104202464D01*
X139685598Y-104206394D01*
X139684078Y-104210236D01*
X139682379Y-104213985D01*
X139680505Y-104217635D01*
X139678463Y-104221180D01*
X139676256Y-104224616D01*
X139673892Y-104227936D01*
X139671375Y-104231137D01*
X139668710Y-104234211D01*
X139665904Y-104237154D01*
X139662961Y-104239961D01*
X139659886Y-104242625D01*
X139656686Y-104245143D01*
X139653365Y-104247507D01*
X139649929Y-104249713D01*
X139646384Y-104251756D01*
X139642734Y-104253630D01*
X139638986Y-104255329D01*
X139635143Y-104256848D01*
X139631213Y-104258183D01*
X139627200Y-104259327D01*
X139623110Y-104260275D01*
X139618948Y-104261022D01*
X139614719Y-104261562D01*
X139610429Y-104261890D01*
X139606083Y-104262000D01*
X137066083Y-104262000D01*
X137061738Y-104261890D01*
X137057448Y-104261562D01*
X137053219Y-104261022D01*
X137049057Y-104260275D01*
X137044966Y-104259327D01*
X137040953Y-104258183D01*
X137037023Y-104256848D01*
X137033181Y-104255329D01*
X137029432Y-104253630D01*
X137025783Y-104251756D01*
X137022237Y-104249713D01*
X137018801Y-104247507D01*
X137015481Y-104245143D01*
X137012280Y-104242625D01*
X137009206Y-104239961D01*
X137006263Y-104237154D01*
X137003456Y-104234211D01*
X137000792Y-104231137D01*
X136998274Y-104227936D01*
X136995910Y-104224616D01*
X136993704Y-104221180D01*
X136991661Y-104217635D01*
X136989787Y-104213985D01*
X136988088Y-104210236D01*
X136986568Y-104206394D01*
X136985234Y-104202464D01*
X136984090Y-104198451D01*
X136983142Y-104194361D01*
X136982395Y-104190198D01*
X136981855Y-104185970D01*
X136981527Y-104181680D01*
X136981417Y-104177334D01*
X136981417Y-104092667D01*
X137150750Y-104092667D01*
X139521416Y-104092667D01*
X139521416Y-103912750D01*
X138336083Y-103756646D01*
X137150750Y-103912750D01*
X137150750Y-104092667D01*
X136981417Y-104092667D01*
X136981417Y-103912750D01*
X136981417Y-103838667D01*
X136981479Y-103834657D01*
X136981725Y-103830689D01*
X136982152Y-103826769D01*
X136982755Y-103822902D01*
X136983531Y-103819091D01*
X136984475Y-103815342D01*
X136985583Y-103811658D01*
X136986853Y-103808044D01*
X136988280Y-103804505D01*
X136989859Y-103801044D01*
X136991588Y-103797668D01*
X136993462Y-103794379D01*
X136995478Y-103791183D01*
X136997631Y-103788084D01*
X136999918Y-103785087D01*
X137002335Y-103782195D01*
X137004878Y-103779414D01*
X137007543Y-103776748D01*
X137010326Y-103774201D01*
X137013224Y-103771779D01*
X137016231Y-103769484D01*
X137019346Y-103767323D01*
X137022563Y-103765298D01*
X137025879Y-103763416D01*
X137029290Y-103761680D01*
X137032792Y-103760095D01*
X137036381Y-103758665D01*
X137040054Y-103757394D01*
X137043806Y-103756288D01*
X137047634Y-103755351D01*
X137051533Y-103754587D01*
X137055500Y-103754000D01*
X138002708Y-103627001D01*
X138003867Y-103618420D01*
X138005233Y-103609918D01*
X138006804Y-103601497D01*
X138008579Y-103593158D01*
X138010555Y-103584902D01*
X138012731Y-103576730D01*
X138015104Y-103568645D01*
X138017674Y-103560648D01*
X138020437Y-103552740D01*
X138023392Y-103544922D01*
X138026537Y-103537197D01*
X138029869Y-103529565D01*
X138033388Y-103522027D01*
X138037091Y-103514587D01*
X138040976Y-103507244D01*
X138045042Y-103500000D01*
X137828083Y-103500000D01*
X137825093Y-103500063D01*
X137822084Y-103500006D01*
X137819066Y-103499832D01*
X137816053Y-103499546D01*
X137813055Y-103499151D01*
X137810084Y-103498652D01*
X137807152Y-103498052D01*
X137804271Y-103497355D01*
X136703604Y-103158688D01*
X136700228Y-103157629D01*
X136696922Y-103156441D01*
X136693689Y-103155125D01*
X136690531Y-103153685D01*
X136684451Y-103150448D01*
X136678701Y-103146756D01*
X136673303Y-103142636D01*
X136668275Y-103138114D01*
X136663638Y-103133217D01*
X136659411Y-103127972D01*
X136655614Y-103122405D01*
X136652267Y-103116543D01*
X136649390Y-103110412D01*
X136647003Y-103104040D01*
X136645126Y-103097453D01*
X136643778Y-103090677D01*
X136643309Y-103087227D01*
X136642979Y-103083740D01*
X136642792Y-103080219D01*
X136642750Y-103076667D01*
X136642750Y-103013167D01*
X136642750Y-101637334D01*
X136812083Y-101637334D01*
X136812083Y-103013167D01*
X137843958Y-103330667D01*
X138828208Y-103330667D01*
X139860083Y-103013167D01*
X139860083Y-101637334D01*
X139690750Y-101637334D01*
X139690750Y-102653334D01*
X139690719Y-102656580D01*
X139690566Y-102659806D01*
X139690293Y-102663009D01*
X139689900Y-102666186D01*
X139689391Y-102669333D01*
X139688767Y-102672449D01*
X139688029Y-102675530D01*
X139687179Y-102678573D01*
X139686219Y-102681575D01*
X139685151Y-102684534D01*
X139683977Y-102687446D01*
X139682698Y-102690308D01*
X139681316Y-102693119D01*
X139679833Y-102695874D01*
X139678250Y-102698571D01*
X139676570Y-102701207D01*
X139674794Y-102703779D01*
X139672923Y-102706284D01*
X139670960Y-102708720D01*
X139668907Y-102711082D01*
X139666764Y-102713369D01*
X139664535Y-102715578D01*
X139662220Y-102717705D01*
X139659821Y-102719748D01*
X139657341Y-102721704D01*
X139654780Y-102723570D01*
X139652142Y-102725343D01*
X139649426Y-102727019D01*
X139646636Y-102728597D01*
X139643772Y-102730073D01*
X139640837Y-102731445D01*
X139637833Y-102732709D01*
X138791167Y-103071376D01*
X138787306Y-103072661D01*
X138783415Y-103073784D01*
X138781458Y-103074282D01*
X138779493Y-103074736D01*
X138777520Y-103075145D01*
X138775540Y-103075510D01*
X138773551Y-103075827D01*
X138771555Y-103076097D01*
X138769552Y-103076319D01*
X138767540Y-103076491D01*
X138765521Y-103076613D01*
X138763494Y-103076684D01*
X138761459Y-103076702D01*
X138759417Y-103076667D01*
X137912750Y-103076667D01*
X137910707Y-103076702D01*
X137908673Y-103076684D01*
X137906646Y-103076613D01*
X137904626Y-103076491D01*
X137902615Y-103076319D01*
X137900611Y-103076097D01*
X137898615Y-103075827D01*
X137896627Y-103075510D01*
X137894646Y-103075145D01*
X137892674Y-103074736D01*
X137890709Y-103074282D01*
X137888751Y-103073784D01*
X137886802Y-103073243D01*
X137884860Y-103072661D01*
X137881000Y-103071376D01*
X137034333Y-102732709D01*
X137028394Y-102730073D01*
X137022740Y-102727019D01*
X137017386Y-102723570D01*
X137012345Y-102719748D01*
X137007632Y-102715578D01*
X137003260Y-102711082D01*
X136999243Y-102706284D01*
X136995597Y-102701207D01*
X136992334Y-102695874D01*
X136989469Y-102690308D01*
X136987015Y-102684534D01*
X136984988Y-102678573D01*
X136983400Y-102672449D01*
X136982266Y-102666186D01*
X136981600Y-102659806D01*
X136981417Y-102653334D01*
X136981417Y-101637334D01*
X136812083Y-101637334D01*
X136642750Y-101637334D01*
X136642750Y-101552667D01*
X136642775Y-101548809D01*
X136642970Y-101544987D01*
X136643334Y-101541207D01*
X136643861Y-101537472D01*
X136644549Y-101533786D01*
X136645395Y-101530154D01*
X136646395Y-101526580D01*
X136647546Y-101523067D01*
X136648843Y-101519620D01*
X136650285Y-101516243D01*
X136651867Y-101512941D01*
X136653587Y-101509716D01*
X136655440Y-101506574D01*
X136657423Y-101503519D01*
X136659533Y-101500554D01*
X136661767Y-101497684D01*
X136664121Y-101494912D01*
X136666592Y-101492244D01*
X136669176Y-101489682D01*
X136671870Y-101487232D01*
X136674670Y-101484897D01*
X136677574Y-101482682D01*
X136680578Y-101480590D01*
X136683678Y-101478625D01*
X136686871Y-101476793D01*
X136690153Y-101475096D01*
X136693522Y-101473539D01*
X136696974Y-101472127D01*
X136700505Y-101470863D01*
X136704113Y-101469751D01*
X136707792Y-101468795D01*
X136711542Y-101468001D01*
X137277750Y-101468001D01*
X137277988Y-101479168D01*
G37*
D10*
X158500000Y-92500000D02*
X157000000Y-92500000D01*
D14*
G36*
X138357375Y-101029286D02*
G01*
X138378444Y-101030751D01*
X138399260Y-101033167D01*
X138419793Y-101036511D01*
X138440013Y-101040761D01*
X138459891Y-101045895D01*
X138479397Y-101051892D01*
X138498502Y-101058728D01*
X138517176Y-101066383D01*
X138535389Y-101074835D01*
X138553111Y-101084060D01*
X138570313Y-101094038D01*
X138586965Y-101104747D01*
X138603038Y-101116163D01*
X138618501Y-101128266D01*
X138633326Y-101141034D01*
X138647482Y-101154443D01*
X138660940Y-101168473D01*
X138673670Y-101183102D01*
X138685642Y-101198307D01*
X138696827Y-101214067D01*
X138707195Y-101230359D01*
X138716717Y-101247161D01*
X138725362Y-101264452D01*
X138733101Y-101282210D01*
X138739905Y-101300412D01*
X138745743Y-101319037D01*
X138750586Y-101338062D01*
X138754405Y-101357466D01*
X138757169Y-101377227D01*
X138758850Y-101397322D01*
X138759417Y-101417730D01*
X138758850Y-101438138D01*
X138757169Y-101458233D01*
X138754405Y-101477993D01*
X138750586Y-101497397D01*
X138745743Y-101516423D01*
X138739905Y-101535047D01*
X138733101Y-101553250D01*
X138725362Y-101571007D01*
X138716717Y-101588298D01*
X138707195Y-101605101D01*
X138696827Y-101621393D01*
X138685642Y-101637152D01*
X138673670Y-101652357D01*
X138660940Y-101666986D01*
X138647482Y-101681016D01*
X138633326Y-101694426D01*
X138618501Y-101707193D01*
X138603038Y-101719296D01*
X138586965Y-101730713D01*
X138570313Y-101741421D01*
X138553111Y-101751399D01*
X138535389Y-101760625D01*
X138517176Y-101769076D01*
X138498502Y-101776731D01*
X138479397Y-101783568D01*
X138459891Y-101789564D01*
X138440013Y-101794699D01*
X138419793Y-101798949D01*
X138399260Y-101802293D01*
X138378444Y-101804708D01*
X138357375Y-101806174D01*
X138336083Y-101806667D01*
X138314791Y-101806174D01*
X138293722Y-101804708D01*
X138272907Y-101802293D01*
X138252374Y-101798949D01*
X138232154Y-101794699D01*
X138212275Y-101789564D01*
X138192769Y-101783568D01*
X138173664Y-101776731D01*
X138154991Y-101769076D01*
X138136778Y-101760625D01*
X138119055Y-101751399D01*
X138101853Y-101741421D01*
X138085201Y-101730713D01*
X138069128Y-101719296D01*
X138053665Y-101707193D01*
X138038840Y-101694426D01*
X138024684Y-101681016D01*
X138011227Y-101666986D01*
X137998497Y-101652357D01*
X137986525Y-101637152D01*
X137975339Y-101621393D01*
X137964971Y-101605101D01*
X137955450Y-101588298D01*
X137946805Y-101571007D01*
X137939065Y-101553250D01*
X137932262Y-101535047D01*
X137926424Y-101516423D01*
X137921580Y-101497397D01*
X137917761Y-101477993D01*
X137914997Y-101458233D01*
X137913317Y-101438138D01*
X137912750Y-101417730D01*
X138082083Y-101417730D01*
X138082398Y-101428690D01*
X138083333Y-101439544D01*
X138084877Y-101450278D01*
X138087015Y-101460875D01*
X138089736Y-101471319D01*
X138093025Y-101481594D01*
X138096871Y-101491685D01*
X138101260Y-101501575D01*
X138106180Y-101511248D01*
X138111618Y-101520689D01*
X138117560Y-101529881D01*
X138123994Y-101538810D01*
X138130906Y-101547457D01*
X138138285Y-101555809D01*
X138146117Y-101563849D01*
X138154389Y-101571560D01*
X138163088Y-101578928D01*
X138172202Y-101585935D01*
X138181717Y-101592567D01*
X138191621Y-101598807D01*
X138201901Y-101604640D01*
X138212543Y-101610048D01*
X138223535Y-101615018D01*
X138234865Y-101619531D01*
X138246518Y-101623574D01*
X138258483Y-101627129D01*
X138270746Y-101630181D01*
X138283294Y-101632713D01*
X138296115Y-101634711D01*
X138309195Y-101636158D01*
X138322522Y-101637037D01*
X138336083Y-101637334D01*
X138349644Y-101637037D01*
X138362971Y-101636158D01*
X138376052Y-101634711D01*
X138388873Y-101632713D01*
X138401421Y-101630181D01*
X138413684Y-101627129D01*
X138425648Y-101623574D01*
X138437302Y-101619531D01*
X138448631Y-101615018D01*
X138459623Y-101610048D01*
X138470266Y-101604640D01*
X138480545Y-101598807D01*
X138490449Y-101592567D01*
X138499964Y-101585935D01*
X138509078Y-101578928D01*
X138517778Y-101571560D01*
X138526050Y-101563849D01*
X138533881Y-101555809D01*
X138541260Y-101547457D01*
X138548173Y-101538810D01*
X138554607Y-101529881D01*
X138560549Y-101520689D01*
X138565986Y-101511248D01*
X138570906Y-101501575D01*
X138575295Y-101491685D01*
X138579141Y-101481594D01*
X138582431Y-101471319D01*
X138585151Y-101460875D01*
X138587290Y-101450278D01*
X138588833Y-101439544D01*
X138589768Y-101428690D01*
X138590083Y-101417730D01*
X138589768Y-101406770D01*
X138588833Y-101395915D01*
X138587290Y-101385181D01*
X138585151Y-101374584D01*
X138582431Y-101364140D01*
X138579141Y-101353865D01*
X138575295Y-101343775D01*
X138570906Y-101333885D01*
X138565986Y-101324211D01*
X138560549Y-101314771D01*
X138554607Y-101305578D01*
X138548173Y-101296650D01*
X138541260Y-101288002D01*
X138533881Y-101279650D01*
X138526050Y-101271611D01*
X138517778Y-101263899D01*
X138509078Y-101256532D01*
X138499964Y-101249524D01*
X138490449Y-101242892D01*
X138480545Y-101236652D01*
X138470266Y-101230820D01*
X138459623Y-101225411D01*
X138448631Y-101220442D01*
X138437302Y-101215928D01*
X138425648Y-101211886D01*
X138413684Y-101208331D01*
X138401421Y-101205279D01*
X138388873Y-101202746D01*
X138376052Y-101200749D01*
X138362971Y-101199302D01*
X138349644Y-101198422D01*
X138336083Y-101198126D01*
X138322522Y-101198422D01*
X138309195Y-101199302D01*
X138296115Y-101200749D01*
X138283294Y-101202746D01*
X138270746Y-101205279D01*
X138258483Y-101208331D01*
X138246518Y-101211886D01*
X138234865Y-101215928D01*
X138223535Y-101220442D01*
X138212543Y-101225411D01*
X138201901Y-101230820D01*
X138191621Y-101236652D01*
X138181717Y-101242892D01*
X138172202Y-101249524D01*
X138163088Y-101256532D01*
X138154389Y-101263899D01*
X138146117Y-101271611D01*
X138138285Y-101279650D01*
X138130906Y-101288002D01*
X138123994Y-101296650D01*
X138117560Y-101305578D01*
X138111618Y-101314771D01*
X138106180Y-101324211D01*
X138101260Y-101333885D01*
X138096871Y-101343775D01*
X138093025Y-101353865D01*
X138089736Y-101364140D01*
X138087015Y-101374584D01*
X138084877Y-101385181D01*
X138083333Y-101395915D01*
X138082398Y-101406770D01*
X138082083Y-101417730D01*
X137912750Y-101417730D01*
X137913317Y-101397322D01*
X137914997Y-101377227D01*
X137917761Y-101357466D01*
X137921580Y-101338062D01*
X137926424Y-101319037D01*
X137932262Y-101300412D01*
X137939065Y-101282210D01*
X137946805Y-101264452D01*
X137955450Y-101247161D01*
X137964971Y-101230359D01*
X137975339Y-101214067D01*
X137986525Y-101198307D01*
X137998497Y-101183102D01*
X138011227Y-101168473D01*
X138024684Y-101154443D01*
X138038840Y-101141034D01*
X138053665Y-101128266D01*
X138069128Y-101116163D01*
X138085201Y-101104747D01*
X138101853Y-101094038D01*
X138119055Y-101084060D01*
X138136778Y-101074835D01*
X138154991Y-101066383D01*
X138173664Y-101058728D01*
X138192769Y-101051892D01*
X138212275Y-101045895D01*
X138232154Y-101040761D01*
X138252374Y-101036511D01*
X138272907Y-101033167D01*
X138293722Y-101030751D01*
X138314791Y-101029286D01*
X138336083Y-101028792D01*
X138357375Y-101029286D01*
G37*
G36*
X146705898Y-101753484D02*
G01*
X146779611Y-101758968D01*
X146852698Y-101768047D01*
X146925036Y-101780669D01*
X146996502Y-101796784D01*
X147066974Y-101816340D01*
X147136328Y-101839287D01*
X147204443Y-101865575D01*
X147271195Y-101895152D01*
X147336463Y-101927967D01*
X147400123Y-101963970D01*
X147462052Y-102003110D01*
X147522128Y-102045336D01*
X147580229Y-102090597D01*
X147636232Y-102138843D01*
X147690014Y-102190022D01*
X148000000Y-102500000D01*
X147625826Y-102874165D01*
X147315840Y-102564206D01*
X147281073Y-102531120D01*
X147244870Y-102499930D01*
X147207311Y-102470670D01*
X147168475Y-102443372D01*
X147128441Y-102418070D01*
X147087288Y-102394795D01*
X147045096Y-102373581D01*
X147001943Y-102354461D01*
X146957910Y-102337468D01*
X146913076Y-102322633D01*
X146867520Y-102309991D01*
X146821320Y-102299574D01*
X146774557Y-102291414D01*
X146727310Y-102285545D01*
X146679658Y-102282000D01*
X146631681Y-102280811D01*
X146583703Y-102282000D01*
X146536051Y-102285545D01*
X146488803Y-102291414D01*
X146442040Y-102299574D01*
X146395841Y-102309991D01*
X146350284Y-102322633D01*
X146305450Y-102337468D01*
X146261417Y-102354461D01*
X146218265Y-102373581D01*
X146176073Y-102394795D01*
X146134920Y-102418070D01*
X146094886Y-102443372D01*
X146056050Y-102470670D01*
X146018492Y-102499930D01*
X145982290Y-102531120D01*
X145947524Y-102564206D01*
X145637546Y-102874165D01*
X145263369Y-102500000D01*
X145573347Y-102190019D01*
X145627127Y-102138840D01*
X145683129Y-102090595D01*
X145741229Y-102045334D01*
X145801305Y-102003109D01*
X145863234Y-101963969D01*
X145926894Y-101927966D01*
X145992161Y-101895151D01*
X146058914Y-101865575D01*
X146127030Y-101839287D01*
X146196385Y-101816340D01*
X146266857Y-101796784D01*
X146338323Y-101780669D01*
X146410662Y-101768047D01*
X146483749Y-101758968D01*
X146557463Y-101753484D01*
X146631681Y-101751644D01*
X146705898Y-101753484D01*
G37*
D10*
X158000000Y-105000000D02*
X158500000Y-105000000D01*
D14*
G36*
X155091304Y-101983464D02*
G01*
X155104740Y-101984485D01*
X155117982Y-101986168D01*
X155131011Y-101988495D01*
X155143812Y-101991449D01*
X155156367Y-101995015D01*
X155168661Y-101999174D01*
X155180676Y-102003912D01*
X155192396Y-102009210D01*
X155203804Y-102015053D01*
X155214884Y-102021424D01*
X155225619Y-102028306D01*
X155235993Y-102035683D01*
X155245988Y-102043537D01*
X155255588Y-102051853D01*
X155264777Y-102060614D01*
X155273538Y-102069803D01*
X155281854Y-102079403D01*
X155289708Y-102089398D01*
X155297085Y-102099772D01*
X155303967Y-102110507D01*
X155310338Y-102121587D01*
X155316181Y-102132995D01*
X155321479Y-102144715D01*
X155326217Y-102156730D01*
X155330376Y-102169024D01*
X155333942Y-102181579D01*
X155336896Y-102194380D01*
X155339223Y-102207409D01*
X155340906Y-102220651D01*
X155341927Y-102234087D01*
X155342272Y-102247703D01*
X155341927Y-102261318D01*
X155340906Y-102274755D01*
X155339223Y-102287996D01*
X155336896Y-102301026D01*
X155333942Y-102313826D01*
X155330376Y-102326382D01*
X155326217Y-102338675D01*
X155321479Y-102350691D01*
X155316181Y-102362411D01*
X155310338Y-102373819D01*
X155303967Y-102384899D01*
X155297085Y-102395634D01*
X155289708Y-102406007D01*
X155281854Y-102416002D01*
X155273538Y-102425603D01*
X155264777Y-102434791D01*
X155255588Y-102443552D01*
X155245988Y-102451868D01*
X155235993Y-102459723D01*
X155225619Y-102467099D01*
X155214884Y-102473981D01*
X155203804Y-102480352D01*
X155192396Y-102486195D01*
X155180676Y-102491494D01*
X155168661Y-102496231D01*
X155156367Y-102500391D01*
X155143812Y-102503956D01*
X155131011Y-102506911D01*
X155117982Y-102509237D01*
X155104740Y-102510920D01*
X155091304Y-102511942D01*
X155077688Y-102512286D01*
X155064073Y-102511942D01*
X155050636Y-102510920D01*
X155037395Y-102509237D01*
X155024365Y-102506911D01*
X155011565Y-102503956D01*
X154999009Y-102500391D01*
X154986715Y-102496231D01*
X154974700Y-102491494D01*
X154962980Y-102486195D01*
X154951572Y-102480352D01*
X154940492Y-102473981D01*
X154929757Y-102467099D01*
X154919384Y-102459723D01*
X154909388Y-102451868D01*
X154899788Y-102443552D01*
X154890599Y-102434791D01*
X154881839Y-102425603D01*
X154873523Y-102416002D01*
X154865668Y-102406007D01*
X154858291Y-102395634D01*
X154851409Y-102384899D01*
X154845038Y-102373819D01*
X154839195Y-102362411D01*
X154833897Y-102350691D01*
X154829160Y-102338675D01*
X154825000Y-102326382D01*
X154821434Y-102313826D01*
X154818480Y-102301026D01*
X154816153Y-102287996D01*
X154814471Y-102274755D01*
X154813449Y-102261318D01*
X154813105Y-102247703D01*
X154813449Y-102234087D01*
X154814471Y-102220651D01*
X154816153Y-102207409D01*
X154818480Y-102194380D01*
X154821434Y-102181579D01*
X154825000Y-102169024D01*
X154829160Y-102156730D01*
X154833897Y-102144715D01*
X154839195Y-102132995D01*
X154845038Y-102121587D01*
X154851409Y-102110507D01*
X154858291Y-102099772D01*
X154865668Y-102089398D01*
X154873523Y-102079403D01*
X154881839Y-102069803D01*
X154890599Y-102060614D01*
X154899788Y-102051853D01*
X154909388Y-102043537D01*
X154919384Y-102035683D01*
X154929757Y-102028306D01*
X154940492Y-102021424D01*
X154951572Y-102015053D01*
X154962980Y-102009210D01*
X154974700Y-102003912D01*
X154986715Y-101999174D01*
X154999009Y-101995015D01*
X155011565Y-101991449D01*
X155024365Y-101988495D01*
X155037395Y-101986168D01*
X155050636Y-101984485D01*
X155064073Y-101983464D01*
X155077688Y-101983119D01*
X155091304Y-101983464D01*
G37*
G36*
X155055364Y-100836928D02*
G01*
X155097002Y-100862380D01*
X155137746Y-100889116D01*
X155177569Y-100917107D01*
X155216442Y-100946325D01*
X155254338Y-100976741D01*
X155291227Y-101008329D01*
X155327083Y-101041058D01*
X155361877Y-101074903D01*
X155395581Y-101109834D01*
X155428167Y-101145823D01*
X155459607Y-101182843D01*
X155489872Y-101220865D01*
X155518935Y-101259861D01*
X155546767Y-101299803D01*
X155573341Y-101340662D01*
X155598628Y-101382412D01*
X155622600Y-101425023D01*
X155645229Y-101468468D01*
X155666487Y-101512718D01*
X155686346Y-101557746D01*
X155704778Y-101603523D01*
X155721754Y-101650021D01*
X155737247Y-101697212D01*
X155751228Y-101745068D01*
X155763670Y-101793561D01*
X155774544Y-101842663D01*
X155783822Y-101892345D01*
X155791476Y-101942580D01*
X155797479Y-101993340D01*
X155801801Y-102044595D01*
X155804415Y-102096320D01*
X155805292Y-102148484D01*
X155803313Y-102226772D01*
X155797438Y-102304033D01*
X155787763Y-102380170D01*
X155774384Y-102455089D01*
X155757396Y-102528693D01*
X155736895Y-102600887D01*
X155712976Y-102671575D01*
X155685736Y-102740662D01*
X155655270Y-102808052D01*
X155621672Y-102873650D01*
X155585040Y-102937360D01*
X155545468Y-102999086D01*
X155503052Y-103058733D01*
X155457888Y-103116205D01*
X155410071Y-103171407D01*
X155359697Y-103224242D01*
X155306861Y-103274617D01*
X155251659Y-103322434D01*
X155194187Y-103367598D01*
X155134540Y-103410014D01*
X155072814Y-103449586D01*
X155009104Y-103486218D01*
X154943507Y-103519815D01*
X154876116Y-103550282D01*
X154807029Y-103577522D01*
X154736341Y-103601441D01*
X154664147Y-103621942D01*
X154590543Y-103638929D01*
X154515625Y-103652309D01*
X154439487Y-103661983D01*
X154362226Y-103667858D01*
X154283938Y-103669838D01*
X154205650Y-103667858D01*
X154128389Y-103661983D01*
X154052252Y-103652309D01*
X153977333Y-103638929D01*
X153903729Y-103621942D01*
X153831535Y-103601441D01*
X153760847Y-103577522D01*
X153691760Y-103550282D01*
X153624370Y-103519815D01*
X153558772Y-103486218D01*
X153495062Y-103449586D01*
X153433336Y-103410014D01*
X153373689Y-103367598D01*
X153316217Y-103322434D01*
X153261015Y-103274617D01*
X153208180Y-103224242D01*
X153157805Y-103171407D01*
X153109988Y-103116205D01*
X153064824Y-103058733D01*
X153022408Y-102999086D01*
X152982836Y-102937360D01*
X152946204Y-102873650D01*
X152912607Y-102808052D01*
X152882140Y-102740662D01*
X152854900Y-102671575D01*
X152830981Y-102600887D01*
X152810480Y-102528693D01*
X152793493Y-102455089D01*
X152780113Y-102380170D01*
X152770439Y-102304033D01*
X152764564Y-102226772D01*
X152762584Y-102148484D01*
X153010631Y-102148484D01*
X153012288Y-102214008D01*
X153017205Y-102278672D01*
X153025302Y-102342396D01*
X153036500Y-102405100D01*
X153050718Y-102466704D01*
X153067876Y-102527127D01*
X153087895Y-102586290D01*
X153110693Y-102644113D01*
X153136193Y-102700516D01*
X153164312Y-102755418D01*
X153194972Y-102808741D01*
X153228091Y-102860403D01*
X153263592Y-102910324D01*
X153301392Y-102958426D01*
X153341413Y-103004627D01*
X153383573Y-103048849D01*
X153427795Y-103091009D01*
X153473996Y-103131030D01*
X153522098Y-103168830D01*
X153572019Y-103204331D01*
X153623681Y-103237450D01*
X153677004Y-103268110D01*
X153731906Y-103296229D01*
X153788309Y-103321729D01*
X153846132Y-103344527D01*
X153905295Y-103364546D01*
X153965718Y-103381704D01*
X154027322Y-103395922D01*
X154090026Y-103407120D01*
X154153750Y-103415217D01*
X154218414Y-103420134D01*
X154283938Y-103421791D01*
X154349462Y-103420134D01*
X154414127Y-103415217D01*
X154477851Y-103407120D01*
X154540554Y-103395922D01*
X154602158Y-103381704D01*
X154662581Y-103364546D01*
X154721744Y-103344527D01*
X154779567Y-103321729D01*
X154835970Y-103296229D01*
X154890872Y-103268110D01*
X154944195Y-103237450D01*
X154995857Y-103204331D01*
X155045779Y-103168830D01*
X155093880Y-103131030D01*
X155140082Y-103091009D01*
X155184303Y-103048849D01*
X155226464Y-103004627D01*
X155266484Y-102958426D01*
X155304285Y-102910324D01*
X155339785Y-102860403D01*
X155372905Y-102808741D01*
X155403564Y-102755418D01*
X155431684Y-102700516D01*
X155457183Y-102644113D01*
X155479981Y-102586290D01*
X155500000Y-102527127D01*
X155517158Y-102466704D01*
X155531376Y-102405100D01*
X155542574Y-102342396D01*
X155550671Y-102278672D01*
X155555588Y-102214008D01*
X155557245Y-102148484D01*
X155554683Y-102067051D01*
X155547100Y-101986981D01*
X155534651Y-101908428D01*
X155517489Y-101831548D01*
X155495769Y-101756493D01*
X155469645Y-101683418D01*
X155439271Y-101612478D01*
X155404802Y-101543826D01*
X155366392Y-101477618D01*
X155324195Y-101414007D01*
X155278366Y-101353148D01*
X155229058Y-101295194D01*
X155176427Y-101240301D01*
X155120626Y-101188622D01*
X155061809Y-101140312D01*
X155000132Y-101095525D01*
X153572159Y-101092548D01*
X153510024Y-101137280D01*
X153450764Y-101185577D01*
X153394536Y-101237283D01*
X153341497Y-101292241D01*
X153291802Y-101350295D01*
X153245609Y-101411289D01*
X153203074Y-101475066D01*
X153164352Y-101541470D01*
X153129600Y-101610344D01*
X153098975Y-101681531D01*
X153072632Y-101754876D01*
X153050728Y-101830222D01*
X153041490Y-101868596D01*
X153033420Y-101907412D01*
X153026538Y-101946650D01*
X153020864Y-101986290D01*
X153016416Y-102026313D01*
X153013215Y-102066700D01*
X153011280Y-102107430D01*
X153010631Y-102148484D01*
X152762584Y-102148484D01*
X152766129Y-102043800D01*
X152776611Y-101941020D01*
X152793800Y-101840375D01*
X152817466Y-101742094D01*
X152847379Y-101646407D01*
X152883309Y-101553545D01*
X152925026Y-101463737D01*
X152972299Y-101377213D01*
X153024900Y-101294204D01*
X153082597Y-101214939D01*
X153145161Y-101139648D01*
X153212361Y-101068562D01*
X153283968Y-101001909D01*
X153359752Y-100939922D01*
X153439483Y-100882828D01*
X153522930Y-100830859D01*
X155055364Y-100836928D01*
G37*
D10*
X134500000Y-105000000D02*
X134500000Y-92500000D01*
X158500000Y-92500000D02*
X158500000Y-105000000D01*
D14*
G36*
X154297554Y-102677995D02*
G01*
X154310990Y-102679017D01*
X154324232Y-102680699D01*
X154337261Y-102683026D01*
X154350062Y-102685980D01*
X154362617Y-102689546D01*
X154374911Y-102693705D01*
X154386926Y-102698443D01*
X154398646Y-102703741D01*
X154410054Y-102709584D01*
X154421134Y-102715955D01*
X154431869Y-102722837D01*
X154442243Y-102730214D01*
X154452238Y-102738068D01*
X154461838Y-102746384D01*
X154471027Y-102755145D01*
X154479788Y-102764334D01*
X154488103Y-102773934D01*
X154495958Y-102783929D01*
X154503335Y-102794303D01*
X154510217Y-102805038D01*
X154516588Y-102816118D01*
X154522431Y-102827526D01*
X154527729Y-102839246D01*
X154532467Y-102851261D01*
X154536626Y-102863555D01*
X154540192Y-102876110D01*
X154543146Y-102888911D01*
X154545473Y-102901940D01*
X154547155Y-102915182D01*
X154548177Y-102928619D01*
X154548521Y-102942234D01*
X154548177Y-102955849D01*
X154547155Y-102969286D01*
X154545473Y-102982527D01*
X154543146Y-102995557D01*
X154540192Y-103008358D01*
X154536626Y-103020913D01*
X154532467Y-103033207D01*
X154527729Y-103045222D01*
X154522431Y-103056942D01*
X154516588Y-103068350D01*
X154510217Y-103079430D01*
X154503335Y-103090165D01*
X154495958Y-103100538D01*
X154488103Y-103110534D01*
X154479788Y-103120134D01*
X154471027Y-103129323D01*
X154461838Y-103138083D01*
X154452238Y-103146399D01*
X154442243Y-103154254D01*
X154431869Y-103161631D01*
X154421134Y-103168513D01*
X154410054Y-103174884D01*
X154398646Y-103180727D01*
X154386926Y-103186025D01*
X154374911Y-103190763D01*
X154362617Y-103194922D01*
X154350062Y-103198488D01*
X154337261Y-103201442D01*
X154324232Y-103203769D01*
X154310990Y-103205451D01*
X154297554Y-103206473D01*
X154283938Y-103206817D01*
X154270323Y-103206473D01*
X154256886Y-103205451D01*
X154243645Y-103203769D01*
X154230615Y-103201442D01*
X154217815Y-103198488D01*
X154205259Y-103194922D01*
X154192965Y-103190763D01*
X154180950Y-103186025D01*
X154169230Y-103180727D01*
X154157822Y-103174884D01*
X154146742Y-103168513D01*
X154136007Y-103161631D01*
X154125634Y-103154254D01*
X154115639Y-103146399D01*
X154106038Y-103138083D01*
X154096849Y-103129323D01*
X154088089Y-103120134D01*
X154079773Y-103110534D01*
X154071918Y-103100538D01*
X154064541Y-103090165D01*
X154057659Y-103079430D01*
X154051289Y-103068350D01*
X154045446Y-103056942D01*
X154040147Y-103045222D01*
X154035410Y-103033207D01*
X154031250Y-103020913D01*
X154027685Y-103008358D01*
X154024730Y-102995557D01*
X154022403Y-102982527D01*
X154020721Y-102969286D01*
X154019699Y-102955849D01*
X154019355Y-102942234D01*
X154019699Y-102928619D01*
X154020721Y-102915182D01*
X154022403Y-102901940D01*
X154024730Y-102888911D01*
X154027685Y-102876110D01*
X154031250Y-102863555D01*
X154035410Y-102851261D01*
X154040147Y-102839246D01*
X154045446Y-102827526D01*
X154051289Y-102816118D01*
X154057659Y-102805038D01*
X154064541Y-102794303D01*
X154071918Y-102783929D01*
X154079773Y-102773934D01*
X154088089Y-102764334D01*
X154096849Y-102755145D01*
X154106038Y-102746384D01*
X154115639Y-102738068D01*
X154125634Y-102730214D01*
X154136007Y-102722837D01*
X154146742Y-102715955D01*
X154157822Y-102709584D01*
X154169230Y-102703741D01*
X154180950Y-102698443D01*
X154192965Y-102693705D01*
X154205259Y-102689546D01*
X154217815Y-102685980D01*
X154230615Y-102683026D01*
X154243645Y-102680699D01*
X154256886Y-102679017D01*
X154270323Y-102677995D01*
X154283938Y-102677651D01*
X154297554Y-102677995D01*
G37*
D10*
X135000000Y-92500000D02*
X157000000Y-92500000D01*
X134500000Y-99500000D02*
X158500000Y-99500000D01*
X157000000Y-105000000D02*
X158000000Y-105000000D01*
X167627580Y-64803884D02*
X168627580Y-64803884D01*
X168627580Y-64803884D02*
X168627580Y-65041979D01*
X168627580Y-65041979D02*
X168579961Y-65184836D01*
X168579961Y-65184836D02*
X168484723Y-65280074D01*
X168484723Y-65280074D02*
X168389485Y-65327693D01*
X168389485Y-65327693D02*
X168199009Y-65375312D01*
X168199009Y-65375312D02*
X168056152Y-65375312D01*
X168056152Y-65375312D02*
X167865676Y-65327693D01*
X167865676Y-65327693D02*
X167770438Y-65280074D01*
X167770438Y-65280074D02*
X167675200Y-65184836D01*
X167675200Y-65184836D02*
X167627580Y-65041979D01*
X167627580Y-65041979D02*
X167627580Y-64803884D01*
X167627580Y-65803884D02*
X168627580Y-65803884D01*
X168627580Y-65803884D02*
X167913295Y-66137217D01*
X167913295Y-66137217D02*
X168627580Y-66470550D01*
X168627580Y-66470550D02*
X167627580Y-66470550D01*
X168627580Y-66851503D02*
X167627580Y-67518169D01*
X168627580Y-67518169D02*
X167627580Y-66851503D01*
X167627580Y-68661027D02*
X168627580Y-68661027D01*
X167627580Y-69137217D02*
X168627580Y-69137217D01*
X168627580Y-69137217D02*
X167627580Y-69708645D01*
X167627580Y-69708645D02*
X168627580Y-69708645D01*
X76872419Y-70196115D02*
X75872419Y-70196115D01*
X75872419Y-70196115D02*
X75872419Y-69958020D01*
X75872419Y-69958020D02*
X75920038Y-69815163D01*
X75920038Y-69815163D02*
X76015276Y-69719925D01*
X76015276Y-69719925D02*
X76110514Y-69672306D01*
X76110514Y-69672306D02*
X76300990Y-69624687D01*
X76300990Y-69624687D02*
X76443847Y-69624687D01*
X76443847Y-69624687D02*
X76634323Y-69672306D01*
X76634323Y-69672306D02*
X76729561Y-69719925D01*
X76729561Y-69719925D02*
X76824800Y-69815163D01*
X76824800Y-69815163D02*
X76872419Y-69958020D01*
X76872419Y-69958020D02*
X76872419Y-70196115D01*
X76872419Y-69196115D02*
X75872419Y-69196115D01*
X75872419Y-69196115D02*
X76586704Y-68862782D01*
X76586704Y-68862782D02*
X75872419Y-68529449D01*
X75872419Y-68529449D02*
X76872419Y-68529449D01*
X75872419Y-68148496D02*
X76872419Y-67481830D01*
X75872419Y-67481830D02*
X76872419Y-68148496D01*
X75872419Y-66148496D02*
X75872419Y-65958020D01*
X75872419Y-65958020D02*
X75920038Y-65862782D01*
X75920038Y-65862782D02*
X76015276Y-65767544D01*
X76015276Y-65767544D02*
X76205752Y-65719925D01*
X76205752Y-65719925D02*
X76539085Y-65719925D01*
X76539085Y-65719925D02*
X76729561Y-65767544D01*
X76729561Y-65767544D02*
X76824800Y-65862782D01*
X76824800Y-65862782D02*
X76872419Y-65958020D01*
X76872419Y-65958020D02*
X76872419Y-66148496D01*
X76872419Y-66148496D02*
X76824800Y-66243734D01*
X76824800Y-66243734D02*
X76729561Y-66338972D01*
X76729561Y-66338972D02*
X76539085Y-66386591D01*
X76539085Y-66386591D02*
X76205752Y-66386591D01*
X76205752Y-66386591D02*
X76015276Y-66338972D01*
X76015276Y-66338972D02*
X75920038Y-66243734D01*
X75920038Y-66243734D02*
X75872419Y-66148496D01*
X75872419Y-65291353D02*
X76681942Y-65291353D01*
X76681942Y-65291353D02*
X76777180Y-65243734D01*
X76777180Y-65243734D02*
X76824800Y-65196115D01*
X76824800Y-65196115D02*
X76872419Y-65100877D01*
X76872419Y-65100877D02*
X76872419Y-64910401D01*
X76872419Y-64910401D02*
X76824800Y-64815163D01*
X76824800Y-64815163D02*
X76777180Y-64767544D01*
X76777180Y-64767544D02*
X76681942Y-64719925D01*
X76681942Y-64719925D02*
X75872419Y-64719925D01*
X75872419Y-64386591D02*
X75872419Y-63815163D01*
X76872419Y-64100877D02*
X75872419Y-64100877D01*
D15*
X135805137Y-95181619D02*
X136471804Y-95181619D01*
X136757518Y-96229238D02*
X135805137Y-96229238D01*
X135805137Y-96229238D02*
X135805137Y-94229238D01*
X135805137Y-94229238D02*
X136757518Y-94229238D01*
X137614661Y-94895904D02*
X137614661Y-96229238D01*
X137614661Y-95086380D02*
X137709899Y-94991142D01*
X137709899Y-94991142D02*
X137900375Y-94895904D01*
X137900375Y-94895904D02*
X138186090Y-94895904D01*
X138186090Y-94895904D02*
X138376566Y-94991142D01*
X138376566Y-94991142D02*
X138471804Y-95181619D01*
X138471804Y-95181619D02*
X138471804Y-96229238D01*
X140281328Y-96229238D02*
X140281328Y-94229238D01*
X140281328Y-96134000D02*
X140090852Y-96229238D01*
X140090852Y-96229238D02*
X139709899Y-96229238D01*
X139709899Y-96229238D02*
X139519423Y-96134000D01*
X139519423Y-96134000D02*
X139424185Y-96038761D01*
X139424185Y-96038761D02*
X139328947Y-95848285D01*
X139328947Y-95848285D02*
X139328947Y-95276857D01*
X139328947Y-95276857D02*
X139424185Y-95086380D01*
X139424185Y-95086380D02*
X139519423Y-94991142D01*
X139519423Y-94991142D02*
X139709899Y-94895904D01*
X139709899Y-94895904D02*
X140090852Y-94895904D01*
X140090852Y-94895904D02*
X140281328Y-94991142D01*
X141995614Y-96134000D02*
X141805138Y-96229238D01*
X141805138Y-96229238D02*
X141424185Y-96229238D01*
X141424185Y-96229238D02*
X141233709Y-96134000D01*
X141233709Y-96134000D02*
X141138471Y-95943523D01*
X141138471Y-95943523D02*
X141138471Y-95181619D01*
X141138471Y-95181619D02*
X141233709Y-94991142D01*
X141233709Y-94991142D02*
X141424185Y-94895904D01*
X141424185Y-94895904D02*
X141805138Y-94895904D01*
X141805138Y-94895904D02*
X141995614Y-94991142D01*
X141995614Y-94991142D02*
X142090852Y-95181619D01*
X142090852Y-95181619D02*
X142090852Y-95372095D01*
X142090852Y-95372095D02*
X141138471Y-95562571D01*
X142757519Y-94895904D02*
X143233709Y-96229238D01*
X143233709Y-96229238D02*
X143709900Y-94895904D01*
X144757519Y-96229238D02*
X144567043Y-96134000D01*
X144567043Y-96134000D02*
X144471805Y-96038761D01*
X144471805Y-96038761D02*
X144376567Y-95848285D01*
X144376567Y-95848285D02*
X144376567Y-95276857D01*
X144376567Y-95276857D02*
X144471805Y-95086380D01*
X144471805Y-95086380D02*
X144567043Y-94991142D01*
X144567043Y-94991142D02*
X144757519Y-94895904D01*
X144757519Y-94895904D02*
X145043234Y-94895904D01*
X145043234Y-94895904D02*
X145233710Y-94991142D01*
X145233710Y-94991142D02*
X145328948Y-95086380D01*
X145328948Y-95086380D02*
X145424186Y-95276857D01*
X145424186Y-95276857D02*
X145424186Y-95848285D01*
X145424186Y-95848285D02*
X145328948Y-96038761D01*
X145328948Y-96038761D02*
X145233710Y-96134000D01*
X145233710Y-96134000D02*
X145043234Y-96229238D01*
X145043234Y-96229238D02*
X144757519Y-96229238D01*
X147138472Y-94895904D02*
X147138472Y-96229238D01*
X146281329Y-94895904D02*
X146281329Y-95943523D01*
X146281329Y-95943523D02*
X146376567Y-96134000D01*
X146376567Y-96134000D02*
X146567043Y-96229238D01*
X146567043Y-96229238D02*
X146852758Y-96229238D01*
X146852758Y-96229238D02*
X147043234Y-96134000D01*
X147043234Y-96134000D02*
X147138472Y-96038761D01*
X148090853Y-96229238D02*
X148090853Y-94895904D01*
X148090853Y-95276857D02*
X148186091Y-95086380D01*
X148186091Y-95086380D02*
X148281329Y-94991142D01*
X148281329Y-94991142D02*
X148471805Y-94895904D01*
X148471805Y-94895904D02*
X148662282Y-94895904D01*
X150852758Y-96229238D02*
X150852758Y-94229238D01*
X150852758Y-94229238D02*
X151328948Y-94229238D01*
X151328948Y-94229238D02*
X151614663Y-94324476D01*
X151614663Y-94324476D02*
X151805139Y-94514952D01*
X151805139Y-94514952D02*
X151900377Y-94705428D01*
X151900377Y-94705428D02*
X151995615Y-95086380D01*
X151995615Y-95086380D02*
X151995615Y-95372095D01*
X151995615Y-95372095D02*
X151900377Y-95753047D01*
X151900377Y-95753047D02*
X151805139Y-95943523D01*
X151805139Y-95943523D02*
X151614663Y-96134000D01*
X151614663Y-96134000D02*
X151328948Y-96229238D01*
X151328948Y-96229238D02*
X150852758Y-96229238D01*
X152852758Y-96229238D02*
X152852758Y-94229238D01*
X152852758Y-94229238D02*
X153519425Y-95657809D01*
X153519425Y-95657809D02*
X154186091Y-94229238D01*
X154186091Y-94229238D02*
X154186091Y-96229238D01*
X154947996Y-94229238D02*
X156281329Y-96229238D01*
X156281329Y-94229238D02*
X154947996Y-96229238D01*
D10*
X165827693Y-88920038D02*
X165732455Y-88872419D01*
X165732455Y-88872419D02*
X165589598Y-88872419D01*
X165589598Y-88872419D02*
X165446741Y-88920038D01*
X165446741Y-88920038D02*
X165351503Y-89015276D01*
X165351503Y-89015276D02*
X165303884Y-89110514D01*
X165303884Y-89110514D02*
X165256265Y-89300990D01*
X165256265Y-89300990D02*
X165256265Y-89443847D01*
X165256265Y-89443847D02*
X165303884Y-89634323D01*
X165303884Y-89634323D02*
X165351503Y-89729561D01*
X165351503Y-89729561D02*
X165446741Y-89824800D01*
X165446741Y-89824800D02*
X165589598Y-89872419D01*
X165589598Y-89872419D02*
X165684836Y-89872419D01*
X165684836Y-89872419D02*
X165827693Y-89824800D01*
X165827693Y-89824800D02*
X165875312Y-89777180D01*
X165875312Y-89777180D02*
X165875312Y-89443847D01*
X165875312Y-89443847D02*
X165684836Y-89443847D01*
X166303884Y-89872419D02*
X166303884Y-88872419D01*
X166303884Y-88872419D02*
X166875312Y-89872419D01*
X166875312Y-89872419D02*
X166875312Y-88872419D01*
X167351503Y-89872419D02*
X167351503Y-88872419D01*
X167351503Y-88872419D02*
X167589598Y-88872419D01*
X167589598Y-88872419D02*
X167732455Y-88920038D01*
X167732455Y-88920038D02*
X167827693Y-89015276D01*
X167827693Y-89015276D02*
X167875312Y-89110514D01*
X167875312Y-89110514D02*
X167922931Y-89300990D01*
X167922931Y-89300990D02*
X167922931Y-89443847D01*
X167922931Y-89443847D02*
X167875312Y-89634323D01*
X167875312Y-89634323D02*
X167827693Y-89729561D01*
X167827693Y-89729561D02*
X167732455Y-89824800D01*
X167732455Y-89824800D02*
X167589598Y-89872419D01*
X167589598Y-89872419D02*
X167351503Y-89872419D01*
X115303884Y-62372419D02*
X115303884Y-61372419D01*
X115303884Y-61372419D02*
X115541979Y-61372419D01*
X115541979Y-61372419D02*
X115684836Y-61420038D01*
X115684836Y-61420038D02*
X115780074Y-61515276D01*
X115780074Y-61515276D02*
X115827693Y-61610514D01*
X115827693Y-61610514D02*
X115875312Y-61800990D01*
X115875312Y-61800990D02*
X115875312Y-61943847D01*
X115875312Y-61943847D02*
X115827693Y-62134323D01*
X115827693Y-62134323D02*
X115780074Y-62229561D01*
X115780074Y-62229561D02*
X115684836Y-62324800D01*
X115684836Y-62324800D02*
X115541979Y-62372419D01*
X115541979Y-62372419D02*
X115303884Y-62372419D01*
X116303884Y-62372419D02*
X116303884Y-61372419D01*
X116303884Y-61372419D02*
X116637217Y-62086704D01*
X116637217Y-62086704D02*
X116970550Y-61372419D01*
X116970550Y-61372419D02*
X116970550Y-62372419D01*
X117351503Y-61372419D02*
X118018169Y-62372419D01*
X118018169Y-61372419D02*
X117351503Y-62372419D01*
X119637217Y-62372419D02*
X119161027Y-62372419D01*
X119161027Y-62372419D02*
X119161027Y-61372419D01*
X119970551Y-62372419D02*
X119970551Y-61372419D01*
X120446741Y-62372419D02*
X120446741Y-61372419D01*
X120446741Y-61372419D02*
X121018169Y-62372419D01*
X121018169Y-62372419D02*
X121018169Y-61372419D01*
X121494360Y-61848609D02*
X121827693Y-61848609D01*
X121970550Y-62372419D02*
X121494360Y-62372419D01*
X121494360Y-62372419D02*
X121494360Y-61372419D01*
X121494360Y-61372419D02*
X121970550Y-61372419D01*
X123113408Y-62086704D02*
X123589598Y-62086704D01*
X123018170Y-62372419D02*
X123351503Y-61372419D01*
X123351503Y-61372419D02*
X123684836Y-62372419D01*
X115303884Y-58372419D02*
X115303884Y-57372419D01*
X115303884Y-57372419D02*
X115541979Y-57372419D01*
X115541979Y-57372419D02*
X115684836Y-57420038D01*
X115684836Y-57420038D02*
X115780074Y-57515276D01*
X115780074Y-57515276D02*
X115827693Y-57610514D01*
X115827693Y-57610514D02*
X115875312Y-57800990D01*
X115875312Y-57800990D02*
X115875312Y-57943847D01*
X115875312Y-57943847D02*
X115827693Y-58134323D01*
X115827693Y-58134323D02*
X115780074Y-58229561D01*
X115780074Y-58229561D02*
X115684836Y-58324800D01*
X115684836Y-58324800D02*
X115541979Y-58372419D01*
X115541979Y-58372419D02*
X115303884Y-58372419D01*
X116303884Y-58372419D02*
X116303884Y-57372419D01*
X116303884Y-57372419D02*
X116637217Y-58086704D01*
X116637217Y-58086704D02*
X116970550Y-57372419D01*
X116970550Y-57372419D02*
X116970550Y-58372419D01*
X117351503Y-57372419D02*
X118018169Y-58372419D01*
X118018169Y-57372419D02*
X117351503Y-58372419D01*
X119637217Y-58372419D02*
X119161027Y-58372419D01*
X119161027Y-58372419D02*
X119161027Y-57372419D01*
X119970551Y-58372419D02*
X119970551Y-57372419D01*
X120446741Y-58372419D02*
X120446741Y-57372419D01*
X120446741Y-57372419D02*
X121018169Y-58372419D01*
X121018169Y-58372419D02*
X121018169Y-57372419D01*
X121494360Y-57848609D02*
X121827693Y-57848609D01*
X121970550Y-58372419D02*
X121494360Y-58372419D01*
X121494360Y-58372419D02*
X121494360Y-57372419D01*
X121494360Y-57372419D02*
X121970550Y-57372419D01*
X123494360Y-57848609D02*
X123637217Y-57896228D01*
X123637217Y-57896228D02*
X123684836Y-57943847D01*
X123684836Y-57943847D02*
X123732455Y-58039085D01*
X123732455Y-58039085D02*
X123732455Y-58181942D01*
X123732455Y-58181942D02*
X123684836Y-58277180D01*
X123684836Y-58277180D02*
X123637217Y-58324800D01*
X123637217Y-58324800D02*
X123541979Y-58372419D01*
X123541979Y-58372419D02*
X123161027Y-58372419D01*
X123161027Y-58372419D02*
X123161027Y-57372419D01*
X123161027Y-57372419D02*
X123494360Y-57372419D01*
X123494360Y-57372419D02*
X123589598Y-57420038D01*
X123589598Y-57420038D02*
X123637217Y-57467657D01*
X123637217Y-57467657D02*
X123684836Y-57562895D01*
X123684836Y-57562895D02*
X123684836Y-57658133D01*
X123684836Y-57658133D02*
X123637217Y-57753371D01*
X123637217Y-57753371D02*
X123589598Y-57800990D01*
X123589598Y-57800990D02*
X123494360Y-57848609D01*
X123494360Y-57848609D02*
X123161027Y-57848609D01*
D11*
X135336779Y-98369819D02*
X135336779Y-97369819D01*
X135336779Y-97369819D02*
X135574874Y-97369819D01*
X135574874Y-97369819D02*
X135717731Y-97417438D01*
X135717731Y-97417438D02*
X135812969Y-97512676D01*
X135812969Y-97512676D02*
X135860588Y-97607914D01*
X135860588Y-97607914D02*
X135908207Y-97798390D01*
X135908207Y-97798390D02*
X135908207Y-97941247D01*
X135908207Y-97941247D02*
X135860588Y-98131723D01*
X135860588Y-98131723D02*
X135812969Y-98226961D01*
X135812969Y-98226961D02*
X135717731Y-98322200D01*
X135717731Y-98322200D02*
X135574874Y-98369819D01*
X135574874Y-98369819D02*
X135336779Y-98369819D01*
X136717731Y-98322200D02*
X136622493Y-98369819D01*
X136622493Y-98369819D02*
X136432017Y-98369819D01*
X136432017Y-98369819D02*
X136336779Y-98322200D01*
X136336779Y-98322200D02*
X136289160Y-98226961D01*
X136289160Y-98226961D02*
X136289160Y-97846009D01*
X136289160Y-97846009D02*
X136336779Y-97750771D01*
X136336779Y-97750771D02*
X136432017Y-97703152D01*
X136432017Y-97703152D02*
X136622493Y-97703152D01*
X136622493Y-97703152D02*
X136717731Y-97750771D01*
X136717731Y-97750771D02*
X136765350Y-97846009D01*
X136765350Y-97846009D02*
X136765350Y-97941247D01*
X136765350Y-97941247D02*
X136289160Y-98036485D01*
X137146303Y-98322200D02*
X137241541Y-98369819D01*
X137241541Y-98369819D02*
X137432017Y-98369819D01*
X137432017Y-98369819D02*
X137527255Y-98322200D01*
X137527255Y-98322200D02*
X137574874Y-98226961D01*
X137574874Y-98226961D02*
X137574874Y-98179342D01*
X137574874Y-98179342D02*
X137527255Y-98084104D01*
X137527255Y-98084104D02*
X137432017Y-98036485D01*
X137432017Y-98036485D02*
X137289160Y-98036485D01*
X137289160Y-98036485D02*
X137193922Y-97988866D01*
X137193922Y-97988866D02*
X137146303Y-97893628D01*
X137146303Y-97893628D02*
X137146303Y-97846009D01*
X137146303Y-97846009D02*
X137193922Y-97750771D01*
X137193922Y-97750771D02*
X137289160Y-97703152D01*
X137289160Y-97703152D02*
X137432017Y-97703152D01*
X137432017Y-97703152D02*
X137527255Y-97750771D01*
X138003446Y-98369819D02*
X138003446Y-97703152D01*
X138003446Y-97369819D02*
X137955827Y-97417438D01*
X137955827Y-97417438D02*
X138003446Y-97465057D01*
X138003446Y-97465057D02*
X138051065Y-97417438D01*
X138051065Y-97417438D02*
X138003446Y-97369819D01*
X138003446Y-97369819D02*
X138003446Y-97465057D01*
X138908207Y-97703152D02*
X138908207Y-98512676D01*
X138908207Y-98512676D02*
X138860588Y-98607914D01*
X138860588Y-98607914D02*
X138812969Y-98655533D01*
X138812969Y-98655533D02*
X138717731Y-98703152D01*
X138717731Y-98703152D02*
X138574874Y-98703152D01*
X138574874Y-98703152D02*
X138479636Y-98655533D01*
X138908207Y-98322200D02*
X138812969Y-98369819D01*
X138812969Y-98369819D02*
X138622493Y-98369819D01*
X138622493Y-98369819D02*
X138527255Y-98322200D01*
X138527255Y-98322200D02*
X138479636Y-98274580D01*
X138479636Y-98274580D02*
X138432017Y-98179342D01*
X138432017Y-98179342D02*
X138432017Y-97893628D01*
X138432017Y-97893628D02*
X138479636Y-97798390D01*
X138479636Y-97798390D02*
X138527255Y-97750771D01*
X138527255Y-97750771D02*
X138622493Y-97703152D01*
X138622493Y-97703152D02*
X138812969Y-97703152D01*
X138812969Y-97703152D02*
X138908207Y-97750771D01*
X139384398Y-97703152D02*
X139384398Y-98369819D01*
X139384398Y-97798390D02*
X139432017Y-97750771D01*
X139432017Y-97750771D02*
X139527255Y-97703152D01*
X139527255Y-97703152D02*
X139670112Y-97703152D01*
X139670112Y-97703152D02*
X139765350Y-97750771D01*
X139765350Y-97750771D02*
X139812969Y-97846009D01*
X139812969Y-97846009D02*
X139812969Y-98369819D01*
X140670112Y-98322200D02*
X140574874Y-98369819D01*
X140574874Y-98369819D02*
X140384398Y-98369819D01*
X140384398Y-98369819D02*
X140289160Y-98322200D01*
X140289160Y-98322200D02*
X140241541Y-98226961D01*
X140241541Y-98226961D02*
X140241541Y-97846009D01*
X140241541Y-97846009D02*
X140289160Y-97750771D01*
X140289160Y-97750771D02*
X140384398Y-97703152D01*
X140384398Y-97703152D02*
X140574874Y-97703152D01*
X140574874Y-97703152D02*
X140670112Y-97750771D01*
X140670112Y-97750771D02*
X140717731Y-97846009D01*
X140717731Y-97846009D02*
X140717731Y-97941247D01*
X140717731Y-97941247D02*
X140241541Y-98036485D01*
X141574874Y-98369819D02*
X141574874Y-97369819D01*
X141574874Y-98322200D02*
X141479636Y-98369819D01*
X141479636Y-98369819D02*
X141289160Y-98369819D01*
X141289160Y-98369819D02*
X141193922Y-98322200D01*
X141193922Y-98322200D02*
X141146303Y-98274580D01*
X141146303Y-98274580D02*
X141098684Y-98179342D01*
X141098684Y-98179342D02*
X141098684Y-97893628D01*
X141098684Y-97893628D02*
X141146303Y-97798390D01*
X141146303Y-97798390D02*
X141193922Y-97750771D01*
X141193922Y-97750771D02*
X141289160Y-97703152D01*
X141289160Y-97703152D02*
X141479636Y-97703152D01*
X141479636Y-97703152D02*
X141574874Y-97750771D01*
X143146303Y-97846009D02*
X143289160Y-97893628D01*
X143289160Y-97893628D02*
X143336779Y-97941247D01*
X143336779Y-97941247D02*
X143384398Y-98036485D01*
X143384398Y-98036485D02*
X143384398Y-98179342D01*
X143384398Y-98179342D02*
X143336779Y-98274580D01*
X143336779Y-98274580D02*
X143289160Y-98322200D01*
X143289160Y-98322200D02*
X143193922Y-98369819D01*
X143193922Y-98369819D02*
X142812970Y-98369819D01*
X142812970Y-98369819D02*
X142812970Y-97369819D01*
X142812970Y-97369819D02*
X143146303Y-97369819D01*
X143146303Y-97369819D02*
X143241541Y-97417438D01*
X143241541Y-97417438D02*
X143289160Y-97465057D01*
X143289160Y-97465057D02*
X143336779Y-97560295D01*
X143336779Y-97560295D02*
X143336779Y-97655533D01*
X143336779Y-97655533D02*
X143289160Y-97750771D01*
X143289160Y-97750771D02*
X143241541Y-97798390D01*
X143241541Y-97798390D02*
X143146303Y-97846009D01*
X143146303Y-97846009D02*
X142812970Y-97846009D01*
X143717732Y-97703152D02*
X143955827Y-98369819D01*
X144193922Y-97703152D02*
X143955827Y-98369819D01*
X143955827Y-98369819D02*
X143860589Y-98607914D01*
X143860589Y-98607914D02*
X143812970Y-98655533D01*
X143812970Y-98655533D02*
X143717732Y-98703152D01*
X145812970Y-98369819D02*
X145336780Y-98369819D01*
X145336780Y-98369819D02*
X145336780Y-97369819D01*
X146574875Y-98369819D02*
X146574875Y-97846009D01*
X146574875Y-97846009D02*
X146527256Y-97750771D01*
X146527256Y-97750771D02*
X146432018Y-97703152D01*
X146432018Y-97703152D02*
X146241542Y-97703152D01*
X146241542Y-97703152D02*
X146146304Y-97750771D01*
X146574875Y-98322200D02*
X146479637Y-98369819D01*
X146479637Y-98369819D02*
X146241542Y-98369819D01*
X146241542Y-98369819D02*
X146146304Y-98322200D01*
X146146304Y-98322200D02*
X146098685Y-98226961D01*
X146098685Y-98226961D02*
X146098685Y-98131723D01*
X146098685Y-98131723D02*
X146146304Y-98036485D01*
X146146304Y-98036485D02*
X146241542Y-97988866D01*
X146241542Y-97988866D02*
X146479637Y-97988866D01*
X146479637Y-97988866D02*
X146574875Y-97941247D01*
X146955828Y-97703152D02*
X147146304Y-98369819D01*
X147146304Y-98369819D02*
X147336780Y-97893628D01*
X147336780Y-97893628D02*
X147527256Y-98369819D01*
X147527256Y-98369819D02*
X147717732Y-97703152D01*
X148098685Y-98369819D02*
X148098685Y-97703152D01*
X148098685Y-97893628D02*
X148146304Y-97798390D01*
X148146304Y-97798390D02*
X148193923Y-97750771D01*
X148193923Y-97750771D02*
X148289161Y-97703152D01*
X148289161Y-97703152D02*
X148384399Y-97703152D01*
X148717733Y-98369819D02*
X148717733Y-97703152D01*
X148717733Y-97369819D02*
X148670114Y-97417438D01*
X148670114Y-97417438D02*
X148717733Y-97465057D01*
X148717733Y-97465057D02*
X148765352Y-97417438D01*
X148765352Y-97417438D02*
X148717733Y-97369819D01*
X148717733Y-97369819D02*
X148717733Y-97465057D01*
X149955828Y-98369819D02*
X149955828Y-97369819D01*
X149955828Y-97369819D02*
X150193923Y-97369819D01*
X150193923Y-97369819D02*
X150336780Y-97417438D01*
X150336780Y-97417438D02*
X150432018Y-97512676D01*
X150432018Y-97512676D02*
X150479637Y-97607914D01*
X150479637Y-97607914D02*
X150527256Y-97798390D01*
X150527256Y-97798390D02*
X150527256Y-97941247D01*
X150527256Y-97941247D02*
X150479637Y-98131723D01*
X150479637Y-98131723D02*
X150432018Y-98226961D01*
X150432018Y-98226961D02*
X150336780Y-98322200D01*
X150336780Y-98322200D02*
X150193923Y-98369819D01*
X150193923Y-98369819D02*
X149955828Y-98369819D01*
X151384399Y-98369819D02*
X151384399Y-97846009D01*
X151384399Y-97846009D02*
X151336780Y-97750771D01*
X151336780Y-97750771D02*
X151241542Y-97703152D01*
X151241542Y-97703152D02*
X151051066Y-97703152D01*
X151051066Y-97703152D02*
X150955828Y-97750771D01*
X151384399Y-98322200D02*
X151289161Y-98369819D01*
X151289161Y-98369819D02*
X151051066Y-98369819D01*
X151051066Y-98369819D02*
X150955828Y-98322200D01*
X150955828Y-98322200D02*
X150908209Y-98226961D01*
X150908209Y-98226961D02*
X150908209Y-98131723D01*
X150908209Y-98131723D02*
X150955828Y-98036485D01*
X150955828Y-98036485D02*
X151051066Y-97988866D01*
X151051066Y-97988866D02*
X151289161Y-97988866D01*
X151289161Y-97988866D02*
X151384399Y-97941247D01*
X151860590Y-98369819D02*
X151860590Y-97703152D01*
X151860590Y-97893628D02*
X151908209Y-97798390D01*
X151908209Y-97798390D02*
X151955828Y-97750771D01*
X151955828Y-97750771D02*
X152051066Y-97703152D01*
X152051066Y-97703152D02*
X152146304Y-97703152D01*
X152479638Y-98369819D02*
X152479638Y-97369819D01*
X152479638Y-97750771D02*
X152574876Y-97703152D01*
X152574876Y-97703152D02*
X152765352Y-97703152D01*
X152765352Y-97703152D02*
X152860590Y-97750771D01*
X152860590Y-97750771D02*
X152908209Y-97798390D01*
X152908209Y-97798390D02*
X152955828Y-97893628D01*
X152955828Y-97893628D02*
X152955828Y-98179342D01*
X152955828Y-98179342D02*
X152908209Y-98274580D01*
X152908209Y-98274580D02*
X152860590Y-98322200D01*
X152860590Y-98322200D02*
X152765352Y-98369819D01*
X152765352Y-98369819D02*
X152574876Y-98369819D01*
X152574876Y-98369819D02*
X152479638Y-98322200D01*
X153289162Y-97703152D02*
X153527257Y-98369819D01*
X153765352Y-97703152D02*
X153527257Y-98369819D01*
X153527257Y-98369819D02*
X153432019Y-98607914D01*
X153432019Y-98607914D02*
X153384400Y-98655533D01*
X153384400Y-98655533D02*
X153289162Y-98703152D01*
X154098686Y-98322200D02*
X154193924Y-98369819D01*
X154193924Y-98369819D02*
X154384400Y-98369819D01*
X154384400Y-98369819D02*
X154479638Y-98322200D01*
X154479638Y-98322200D02*
X154527257Y-98226961D01*
X154527257Y-98226961D02*
X154527257Y-98179342D01*
X154527257Y-98179342D02*
X154479638Y-98084104D01*
X154479638Y-98084104D02*
X154384400Y-98036485D01*
X154384400Y-98036485D02*
X154241543Y-98036485D01*
X154241543Y-98036485D02*
X154146305Y-97988866D01*
X154146305Y-97988866D02*
X154098686Y-97893628D01*
X154098686Y-97893628D02*
X154098686Y-97846009D01*
X154098686Y-97846009D02*
X154146305Y-97750771D01*
X154146305Y-97750771D02*
X154241543Y-97703152D01*
X154241543Y-97703152D02*
X154384400Y-97703152D01*
X154384400Y-97703152D02*
X154479638Y-97750771D01*
X154955829Y-98369819D02*
X154955829Y-97369819D01*
X155384400Y-98369819D02*
X155384400Y-97846009D01*
X155384400Y-97846009D02*
X155336781Y-97750771D01*
X155336781Y-97750771D02*
X155241543Y-97703152D01*
X155241543Y-97703152D02*
X155098686Y-97703152D01*
X155098686Y-97703152D02*
X155003448Y-97750771D01*
X155003448Y-97750771D02*
X154955829Y-97798390D01*
X155860591Y-98369819D02*
X155860591Y-97703152D01*
X155860591Y-97369819D02*
X155812972Y-97417438D01*
X155812972Y-97417438D02*
X155860591Y-97465057D01*
X155860591Y-97465057D02*
X155908210Y-97417438D01*
X155908210Y-97417438D02*
X155860591Y-97369819D01*
X155860591Y-97369819D02*
X155860591Y-97465057D01*
X156336781Y-98369819D02*
X156336781Y-97703152D01*
X156336781Y-97893628D02*
X156384400Y-97798390D01*
X156384400Y-97798390D02*
X156432019Y-97750771D01*
X156432019Y-97750771D02*
X156527257Y-97703152D01*
X156527257Y-97703152D02*
X156622495Y-97703152D01*
X157336781Y-98322200D02*
X157241543Y-98369819D01*
X157241543Y-98369819D02*
X157051067Y-98369819D01*
X157051067Y-98369819D02*
X156955829Y-98322200D01*
X156955829Y-98322200D02*
X156908210Y-98226961D01*
X156908210Y-98226961D02*
X156908210Y-97846009D01*
X156908210Y-97846009D02*
X156955829Y-97750771D01*
X156955829Y-97750771D02*
X157051067Y-97703152D01*
X157051067Y-97703152D02*
X157241543Y-97703152D01*
X157241543Y-97703152D02*
X157336781Y-97750771D01*
X157336781Y-97750771D02*
X157384400Y-97846009D01*
X157384400Y-97846009D02*
X157384400Y-97941247D01*
X157384400Y-97941247D02*
X156908210Y-98036485D01*
X164261905Y-119034819D02*
X164261905Y-118034819D01*
X164261905Y-118034819D02*
X164500000Y-118034819D01*
X164500000Y-118034819D02*
X164642857Y-118082438D01*
X164642857Y-118082438D02*
X164738095Y-118177676D01*
X164738095Y-118177676D02*
X164785714Y-118272914D01*
X164785714Y-118272914D02*
X164833333Y-118463390D01*
X164833333Y-118463390D02*
X164833333Y-118606247D01*
X164833333Y-118606247D02*
X164785714Y-118796723D01*
X164785714Y-118796723D02*
X164738095Y-118891961D01*
X164738095Y-118891961D02*
X164642857Y-118987200D01*
X164642857Y-118987200D02*
X164500000Y-119034819D01*
X164500000Y-119034819D02*
X164261905Y-119034819D01*
X165785714Y-119034819D02*
X165214286Y-119034819D01*
X165500000Y-119034819D02*
X165500000Y-118034819D01*
X165500000Y-118034819D02*
X165404762Y-118177676D01*
X165404762Y-118177676D02*
X165309524Y-118272914D01*
X165309524Y-118272914D02*
X165214286Y-118320533D01*
X162961905Y-121769104D02*
X163438095Y-121769104D01*
X162866667Y-122054819D02*
X163200000Y-121054819D01*
X163200000Y-121054819D02*
X163533333Y-122054819D01*
X159658095Y-119204819D02*
X159658095Y-118204819D01*
X160229523Y-119204819D02*
X159800952Y-118633390D01*
X160229523Y-118204819D02*
X159658095Y-118776247D01*
X108748095Y-66324819D02*
X108748095Y-67134342D01*
X108748095Y-67134342D02*
X108795714Y-67229580D01*
X108795714Y-67229580D02*
X108843333Y-67277200D01*
X108843333Y-67277200D02*
X108938571Y-67324819D01*
X108938571Y-67324819D02*
X109129047Y-67324819D01*
X109129047Y-67324819D02*
X109224285Y-67277200D01*
X109224285Y-67277200D02*
X109271904Y-67229580D01*
X109271904Y-67229580D02*
X109319523Y-67134342D01*
X109319523Y-67134342D02*
X109319523Y-66324819D01*
X110319523Y-67324819D02*
X109748095Y-67324819D01*
X110033809Y-67324819D02*
X110033809Y-66324819D01*
X110033809Y-66324819D02*
X109938571Y-66467676D01*
X109938571Y-66467676D02*
X109843333Y-66562914D01*
X109843333Y-66562914D02*
X109748095Y-66610533D01*
D16*
X184426520Y-96516190D02*
X183912473Y-96516190D01*
X183912473Y-96516190D02*
X183851997Y-96546428D01*
X183851997Y-96546428D02*
X183821759Y-96576666D01*
X183821759Y-96576666D02*
X183791520Y-96637142D01*
X183791520Y-96637142D02*
X183791520Y-96758095D01*
X183791520Y-96758095D02*
X183821759Y-96818571D01*
X183821759Y-96818571D02*
X183851997Y-96848809D01*
X183851997Y-96848809D02*
X183912473Y-96879047D01*
X183912473Y-96879047D02*
X184426520Y-96879047D01*
X184366044Y-97151190D02*
X184396282Y-97181428D01*
X184396282Y-97181428D02*
X184426520Y-97241904D01*
X184426520Y-97241904D02*
X184426520Y-97393095D01*
X184426520Y-97393095D02*
X184396282Y-97453571D01*
X184396282Y-97453571D02*
X184366044Y-97483809D01*
X184366044Y-97483809D02*
X184305568Y-97514047D01*
X184305568Y-97514047D02*
X184245092Y-97514047D01*
X184245092Y-97514047D02*
X184154378Y-97483809D01*
X184154378Y-97483809D02*
X183791520Y-97120952D01*
X183791520Y-97120952D02*
X183791520Y-97514047D01*
D11*
X134404761Y-89550057D02*
X134309523Y-89502438D01*
X134309523Y-89502438D02*
X134214285Y-89407200D01*
X134214285Y-89407200D02*
X134071428Y-89264342D01*
X134071428Y-89264342D02*
X133976190Y-89216723D01*
X133976190Y-89216723D02*
X133880952Y-89216723D01*
X133928571Y-89454819D02*
X133833333Y-89407200D01*
X133833333Y-89407200D02*
X133738095Y-89311961D01*
X133738095Y-89311961D02*
X133690476Y-89121485D01*
X133690476Y-89121485D02*
X133690476Y-88788152D01*
X133690476Y-88788152D02*
X133738095Y-88597676D01*
X133738095Y-88597676D02*
X133833333Y-88502438D01*
X133833333Y-88502438D02*
X133928571Y-88454819D01*
X133928571Y-88454819D02*
X134119047Y-88454819D01*
X134119047Y-88454819D02*
X134214285Y-88502438D01*
X134214285Y-88502438D02*
X134309523Y-88597676D01*
X134309523Y-88597676D02*
X134357142Y-88788152D01*
X134357142Y-88788152D02*
X134357142Y-89121485D01*
X134357142Y-89121485D02*
X134309523Y-89311961D01*
X134309523Y-89311961D02*
X134214285Y-89407200D01*
X134214285Y-89407200D02*
X134119047Y-89454819D01*
X134119047Y-89454819D02*
X133928571Y-89454819D01*
X135309523Y-89454819D02*
X134738095Y-89454819D01*
X135023809Y-89454819D02*
X135023809Y-88454819D01*
X135023809Y-88454819D02*
X134928571Y-88597676D01*
X134928571Y-88597676D02*
X134833333Y-88692914D01*
X134833333Y-88692914D02*
X134738095Y-88740533D01*
X168984819Y-63523333D02*
X169699104Y-63523333D01*
X169699104Y-63523333D02*
X169841961Y-63570952D01*
X169841961Y-63570952D02*
X169937200Y-63666190D01*
X169937200Y-63666190D02*
X169984819Y-63809047D01*
X169984819Y-63809047D02*
X169984819Y-63904285D01*
X169984819Y-62523333D02*
X169984819Y-63094761D01*
X169984819Y-62809047D02*
X168984819Y-62809047D01*
X168984819Y-62809047D02*
X169127676Y-62904285D01*
X169127676Y-62904285D02*
X169222914Y-62999523D01*
X169222914Y-62999523D02*
X169270533Y-63094761D01*
X147584819Y-63666666D02*
X147108628Y-63999999D01*
X147584819Y-64238094D02*
X146584819Y-64238094D01*
X146584819Y-64238094D02*
X146584819Y-63857142D01*
X146584819Y-63857142D02*
X146632438Y-63761904D01*
X146632438Y-63761904D02*
X146680057Y-63714285D01*
X146680057Y-63714285D02*
X146775295Y-63666666D01*
X146775295Y-63666666D02*
X146918152Y-63666666D01*
X146918152Y-63666666D02*
X147013390Y-63714285D01*
X147013390Y-63714285D02*
X147061009Y-63761904D01*
X147061009Y-63761904D02*
X147108628Y-63857142D01*
X147108628Y-63857142D02*
X147108628Y-64238094D01*
X146918152Y-62809523D02*
X147584819Y-62809523D01*
X146537200Y-63047618D02*
X147251485Y-63285713D01*
X147251485Y-63285713D02*
X147251485Y-62666666D01*
X92634819Y-72476666D02*
X92158628Y-72809999D01*
X92634819Y-73048094D02*
X91634819Y-73048094D01*
X91634819Y-73048094D02*
X91634819Y-72667142D01*
X91634819Y-72667142D02*
X91682438Y-72571904D01*
X91682438Y-72571904D02*
X91730057Y-72524285D01*
X91730057Y-72524285D02*
X91825295Y-72476666D01*
X91825295Y-72476666D02*
X91968152Y-72476666D01*
X91968152Y-72476666D02*
X92063390Y-72524285D01*
X92063390Y-72524285D02*
X92111009Y-72571904D01*
X92111009Y-72571904D02*
X92158628Y-72667142D01*
X92158628Y-72667142D02*
X92158628Y-73048094D01*
X92634819Y-71524285D02*
X92634819Y-72095713D01*
X92634819Y-71809999D02*
X91634819Y-71809999D01*
X91634819Y-71809999D02*
X91777676Y-71905237D01*
X91777676Y-71905237D02*
X91872914Y-72000475D01*
X91872914Y-72000475D02*
X91920533Y-72095713D01*
X77469819Y-92358333D02*
X78184104Y-92358333D01*
X78184104Y-92358333D02*
X78326961Y-92405952D01*
X78326961Y-92405952D02*
X78422200Y-92501190D01*
X78422200Y-92501190D02*
X78469819Y-92644047D01*
X78469819Y-92644047D02*
X78469819Y-92739285D01*
X77565057Y-91929761D02*
X77517438Y-91882142D01*
X77517438Y-91882142D02*
X77469819Y-91786904D01*
X77469819Y-91786904D02*
X77469819Y-91548809D01*
X77469819Y-91548809D02*
X77517438Y-91453571D01*
X77517438Y-91453571D02*
X77565057Y-91405952D01*
X77565057Y-91405952D02*
X77660295Y-91358333D01*
X77660295Y-91358333D02*
X77755533Y-91358333D01*
X77755533Y-91358333D02*
X77898390Y-91405952D01*
X77898390Y-91405952D02*
X78469819Y-91977380D01*
X78469819Y-91977380D02*
X78469819Y-91358333D01*
X110239878Y-88876428D02*
X110204164Y-88947857D01*
X110204164Y-88947857D02*
X110204164Y-89054999D01*
X110204164Y-89054999D02*
X110239878Y-89162142D01*
X110239878Y-89162142D02*
X110311307Y-89233571D01*
X110311307Y-89233571D02*
X110382735Y-89269285D01*
X110382735Y-89269285D02*
X110525592Y-89304999D01*
X110525592Y-89304999D02*
X110632735Y-89304999D01*
X110632735Y-89304999D02*
X110775592Y-89269285D01*
X110775592Y-89269285D02*
X110847021Y-89233571D01*
X110847021Y-89233571D02*
X110918450Y-89162142D01*
X110918450Y-89162142D02*
X110954164Y-89054999D01*
X110954164Y-89054999D02*
X110954164Y-88983571D01*
X110954164Y-88983571D02*
X110918450Y-88876428D01*
X110918450Y-88876428D02*
X110882735Y-88840714D01*
X110882735Y-88840714D02*
X110632735Y-88840714D01*
X110632735Y-88840714D02*
X110632735Y-88983571D01*
X110954164Y-88519285D02*
X110204164Y-88519285D01*
X110204164Y-88519285D02*
X110954164Y-88090714D01*
X110954164Y-88090714D02*
X110204164Y-88090714D01*
X110954164Y-87733571D02*
X110204164Y-87733571D01*
X110204164Y-87733571D02*
X110204164Y-87555000D01*
X110204164Y-87555000D02*
X110239878Y-87447857D01*
X110239878Y-87447857D02*
X110311307Y-87376428D01*
X110311307Y-87376428D02*
X110382735Y-87340714D01*
X110382735Y-87340714D02*
X110525592Y-87305000D01*
X110525592Y-87305000D02*
X110632735Y-87305000D01*
X110632735Y-87305000D02*
X110775592Y-87340714D01*
X110775592Y-87340714D02*
X110847021Y-87376428D01*
X110847021Y-87376428D02*
X110918450Y-87447857D01*
X110918450Y-87447857D02*
X110954164Y-87555000D01*
X110954164Y-87555000D02*
X110954164Y-87733571D01*
X110204164Y-91844999D02*
X110954164Y-91594999D01*
X110954164Y-91594999D02*
X110204164Y-91344999D01*
X110882735Y-90666428D02*
X110918450Y-90702142D01*
X110918450Y-90702142D02*
X110954164Y-90809285D01*
X110954164Y-90809285D02*
X110954164Y-90880713D01*
X110954164Y-90880713D02*
X110918450Y-90987856D01*
X110918450Y-90987856D02*
X110847021Y-91059285D01*
X110847021Y-91059285D02*
X110775592Y-91094999D01*
X110775592Y-91094999D02*
X110632735Y-91130713D01*
X110632735Y-91130713D02*
X110525592Y-91130713D01*
X110525592Y-91130713D02*
X110382735Y-91094999D01*
X110382735Y-91094999D02*
X110311307Y-91059285D01*
X110311307Y-91059285D02*
X110239878Y-90987856D01*
X110239878Y-90987856D02*
X110204164Y-90880713D01*
X110204164Y-90880713D02*
X110204164Y-90809285D01*
X110204164Y-90809285D02*
X110239878Y-90702142D01*
X110239878Y-90702142D02*
X110275592Y-90666428D01*
X110882735Y-89916428D02*
X110918450Y-89952142D01*
X110918450Y-89952142D02*
X110954164Y-90059285D01*
X110954164Y-90059285D02*
X110954164Y-90130713D01*
X110954164Y-90130713D02*
X110918450Y-90237856D01*
X110918450Y-90237856D02*
X110847021Y-90309285D01*
X110847021Y-90309285D02*
X110775592Y-90344999D01*
X110775592Y-90344999D02*
X110632735Y-90380713D01*
X110632735Y-90380713D02*
X110525592Y-90380713D01*
X110525592Y-90380713D02*
X110382735Y-90344999D01*
X110382735Y-90344999D02*
X110311307Y-90309285D01*
X110311307Y-90309285D02*
X110239878Y-90237856D01*
X110239878Y-90237856D02*
X110204164Y-90130713D01*
X110204164Y-90130713D02*
X110204164Y-90059285D01*
X110204164Y-90059285D02*
X110239878Y-89952142D01*
X110239878Y-89952142D02*
X110275592Y-89916428D01*
X91071428Y-91454819D02*
X91261904Y-91454819D01*
X91261904Y-91454819D02*
X91357142Y-91502438D01*
X91357142Y-91502438D02*
X91452380Y-91597676D01*
X91452380Y-91597676D02*
X91499999Y-91788152D01*
X91499999Y-91788152D02*
X91499999Y-92121485D01*
X91499999Y-92121485D02*
X91452380Y-92311961D01*
X91452380Y-92311961D02*
X91357142Y-92407200D01*
X91357142Y-92407200D02*
X91261904Y-92454819D01*
X91261904Y-92454819D02*
X91071428Y-92454819D01*
X91071428Y-92454819D02*
X90976190Y-92407200D01*
X90976190Y-92407200D02*
X90880952Y-92311961D01*
X90880952Y-92311961D02*
X90833333Y-92121485D01*
X90833333Y-92121485D02*
X90833333Y-91788152D01*
X90833333Y-91788152D02*
X90880952Y-91597676D01*
X90880952Y-91597676D02*
X90976190Y-91502438D01*
X90976190Y-91502438D02*
X91071428Y-91454819D01*
X92404761Y-92454819D02*
X91928571Y-92454819D01*
X91928571Y-92454819D02*
X91928571Y-91454819D01*
X92738095Y-91931009D02*
X93071428Y-91931009D01*
X93214285Y-92454819D02*
X92738095Y-92454819D01*
X92738095Y-92454819D02*
X92738095Y-91454819D01*
X92738095Y-91454819D02*
X93214285Y-91454819D01*
X93642857Y-92454819D02*
X93642857Y-91454819D01*
X93642857Y-91454819D02*
X93880952Y-91454819D01*
X93880952Y-91454819D02*
X94023809Y-91502438D01*
X94023809Y-91502438D02*
X94119047Y-91597676D01*
X94119047Y-91597676D02*
X94166666Y-91692914D01*
X94166666Y-91692914D02*
X94214285Y-91883390D01*
X94214285Y-91883390D02*
X94214285Y-92026247D01*
X94214285Y-92026247D02*
X94166666Y-92216723D01*
X94166666Y-92216723D02*
X94119047Y-92311961D01*
X94119047Y-92311961D02*
X94023809Y-92407200D01*
X94023809Y-92407200D02*
X93880952Y-92454819D01*
X93880952Y-92454819D02*
X93642857Y-92454819D01*
X95404762Y-92454819D02*
X95404762Y-91454819D01*
X95404762Y-91454819D02*
X95785714Y-91454819D01*
X95785714Y-91454819D02*
X95880952Y-91502438D01*
X95880952Y-91502438D02*
X95928571Y-91550057D01*
X95928571Y-91550057D02*
X95976190Y-91645295D01*
X95976190Y-91645295D02*
X95976190Y-91788152D01*
X95976190Y-91788152D02*
X95928571Y-91883390D01*
X95928571Y-91883390D02*
X95880952Y-91931009D01*
X95880952Y-91931009D02*
X95785714Y-91978628D01*
X95785714Y-91978628D02*
X95404762Y-91978628D01*
X96833333Y-92454819D02*
X96833333Y-91931009D01*
X96833333Y-91931009D02*
X96785714Y-91835771D01*
X96785714Y-91835771D02*
X96690476Y-91788152D01*
X96690476Y-91788152D02*
X96500000Y-91788152D01*
X96500000Y-91788152D02*
X96404762Y-91835771D01*
X96833333Y-92407200D02*
X96738095Y-92454819D01*
X96738095Y-92454819D02*
X96500000Y-92454819D01*
X96500000Y-92454819D02*
X96404762Y-92407200D01*
X96404762Y-92407200D02*
X96357143Y-92311961D01*
X96357143Y-92311961D02*
X96357143Y-92216723D01*
X96357143Y-92216723D02*
X96404762Y-92121485D01*
X96404762Y-92121485D02*
X96500000Y-92073866D01*
X96500000Y-92073866D02*
X96738095Y-92073866D01*
X96738095Y-92073866D02*
X96833333Y-92026247D01*
X97309524Y-91788152D02*
X97309524Y-92454819D01*
X97309524Y-91883390D02*
X97357143Y-91835771D01*
X97357143Y-91835771D02*
X97452381Y-91788152D01*
X97452381Y-91788152D02*
X97595238Y-91788152D01*
X97595238Y-91788152D02*
X97690476Y-91835771D01*
X97690476Y-91835771D02*
X97738095Y-91931009D01*
X97738095Y-91931009D02*
X97738095Y-92454819D01*
X98595238Y-92407200D02*
X98500000Y-92454819D01*
X98500000Y-92454819D02*
X98309524Y-92454819D01*
X98309524Y-92454819D02*
X98214286Y-92407200D01*
X98214286Y-92407200D02*
X98166667Y-92311961D01*
X98166667Y-92311961D02*
X98166667Y-91931009D01*
X98166667Y-91931009D02*
X98214286Y-91835771D01*
X98214286Y-91835771D02*
X98309524Y-91788152D01*
X98309524Y-91788152D02*
X98500000Y-91788152D01*
X98500000Y-91788152D02*
X98595238Y-91835771D01*
X98595238Y-91835771D02*
X98642857Y-91931009D01*
X98642857Y-91931009D02*
X98642857Y-92026247D01*
X98642857Y-92026247D02*
X98166667Y-92121485D01*
X99214286Y-92454819D02*
X99119048Y-92407200D01*
X99119048Y-92407200D02*
X99071429Y-92311961D01*
X99071429Y-92311961D02*
X99071429Y-91454819D01*
X110918450Y-96835713D02*
X110954164Y-96728571D01*
X110954164Y-96728571D02*
X110954164Y-96549999D01*
X110954164Y-96549999D02*
X110918450Y-96478571D01*
X110918450Y-96478571D02*
X110882735Y-96442856D01*
X110882735Y-96442856D02*
X110811307Y-96407142D01*
X110811307Y-96407142D02*
X110739878Y-96407142D01*
X110739878Y-96407142D02*
X110668450Y-96442856D01*
X110668450Y-96442856D02*
X110632735Y-96478571D01*
X110632735Y-96478571D02*
X110597021Y-96549999D01*
X110597021Y-96549999D02*
X110561307Y-96692856D01*
X110561307Y-96692856D02*
X110525592Y-96764285D01*
X110525592Y-96764285D02*
X110489878Y-96799999D01*
X110489878Y-96799999D02*
X110418450Y-96835713D01*
X110418450Y-96835713D02*
X110347021Y-96835713D01*
X110347021Y-96835713D02*
X110275592Y-96799999D01*
X110275592Y-96799999D02*
X110239878Y-96764285D01*
X110239878Y-96764285D02*
X110204164Y-96692856D01*
X110204164Y-96692856D02*
X110204164Y-96514285D01*
X110204164Y-96514285D02*
X110239878Y-96407142D01*
X110954164Y-96085713D02*
X110204164Y-96085713D01*
X110204164Y-96085713D02*
X110204164Y-95907142D01*
X110204164Y-95907142D02*
X110239878Y-95799999D01*
X110239878Y-95799999D02*
X110311307Y-95728570D01*
X110311307Y-95728570D02*
X110382735Y-95692856D01*
X110382735Y-95692856D02*
X110525592Y-95657142D01*
X110525592Y-95657142D02*
X110632735Y-95657142D01*
X110632735Y-95657142D02*
X110775592Y-95692856D01*
X110775592Y-95692856D02*
X110847021Y-95728570D01*
X110847021Y-95728570D02*
X110918450Y-95799999D01*
X110918450Y-95799999D02*
X110954164Y-95907142D01*
X110954164Y-95907142D02*
X110954164Y-96085713D01*
X110739878Y-95371427D02*
X110739878Y-95014285D01*
X110954164Y-95442856D02*
X110204164Y-95192856D01*
X110204164Y-95192856D02*
X110954164Y-94942856D01*
X110918450Y-94277856D02*
X110954164Y-94170714D01*
X110954164Y-94170714D02*
X110954164Y-93992142D01*
X110954164Y-93992142D02*
X110918450Y-93920714D01*
X110918450Y-93920714D02*
X110882735Y-93884999D01*
X110882735Y-93884999D02*
X110811307Y-93849285D01*
X110811307Y-93849285D02*
X110739878Y-93849285D01*
X110739878Y-93849285D02*
X110668450Y-93884999D01*
X110668450Y-93884999D02*
X110632735Y-93920714D01*
X110632735Y-93920714D02*
X110597021Y-93992142D01*
X110597021Y-93992142D02*
X110561307Y-94134999D01*
X110561307Y-94134999D02*
X110525592Y-94206428D01*
X110525592Y-94206428D02*
X110489878Y-94242142D01*
X110489878Y-94242142D02*
X110418450Y-94277856D01*
X110418450Y-94277856D02*
X110347021Y-94277856D01*
X110347021Y-94277856D02*
X110275592Y-94242142D01*
X110275592Y-94242142D02*
X110239878Y-94206428D01*
X110239878Y-94206428D02*
X110204164Y-94134999D01*
X110204164Y-94134999D02*
X110204164Y-93956428D01*
X110204164Y-93956428D02*
X110239878Y-93849285D01*
X110882735Y-93099285D02*
X110918450Y-93134999D01*
X110918450Y-93134999D02*
X110954164Y-93242142D01*
X110954164Y-93242142D02*
X110954164Y-93313570D01*
X110954164Y-93313570D02*
X110918450Y-93420713D01*
X110918450Y-93420713D02*
X110847021Y-93492142D01*
X110847021Y-93492142D02*
X110775592Y-93527856D01*
X110775592Y-93527856D02*
X110632735Y-93563570D01*
X110632735Y-93563570D02*
X110525592Y-93563570D01*
X110525592Y-93563570D02*
X110382735Y-93527856D01*
X110382735Y-93527856D02*
X110311307Y-93492142D01*
X110311307Y-93492142D02*
X110239878Y-93420713D01*
X110239878Y-93420713D02*
X110204164Y-93313570D01*
X110204164Y-93313570D02*
X110204164Y-93242142D01*
X110204164Y-93242142D02*
X110239878Y-93134999D01*
X110239878Y-93134999D02*
X110275592Y-93099285D01*
X110954164Y-92420713D02*
X110954164Y-92777856D01*
X110954164Y-92777856D02*
X110204164Y-92777856D01*
X162824819Y-67356666D02*
X162348628Y-67689999D01*
X162824819Y-67928094D02*
X161824819Y-67928094D01*
X161824819Y-67928094D02*
X161824819Y-67547142D01*
X161824819Y-67547142D02*
X161872438Y-67451904D01*
X161872438Y-67451904D02*
X161920057Y-67404285D01*
X161920057Y-67404285D02*
X162015295Y-67356666D01*
X162015295Y-67356666D02*
X162158152Y-67356666D01*
X162158152Y-67356666D02*
X162253390Y-67404285D01*
X162253390Y-67404285D02*
X162301009Y-67451904D01*
X162301009Y-67451904D02*
X162348628Y-67547142D01*
X162348628Y-67547142D02*
X162348628Y-67928094D01*
X161824819Y-66451904D02*
X161824819Y-66928094D01*
X161824819Y-66928094D02*
X162301009Y-66975713D01*
X162301009Y-66975713D02*
X162253390Y-66928094D01*
X162253390Y-66928094D02*
X162205771Y-66832856D01*
X162205771Y-66832856D02*
X162205771Y-66594761D01*
X162205771Y-66594761D02*
X162253390Y-66499523D01*
X162253390Y-66499523D02*
X162301009Y-66451904D01*
X162301009Y-66451904D02*
X162396247Y-66404285D01*
X162396247Y-66404285D02*
X162634342Y-66404285D01*
X162634342Y-66404285D02*
X162729580Y-66451904D01*
X162729580Y-66451904D02*
X162777200Y-66499523D01*
X162777200Y-66499523D02*
X162824819Y-66594761D01*
X162824819Y-66594761D02*
X162824819Y-66832856D01*
X162824819Y-66832856D02*
X162777200Y-66928094D01*
X162777200Y-66928094D02*
X162729580Y-66975713D01*
X96333333Y-68824819D02*
X96000000Y-68348628D01*
X95761905Y-68824819D02*
X95761905Y-67824819D01*
X95761905Y-67824819D02*
X96142857Y-67824819D01*
X96142857Y-67824819D02*
X96238095Y-67872438D01*
X96238095Y-67872438D02*
X96285714Y-67920057D01*
X96285714Y-67920057D02*
X96333333Y-68015295D01*
X96333333Y-68015295D02*
X96333333Y-68158152D01*
X96333333Y-68158152D02*
X96285714Y-68253390D01*
X96285714Y-68253390D02*
X96238095Y-68301009D01*
X96238095Y-68301009D02*
X96142857Y-68348628D01*
X96142857Y-68348628D02*
X95761905Y-68348628D01*
X96714286Y-67920057D02*
X96761905Y-67872438D01*
X96761905Y-67872438D02*
X96857143Y-67824819D01*
X96857143Y-67824819D02*
X97095238Y-67824819D01*
X97095238Y-67824819D02*
X97190476Y-67872438D01*
X97190476Y-67872438D02*
X97238095Y-67920057D01*
X97238095Y-67920057D02*
X97285714Y-68015295D01*
X97285714Y-68015295D02*
X97285714Y-68110533D01*
X97285714Y-68110533D02*
X97238095Y-68253390D01*
X97238095Y-68253390D02*
X96666667Y-68824819D01*
X96666667Y-68824819D02*
X97285714Y-68824819D01*
X164224819Y-83738094D02*
X163224819Y-83738094D01*
X163224819Y-83738094D02*
X163224819Y-83499999D01*
X163224819Y-83499999D02*
X163272438Y-83357142D01*
X163272438Y-83357142D02*
X163367676Y-83261904D01*
X163367676Y-83261904D02*
X163462914Y-83214285D01*
X163462914Y-83214285D02*
X163653390Y-83166666D01*
X163653390Y-83166666D02*
X163796247Y-83166666D01*
X163796247Y-83166666D02*
X163986723Y-83214285D01*
X163986723Y-83214285D02*
X164081961Y-83261904D01*
X164081961Y-83261904D02*
X164177200Y-83357142D01*
X164177200Y-83357142D02*
X164224819Y-83499999D01*
X164224819Y-83499999D02*
X164224819Y-83738094D01*
X163224819Y-82833332D02*
X163224819Y-82214285D01*
X163224819Y-82214285D02*
X163605771Y-82547618D01*
X163605771Y-82547618D02*
X163605771Y-82404761D01*
X163605771Y-82404761D02*
X163653390Y-82309523D01*
X163653390Y-82309523D02*
X163701009Y-82261904D01*
X163701009Y-82261904D02*
X163796247Y-82214285D01*
X163796247Y-82214285D02*
X164034342Y-82214285D01*
X164034342Y-82214285D02*
X164129580Y-82261904D01*
X164129580Y-82261904D02*
X164177200Y-82309523D01*
X164177200Y-82309523D02*
X164224819Y-82404761D01*
X164224819Y-82404761D02*
X164224819Y-82690475D01*
X164224819Y-82690475D02*
X164177200Y-82785713D01*
X164177200Y-82785713D02*
X164129580Y-82833332D01*
X162754819Y-75641904D02*
X161754819Y-75641904D01*
X162754819Y-75070476D02*
X162183390Y-75499047D01*
X161754819Y-75070476D02*
X162326247Y-75641904D01*
X137811905Y-106604819D02*
X137811905Y-105604819D01*
X137811905Y-105604819D02*
X138050000Y-105604819D01*
X138050000Y-105604819D02*
X138192857Y-105652438D01*
X138192857Y-105652438D02*
X138288095Y-105747676D01*
X138288095Y-105747676D02*
X138335714Y-105842914D01*
X138335714Y-105842914D02*
X138383333Y-106033390D01*
X138383333Y-106033390D02*
X138383333Y-106176247D01*
X138383333Y-106176247D02*
X138335714Y-106366723D01*
X138335714Y-106366723D02*
X138288095Y-106461961D01*
X138288095Y-106461961D02*
X138192857Y-106557200D01*
X138192857Y-106557200D02*
X138050000Y-106604819D01*
X138050000Y-106604819D02*
X137811905Y-106604819D01*
X139240476Y-105604819D02*
X139050000Y-105604819D01*
X139050000Y-105604819D02*
X138954762Y-105652438D01*
X138954762Y-105652438D02*
X138907143Y-105700057D01*
X138907143Y-105700057D02*
X138811905Y-105842914D01*
X138811905Y-105842914D02*
X138764286Y-106033390D01*
X138764286Y-106033390D02*
X138764286Y-106414342D01*
X138764286Y-106414342D02*
X138811905Y-106509580D01*
X138811905Y-106509580D02*
X138859524Y-106557200D01*
X138859524Y-106557200D02*
X138954762Y-106604819D01*
X138954762Y-106604819D02*
X139145238Y-106604819D01*
X139145238Y-106604819D02*
X139240476Y-106557200D01*
X139240476Y-106557200D02*
X139288095Y-106509580D01*
X139288095Y-106509580D02*
X139335714Y-106414342D01*
X139335714Y-106414342D02*
X139335714Y-106176247D01*
X139335714Y-106176247D02*
X139288095Y-106081009D01*
X139288095Y-106081009D02*
X139240476Y-106033390D01*
X139240476Y-106033390D02*
X139145238Y-105985771D01*
X139145238Y-105985771D02*
X138954762Y-105985771D01*
X138954762Y-105985771D02*
X138859524Y-106033390D01*
X138859524Y-106033390D02*
X138811905Y-106081009D01*
X138811905Y-106081009D02*
X138764286Y-106176247D01*
X59190476Y-81254819D02*
X59190476Y-80254819D01*
X59190476Y-80254819D02*
X59523809Y-80969104D01*
X59523809Y-80969104D02*
X59857142Y-80254819D01*
X59857142Y-80254819D02*
X59857142Y-81254819D01*
X60238095Y-80254819D02*
X60857142Y-80254819D01*
X60857142Y-80254819D02*
X60523809Y-80635771D01*
X60523809Y-80635771D02*
X60666666Y-80635771D01*
X60666666Y-80635771D02*
X60761904Y-80683390D01*
X60761904Y-80683390D02*
X60809523Y-80731009D01*
X60809523Y-80731009D02*
X60857142Y-80826247D01*
X60857142Y-80826247D02*
X60857142Y-81064342D01*
X60857142Y-81064342D02*
X60809523Y-81159580D01*
X60809523Y-81159580D02*
X60761904Y-81207200D01*
X60761904Y-81207200D02*
X60666666Y-81254819D01*
X60666666Y-81254819D02*
X60380952Y-81254819D01*
X60380952Y-81254819D02*
X60285714Y-81207200D01*
X60285714Y-81207200D02*
X60238095Y-81159580D01*
X153761905Y-106304819D02*
X153761905Y-105304819D01*
X153761905Y-105304819D02*
X154000000Y-105304819D01*
X154000000Y-105304819D02*
X154142857Y-105352438D01*
X154142857Y-105352438D02*
X154238095Y-105447676D01*
X154238095Y-105447676D02*
X154285714Y-105542914D01*
X154285714Y-105542914D02*
X154333333Y-105733390D01*
X154333333Y-105733390D02*
X154333333Y-105876247D01*
X154333333Y-105876247D02*
X154285714Y-106066723D01*
X154285714Y-106066723D02*
X154238095Y-106161961D01*
X154238095Y-106161961D02*
X154142857Y-106257200D01*
X154142857Y-106257200D02*
X154000000Y-106304819D01*
X154000000Y-106304819D02*
X153761905Y-106304819D01*
X155190476Y-105638152D02*
X155190476Y-106304819D01*
X154952381Y-105257200D02*
X154714286Y-105971485D01*
X154714286Y-105971485D02*
X155333333Y-105971485D01*
X63166666Y-76414819D02*
X63166666Y-77129104D01*
X63166666Y-77129104D02*
X63119047Y-77271961D01*
X63119047Y-77271961D02*
X63023809Y-77367200D01*
X63023809Y-77367200D02*
X62880952Y-77414819D01*
X62880952Y-77414819D02*
X62785714Y-77414819D01*
X63547619Y-76414819D02*
X64166666Y-76414819D01*
X64166666Y-76414819D02*
X63833333Y-76795771D01*
X63833333Y-76795771D02*
X63976190Y-76795771D01*
X63976190Y-76795771D02*
X64071428Y-76843390D01*
X64071428Y-76843390D02*
X64119047Y-76891009D01*
X64119047Y-76891009D02*
X64166666Y-76986247D01*
X64166666Y-76986247D02*
X64166666Y-77224342D01*
X64166666Y-77224342D02*
X64119047Y-77319580D01*
X64119047Y-77319580D02*
X64071428Y-77367200D01*
X64071428Y-77367200D02*
X63976190Y-77414819D01*
X63976190Y-77414819D02*
X63690476Y-77414819D01*
X63690476Y-77414819D02*
X63595238Y-77367200D01*
X63595238Y-77367200D02*
X63547619Y-77319580D01*
X153724819Y-79563094D02*
X152724819Y-79563094D01*
X152724819Y-79563094D02*
X152724819Y-79324999D01*
X152724819Y-79324999D02*
X152772438Y-79182142D01*
X152772438Y-79182142D02*
X152867676Y-79086904D01*
X152867676Y-79086904D02*
X152962914Y-79039285D01*
X152962914Y-79039285D02*
X153153390Y-78991666D01*
X153153390Y-78991666D02*
X153296247Y-78991666D01*
X153296247Y-78991666D02*
X153486723Y-79039285D01*
X153486723Y-79039285D02*
X153581961Y-79086904D01*
X153581961Y-79086904D02*
X153677200Y-79182142D01*
X153677200Y-79182142D02*
X153724819Y-79324999D01*
X153724819Y-79324999D02*
X153724819Y-79563094D01*
X152820057Y-78610713D02*
X152772438Y-78563094D01*
X152772438Y-78563094D02*
X152724819Y-78467856D01*
X152724819Y-78467856D02*
X152724819Y-78229761D01*
X152724819Y-78229761D02*
X152772438Y-78134523D01*
X152772438Y-78134523D02*
X152820057Y-78086904D01*
X152820057Y-78086904D02*
X152915295Y-78039285D01*
X152915295Y-78039285D02*
X153010533Y-78039285D01*
X153010533Y-78039285D02*
X153153390Y-78086904D01*
X153153390Y-78086904D02*
X153724819Y-78658332D01*
X153724819Y-78658332D02*
X153724819Y-78039285D01*
X152254819Y-71466904D02*
X151254819Y-71466904D01*
X152254819Y-70895476D02*
X151683390Y-71324047D01*
X151254819Y-70895476D02*
X151826247Y-71466904D01*
X186190476Y-81754819D02*
X186190476Y-80754819D01*
X186190476Y-80754819D02*
X186523809Y-81469104D01*
X186523809Y-81469104D02*
X186857142Y-80754819D01*
X186857142Y-80754819D02*
X186857142Y-81754819D01*
X187238095Y-80754819D02*
X187857142Y-80754819D01*
X187857142Y-80754819D02*
X187523809Y-81135771D01*
X187523809Y-81135771D02*
X187666666Y-81135771D01*
X187666666Y-81135771D02*
X187761904Y-81183390D01*
X187761904Y-81183390D02*
X187809523Y-81231009D01*
X187809523Y-81231009D02*
X187857142Y-81326247D01*
X187857142Y-81326247D02*
X187857142Y-81564342D01*
X187857142Y-81564342D02*
X187809523Y-81659580D01*
X187809523Y-81659580D02*
X187761904Y-81707200D01*
X187761904Y-81707200D02*
X187666666Y-81754819D01*
X187666666Y-81754819D02*
X187380952Y-81754819D01*
X187380952Y-81754819D02*
X187285714Y-81707200D01*
X187285714Y-81707200D02*
X187238095Y-81659580D01*
X134084819Y-76166666D02*
X133608628Y-76499999D01*
X134084819Y-76738094D02*
X133084819Y-76738094D01*
X133084819Y-76738094D02*
X133084819Y-76357142D01*
X133084819Y-76357142D02*
X133132438Y-76261904D01*
X133132438Y-76261904D02*
X133180057Y-76214285D01*
X133180057Y-76214285D02*
X133275295Y-76166666D01*
X133275295Y-76166666D02*
X133418152Y-76166666D01*
X133418152Y-76166666D02*
X133513390Y-76214285D01*
X133513390Y-76214285D02*
X133561009Y-76261904D01*
X133561009Y-76261904D02*
X133608628Y-76357142D01*
X133608628Y-76357142D02*
X133608628Y-76738094D01*
X133084819Y-75833332D02*
X133084819Y-75214285D01*
X133084819Y-75214285D02*
X133465771Y-75547618D01*
X133465771Y-75547618D02*
X133465771Y-75404761D01*
X133465771Y-75404761D02*
X133513390Y-75309523D01*
X133513390Y-75309523D02*
X133561009Y-75261904D01*
X133561009Y-75261904D02*
X133656247Y-75214285D01*
X133656247Y-75214285D02*
X133894342Y-75214285D01*
X133894342Y-75214285D02*
X133989580Y-75261904D01*
X133989580Y-75261904D02*
X134037200Y-75309523D01*
X134037200Y-75309523D02*
X134084819Y-75404761D01*
X134084819Y-75404761D02*
X134084819Y-75690475D01*
X134084819Y-75690475D02*
X134037200Y-75785713D01*
X134037200Y-75785713D02*
X133989580Y-75833332D01*
X145811905Y-106454819D02*
X145811905Y-105454819D01*
X145811905Y-105454819D02*
X146050000Y-105454819D01*
X146050000Y-105454819D02*
X146192857Y-105502438D01*
X146192857Y-105502438D02*
X146288095Y-105597676D01*
X146288095Y-105597676D02*
X146335714Y-105692914D01*
X146335714Y-105692914D02*
X146383333Y-105883390D01*
X146383333Y-105883390D02*
X146383333Y-106026247D01*
X146383333Y-106026247D02*
X146335714Y-106216723D01*
X146335714Y-106216723D02*
X146288095Y-106311961D01*
X146288095Y-106311961D02*
X146192857Y-106407200D01*
X146192857Y-106407200D02*
X146050000Y-106454819D01*
X146050000Y-106454819D02*
X145811905Y-106454819D01*
X147288095Y-105454819D02*
X146811905Y-105454819D01*
X146811905Y-105454819D02*
X146764286Y-105931009D01*
X146764286Y-105931009D02*
X146811905Y-105883390D01*
X146811905Y-105883390D02*
X146907143Y-105835771D01*
X146907143Y-105835771D02*
X147145238Y-105835771D01*
X147145238Y-105835771D02*
X147240476Y-105883390D01*
X147240476Y-105883390D02*
X147288095Y-105931009D01*
X147288095Y-105931009D02*
X147335714Y-106026247D01*
X147335714Y-106026247D02*
X147335714Y-106264342D01*
X147335714Y-106264342D02*
X147288095Y-106359580D01*
X147288095Y-106359580D02*
X147240476Y-106407200D01*
X147240476Y-106407200D02*
X147145238Y-106454819D01*
X147145238Y-106454819D02*
X146907143Y-106454819D01*
X146907143Y-106454819D02*
X146811905Y-106407200D01*
X146811905Y-106407200D02*
X146764286Y-106359580D01*
D17*
%TO.C,D1*%
X160910000Y-120500000D02*
X163360000Y-120500000D01*
X163360000Y-119580000D02*
X163360000Y-121420000D01*
X163360000Y-121420000D02*
X166640000Y-121420000D01*
X163816000Y-119580000D02*
X163816000Y-121420000D01*
X163936000Y-119580000D02*
X163936000Y-121420000D01*
X164056000Y-119580000D02*
X164056000Y-121420000D01*
X166640000Y-119580000D02*
X163360000Y-119580000D01*
X166640000Y-121420000D02*
X166640000Y-119580000D01*
X169090000Y-120500000D02*
X166640000Y-120500000D01*
%TO.C,U1*%
X106860000Y-67870000D02*
X106860000Y-78150000D01*
X106860000Y-78150000D02*
X112160000Y-78150000D01*
X108510000Y-67870000D02*
X106860000Y-67870000D01*
X112160000Y-67870000D02*
X110510000Y-67870000D01*
X112160000Y-78150000D02*
X112160000Y-67870000D01*
X110510000Y-67870000D02*
G75*
G02*
X108510000Y-67870000I-1000000J0D01*
G01*
D18*
%TO.C,U2*%
X162166000Y-97895000D02*
X162166000Y-111865000D01*
X164071000Y-95990000D02*
X181216000Y-95990000D01*
X164071000Y-113770000D02*
X181216000Y-113770000D01*
X183121000Y-100385000D02*
X184131272Y-100388728D01*
D10*
X183121000Y-111865000D02*
X183121000Y-97895000D01*
D18*
X183121000Y-111865000D02*
X183121000Y-97895000D01*
X184131000Y-109384000D02*
X183121000Y-109384000D01*
X184631000Y-100888728D02*
X184631000Y-108884000D01*
X162166000Y-97895000D02*
G75*
G02*
X164071000Y-95990000I1905001J-1D01*
G01*
X164071000Y-113770000D02*
G75*
G02*
X162166000Y-111865000I0J1905000D01*
G01*
X181216000Y-95990000D02*
G75*
G02*
X183121000Y-97895000I-1J-1905001D01*
G01*
X183121000Y-111865000D02*
G75*
G02*
X181216000Y-113770000I-1905000J0D01*
G01*
X184131272Y-100388728D02*
G75*
G02*
X184630999Y-100888728I-291J-500018D01*
G01*
X184631000Y-108884000D02*
G75*
G02*
X184131000Y-109384000I-500000J0D01*
G01*
D19*
X182202000Y-97023000D02*
G75*
G02*
X181698000Y-97023000I-252000J0D01*
G01*
X181698000Y-97023000D02*
G75*
G02*
X182202000Y-97023000I252000J0D01*
G01*
X183082000Y-95880000D02*
G75*
G02*
X182578000Y-95880000I-252000J0D01*
G01*
X182578000Y-95880000D02*
G75*
G02*
X183082000Y-95880000I252000J0D01*
G01*
D17*
%TO.C,Q1*%
X136300000Y-83290000D02*
X132700000Y-83290000D01*
X134500000Y-87740000D02*
G75*
G02*
X132661522Y-83301522I0J2600000D01*
G01*
X136338478Y-83301522D02*
G75*
G02*
X134500000Y-87740001I-1838478J-1838478D01*
G01*
%TO.C,J1*%
X170990000Y-56770000D02*
X170990000Y-58190000D01*
X170990000Y-62490000D02*
X170990000Y-60590000D01*
X170990000Y-63890000D02*
X170990000Y-65790000D01*
X170990000Y-68190000D02*
X170990000Y-69610000D01*
X178190000Y-56770000D02*
X170990000Y-56770000D01*
X178190000Y-56770000D02*
X178190000Y-53970000D01*
X178190000Y-69610000D02*
X170990000Y-69610000D01*
X178190000Y-69610000D02*
X178190000Y-72410000D01*
X183840000Y-53970000D02*
X178190000Y-53970000D01*
X183840000Y-53970000D02*
X183840000Y-50570000D01*
X183840000Y-72410000D02*
X178190000Y-72410000D01*
X183840000Y-76110000D02*
X183840000Y-72410000D01*
X190430000Y-50570000D02*
X183840000Y-50570000D01*
X190430000Y-50570000D02*
X190430000Y-52070000D01*
X190430000Y-52070000D02*
X193130000Y-52070000D01*
X190430000Y-74310000D02*
X190430000Y-76110000D01*
X190430000Y-74310000D02*
X193130000Y-74310000D01*
X190430000Y-76110000D02*
X183840000Y-76110000D01*
X193130000Y-52070000D02*
X193130000Y-74310000D01*
%TO.C,R4*%
X148130000Y-60230000D02*
X148460000Y-60230000D01*
X148130000Y-66770000D02*
X148130000Y-60230000D01*
X148460000Y-66770000D02*
X148130000Y-66770000D01*
X150540000Y-66770000D02*
X150870000Y-66770000D01*
X150870000Y-60230000D02*
X150540000Y-60230000D01*
X150870000Y-66770000D02*
X150870000Y-60230000D01*
%TO.C,R1*%
X88440000Y-69040000D02*
X88440000Y-75580000D01*
X88440000Y-75580000D02*
X88770000Y-75580000D01*
X88770000Y-69040000D02*
X88440000Y-69040000D01*
X90850000Y-69040000D02*
X91180000Y-69040000D01*
X91180000Y-69040000D02*
X91180000Y-75580000D01*
X91180000Y-75580000D02*
X90850000Y-75580000D01*
D20*
%TO.C,J2*%
X76115000Y-86115000D02*
X76115000Y-98115000D01*
X76115000Y-98115000D02*
X114115000Y-98115000D01*
X79615000Y-86115000D02*
X79615000Y-98115000D01*
X109115000Y-86115000D02*
X109115000Y-98115000D01*
X114115000Y-86115000D02*
X76115000Y-86115000D01*
X114115000Y-98115000D02*
X114115000Y-86115000D01*
D17*
%TO.C,R5*%
X158630000Y-63920000D02*
X158630000Y-70460000D01*
X158630000Y-70460000D02*
X158960000Y-70460000D01*
X158960000Y-63920000D02*
X158630000Y-63920000D01*
X161040000Y-63920000D02*
X161370000Y-63920000D01*
X161370000Y-63920000D02*
X161370000Y-70460000D01*
X161370000Y-70460000D02*
X161040000Y-70460000D01*
%TO.C,R2*%
X93230000Y-64630000D02*
X93230000Y-64960000D01*
X93230000Y-67370000D02*
X93230000Y-67040000D01*
X99770000Y-64630000D02*
X93230000Y-64630000D01*
X99770000Y-64960000D02*
X99770000Y-64630000D01*
X99770000Y-67040000D02*
X99770000Y-67370000D01*
X99770000Y-67370000D02*
X93230000Y-67370000D01*
%TO.C,D3*%
X157230000Y-78380000D02*
X157230000Y-87620000D01*
X157230000Y-87620000D02*
X162770000Y-87620000D01*
X160000000Y-76920000D02*
X160000000Y-78380000D01*
X160000000Y-89080000D02*
X160000000Y-87620000D01*
X162770000Y-78380000D02*
X157230000Y-78380000D01*
X162770000Y-79730000D02*
X157230000Y-79730000D01*
X162770000Y-79850000D02*
X157230000Y-79850000D01*
X162770000Y-79970000D02*
X157230000Y-79970000D01*
X162770000Y-87620000D02*
X162770000Y-78380000D01*
%TO.C,D6*%
X135050000Y-106900000D02*
X135050000Y-112400000D01*
X135050000Y-106900000D02*
X142050000Y-106900000D01*
X135050000Y-112400000D02*
X141600000Y-112400000D01*
X135850000Y-110550000D02*
X135850000Y-108750000D01*
X141250000Y-110550000D02*
X141250000Y-108750000D01*
X141600000Y-112400000D02*
X142050000Y-111950000D01*
X142050000Y-111950000D02*
X142050000Y-106900000D01*
%TO.C,D4*%
X151000000Y-106600000D02*
X151000000Y-112100000D01*
X151000000Y-106600000D02*
X158000000Y-106600000D01*
X151000000Y-112100000D02*
X157550000Y-112100000D01*
X151800000Y-110250000D02*
X151800000Y-108450000D01*
X157200000Y-110250000D02*
X157200000Y-108450000D01*
X157550000Y-112100000D02*
X158000000Y-111650000D01*
X158000000Y-111650000D02*
X158000000Y-106600000D01*
%TO.C,J3*%
X52280000Y-74270000D02*
X52280000Y-52030000D01*
X54980000Y-50230000D02*
X61720000Y-50230000D01*
X54980000Y-52030000D02*
X52280000Y-52030000D01*
X54980000Y-52030000D02*
X54980000Y-50230000D01*
X54980000Y-74270000D02*
X52280000Y-74270000D01*
X54980000Y-75770000D02*
X54980000Y-74270000D01*
X54980000Y-75770000D02*
X61720000Y-75770000D01*
X61720000Y-50230000D02*
X61720000Y-52280000D01*
X61720000Y-52280000D02*
X67220000Y-52280000D01*
X61720000Y-74020000D02*
X61720000Y-75770000D01*
X61720000Y-74020000D02*
X67220000Y-74020000D01*
X67220000Y-55030000D02*
X67220000Y-52280000D01*
X67220000Y-55030000D02*
X74720000Y-55030000D01*
X67220000Y-71270000D02*
X74720000Y-71270000D01*
X67220000Y-74020000D02*
X67220000Y-71270000D01*
X74720000Y-71270000D02*
X74720000Y-55030000D01*
%TO.C,D2*%
X146730000Y-74880000D02*
X146730000Y-84120000D01*
X146730000Y-84120000D02*
X152270000Y-84120000D01*
X149500000Y-73420000D02*
X149500000Y-74880000D01*
X149500000Y-85580000D02*
X149500000Y-84120000D01*
X152270000Y-74880000D02*
X146730000Y-74880000D01*
X152270000Y-76230000D02*
X146730000Y-76230000D01*
X152270000Y-76350000D02*
X146730000Y-76350000D01*
X152270000Y-76470000D02*
X146730000Y-76470000D01*
X152270000Y-84120000D02*
X152270000Y-74880000D01*
%TO.C,R3*%
X134630000Y-72730000D02*
X134960000Y-72730000D01*
X134630000Y-79270000D02*
X134630000Y-72730000D01*
X134960000Y-79270000D02*
X134630000Y-79270000D01*
X137040000Y-79270000D02*
X137370000Y-79270000D01*
X137370000Y-72730000D02*
X137040000Y-72730000D01*
X137370000Y-79270000D02*
X137370000Y-72730000D01*
%TO.C,D5*%
X143050000Y-106750000D02*
X143050000Y-112250000D01*
X143050000Y-106750000D02*
X150050000Y-106750000D01*
X143050000Y-112250000D02*
X149600000Y-112250000D01*
X143850000Y-110400000D02*
X143850000Y-108600000D01*
X149250000Y-110400000D02*
X149250000Y-108600000D01*
X149600000Y-112250000D02*
X150050000Y-111800000D01*
X150050000Y-111800000D02*
X150050000Y-106750000D01*
%TD*%
M02*
