%TF.GenerationSoftware,KiCad,Pcbnew,8.0.8*%
%TF.CreationDate,2025-07-18T21:43:57+01:00*%
%TF.ProjectId,_autosave-EDMX,5f617574-6f73-4617-9665-2d45444d582e,rev?*%
%TF.SameCoordinates,Original*%
%TF.FileFunction,Copper,L1,Top*%
%TF.FilePolarity,Positive*%
%FSLAX46Y46*%
G04 Gerber Fmt 4.6, Leading zero omitted, Abs format (unit mm)*
G04 Created by KiCad (PCBNEW 8.0.8) date 2025-07-18 21:43:57*
%MOMM*%
%LPD*%
G01*
G04 APERTURE LIST*
G04 Aperture macros list*
%AMRoundRect*
0 Rectangle with rounded corners*
0 $1 Rounding radius*
0 $2 $3 $4 $5 $6 $7 $8 $9 X,Y pos of 4 corners*
0 Add a 4 corners polygon primitive as box body*
4,1,4,$2,$3,$4,$5,$6,$7,$8,$9,$2,$3,0*
0 Add four circle primitives for the rounded corners*
1,1,$1+$1,$2,$3*
1,1,$1+$1,$4,$5*
1,1,$1+$1,$6,$7*
1,1,$1+$1,$8,$9*
0 Add four rect primitives between the rounded corners*
20,1,$1+$1,$2,$3,$4,$5,0*
20,1,$1+$1,$4,$5,$6,$7,0*
20,1,$1+$1,$6,$7,$8,$9,0*
20,1,$1+$1,$8,$9,$2,$3,0*%
G04 Aperture macros list end*
%ADD10C,0.100000*%
%ADD11C,0.150000*%
%ADD12C,0.300000*%
%ADD13C,0.400000*%
%TA.AperFunction,Conductor*%
%ADD14C,0.800000*%
%TD*%
%TA.AperFunction,Conductor*%
%ADD15C,0.200000*%
%TD*%
%TA.AperFunction,ComponentPad*%
%ADD16R,1.500000X1.500000*%
%TD*%
%TA.AperFunction,ComponentPad*%
%ADD17O,1.500000X1.500000*%
%TD*%
%TA.AperFunction,ComponentPad*%
%ADD18R,1.600000X1.600000*%
%TD*%
%TA.AperFunction,ComponentPad*%
%ADD19O,1.600000X1.600000*%
%TD*%
%TA.AperFunction,SMDPad,CuDef*%
%ADD20RoundRect,0.152400X0.609600X-1.063600X0.609600X1.063600X-0.609600X1.063600X-0.609600X-1.063600X0*%
%TD*%
%TA.AperFunction,ComponentPad*%
%ADD21C,1.524000*%
%TD*%
%TA.AperFunction,SMDPad,CuDef*%
%ADD22RoundRect,0.152400X-0.609600X1.063600X-0.609600X-1.063600X0.609600X-1.063600X0.609600X1.063600X0*%
%TD*%
%TA.AperFunction,ComponentPad*%
%ADD23R,1.050000X1.500000*%
%TD*%
%TA.AperFunction,ComponentPad*%
%ADD24O,1.050000X1.500000*%
%TD*%
%TA.AperFunction,ComponentPad*%
%ADD25C,3.400000*%
%TD*%
%TA.AperFunction,ComponentPad*%
%ADD26C,2.900000*%
%TD*%
%TA.AperFunction,ComponentPad*%
%ADD27C,1.600000*%
%TD*%
%TA.AperFunction,ComponentPad*%
%ADD28R,1.700000X1.700000*%
%TD*%
%TA.AperFunction,ComponentPad*%
%ADD29O,1.700000X1.700000*%
%TD*%
%TA.AperFunction,ComponentPad*%
%ADD30R,2.600000X2.600000*%
%TD*%
%TA.AperFunction,ComponentPad*%
%ADD31O,2.600000X2.600000*%
%TD*%
%TA.AperFunction,SMDPad,CuDef*%
%ADD32RoundRect,0.090000X-0.660000X-0.360000X0.660000X-0.360000X0.660000X0.360000X-0.660000X0.360000X0*%
%TD*%
%TA.AperFunction,ViaPad*%
%ADD33C,1.500000*%
%TD*%
%TA.AperFunction,Conductor*%
%ADD34C,0.500000*%
%TD*%
%TA.AperFunction,Conductor*%
%ADD35C,0.250000*%
%TD*%
%TA.AperFunction,Conductor*%
%ADD36C,1.500000*%
%TD*%
G04 APERTURE END LIST*
D10*
D11*
X177002200Y-166007200D02*
X285002200Y-166007200D01*
X285002200Y-198007200D01*
X177002200Y-198007200D01*
X177002200Y-166007200D01*
D10*
D11*
X10000000Y-10000000D02*
X287002200Y-10000000D01*
X287002200Y-200007200D01*
X10000000Y-200007200D01*
X10000000Y-10000000D01*
D10*
D11*
X12000000Y-12000000D02*
X285002200Y-12000000D01*
X285002200Y-198007200D01*
X12000000Y-198007200D01*
X12000000Y-12000000D01*
D10*
D11*
X60000000Y-12000000D02*
X60000000Y-10000000D01*
D10*
D11*
X110000000Y-12000000D02*
X110000000Y-10000000D01*
D10*
D11*
X160000000Y-12000000D02*
X160000000Y-10000000D01*
D10*
D11*
X210000000Y-12000000D02*
X210000000Y-10000000D01*
D10*
D11*
X260000000Y-12000000D02*
X260000000Y-10000000D01*
D10*
D11*
X36089160Y-11593604D02*
X35346303Y-11593604D01*
X35717731Y-11593604D02*
X35717731Y-10293604D01*
X35717731Y-10293604D02*
X35593922Y-10479319D01*
X35593922Y-10479319D02*
X35470112Y-10603128D01*
X35470112Y-10603128D02*
X35346303Y-10665033D01*
D10*
D11*
X85346303Y-10417414D02*
X85408207Y-10355509D01*
X85408207Y-10355509D02*
X85532017Y-10293604D01*
X85532017Y-10293604D02*
X85841541Y-10293604D01*
X85841541Y-10293604D02*
X85965350Y-10355509D01*
X85965350Y-10355509D02*
X86027255Y-10417414D01*
X86027255Y-10417414D02*
X86089160Y-10541223D01*
X86089160Y-10541223D02*
X86089160Y-10665033D01*
X86089160Y-10665033D02*
X86027255Y-10850747D01*
X86027255Y-10850747D02*
X85284398Y-11593604D01*
X85284398Y-11593604D02*
X86089160Y-11593604D01*
D10*
D11*
X135284398Y-10293604D02*
X136089160Y-10293604D01*
X136089160Y-10293604D02*
X135655826Y-10788842D01*
X135655826Y-10788842D02*
X135841541Y-10788842D01*
X135841541Y-10788842D02*
X135965350Y-10850747D01*
X135965350Y-10850747D02*
X136027255Y-10912652D01*
X136027255Y-10912652D02*
X136089160Y-11036461D01*
X136089160Y-11036461D02*
X136089160Y-11345985D01*
X136089160Y-11345985D02*
X136027255Y-11469795D01*
X136027255Y-11469795D02*
X135965350Y-11531700D01*
X135965350Y-11531700D02*
X135841541Y-11593604D01*
X135841541Y-11593604D02*
X135470112Y-11593604D01*
X135470112Y-11593604D02*
X135346303Y-11531700D01*
X135346303Y-11531700D02*
X135284398Y-11469795D01*
D10*
D11*
X185965350Y-10726938D02*
X185965350Y-11593604D01*
X185655826Y-10231700D02*
X185346303Y-11160271D01*
X185346303Y-11160271D02*
X186151064Y-11160271D01*
D10*
D11*
X236027255Y-10293604D02*
X235408207Y-10293604D01*
X235408207Y-10293604D02*
X235346303Y-10912652D01*
X235346303Y-10912652D02*
X235408207Y-10850747D01*
X235408207Y-10850747D02*
X235532017Y-10788842D01*
X235532017Y-10788842D02*
X235841541Y-10788842D01*
X235841541Y-10788842D02*
X235965350Y-10850747D01*
X235965350Y-10850747D02*
X236027255Y-10912652D01*
X236027255Y-10912652D02*
X236089160Y-11036461D01*
X236089160Y-11036461D02*
X236089160Y-11345985D01*
X236089160Y-11345985D02*
X236027255Y-11469795D01*
X236027255Y-11469795D02*
X235965350Y-11531700D01*
X235965350Y-11531700D02*
X235841541Y-11593604D01*
X235841541Y-11593604D02*
X235532017Y-11593604D01*
X235532017Y-11593604D02*
X235408207Y-11531700D01*
X235408207Y-11531700D02*
X235346303Y-11469795D01*
D10*
D11*
X285965350Y-10293604D02*
X285717731Y-10293604D01*
X285717731Y-10293604D02*
X285593922Y-10355509D01*
X285593922Y-10355509D02*
X285532017Y-10417414D01*
X285532017Y-10417414D02*
X285408207Y-10603128D01*
X285408207Y-10603128D02*
X285346303Y-10850747D01*
X285346303Y-10850747D02*
X285346303Y-11345985D01*
X285346303Y-11345985D02*
X285408207Y-11469795D01*
X285408207Y-11469795D02*
X285470112Y-11531700D01*
X285470112Y-11531700D02*
X285593922Y-11593604D01*
X285593922Y-11593604D02*
X285841541Y-11593604D01*
X285841541Y-11593604D02*
X285965350Y-11531700D01*
X285965350Y-11531700D02*
X286027255Y-11469795D01*
X286027255Y-11469795D02*
X286089160Y-11345985D01*
X286089160Y-11345985D02*
X286089160Y-11036461D01*
X286089160Y-11036461D02*
X286027255Y-10912652D01*
X286027255Y-10912652D02*
X285965350Y-10850747D01*
X285965350Y-10850747D02*
X285841541Y-10788842D01*
X285841541Y-10788842D02*
X285593922Y-10788842D01*
X285593922Y-10788842D02*
X285470112Y-10850747D01*
X285470112Y-10850747D02*
X285408207Y-10912652D01*
X285408207Y-10912652D02*
X285346303Y-11036461D01*
D10*
D11*
X60000000Y-198007200D02*
X60000000Y-200007200D01*
D10*
D11*
X110000000Y-198007200D02*
X110000000Y-200007200D01*
D10*
D11*
X160000000Y-198007200D02*
X160000000Y-200007200D01*
D10*
D11*
X210000000Y-198007200D02*
X210000000Y-200007200D01*
D10*
D11*
X260000000Y-198007200D02*
X260000000Y-200007200D01*
D10*
D11*
X36089160Y-199600804D02*
X35346303Y-199600804D01*
X35717731Y-199600804D02*
X35717731Y-198300804D01*
X35717731Y-198300804D02*
X35593922Y-198486519D01*
X35593922Y-198486519D02*
X35470112Y-198610328D01*
X35470112Y-198610328D02*
X35346303Y-198672233D01*
D10*
D11*
X85346303Y-198424614D02*
X85408207Y-198362709D01*
X85408207Y-198362709D02*
X85532017Y-198300804D01*
X85532017Y-198300804D02*
X85841541Y-198300804D01*
X85841541Y-198300804D02*
X85965350Y-198362709D01*
X85965350Y-198362709D02*
X86027255Y-198424614D01*
X86027255Y-198424614D02*
X86089160Y-198548423D01*
X86089160Y-198548423D02*
X86089160Y-198672233D01*
X86089160Y-198672233D02*
X86027255Y-198857947D01*
X86027255Y-198857947D02*
X85284398Y-199600804D01*
X85284398Y-199600804D02*
X86089160Y-199600804D01*
D10*
D11*
X135284398Y-198300804D02*
X136089160Y-198300804D01*
X136089160Y-198300804D02*
X135655826Y-198796042D01*
X135655826Y-198796042D02*
X135841541Y-198796042D01*
X135841541Y-198796042D02*
X135965350Y-198857947D01*
X135965350Y-198857947D02*
X136027255Y-198919852D01*
X136027255Y-198919852D02*
X136089160Y-199043661D01*
X136089160Y-199043661D02*
X136089160Y-199353185D01*
X136089160Y-199353185D02*
X136027255Y-199476995D01*
X136027255Y-199476995D02*
X135965350Y-199538900D01*
X135965350Y-199538900D02*
X135841541Y-199600804D01*
X135841541Y-199600804D02*
X135470112Y-199600804D01*
X135470112Y-199600804D02*
X135346303Y-199538900D01*
X135346303Y-199538900D02*
X135284398Y-199476995D01*
D10*
D11*
X185965350Y-198734138D02*
X185965350Y-199600804D01*
X185655826Y-198238900D02*
X185346303Y-199167471D01*
X185346303Y-199167471D02*
X186151064Y-199167471D01*
D10*
D11*
X236027255Y-198300804D02*
X235408207Y-198300804D01*
X235408207Y-198300804D02*
X235346303Y-198919852D01*
X235346303Y-198919852D02*
X235408207Y-198857947D01*
X235408207Y-198857947D02*
X235532017Y-198796042D01*
X235532017Y-198796042D02*
X235841541Y-198796042D01*
X235841541Y-198796042D02*
X235965350Y-198857947D01*
X235965350Y-198857947D02*
X236027255Y-198919852D01*
X236027255Y-198919852D02*
X236089160Y-199043661D01*
X236089160Y-199043661D02*
X236089160Y-199353185D01*
X236089160Y-199353185D02*
X236027255Y-199476995D01*
X236027255Y-199476995D02*
X235965350Y-199538900D01*
X235965350Y-199538900D02*
X235841541Y-199600804D01*
X235841541Y-199600804D02*
X235532017Y-199600804D01*
X235532017Y-199600804D02*
X235408207Y-199538900D01*
X235408207Y-199538900D02*
X235346303Y-199476995D01*
D10*
D11*
X285965350Y-198300804D02*
X285717731Y-198300804D01*
X285717731Y-198300804D02*
X285593922Y-198362709D01*
X285593922Y-198362709D02*
X285532017Y-198424614D01*
X285532017Y-198424614D02*
X285408207Y-198610328D01*
X285408207Y-198610328D02*
X285346303Y-198857947D01*
X285346303Y-198857947D02*
X285346303Y-199353185D01*
X285346303Y-199353185D02*
X285408207Y-199476995D01*
X285408207Y-199476995D02*
X285470112Y-199538900D01*
X285470112Y-199538900D02*
X285593922Y-199600804D01*
X285593922Y-199600804D02*
X285841541Y-199600804D01*
X285841541Y-199600804D02*
X285965350Y-199538900D01*
X285965350Y-199538900D02*
X286027255Y-199476995D01*
X286027255Y-199476995D02*
X286089160Y-199353185D01*
X286089160Y-199353185D02*
X286089160Y-199043661D01*
X286089160Y-199043661D02*
X286027255Y-198919852D01*
X286027255Y-198919852D02*
X285965350Y-198857947D01*
X285965350Y-198857947D02*
X285841541Y-198796042D01*
X285841541Y-198796042D02*
X285593922Y-198796042D01*
X285593922Y-198796042D02*
X285470112Y-198857947D01*
X285470112Y-198857947D02*
X285408207Y-198919852D01*
X285408207Y-198919852D02*
X285346303Y-199043661D01*
D10*
D11*
X10000000Y-60000000D02*
X12000000Y-60000000D01*
D10*
D11*
X10000000Y-110000000D02*
X12000000Y-110000000D01*
D10*
D11*
X10000000Y-160000000D02*
X12000000Y-160000000D01*
D10*
D11*
X10690476Y-35222176D02*
X11309523Y-35222176D01*
X10566666Y-35593604D02*
X10999999Y-34293604D01*
X10999999Y-34293604D02*
X11433333Y-35593604D01*
D10*
D11*
X11092857Y-84912652D02*
X11278571Y-84974557D01*
X11278571Y-84974557D02*
X11340476Y-85036461D01*
X11340476Y-85036461D02*
X11402380Y-85160271D01*
X11402380Y-85160271D02*
X11402380Y-85345985D01*
X11402380Y-85345985D02*
X11340476Y-85469795D01*
X11340476Y-85469795D02*
X11278571Y-85531700D01*
X11278571Y-85531700D02*
X11154761Y-85593604D01*
X11154761Y-85593604D02*
X10659523Y-85593604D01*
X10659523Y-85593604D02*
X10659523Y-84293604D01*
X10659523Y-84293604D02*
X11092857Y-84293604D01*
X11092857Y-84293604D02*
X11216666Y-84355509D01*
X11216666Y-84355509D02*
X11278571Y-84417414D01*
X11278571Y-84417414D02*
X11340476Y-84541223D01*
X11340476Y-84541223D02*
X11340476Y-84665033D01*
X11340476Y-84665033D02*
X11278571Y-84788842D01*
X11278571Y-84788842D02*
X11216666Y-84850747D01*
X11216666Y-84850747D02*
X11092857Y-84912652D01*
X11092857Y-84912652D02*
X10659523Y-84912652D01*
D10*
D11*
X11402380Y-135469795D02*
X11340476Y-135531700D01*
X11340476Y-135531700D02*
X11154761Y-135593604D01*
X11154761Y-135593604D02*
X11030952Y-135593604D01*
X11030952Y-135593604D02*
X10845238Y-135531700D01*
X10845238Y-135531700D02*
X10721428Y-135407890D01*
X10721428Y-135407890D02*
X10659523Y-135284080D01*
X10659523Y-135284080D02*
X10597619Y-135036461D01*
X10597619Y-135036461D02*
X10597619Y-134850747D01*
X10597619Y-134850747D02*
X10659523Y-134603128D01*
X10659523Y-134603128D02*
X10721428Y-134479319D01*
X10721428Y-134479319D02*
X10845238Y-134355509D01*
X10845238Y-134355509D02*
X11030952Y-134293604D01*
X11030952Y-134293604D02*
X11154761Y-134293604D01*
X11154761Y-134293604D02*
X11340476Y-134355509D01*
X11340476Y-134355509D02*
X11402380Y-134417414D01*
D10*
D11*
X10659523Y-185593604D02*
X10659523Y-184293604D01*
X10659523Y-184293604D02*
X10969047Y-184293604D01*
X10969047Y-184293604D02*
X11154761Y-184355509D01*
X11154761Y-184355509D02*
X11278571Y-184479319D01*
X11278571Y-184479319D02*
X11340476Y-184603128D01*
X11340476Y-184603128D02*
X11402380Y-184850747D01*
X11402380Y-184850747D02*
X11402380Y-185036461D01*
X11402380Y-185036461D02*
X11340476Y-185284080D01*
X11340476Y-185284080D02*
X11278571Y-185407890D01*
X11278571Y-185407890D02*
X11154761Y-185531700D01*
X11154761Y-185531700D02*
X10969047Y-185593604D01*
X10969047Y-185593604D02*
X10659523Y-185593604D01*
D10*
D11*
X287002200Y-60000000D02*
X285002200Y-60000000D01*
D10*
D11*
X287002200Y-110000000D02*
X285002200Y-110000000D01*
D10*
D11*
X287002200Y-160000000D02*
X285002200Y-160000000D01*
D10*
D11*
X285692676Y-35222176D02*
X286311723Y-35222176D01*
X285568866Y-35593604D02*
X286002199Y-34293604D01*
X286002199Y-34293604D02*
X286435533Y-35593604D01*
D10*
D11*
X286095057Y-84912652D02*
X286280771Y-84974557D01*
X286280771Y-84974557D02*
X286342676Y-85036461D01*
X286342676Y-85036461D02*
X286404580Y-85160271D01*
X286404580Y-85160271D02*
X286404580Y-85345985D01*
X286404580Y-85345985D02*
X286342676Y-85469795D01*
X286342676Y-85469795D02*
X286280771Y-85531700D01*
X286280771Y-85531700D02*
X286156961Y-85593604D01*
X286156961Y-85593604D02*
X285661723Y-85593604D01*
X285661723Y-85593604D02*
X285661723Y-84293604D01*
X285661723Y-84293604D02*
X286095057Y-84293604D01*
X286095057Y-84293604D02*
X286218866Y-84355509D01*
X286218866Y-84355509D02*
X286280771Y-84417414D01*
X286280771Y-84417414D02*
X286342676Y-84541223D01*
X286342676Y-84541223D02*
X286342676Y-84665033D01*
X286342676Y-84665033D02*
X286280771Y-84788842D01*
X286280771Y-84788842D02*
X286218866Y-84850747D01*
X286218866Y-84850747D02*
X286095057Y-84912652D01*
X286095057Y-84912652D02*
X285661723Y-84912652D01*
D10*
D11*
X286404580Y-135469795D02*
X286342676Y-135531700D01*
X286342676Y-135531700D02*
X286156961Y-135593604D01*
X286156961Y-135593604D02*
X286033152Y-135593604D01*
X286033152Y-135593604D02*
X285847438Y-135531700D01*
X285847438Y-135531700D02*
X285723628Y-135407890D01*
X285723628Y-135407890D02*
X285661723Y-135284080D01*
X285661723Y-135284080D02*
X285599819Y-135036461D01*
X285599819Y-135036461D02*
X285599819Y-134850747D01*
X285599819Y-134850747D02*
X285661723Y-134603128D01*
X285661723Y-134603128D02*
X285723628Y-134479319D01*
X285723628Y-134479319D02*
X285847438Y-134355509D01*
X285847438Y-134355509D02*
X286033152Y-134293604D01*
X286033152Y-134293604D02*
X286156961Y-134293604D01*
X286156961Y-134293604D02*
X286342676Y-134355509D01*
X286342676Y-134355509D02*
X286404580Y-134417414D01*
D10*
D11*
X285661723Y-185593604D02*
X285661723Y-184293604D01*
X285661723Y-184293604D02*
X285971247Y-184293604D01*
X285971247Y-184293604D02*
X286156961Y-184355509D01*
X286156961Y-184355509D02*
X286280771Y-184479319D01*
X286280771Y-184479319D02*
X286342676Y-184603128D01*
X286342676Y-184603128D02*
X286404580Y-184850747D01*
X286404580Y-184850747D02*
X286404580Y-185036461D01*
X286404580Y-185036461D02*
X286342676Y-185284080D01*
X286342676Y-185284080D02*
X286280771Y-185407890D01*
X286280771Y-185407890D02*
X286156961Y-185531700D01*
X286156961Y-185531700D02*
X285971247Y-185593604D01*
X285971247Y-185593604D02*
X285661723Y-185593604D01*
D10*
D11*
X200458026Y-193793328D02*
X200458026Y-192293328D01*
X200458026Y-192293328D02*
X200815169Y-192293328D01*
X200815169Y-192293328D02*
X201029455Y-192364757D01*
X201029455Y-192364757D02*
X201172312Y-192507614D01*
X201172312Y-192507614D02*
X201243741Y-192650471D01*
X201243741Y-192650471D02*
X201315169Y-192936185D01*
X201315169Y-192936185D02*
X201315169Y-193150471D01*
X201315169Y-193150471D02*
X201243741Y-193436185D01*
X201243741Y-193436185D02*
X201172312Y-193579042D01*
X201172312Y-193579042D02*
X201029455Y-193721900D01*
X201029455Y-193721900D02*
X200815169Y-193793328D01*
X200815169Y-193793328D02*
X200458026Y-193793328D01*
X202600884Y-193793328D02*
X202600884Y-193007614D01*
X202600884Y-193007614D02*
X202529455Y-192864757D01*
X202529455Y-192864757D02*
X202386598Y-192793328D01*
X202386598Y-192793328D02*
X202100884Y-192793328D01*
X202100884Y-192793328D02*
X201958026Y-192864757D01*
X202600884Y-193721900D02*
X202458026Y-193793328D01*
X202458026Y-193793328D02*
X202100884Y-193793328D01*
X202100884Y-193793328D02*
X201958026Y-193721900D01*
X201958026Y-193721900D02*
X201886598Y-193579042D01*
X201886598Y-193579042D02*
X201886598Y-193436185D01*
X201886598Y-193436185D02*
X201958026Y-193293328D01*
X201958026Y-193293328D02*
X202100884Y-193221900D01*
X202100884Y-193221900D02*
X202458026Y-193221900D01*
X202458026Y-193221900D02*
X202600884Y-193150471D01*
X203100884Y-192793328D02*
X203672312Y-192793328D01*
X203315169Y-192293328D02*
X203315169Y-193579042D01*
X203315169Y-193579042D02*
X203386598Y-193721900D01*
X203386598Y-193721900D02*
X203529455Y-193793328D01*
X203529455Y-193793328D02*
X203672312Y-193793328D01*
X204743741Y-193721900D02*
X204600884Y-193793328D01*
X204600884Y-193793328D02*
X204315170Y-193793328D01*
X204315170Y-193793328D02*
X204172312Y-193721900D01*
X204172312Y-193721900D02*
X204100884Y-193579042D01*
X204100884Y-193579042D02*
X204100884Y-193007614D01*
X204100884Y-193007614D02*
X204172312Y-192864757D01*
X204172312Y-192864757D02*
X204315170Y-192793328D01*
X204315170Y-192793328D02*
X204600884Y-192793328D01*
X204600884Y-192793328D02*
X204743741Y-192864757D01*
X204743741Y-192864757D02*
X204815170Y-193007614D01*
X204815170Y-193007614D02*
X204815170Y-193150471D01*
X204815170Y-193150471D02*
X204100884Y-193293328D01*
X205458026Y-193650471D02*
X205529455Y-193721900D01*
X205529455Y-193721900D02*
X205458026Y-193793328D01*
X205458026Y-193793328D02*
X205386598Y-193721900D01*
X205386598Y-193721900D02*
X205458026Y-193650471D01*
X205458026Y-193650471D02*
X205458026Y-193793328D01*
X205458026Y-192864757D02*
X205529455Y-192936185D01*
X205529455Y-192936185D02*
X205458026Y-193007614D01*
X205458026Y-193007614D02*
X205386598Y-192936185D01*
X205386598Y-192936185D02*
X205458026Y-192864757D01*
X205458026Y-192864757D02*
X205458026Y-193007614D01*
D10*
D11*
X177002200Y-194507200D02*
X285002200Y-194507200D01*
D10*
D11*
X178458026Y-196593328D02*
X178458026Y-195093328D01*
X179315169Y-196593328D02*
X178672312Y-195736185D01*
X179315169Y-195093328D02*
X178458026Y-195950471D01*
X179958026Y-196593328D02*
X179958026Y-195593328D01*
X179958026Y-195093328D02*
X179886598Y-195164757D01*
X179886598Y-195164757D02*
X179958026Y-195236185D01*
X179958026Y-195236185D02*
X180029455Y-195164757D01*
X180029455Y-195164757D02*
X179958026Y-195093328D01*
X179958026Y-195093328D02*
X179958026Y-195236185D01*
X181529455Y-196450471D02*
X181458027Y-196521900D01*
X181458027Y-196521900D02*
X181243741Y-196593328D01*
X181243741Y-196593328D02*
X181100884Y-196593328D01*
X181100884Y-196593328D02*
X180886598Y-196521900D01*
X180886598Y-196521900D02*
X180743741Y-196379042D01*
X180743741Y-196379042D02*
X180672312Y-196236185D01*
X180672312Y-196236185D02*
X180600884Y-195950471D01*
X180600884Y-195950471D02*
X180600884Y-195736185D01*
X180600884Y-195736185D02*
X180672312Y-195450471D01*
X180672312Y-195450471D02*
X180743741Y-195307614D01*
X180743741Y-195307614D02*
X180886598Y-195164757D01*
X180886598Y-195164757D02*
X181100884Y-195093328D01*
X181100884Y-195093328D02*
X181243741Y-195093328D01*
X181243741Y-195093328D02*
X181458027Y-195164757D01*
X181458027Y-195164757D02*
X181529455Y-195236185D01*
X182815170Y-196593328D02*
X182815170Y-195807614D01*
X182815170Y-195807614D02*
X182743741Y-195664757D01*
X182743741Y-195664757D02*
X182600884Y-195593328D01*
X182600884Y-195593328D02*
X182315170Y-195593328D01*
X182315170Y-195593328D02*
X182172312Y-195664757D01*
X182815170Y-196521900D02*
X182672312Y-196593328D01*
X182672312Y-196593328D02*
X182315170Y-196593328D01*
X182315170Y-196593328D02*
X182172312Y-196521900D01*
X182172312Y-196521900D02*
X182100884Y-196379042D01*
X182100884Y-196379042D02*
X182100884Y-196236185D01*
X182100884Y-196236185D02*
X182172312Y-196093328D01*
X182172312Y-196093328D02*
X182315170Y-196021900D01*
X182315170Y-196021900D02*
X182672312Y-196021900D01*
X182672312Y-196021900D02*
X182815170Y-195950471D01*
X184172313Y-196593328D02*
X184172313Y-195093328D01*
X184172313Y-196521900D02*
X184029455Y-196593328D01*
X184029455Y-196593328D02*
X183743741Y-196593328D01*
X183743741Y-196593328D02*
X183600884Y-196521900D01*
X183600884Y-196521900D02*
X183529455Y-196450471D01*
X183529455Y-196450471D02*
X183458027Y-196307614D01*
X183458027Y-196307614D02*
X183458027Y-195879042D01*
X183458027Y-195879042D02*
X183529455Y-195736185D01*
X183529455Y-195736185D02*
X183600884Y-195664757D01*
X183600884Y-195664757D02*
X183743741Y-195593328D01*
X183743741Y-195593328D02*
X184029455Y-195593328D01*
X184029455Y-195593328D02*
X184172313Y-195664757D01*
X186029455Y-195807614D02*
X186529455Y-195807614D01*
X186743741Y-196593328D02*
X186029455Y-196593328D01*
X186029455Y-196593328D02*
X186029455Y-195093328D01*
X186029455Y-195093328D02*
X186743741Y-195093328D01*
X187386598Y-196450471D02*
X187458027Y-196521900D01*
X187458027Y-196521900D02*
X187386598Y-196593328D01*
X187386598Y-196593328D02*
X187315170Y-196521900D01*
X187315170Y-196521900D02*
X187386598Y-196450471D01*
X187386598Y-196450471D02*
X187386598Y-196593328D01*
X188100884Y-196593328D02*
X188100884Y-195093328D01*
X188100884Y-195093328D02*
X188458027Y-195093328D01*
X188458027Y-195093328D02*
X188672313Y-195164757D01*
X188672313Y-195164757D02*
X188815170Y-195307614D01*
X188815170Y-195307614D02*
X188886599Y-195450471D01*
X188886599Y-195450471D02*
X188958027Y-195736185D01*
X188958027Y-195736185D02*
X188958027Y-195950471D01*
X188958027Y-195950471D02*
X188886599Y-196236185D01*
X188886599Y-196236185D02*
X188815170Y-196379042D01*
X188815170Y-196379042D02*
X188672313Y-196521900D01*
X188672313Y-196521900D02*
X188458027Y-196593328D01*
X188458027Y-196593328D02*
X188100884Y-196593328D01*
X189600884Y-196450471D02*
X189672313Y-196521900D01*
X189672313Y-196521900D02*
X189600884Y-196593328D01*
X189600884Y-196593328D02*
X189529456Y-196521900D01*
X189529456Y-196521900D02*
X189600884Y-196450471D01*
X189600884Y-196450471D02*
X189600884Y-196593328D01*
X190243742Y-196164757D02*
X190958028Y-196164757D01*
X190100885Y-196593328D02*
X190600885Y-195093328D01*
X190600885Y-195093328D02*
X191100885Y-196593328D01*
X191600884Y-196450471D02*
X191672313Y-196521900D01*
X191672313Y-196521900D02*
X191600884Y-196593328D01*
X191600884Y-196593328D02*
X191529456Y-196521900D01*
X191529456Y-196521900D02*
X191600884Y-196450471D01*
X191600884Y-196450471D02*
X191600884Y-196593328D01*
X193672313Y-195736185D02*
X193529456Y-195664757D01*
X193529456Y-195664757D02*
X193458027Y-195593328D01*
X193458027Y-195593328D02*
X193386599Y-195450471D01*
X193386599Y-195450471D02*
X193386599Y-195379042D01*
X193386599Y-195379042D02*
X193458027Y-195236185D01*
X193458027Y-195236185D02*
X193529456Y-195164757D01*
X193529456Y-195164757D02*
X193672313Y-195093328D01*
X193672313Y-195093328D02*
X193958027Y-195093328D01*
X193958027Y-195093328D02*
X194100885Y-195164757D01*
X194100885Y-195164757D02*
X194172313Y-195236185D01*
X194172313Y-195236185D02*
X194243742Y-195379042D01*
X194243742Y-195379042D02*
X194243742Y-195450471D01*
X194243742Y-195450471D02*
X194172313Y-195593328D01*
X194172313Y-195593328D02*
X194100885Y-195664757D01*
X194100885Y-195664757D02*
X193958027Y-195736185D01*
X193958027Y-195736185D02*
X193672313Y-195736185D01*
X193672313Y-195736185D02*
X193529456Y-195807614D01*
X193529456Y-195807614D02*
X193458027Y-195879042D01*
X193458027Y-195879042D02*
X193386599Y-196021900D01*
X193386599Y-196021900D02*
X193386599Y-196307614D01*
X193386599Y-196307614D02*
X193458027Y-196450471D01*
X193458027Y-196450471D02*
X193529456Y-196521900D01*
X193529456Y-196521900D02*
X193672313Y-196593328D01*
X193672313Y-196593328D02*
X193958027Y-196593328D01*
X193958027Y-196593328D02*
X194100885Y-196521900D01*
X194100885Y-196521900D02*
X194172313Y-196450471D01*
X194172313Y-196450471D02*
X194243742Y-196307614D01*
X194243742Y-196307614D02*
X194243742Y-196021900D01*
X194243742Y-196021900D02*
X194172313Y-195879042D01*
X194172313Y-195879042D02*
X194100885Y-195807614D01*
X194100885Y-195807614D02*
X193958027Y-195736185D01*
X194886598Y-196450471D02*
X194958027Y-196521900D01*
X194958027Y-196521900D02*
X194886598Y-196593328D01*
X194886598Y-196593328D02*
X194815170Y-196521900D01*
X194815170Y-196521900D02*
X194886598Y-196450471D01*
X194886598Y-196450471D02*
X194886598Y-196593328D01*
X195886599Y-195093328D02*
X196029456Y-195093328D01*
X196029456Y-195093328D02*
X196172313Y-195164757D01*
X196172313Y-195164757D02*
X196243742Y-195236185D01*
X196243742Y-195236185D02*
X196315170Y-195379042D01*
X196315170Y-195379042D02*
X196386599Y-195664757D01*
X196386599Y-195664757D02*
X196386599Y-196021900D01*
X196386599Y-196021900D02*
X196315170Y-196307614D01*
X196315170Y-196307614D02*
X196243742Y-196450471D01*
X196243742Y-196450471D02*
X196172313Y-196521900D01*
X196172313Y-196521900D02*
X196029456Y-196593328D01*
X196029456Y-196593328D02*
X195886599Y-196593328D01*
X195886599Y-196593328D02*
X195743742Y-196521900D01*
X195743742Y-196521900D02*
X195672313Y-196450471D01*
X195672313Y-196450471D02*
X195600884Y-196307614D01*
X195600884Y-196307614D02*
X195529456Y-196021900D01*
X195529456Y-196021900D02*
X195529456Y-195664757D01*
X195529456Y-195664757D02*
X195600884Y-195379042D01*
X195600884Y-195379042D02*
X195672313Y-195236185D01*
X195672313Y-195236185D02*
X195743742Y-195164757D01*
X195743742Y-195164757D02*
X195886599Y-195093328D01*
X197029455Y-196450471D02*
X197100884Y-196521900D01*
X197100884Y-196521900D02*
X197029455Y-196593328D01*
X197029455Y-196593328D02*
X196958027Y-196521900D01*
X196958027Y-196521900D02*
X197029455Y-196450471D01*
X197029455Y-196450471D02*
X197029455Y-196593328D01*
X197958027Y-195736185D02*
X197815170Y-195664757D01*
X197815170Y-195664757D02*
X197743741Y-195593328D01*
X197743741Y-195593328D02*
X197672313Y-195450471D01*
X197672313Y-195450471D02*
X197672313Y-195379042D01*
X197672313Y-195379042D02*
X197743741Y-195236185D01*
X197743741Y-195236185D02*
X197815170Y-195164757D01*
X197815170Y-195164757D02*
X197958027Y-195093328D01*
X197958027Y-195093328D02*
X198243741Y-195093328D01*
X198243741Y-195093328D02*
X198386599Y-195164757D01*
X198386599Y-195164757D02*
X198458027Y-195236185D01*
X198458027Y-195236185D02*
X198529456Y-195379042D01*
X198529456Y-195379042D02*
X198529456Y-195450471D01*
X198529456Y-195450471D02*
X198458027Y-195593328D01*
X198458027Y-195593328D02*
X198386599Y-195664757D01*
X198386599Y-195664757D02*
X198243741Y-195736185D01*
X198243741Y-195736185D02*
X197958027Y-195736185D01*
X197958027Y-195736185D02*
X197815170Y-195807614D01*
X197815170Y-195807614D02*
X197743741Y-195879042D01*
X197743741Y-195879042D02*
X197672313Y-196021900D01*
X197672313Y-196021900D02*
X197672313Y-196307614D01*
X197672313Y-196307614D02*
X197743741Y-196450471D01*
X197743741Y-196450471D02*
X197815170Y-196521900D01*
X197815170Y-196521900D02*
X197958027Y-196593328D01*
X197958027Y-196593328D02*
X198243741Y-196593328D01*
X198243741Y-196593328D02*
X198386599Y-196521900D01*
X198386599Y-196521900D02*
X198458027Y-196450471D01*
X198458027Y-196450471D02*
X198529456Y-196307614D01*
X198529456Y-196307614D02*
X198529456Y-196021900D01*
X198529456Y-196021900D02*
X198458027Y-195879042D01*
X198458027Y-195879042D02*
X198386599Y-195807614D01*
X198386599Y-195807614D02*
X198243741Y-195736185D01*
D10*
D11*
X177002200Y-191507200D02*
X285002200Y-191507200D01*
D10*
D12*
X264413853Y-193785528D02*
X263913853Y-193071242D01*
X263556710Y-193785528D02*
X263556710Y-192285528D01*
X263556710Y-192285528D02*
X264128139Y-192285528D01*
X264128139Y-192285528D02*
X264270996Y-192356957D01*
X264270996Y-192356957D02*
X264342425Y-192428385D01*
X264342425Y-192428385D02*
X264413853Y-192571242D01*
X264413853Y-192571242D02*
X264413853Y-192785528D01*
X264413853Y-192785528D02*
X264342425Y-192928385D01*
X264342425Y-192928385D02*
X264270996Y-192999814D01*
X264270996Y-192999814D02*
X264128139Y-193071242D01*
X264128139Y-193071242D02*
X263556710Y-193071242D01*
X265628139Y-193714100D02*
X265485282Y-193785528D01*
X265485282Y-193785528D02*
X265199568Y-193785528D01*
X265199568Y-193785528D02*
X265056710Y-193714100D01*
X265056710Y-193714100D02*
X264985282Y-193571242D01*
X264985282Y-193571242D02*
X264985282Y-192999814D01*
X264985282Y-192999814D02*
X265056710Y-192856957D01*
X265056710Y-192856957D02*
X265199568Y-192785528D01*
X265199568Y-192785528D02*
X265485282Y-192785528D01*
X265485282Y-192785528D02*
X265628139Y-192856957D01*
X265628139Y-192856957D02*
X265699568Y-192999814D01*
X265699568Y-192999814D02*
X265699568Y-193142671D01*
X265699568Y-193142671D02*
X264985282Y-193285528D01*
X266199567Y-192785528D02*
X266556710Y-193785528D01*
X266556710Y-193785528D02*
X266913853Y-192785528D01*
X267485281Y-193642671D02*
X267556710Y-193714100D01*
X267556710Y-193714100D02*
X267485281Y-193785528D01*
X267485281Y-193785528D02*
X267413853Y-193714100D01*
X267413853Y-193714100D02*
X267485281Y-193642671D01*
X267485281Y-193642671D02*
X267485281Y-193785528D01*
X267485281Y-192856957D02*
X267556710Y-192928385D01*
X267556710Y-192928385D02*
X267485281Y-192999814D01*
X267485281Y-192999814D02*
X267413853Y-192928385D01*
X267413853Y-192928385D02*
X267485281Y-192856957D01*
X267485281Y-192856957D02*
X267485281Y-192999814D01*
D10*
D11*
X178386598Y-193721900D02*
X178600884Y-193793328D01*
X178600884Y-193793328D02*
X178958026Y-193793328D01*
X178958026Y-193793328D02*
X179100884Y-193721900D01*
X179100884Y-193721900D02*
X179172312Y-193650471D01*
X179172312Y-193650471D02*
X179243741Y-193507614D01*
X179243741Y-193507614D02*
X179243741Y-193364757D01*
X179243741Y-193364757D02*
X179172312Y-193221900D01*
X179172312Y-193221900D02*
X179100884Y-193150471D01*
X179100884Y-193150471D02*
X178958026Y-193079042D01*
X178958026Y-193079042D02*
X178672312Y-193007614D01*
X178672312Y-193007614D02*
X178529455Y-192936185D01*
X178529455Y-192936185D02*
X178458026Y-192864757D01*
X178458026Y-192864757D02*
X178386598Y-192721900D01*
X178386598Y-192721900D02*
X178386598Y-192579042D01*
X178386598Y-192579042D02*
X178458026Y-192436185D01*
X178458026Y-192436185D02*
X178529455Y-192364757D01*
X178529455Y-192364757D02*
X178672312Y-192293328D01*
X178672312Y-192293328D02*
X179029455Y-192293328D01*
X179029455Y-192293328D02*
X179243741Y-192364757D01*
X179886597Y-193793328D02*
X179886597Y-192793328D01*
X179886597Y-192293328D02*
X179815169Y-192364757D01*
X179815169Y-192364757D02*
X179886597Y-192436185D01*
X179886597Y-192436185D02*
X179958026Y-192364757D01*
X179958026Y-192364757D02*
X179886597Y-192293328D01*
X179886597Y-192293328D02*
X179886597Y-192436185D01*
X180458026Y-192793328D02*
X181243741Y-192793328D01*
X181243741Y-192793328D02*
X180458026Y-193793328D01*
X180458026Y-193793328D02*
X181243741Y-193793328D01*
X182386598Y-193721900D02*
X182243741Y-193793328D01*
X182243741Y-193793328D02*
X181958027Y-193793328D01*
X181958027Y-193793328D02*
X181815169Y-193721900D01*
X181815169Y-193721900D02*
X181743741Y-193579042D01*
X181743741Y-193579042D02*
X181743741Y-193007614D01*
X181743741Y-193007614D02*
X181815169Y-192864757D01*
X181815169Y-192864757D02*
X181958027Y-192793328D01*
X181958027Y-192793328D02*
X182243741Y-192793328D01*
X182243741Y-192793328D02*
X182386598Y-192864757D01*
X182386598Y-192864757D02*
X182458027Y-193007614D01*
X182458027Y-193007614D02*
X182458027Y-193150471D01*
X182458027Y-193150471D02*
X181743741Y-193293328D01*
X183100883Y-193650471D02*
X183172312Y-193721900D01*
X183172312Y-193721900D02*
X183100883Y-193793328D01*
X183100883Y-193793328D02*
X183029455Y-193721900D01*
X183029455Y-193721900D02*
X183100883Y-193650471D01*
X183100883Y-193650471D02*
X183100883Y-193793328D01*
X183100883Y-192864757D02*
X183172312Y-192936185D01*
X183172312Y-192936185D02*
X183100883Y-193007614D01*
X183100883Y-193007614D02*
X183029455Y-192936185D01*
X183029455Y-192936185D02*
X183100883Y-192864757D01*
X183100883Y-192864757D02*
X183100883Y-193007614D01*
X184886598Y-193364757D02*
X185600884Y-193364757D01*
X184743741Y-193793328D02*
X185243741Y-192293328D01*
X185243741Y-192293328D02*
X185743741Y-193793328D01*
X186886598Y-192793328D02*
X186886598Y-193793328D01*
X186529455Y-192221900D02*
X186172312Y-193293328D01*
X186172312Y-193293328D02*
X187100883Y-193293328D01*
D10*
D11*
X263458026Y-196593328D02*
X263458026Y-195093328D01*
X264815170Y-196593328D02*
X264815170Y-195093328D01*
X264815170Y-196521900D02*
X264672312Y-196593328D01*
X264672312Y-196593328D02*
X264386598Y-196593328D01*
X264386598Y-196593328D02*
X264243741Y-196521900D01*
X264243741Y-196521900D02*
X264172312Y-196450471D01*
X264172312Y-196450471D02*
X264100884Y-196307614D01*
X264100884Y-196307614D02*
X264100884Y-195879042D01*
X264100884Y-195879042D02*
X264172312Y-195736185D01*
X264172312Y-195736185D02*
X264243741Y-195664757D01*
X264243741Y-195664757D02*
X264386598Y-195593328D01*
X264386598Y-195593328D02*
X264672312Y-195593328D01*
X264672312Y-195593328D02*
X264815170Y-195664757D01*
X265529455Y-196450471D02*
X265600884Y-196521900D01*
X265600884Y-196521900D02*
X265529455Y-196593328D01*
X265529455Y-196593328D02*
X265458027Y-196521900D01*
X265458027Y-196521900D02*
X265529455Y-196450471D01*
X265529455Y-196450471D02*
X265529455Y-196593328D01*
X265529455Y-195664757D02*
X265600884Y-195736185D01*
X265600884Y-195736185D02*
X265529455Y-195807614D01*
X265529455Y-195807614D02*
X265458027Y-195736185D01*
X265458027Y-195736185D02*
X265529455Y-195664757D01*
X265529455Y-195664757D02*
X265529455Y-195807614D01*
X268172313Y-196593328D02*
X267315170Y-196593328D01*
X267743741Y-196593328D02*
X267743741Y-195093328D01*
X267743741Y-195093328D02*
X267600884Y-195307614D01*
X267600884Y-195307614D02*
X267458027Y-195450471D01*
X267458027Y-195450471D02*
X267315170Y-195521900D01*
X269886598Y-195021900D02*
X268600884Y-196950471D01*
X271172313Y-196593328D02*
X270315170Y-196593328D01*
X270743741Y-196593328D02*
X270743741Y-195093328D01*
X270743741Y-195093328D02*
X270600884Y-195307614D01*
X270600884Y-195307614D02*
X270458027Y-195450471D01*
X270458027Y-195450471D02*
X270315170Y-195521900D01*
D10*
D11*
X177002200Y-187507200D02*
X285002200Y-187507200D01*
D10*
D13*
X178693928Y-188211638D02*
X179836785Y-188211638D01*
X179015357Y-190211638D02*
X179265357Y-188211638D01*
X180253452Y-190211638D02*
X180420119Y-188878304D01*
X180503452Y-188211638D02*
X180396309Y-188306876D01*
X180396309Y-188306876D02*
X180479643Y-188402114D01*
X180479643Y-188402114D02*
X180586786Y-188306876D01*
X180586786Y-188306876D02*
X180503452Y-188211638D01*
X180503452Y-188211638D02*
X180479643Y-188402114D01*
X181086786Y-188878304D02*
X181848690Y-188878304D01*
X181455833Y-188211638D02*
X181241548Y-189925923D01*
X181241548Y-189925923D02*
X181312976Y-190116400D01*
X181312976Y-190116400D02*
X181491548Y-190211638D01*
X181491548Y-190211638D02*
X181682024Y-190211638D01*
X182634405Y-190211638D02*
X182455833Y-190116400D01*
X182455833Y-190116400D02*
X182384405Y-189925923D01*
X182384405Y-189925923D02*
X182598690Y-188211638D01*
X184170119Y-190116400D02*
X183967738Y-190211638D01*
X183967738Y-190211638D02*
X183586785Y-190211638D01*
X183586785Y-190211638D02*
X183408214Y-190116400D01*
X183408214Y-190116400D02*
X183336785Y-189925923D01*
X183336785Y-189925923D02*
X183432024Y-189164019D01*
X183432024Y-189164019D02*
X183551071Y-188973542D01*
X183551071Y-188973542D02*
X183753452Y-188878304D01*
X183753452Y-188878304D02*
X184134404Y-188878304D01*
X184134404Y-188878304D02*
X184312976Y-188973542D01*
X184312976Y-188973542D02*
X184384404Y-189164019D01*
X184384404Y-189164019D02*
X184360595Y-189354495D01*
X184360595Y-189354495D02*
X183384404Y-189544971D01*
X185134405Y-190021161D02*
X185217738Y-190116400D01*
X185217738Y-190116400D02*
X185110595Y-190211638D01*
X185110595Y-190211638D02*
X185027262Y-190116400D01*
X185027262Y-190116400D02*
X185134405Y-190021161D01*
X185134405Y-190021161D02*
X185110595Y-190211638D01*
X185265357Y-188973542D02*
X185348690Y-189068780D01*
X185348690Y-189068780D02*
X185241548Y-189164019D01*
X185241548Y-189164019D02*
X185158214Y-189068780D01*
X185158214Y-189068780D02*
X185265357Y-188973542D01*
X185265357Y-188973542D02*
X185241548Y-189164019D01*
D10*
D11*
X178958026Y-185607614D02*
X178458026Y-185607614D01*
X178458026Y-186393328D02*
X178458026Y-184893328D01*
X178458026Y-184893328D02*
X179172312Y-184893328D01*
X179743740Y-186393328D02*
X179743740Y-185393328D01*
X179743740Y-184893328D02*
X179672312Y-184964757D01*
X179672312Y-184964757D02*
X179743740Y-185036185D01*
X179743740Y-185036185D02*
X179815169Y-184964757D01*
X179815169Y-184964757D02*
X179743740Y-184893328D01*
X179743740Y-184893328D02*
X179743740Y-185036185D01*
X180672312Y-186393328D02*
X180529455Y-186321900D01*
X180529455Y-186321900D02*
X180458026Y-186179042D01*
X180458026Y-186179042D02*
X180458026Y-184893328D01*
X181815169Y-186321900D02*
X181672312Y-186393328D01*
X181672312Y-186393328D02*
X181386598Y-186393328D01*
X181386598Y-186393328D02*
X181243740Y-186321900D01*
X181243740Y-186321900D02*
X181172312Y-186179042D01*
X181172312Y-186179042D02*
X181172312Y-185607614D01*
X181172312Y-185607614D02*
X181243740Y-185464757D01*
X181243740Y-185464757D02*
X181386598Y-185393328D01*
X181386598Y-185393328D02*
X181672312Y-185393328D01*
X181672312Y-185393328D02*
X181815169Y-185464757D01*
X181815169Y-185464757D02*
X181886598Y-185607614D01*
X181886598Y-185607614D02*
X181886598Y-185750471D01*
X181886598Y-185750471D02*
X181172312Y-185893328D01*
X182529454Y-186250471D02*
X182600883Y-186321900D01*
X182600883Y-186321900D02*
X182529454Y-186393328D01*
X182529454Y-186393328D02*
X182458026Y-186321900D01*
X182458026Y-186321900D02*
X182529454Y-186250471D01*
X182529454Y-186250471D02*
X182529454Y-186393328D01*
X182529454Y-185464757D02*
X182600883Y-185536185D01*
X182600883Y-185536185D02*
X182529454Y-185607614D01*
X182529454Y-185607614D02*
X182458026Y-185536185D01*
X182458026Y-185536185D02*
X182529454Y-185464757D01*
X182529454Y-185464757D02*
X182529454Y-185607614D01*
X184029455Y-186536185D02*
X185172312Y-186536185D01*
X186172312Y-186393328D02*
X186172312Y-185607614D01*
X186172312Y-185607614D02*
X186100883Y-185464757D01*
X186100883Y-185464757D02*
X185958026Y-185393328D01*
X185958026Y-185393328D02*
X185672312Y-185393328D01*
X185672312Y-185393328D02*
X185529454Y-185464757D01*
X186172312Y-186321900D02*
X186029454Y-186393328D01*
X186029454Y-186393328D02*
X185672312Y-186393328D01*
X185672312Y-186393328D02*
X185529454Y-186321900D01*
X185529454Y-186321900D02*
X185458026Y-186179042D01*
X185458026Y-186179042D02*
X185458026Y-186036185D01*
X185458026Y-186036185D02*
X185529454Y-185893328D01*
X185529454Y-185893328D02*
X185672312Y-185821900D01*
X185672312Y-185821900D02*
X186029454Y-185821900D01*
X186029454Y-185821900D02*
X186172312Y-185750471D01*
X187529455Y-185393328D02*
X187529455Y-186393328D01*
X186886597Y-185393328D02*
X186886597Y-186179042D01*
X186886597Y-186179042D02*
X186958026Y-186321900D01*
X186958026Y-186321900D02*
X187100883Y-186393328D01*
X187100883Y-186393328D02*
X187315169Y-186393328D01*
X187315169Y-186393328D02*
X187458026Y-186321900D01*
X187458026Y-186321900D02*
X187529455Y-186250471D01*
X188029455Y-185393328D02*
X188600883Y-185393328D01*
X188243740Y-184893328D02*
X188243740Y-186179042D01*
X188243740Y-186179042D02*
X188315169Y-186321900D01*
X188315169Y-186321900D02*
X188458026Y-186393328D01*
X188458026Y-186393328D02*
X188600883Y-186393328D01*
X189315169Y-186393328D02*
X189172312Y-186321900D01*
X189172312Y-186321900D02*
X189100883Y-186250471D01*
X189100883Y-186250471D02*
X189029455Y-186107614D01*
X189029455Y-186107614D02*
X189029455Y-185679042D01*
X189029455Y-185679042D02*
X189100883Y-185536185D01*
X189100883Y-185536185D02*
X189172312Y-185464757D01*
X189172312Y-185464757D02*
X189315169Y-185393328D01*
X189315169Y-185393328D02*
X189529455Y-185393328D01*
X189529455Y-185393328D02*
X189672312Y-185464757D01*
X189672312Y-185464757D02*
X189743741Y-185536185D01*
X189743741Y-185536185D02*
X189815169Y-185679042D01*
X189815169Y-185679042D02*
X189815169Y-186107614D01*
X189815169Y-186107614D02*
X189743741Y-186250471D01*
X189743741Y-186250471D02*
X189672312Y-186321900D01*
X189672312Y-186321900D02*
X189529455Y-186393328D01*
X189529455Y-186393328D02*
X189315169Y-186393328D01*
X190386598Y-186321900D02*
X190529455Y-186393328D01*
X190529455Y-186393328D02*
X190815169Y-186393328D01*
X190815169Y-186393328D02*
X190958026Y-186321900D01*
X190958026Y-186321900D02*
X191029455Y-186179042D01*
X191029455Y-186179042D02*
X191029455Y-186107614D01*
X191029455Y-186107614D02*
X190958026Y-185964757D01*
X190958026Y-185964757D02*
X190815169Y-185893328D01*
X190815169Y-185893328D02*
X190600884Y-185893328D01*
X190600884Y-185893328D02*
X190458026Y-185821900D01*
X190458026Y-185821900D02*
X190386598Y-185679042D01*
X190386598Y-185679042D02*
X190386598Y-185607614D01*
X190386598Y-185607614D02*
X190458026Y-185464757D01*
X190458026Y-185464757D02*
X190600884Y-185393328D01*
X190600884Y-185393328D02*
X190815169Y-185393328D01*
X190815169Y-185393328D02*
X190958026Y-185464757D01*
X192315170Y-186393328D02*
X192315170Y-185607614D01*
X192315170Y-185607614D02*
X192243741Y-185464757D01*
X192243741Y-185464757D02*
X192100884Y-185393328D01*
X192100884Y-185393328D02*
X191815170Y-185393328D01*
X191815170Y-185393328D02*
X191672312Y-185464757D01*
X192315170Y-186321900D02*
X192172312Y-186393328D01*
X192172312Y-186393328D02*
X191815170Y-186393328D01*
X191815170Y-186393328D02*
X191672312Y-186321900D01*
X191672312Y-186321900D02*
X191600884Y-186179042D01*
X191600884Y-186179042D02*
X191600884Y-186036185D01*
X191600884Y-186036185D02*
X191672312Y-185893328D01*
X191672312Y-185893328D02*
X191815170Y-185821900D01*
X191815170Y-185821900D02*
X192172312Y-185821900D01*
X192172312Y-185821900D02*
X192315170Y-185750471D01*
X192886598Y-185393328D02*
X193243741Y-186393328D01*
X193243741Y-186393328D02*
X193600884Y-185393328D01*
X194743741Y-186321900D02*
X194600884Y-186393328D01*
X194600884Y-186393328D02*
X194315170Y-186393328D01*
X194315170Y-186393328D02*
X194172312Y-186321900D01*
X194172312Y-186321900D02*
X194100884Y-186179042D01*
X194100884Y-186179042D02*
X194100884Y-185607614D01*
X194100884Y-185607614D02*
X194172312Y-185464757D01*
X194172312Y-185464757D02*
X194315170Y-185393328D01*
X194315170Y-185393328D02*
X194600884Y-185393328D01*
X194600884Y-185393328D02*
X194743741Y-185464757D01*
X194743741Y-185464757D02*
X194815170Y-185607614D01*
X194815170Y-185607614D02*
X194815170Y-185750471D01*
X194815170Y-185750471D02*
X194100884Y-185893328D01*
X195458026Y-185821900D02*
X196600884Y-185821900D01*
X197315169Y-185607614D02*
X197815169Y-185607614D01*
X198029455Y-186393328D02*
X197315169Y-186393328D01*
X197315169Y-186393328D02*
X197315169Y-184893328D01*
X197315169Y-184893328D02*
X198029455Y-184893328D01*
X198672312Y-186393328D02*
X198672312Y-184893328D01*
X198672312Y-184893328D02*
X199029455Y-184893328D01*
X199029455Y-184893328D02*
X199243741Y-184964757D01*
X199243741Y-184964757D02*
X199386598Y-185107614D01*
X199386598Y-185107614D02*
X199458027Y-185250471D01*
X199458027Y-185250471D02*
X199529455Y-185536185D01*
X199529455Y-185536185D02*
X199529455Y-185750471D01*
X199529455Y-185750471D02*
X199458027Y-186036185D01*
X199458027Y-186036185D02*
X199386598Y-186179042D01*
X199386598Y-186179042D02*
X199243741Y-186321900D01*
X199243741Y-186321900D02*
X199029455Y-186393328D01*
X199029455Y-186393328D02*
X198672312Y-186393328D01*
X200172312Y-186393328D02*
X200172312Y-184893328D01*
X200172312Y-184893328D02*
X200672312Y-185964757D01*
X200672312Y-185964757D02*
X201172312Y-184893328D01*
X201172312Y-184893328D02*
X201172312Y-186393328D01*
X201743741Y-184893328D02*
X202743741Y-186393328D01*
X202743741Y-184893328D02*
X201743741Y-186393328D01*
X203315169Y-186250471D02*
X203386598Y-186321900D01*
X203386598Y-186321900D02*
X203315169Y-186393328D01*
X203315169Y-186393328D02*
X203243741Y-186321900D01*
X203243741Y-186321900D02*
X203315169Y-186250471D01*
X203315169Y-186250471D02*
X203315169Y-186393328D01*
X204029455Y-186393328D02*
X204029455Y-184893328D01*
X204172313Y-185821900D02*
X204600884Y-186393328D01*
X204600884Y-185393328D02*
X204029455Y-185964757D01*
X205243741Y-186393328D02*
X205243741Y-185393328D01*
X205243741Y-184893328D02*
X205172313Y-184964757D01*
X205172313Y-184964757D02*
X205243741Y-185036185D01*
X205243741Y-185036185D02*
X205315170Y-184964757D01*
X205315170Y-184964757D02*
X205243741Y-184893328D01*
X205243741Y-184893328D02*
X205243741Y-185036185D01*
X206600885Y-186321900D02*
X206458027Y-186393328D01*
X206458027Y-186393328D02*
X206172313Y-186393328D01*
X206172313Y-186393328D02*
X206029456Y-186321900D01*
X206029456Y-186321900D02*
X205958027Y-186250471D01*
X205958027Y-186250471D02*
X205886599Y-186107614D01*
X205886599Y-186107614D02*
X205886599Y-185679042D01*
X205886599Y-185679042D02*
X205958027Y-185536185D01*
X205958027Y-185536185D02*
X206029456Y-185464757D01*
X206029456Y-185464757D02*
X206172313Y-185393328D01*
X206172313Y-185393328D02*
X206458027Y-185393328D01*
X206458027Y-185393328D02*
X206600885Y-185464757D01*
X207886599Y-186393328D02*
X207886599Y-185607614D01*
X207886599Y-185607614D02*
X207815170Y-185464757D01*
X207815170Y-185464757D02*
X207672313Y-185393328D01*
X207672313Y-185393328D02*
X207386599Y-185393328D01*
X207386599Y-185393328D02*
X207243741Y-185464757D01*
X207886599Y-186321900D02*
X207743741Y-186393328D01*
X207743741Y-186393328D02*
X207386599Y-186393328D01*
X207386599Y-186393328D02*
X207243741Y-186321900D01*
X207243741Y-186321900D02*
X207172313Y-186179042D01*
X207172313Y-186179042D02*
X207172313Y-186036185D01*
X207172313Y-186036185D02*
X207243741Y-185893328D01*
X207243741Y-185893328D02*
X207386599Y-185821900D01*
X207386599Y-185821900D02*
X207743741Y-185821900D01*
X207743741Y-185821900D02*
X207886599Y-185750471D01*
X209243742Y-186393328D02*
X209243742Y-184893328D01*
X209243742Y-186321900D02*
X209100884Y-186393328D01*
X209100884Y-186393328D02*
X208815170Y-186393328D01*
X208815170Y-186393328D02*
X208672313Y-186321900D01*
X208672313Y-186321900D02*
X208600884Y-186250471D01*
X208600884Y-186250471D02*
X208529456Y-186107614D01*
X208529456Y-186107614D02*
X208529456Y-185679042D01*
X208529456Y-185679042D02*
X208600884Y-185536185D01*
X208600884Y-185536185D02*
X208672313Y-185464757D01*
X208672313Y-185464757D02*
X208815170Y-185393328D01*
X208815170Y-185393328D02*
X209100884Y-185393328D01*
X209100884Y-185393328D02*
X209243742Y-185464757D01*
X209600885Y-186536185D02*
X210743742Y-186536185D01*
X211100884Y-185393328D02*
X211100884Y-186893328D01*
X211100884Y-185464757D02*
X211243742Y-185393328D01*
X211243742Y-185393328D02*
X211529456Y-185393328D01*
X211529456Y-185393328D02*
X211672313Y-185464757D01*
X211672313Y-185464757D02*
X211743742Y-185536185D01*
X211743742Y-185536185D02*
X211815170Y-185679042D01*
X211815170Y-185679042D02*
X211815170Y-186107614D01*
X211815170Y-186107614D02*
X211743742Y-186250471D01*
X211743742Y-186250471D02*
X211672313Y-186321900D01*
X211672313Y-186321900D02*
X211529456Y-186393328D01*
X211529456Y-186393328D02*
X211243742Y-186393328D01*
X211243742Y-186393328D02*
X211100884Y-186321900D01*
X213100885Y-186321900D02*
X212958027Y-186393328D01*
X212958027Y-186393328D02*
X212672313Y-186393328D01*
X212672313Y-186393328D02*
X212529456Y-186321900D01*
X212529456Y-186321900D02*
X212458027Y-186250471D01*
X212458027Y-186250471D02*
X212386599Y-186107614D01*
X212386599Y-186107614D02*
X212386599Y-185679042D01*
X212386599Y-185679042D02*
X212458027Y-185536185D01*
X212458027Y-185536185D02*
X212529456Y-185464757D01*
X212529456Y-185464757D02*
X212672313Y-185393328D01*
X212672313Y-185393328D02*
X212958027Y-185393328D01*
X212958027Y-185393328D02*
X213100885Y-185464757D01*
X213743741Y-186393328D02*
X213743741Y-184893328D01*
X213743741Y-185464757D02*
X213886599Y-185393328D01*
X213886599Y-185393328D02*
X214172313Y-185393328D01*
X214172313Y-185393328D02*
X214315170Y-185464757D01*
X214315170Y-185464757D02*
X214386599Y-185536185D01*
X214386599Y-185536185D02*
X214458027Y-185679042D01*
X214458027Y-185679042D02*
X214458027Y-186107614D01*
X214458027Y-186107614D02*
X214386599Y-186250471D01*
X214386599Y-186250471D02*
X214315170Y-186321900D01*
X214315170Y-186321900D02*
X214172313Y-186393328D01*
X214172313Y-186393328D02*
X213886599Y-186393328D01*
X213886599Y-186393328D02*
X213743741Y-186321900D01*
D10*
D11*
X177002200Y-181507200D02*
X285002200Y-181507200D01*
D10*
D11*
X178386598Y-183621900D02*
X178600884Y-183693328D01*
X178600884Y-183693328D02*
X178958026Y-183693328D01*
X178958026Y-183693328D02*
X179100884Y-183621900D01*
X179100884Y-183621900D02*
X179172312Y-183550471D01*
X179172312Y-183550471D02*
X179243741Y-183407614D01*
X179243741Y-183407614D02*
X179243741Y-183264757D01*
X179243741Y-183264757D02*
X179172312Y-183121900D01*
X179172312Y-183121900D02*
X179100884Y-183050471D01*
X179100884Y-183050471D02*
X178958026Y-182979042D01*
X178958026Y-182979042D02*
X178672312Y-182907614D01*
X178672312Y-182907614D02*
X178529455Y-182836185D01*
X178529455Y-182836185D02*
X178458026Y-182764757D01*
X178458026Y-182764757D02*
X178386598Y-182621900D01*
X178386598Y-182621900D02*
X178386598Y-182479042D01*
X178386598Y-182479042D02*
X178458026Y-182336185D01*
X178458026Y-182336185D02*
X178529455Y-182264757D01*
X178529455Y-182264757D02*
X178672312Y-182193328D01*
X178672312Y-182193328D02*
X179029455Y-182193328D01*
X179029455Y-182193328D02*
X179243741Y-182264757D01*
X179886597Y-183693328D02*
X179886597Y-182193328D01*
X180529455Y-183693328D02*
X180529455Y-182907614D01*
X180529455Y-182907614D02*
X180458026Y-182764757D01*
X180458026Y-182764757D02*
X180315169Y-182693328D01*
X180315169Y-182693328D02*
X180100883Y-182693328D01*
X180100883Y-182693328D02*
X179958026Y-182764757D01*
X179958026Y-182764757D02*
X179886597Y-182836185D01*
X181815169Y-183621900D02*
X181672312Y-183693328D01*
X181672312Y-183693328D02*
X181386598Y-183693328D01*
X181386598Y-183693328D02*
X181243740Y-183621900D01*
X181243740Y-183621900D02*
X181172312Y-183479042D01*
X181172312Y-183479042D02*
X181172312Y-182907614D01*
X181172312Y-182907614D02*
X181243740Y-182764757D01*
X181243740Y-182764757D02*
X181386598Y-182693328D01*
X181386598Y-182693328D02*
X181672312Y-182693328D01*
X181672312Y-182693328D02*
X181815169Y-182764757D01*
X181815169Y-182764757D02*
X181886598Y-182907614D01*
X181886598Y-182907614D02*
X181886598Y-183050471D01*
X181886598Y-183050471D02*
X181172312Y-183193328D01*
X183100883Y-183621900D02*
X182958026Y-183693328D01*
X182958026Y-183693328D02*
X182672312Y-183693328D01*
X182672312Y-183693328D02*
X182529454Y-183621900D01*
X182529454Y-183621900D02*
X182458026Y-183479042D01*
X182458026Y-183479042D02*
X182458026Y-182907614D01*
X182458026Y-182907614D02*
X182529454Y-182764757D01*
X182529454Y-182764757D02*
X182672312Y-182693328D01*
X182672312Y-182693328D02*
X182958026Y-182693328D01*
X182958026Y-182693328D02*
X183100883Y-182764757D01*
X183100883Y-182764757D02*
X183172312Y-182907614D01*
X183172312Y-182907614D02*
X183172312Y-183050471D01*
X183172312Y-183050471D02*
X182458026Y-183193328D01*
X183600883Y-182693328D02*
X184172311Y-182693328D01*
X183815168Y-182193328D02*
X183815168Y-183479042D01*
X183815168Y-183479042D02*
X183886597Y-183621900D01*
X183886597Y-183621900D02*
X184029454Y-183693328D01*
X184029454Y-183693328D02*
X184172311Y-183693328D01*
X184672311Y-183550471D02*
X184743740Y-183621900D01*
X184743740Y-183621900D02*
X184672311Y-183693328D01*
X184672311Y-183693328D02*
X184600883Y-183621900D01*
X184600883Y-183621900D02*
X184672311Y-183550471D01*
X184672311Y-183550471D02*
X184672311Y-183693328D01*
X184672311Y-182764757D02*
X184743740Y-182836185D01*
X184743740Y-182836185D02*
X184672311Y-182907614D01*
X184672311Y-182907614D02*
X184600883Y-182836185D01*
X184600883Y-182836185D02*
X184672311Y-182764757D01*
X184672311Y-182764757D02*
X184672311Y-182907614D01*
D10*
D11*
X197002200Y-191507200D02*
X197002200Y-194507200D01*
D10*
D11*
X261002200Y-191507200D02*
X261002200Y-198007200D01*
D14*
%TO.N,Net-(D5-DOUT)*%
X144000000Y-111000000D02*
X141000000Y-108000000D01*
%TO.N,Net-(D4-DOUT)*%
X152000000Y-111000000D02*
X149000000Y-108000000D01*
D15*
X152500000Y-111000000D02*
X152000000Y-111000000D01*
%TD*%
D16*
%TO.P,D1,1,K*%
%TO.N,VBUS*%
X159920000Y-120500000D03*
D17*
%TO.P,D1,2,A*%
X170080000Y-120500000D03*
%TD*%
D18*
%TO.P,U1,1,RO*%
%TO.N,/5V*%
X105700000Y-69200000D03*
D19*
%TO.P,U1,2,~{RE}*%
%TO.N,TX{slash}RX Control*%
X105700000Y-71740000D03*
%TO.P,U1,3,DE*%
X105700000Y-74280000D03*
%TO.P,U1,4,DI*%
%TO.N,TX*%
X105700000Y-76820000D03*
%TO.P,U1,5,GND*%
%TO.N,GND*%
X113320000Y-76820000D03*
%TO.P,U1,6,A*%
%TO.N,Net-(D3-A1)*%
X113320000Y-74280000D03*
%TO.P,U1,7*%
%TO.N,N/C*%
X113320000Y-71740000D03*
%TO.P,U1,8,VCC*%
%TO.N,VBUS*%
X113320000Y-69200000D03*
%TD*%
D20*
%TO.P,U2,1,GPIO2/A0/D0*%
%TO.N,unconnected-(U2-GPIO2{slash}A0{slash}D0-Pad1)*%
X180200000Y-96425000D03*
D21*
X180200000Y-97260000D03*
D20*
%TO.P,U2,2,GPIO3/A1/D1*%
%TO.N,unconnected-(U2-GPIO3{slash}A1{slash}D1-Pad2)*%
X177660000Y-96425000D03*
D21*
X177660000Y-97260000D03*
D20*
%TO.P,U2,3,GPIO4/A2/D2*%
%TO.N,TX{slash}RX Control*%
X175120000Y-96425000D03*
D21*
X175120000Y-97260000D03*
D20*
%TO.P,U2,4,GPIO5/A3/D3*%
%TO.N,TERM CONTROL*%
X172580000Y-96425000D03*
D21*
X172580000Y-97260000D03*
D20*
%TO.P,U2,5,GPIO6/D4/SDA*%
%TO.N,SDA*%
X170040000Y-96425000D03*
D21*
X170040000Y-97260000D03*
D20*
%TO.P,U2,6,GPIO7/D5/SCL*%
%TO.N,SCL*%
X167500000Y-96425000D03*
D21*
X167500000Y-97260000D03*
D20*
%TO.P,U2,7,GPIO21/D6/TX*%
%TO.N,TX*%
X164960000Y-96425000D03*
D21*
X164960000Y-97260000D03*
%TO.P,U2,8,GPIO20/D7/RX*%
%TO.N,RX*%
X164960000Y-112500000D03*
D22*
X164960000Y-113335000D03*
D21*
%TO.P,U2,9,GPIO8/D8/SCK*%
%TO.N,STATUS LIGHTS*%
X167500000Y-112500000D03*
D22*
X167500000Y-113335000D03*
D21*
%TO.P,U2,10,GPIO9/D9/MISO*%
%TO.N,unconnected-(U2-GPIO9{slash}D9{slash}MISO-Pad10)*%
X170040000Y-112500000D03*
D22*
X170040000Y-113335000D03*
D21*
%TO.P,U2,11,GPIO10/D10/MOSI*%
%TO.N,unconnected-(U2-GPIO10{slash}D10{slash}MOSI-Pad11)*%
X172580000Y-112500000D03*
D22*
X172580000Y-113335000D03*
D21*
%TO.P,U2,12,VCC_3V3*%
%TO.N,VCC*%
X175120000Y-112500000D03*
D22*
X175120000Y-113335000D03*
D21*
%TO.P,U2,13,GND*%
%TO.N,GND*%
X177660000Y-112500000D03*
D22*
X177660000Y-113335000D03*
D21*
%TO.P,U2,14,VBUS*%
%TO.N,VBUS*%
X180200000Y-112500000D03*
D22*
X180200000Y-113335000D03*
%TD*%
D23*
%TO.P,Q1,1,E*%
%TO.N,Net-(Q1-E)*%
X135770000Y-85140000D03*
D24*
%TO.P,Q1,2,B*%
%TO.N,TERM CONTROL*%
X134500000Y-85140000D03*
%TO.P,Q1,3,C*%
%TO.N,Net-(D3-A1)*%
X133230000Y-85140000D03*
%TD*%
D25*
%TO.P,J1,1*%
%TO.N,GND*%
X172530000Y-67000000D03*
%TO.P,J1,2*%
%TO.N,Net-(J1-Pad2)*%
X172530000Y-59380000D03*
D26*
%TO.P,J1,3*%
%TO.N,Net-(J1-Pad3)*%
X172530000Y-63190000D03*
%TO.P,J1,G*%
%TO.N,GND*%
X177610000Y-63190000D03*
%TD*%
D27*
%TO.P,R4,1*%
%TO.N,Net-(J1-Pad2)*%
X149500000Y-67310000D03*
D19*
%TO.P,R4,2*%
%TO.N,Net-(D2-A1)*%
X149500000Y-59690000D03*
%TD*%
D27*
%TO.P,R1,1*%
%TO.N,/5V*%
X89810000Y-68500000D03*
D19*
%TO.P,R1,2*%
%TO.N,RX*%
X89810000Y-76120000D03*
%TD*%
D28*
%TO.P,J2,1,Pin_1*%
%TO.N,GND*%
X112615000Y-88305000D03*
D29*
%TO.P,J2,2,Pin_2*%
%TO.N,VCC*%
X112615000Y-90845000D03*
%TO.P,J2,3,Pin_3*%
%TO.N,SCL*%
X112615000Y-93385000D03*
%TO.P,J2,4,Pin_4*%
%TO.N,SDA*%
X112615000Y-95925000D03*
%TD*%
D27*
%TO.P,R5,1*%
%TO.N,Net-(J1-Pad3)*%
X160000000Y-63380000D03*
D19*
%TO.P,R5,2*%
%TO.N,Net-(D3-A1)*%
X160000000Y-71000000D03*
%TD*%
D27*
%TO.P,R2,1*%
%TO.N,/5V*%
X100310000Y-66000000D03*
D19*
%TO.P,R2,2*%
%TO.N,GND*%
X92690000Y-66000000D03*
%TD*%
D30*
%TO.P,D3,1,A1*%
%TO.N,Net-(D3-A1)*%
X160000000Y-75380000D03*
D31*
%TO.P,D3,2,A2*%
%TO.N,GND*%
X160000000Y-90620000D03*
%TD*%
D32*
%TO.P,D6,1,VDD*%
%TO.N,VBUS*%
X136100000Y-108000000D03*
%TO.P,D6,2,DOUT*%
%TO.N,unconnected-(D6-DOUT-Pad2)*%
X136100000Y-111300000D03*
%TO.P,D6,3,VSS*%
%TO.N,GND*%
X141000000Y-111300000D03*
%TO.P,D6,4,DIN*%
%TO.N,Net-(D5-DOUT)*%
X141000000Y-108000000D03*
%TD*%
%TO.P,D4,1,VDD*%
%TO.N,VBUS*%
X152050000Y-107700000D03*
%TO.P,D4,2,DOUT*%
%TO.N,Net-(D4-DOUT)*%
X152050000Y-111000000D03*
%TO.P,D4,3,VSS*%
%TO.N,GND*%
X156950000Y-111000000D03*
%TO.P,D4,4,DIN*%
%TO.N,STATUS LIGHTS*%
X156950000Y-107700000D03*
%TD*%
D25*
%TO.P,J3,1*%
%TO.N,GND*%
X67800000Y-66960000D03*
%TO.P,J3,2*%
%TO.N,Net-(J1-Pad2)*%
X68435000Y-59340000D03*
D26*
%TO.P,J3,3*%
%TO.N,Net-(J1-Pad3)*%
X72250000Y-63150000D03*
%TO.P,J3,G*%
%TO.N,GND*%
X62080000Y-71400000D03*
%TD*%
D30*
%TO.P,D2,1,A1*%
%TO.N,Net-(D2-A1)*%
X149500000Y-71880000D03*
D31*
%TO.P,D2,2,A2*%
%TO.N,GND*%
X149500000Y-87120000D03*
%TD*%
D27*
%TO.P,R3,1*%
%TO.N,Net-(Q1-E)*%
X136000000Y-79810000D03*
D19*
%TO.P,R3,2*%
%TO.N,Net-(D2-A1)*%
X136000000Y-72190000D03*
%TD*%
D32*
%TO.P,D5,1,VDD*%
%TO.N,VBUS*%
X144100000Y-107850000D03*
%TO.P,D5,2,DOUT*%
%TO.N,Net-(D5-DOUT)*%
X144100000Y-111150000D03*
%TO.P,D5,3,VSS*%
%TO.N,GND*%
X149000000Y-111150000D03*
%TO.P,D5,4,DIN*%
%TO.N,Net-(D4-DOUT)*%
X149000000Y-107850000D03*
%TD*%
D33*
%TO.N,VBUS*%
X158500000Y-106000000D03*
%TD*%
D34*
%TO.N,STATUS LIGHTS*%
X156950000Y-107700000D02*
X162700000Y-107700000D01*
X162700000Y-107700000D02*
X167500000Y-112500000D01*
D35*
%TO.N,Net-(D2-A1)*%
X149500000Y-67310000D02*
X149500000Y-71880000D01*
D15*
%TO.N,GND*%
X66520000Y-66960000D02*
X67800000Y-66960000D01*
X173800000Y-67000000D02*
X172530000Y-67000000D01*
D35*
%TO.N,Net-(D3-A1)*%
X160000000Y-71000000D02*
X160000000Y-75380000D01*
D36*
%TO.N,Net-(J1-Pad3)*%
X160000000Y-63380000D02*
X158880000Y-63380000D01*
D15*
X160190000Y-63190000D02*
X160000000Y-63380000D01*
D36*
X158880000Y-63380000D02*
X158500000Y-63000000D01*
X158350000Y-63150000D02*
X72250000Y-63150000D01*
X158500000Y-63000000D02*
X158350000Y-63150000D01*
X172530000Y-63190000D02*
X160190000Y-63190000D01*
D15*
%TO.N,Net-(J1-Pad2)*%
X149810000Y-59380000D02*
X149500000Y-59690000D01*
X149190000Y-59690000D02*
X148840000Y-59340000D01*
D36*
X172530000Y-59380000D02*
X149810000Y-59380000D01*
X148840000Y-59340000D02*
X68435000Y-59340000D01*
D15*
X149500000Y-59690000D02*
X149190000Y-59690000D01*
%TO.N,SDA*%
X179052214Y-116800000D02*
X181262000Y-114590214D01*
X113925000Y-95925000D02*
X134800000Y-116800000D01*
X112615000Y-95925000D02*
X113925000Y-95925000D01*
X181262000Y-114590214D02*
X181262000Y-108482000D01*
X181262000Y-108482000D02*
X170040000Y-97260000D01*
X134800000Y-116800000D02*
X179052214Y-116800000D01*
%TO.N,VBUS*%
X136000000Y-106500000D02*
X136100000Y-106600000D01*
D14*
X152050000Y-107700000D02*
X152050000Y-106550000D01*
X144100000Y-106600000D02*
X144100000Y-107850000D01*
X136100000Y-106600000D02*
X136100000Y-108000000D01*
D15*
X144000000Y-106500000D02*
X144100000Y-106600000D01*
D14*
X152000000Y-106500000D02*
X144000000Y-106500000D01*
D15*
X152050000Y-106550000D02*
X152000000Y-106500000D01*
D14*
X153750000Y-106000000D02*
X152050000Y-107700000D01*
X144000000Y-106500000D02*
X136000000Y-106500000D01*
X158500000Y-106000000D02*
X153750000Y-106000000D01*
D15*
%TO.N,SCL*%
X179000000Y-112000000D02*
X177000000Y-110000000D01*
X177665686Y-116400000D02*
X179000000Y-115065686D01*
X167500000Y-106000000D02*
X167500000Y-97260000D01*
X171500000Y-110000000D02*
X167500000Y-106000000D01*
X179000000Y-115065686D02*
X179000000Y-112000000D01*
X135630000Y-116400000D02*
X177665686Y-116400000D01*
X112615000Y-93385000D02*
X135630000Y-116400000D01*
X177000000Y-110000000D02*
X171500000Y-110000000D01*
%TD*%
%TA.AperFunction,Conductor*%
%TO.N,GND*%
G36*
X192877960Y-50499562D02*
G01*
X192944928Y-50519487D01*
X192990493Y-50572454D01*
X193001506Y-50622030D01*
X193490863Y-90259963D01*
X193490806Y-90265551D01*
X193481434Y-90551841D01*
X193480903Y-90559938D01*
X193427184Y-91105364D01*
X193426125Y-91113409D01*
X193338418Y-91644632D01*
X193336372Y-91654507D01*
X193154649Y-92381397D01*
X193153012Y-92387318D01*
X193049608Y-92728198D01*
X193046999Y-92735882D01*
X192914257Y-93088566D01*
X192892353Y-93125585D01*
X190022352Y-96473922D01*
X189967416Y-96510861D01*
X183999999Y-98500000D01*
X184485013Y-120325618D01*
X184484926Y-120333780D01*
X184482614Y-120386749D01*
X184481671Y-120397527D01*
X184431849Y-120775957D01*
X184429971Y-120786610D01*
X184347355Y-121159269D01*
X184344555Y-121169719D01*
X184289580Y-121344075D01*
X184277648Y-121370584D01*
X183215291Y-123141180D01*
X183200385Y-123161156D01*
X183185284Y-123177636D01*
X183177634Y-123185285D01*
X182896217Y-123443156D01*
X182887930Y-123450110D01*
X182703420Y-123591689D01*
X182667146Y-123610950D01*
X180020587Y-124493137D01*
X179981375Y-124499500D01*
X135002893Y-124499500D01*
X134997123Y-124499366D01*
X134680436Y-124484613D01*
X134668946Y-124483540D01*
X134485755Y-124457790D01*
X134422108Y-124428965D01*
X134419502Y-124426657D01*
X129234051Y-119702135D01*
X158669500Y-119702135D01*
X158669500Y-121297870D01*
X158669501Y-121297876D01*
X158675908Y-121357483D01*
X158726202Y-121492328D01*
X158726206Y-121492335D01*
X158812452Y-121607544D01*
X158812455Y-121607547D01*
X158927664Y-121693793D01*
X158927671Y-121693797D01*
X159062517Y-121744091D01*
X159062516Y-121744091D01*
X159069444Y-121744835D01*
X159122127Y-121750500D01*
X160717872Y-121750499D01*
X160777483Y-121744091D01*
X160912331Y-121693796D01*
X161027546Y-121607546D01*
X161113796Y-121492331D01*
X161164091Y-121357483D01*
X161170500Y-121297873D01*
X161170499Y-120499997D01*
X168824723Y-120499997D01*
X168824723Y-120500002D01*
X168843793Y-120717975D01*
X168843793Y-120717979D01*
X168900422Y-120929322D01*
X168900424Y-120929326D01*
X168900425Y-120929330D01*
X168946661Y-121028484D01*
X168992897Y-121127638D01*
X169015046Y-121159269D01*
X169118402Y-121306877D01*
X169273123Y-121461598D01*
X169452361Y-121587102D01*
X169650670Y-121679575D01*
X169862023Y-121736207D01*
X170044926Y-121752208D01*
X170079998Y-121755277D01*
X170080000Y-121755277D01*
X170080002Y-121755277D01*
X170108254Y-121752805D01*
X170297977Y-121736207D01*
X170509330Y-121679575D01*
X170707639Y-121587102D01*
X170886877Y-121461598D01*
X171041598Y-121306877D01*
X171167102Y-121127639D01*
X171259575Y-120929330D01*
X171316207Y-120717977D01*
X171335277Y-120500000D01*
X171316207Y-120282023D01*
X171259575Y-120070670D01*
X171167102Y-119872362D01*
X171167100Y-119872359D01*
X171167099Y-119872357D01*
X171041599Y-119693124D01*
X170990991Y-119642516D01*
X170886877Y-119538402D01*
X170707639Y-119412898D01*
X170707640Y-119412898D01*
X170707638Y-119412897D01*
X170608484Y-119366661D01*
X170509330Y-119320425D01*
X170509326Y-119320424D01*
X170509322Y-119320422D01*
X170297977Y-119263793D01*
X170080002Y-119244723D01*
X170079998Y-119244723D01*
X169952151Y-119255908D01*
X169862023Y-119263793D01*
X169862020Y-119263793D01*
X169650677Y-119320422D01*
X169650668Y-119320426D01*
X169452361Y-119412898D01*
X169452357Y-119412900D01*
X169273121Y-119538402D01*
X169118402Y-119693121D01*
X168992900Y-119872357D01*
X168992898Y-119872361D01*
X168900426Y-120070668D01*
X168900422Y-120070677D01*
X168843793Y-120282020D01*
X168843793Y-120282024D01*
X168824723Y-120499997D01*
X161170499Y-120499997D01*
X161170499Y-119702128D01*
X161164091Y-119642517D01*
X161113796Y-119507669D01*
X161113795Y-119507668D01*
X161113793Y-119507664D01*
X161027547Y-119392455D01*
X161027544Y-119392452D01*
X160912335Y-119306206D01*
X160912328Y-119306202D01*
X160777482Y-119255908D01*
X160777483Y-119255908D01*
X160717883Y-119249501D01*
X160717881Y-119249500D01*
X160717873Y-119249500D01*
X160717864Y-119249500D01*
X159122129Y-119249500D01*
X159122123Y-119249501D01*
X159062516Y-119255908D01*
X158927671Y-119306202D01*
X158927664Y-119306206D01*
X158812455Y-119392452D01*
X158812452Y-119392455D01*
X158726206Y-119507664D01*
X158726202Y-119507671D01*
X158675908Y-119642517D01*
X158670468Y-119693121D01*
X158669501Y-119702123D01*
X158669500Y-119702135D01*
X129234051Y-119702135D01*
X112000000Y-104000000D01*
X53618380Y-103002023D01*
X53551686Y-102981195D01*
X53506841Y-102927617D01*
X53496553Y-102881655D01*
X53145971Y-90844999D01*
X111259341Y-90844999D01*
X111259341Y-90845000D01*
X111279936Y-91080403D01*
X111279938Y-91080413D01*
X111341094Y-91308655D01*
X111341096Y-91308659D01*
X111341097Y-91308663D01*
X111385172Y-91403181D01*
X111440965Y-91522830D01*
X111440967Y-91522834D01*
X111576501Y-91716395D01*
X111576506Y-91716402D01*
X111743597Y-91883493D01*
X111743603Y-91883498D01*
X111929158Y-92013425D01*
X111972783Y-92068002D01*
X111979977Y-92137500D01*
X111948454Y-92199855D01*
X111929158Y-92216575D01*
X111743597Y-92346505D01*
X111576505Y-92513597D01*
X111440965Y-92707169D01*
X111440964Y-92707171D01*
X111341098Y-92921335D01*
X111341094Y-92921344D01*
X111279938Y-93149586D01*
X111279936Y-93149596D01*
X111259341Y-93384999D01*
X111259341Y-93385000D01*
X111279936Y-93620403D01*
X111279938Y-93620413D01*
X111341094Y-93848655D01*
X111341096Y-93848659D01*
X111341097Y-93848663D01*
X111350362Y-93868531D01*
X111440965Y-94062830D01*
X111440967Y-94062834D01*
X111576501Y-94256395D01*
X111576506Y-94256402D01*
X111743597Y-94423493D01*
X111743603Y-94423498D01*
X111929158Y-94553425D01*
X111972783Y-94608002D01*
X111979977Y-94677500D01*
X111948454Y-94739855D01*
X111929158Y-94756575D01*
X111743597Y-94886505D01*
X111576505Y-95053597D01*
X111440965Y-95247169D01*
X111440964Y-95247171D01*
X111341098Y-95461335D01*
X111341094Y-95461344D01*
X111279938Y-95689586D01*
X111279936Y-95689596D01*
X111259341Y-95924999D01*
X111259341Y-95925000D01*
X111279936Y-96160403D01*
X111279938Y-96160413D01*
X111341094Y-96388655D01*
X111341096Y-96388659D01*
X111341097Y-96388663D01*
X111341843Y-96390262D01*
X111440965Y-96602830D01*
X111440967Y-96602834D01*
X111504738Y-96693907D01*
X111576505Y-96796401D01*
X111743599Y-96963495D01*
X111840384Y-97031265D01*
X111937165Y-97099032D01*
X111937167Y-97099033D01*
X111937170Y-97099035D01*
X112151337Y-97198903D01*
X112379592Y-97260063D01*
X112567918Y-97276539D01*
X112614999Y-97280659D01*
X112615000Y-97280659D01*
X112615001Y-97280659D01*
X112654234Y-97277226D01*
X112850408Y-97260063D01*
X113078663Y-97198903D01*
X113292830Y-97099035D01*
X113486401Y-96963495D01*
X113653495Y-96796401D01*
X113689677Y-96744726D01*
X113744252Y-96701102D01*
X113813750Y-96693907D01*
X113876105Y-96725428D01*
X113878933Y-96728168D01*
X134315139Y-117164374D01*
X134315149Y-117164385D01*
X134319479Y-117168715D01*
X134319480Y-117168716D01*
X134431284Y-117280520D01*
X134518095Y-117330639D01*
X134518097Y-117330641D01*
X134556151Y-117352611D01*
X134568215Y-117359577D01*
X134720943Y-117400500D01*
X178965545Y-117400500D01*
X178965561Y-117400501D01*
X178973157Y-117400501D01*
X179131268Y-117400501D01*
X179131271Y-117400501D01*
X179283999Y-117359577D01*
X179334118Y-117330639D01*
X179420930Y-117280520D01*
X179532734Y-117168716D01*
X179532734Y-117168714D01*
X179542942Y-117158507D01*
X179542944Y-117158504D01*
X181620506Y-115080942D01*
X181620511Y-115080938D01*
X181630714Y-115070734D01*
X181630716Y-115070734D01*
X181742520Y-114958930D01*
X181821577Y-114821998D01*
X181862500Y-114669271D01*
X181862500Y-108571060D01*
X181862501Y-108571047D01*
X181862501Y-108402944D01*
X181846067Y-108341613D01*
X181821577Y-108250216D01*
X181821573Y-108250209D01*
X181742524Y-108113290D01*
X181742518Y-108113282D01*
X172356862Y-98727626D01*
X172323377Y-98666303D01*
X172328361Y-98596611D01*
X172370233Y-98540678D01*
X172435697Y-98516261D01*
X172455339Y-98516416D01*
X172568767Y-98526340D01*
X172579999Y-98527323D01*
X172580000Y-98527323D01*
X172580002Y-98527323D01*
X172635017Y-98522509D01*
X172800068Y-98508070D01*
X173013450Y-98450894D01*
X173213662Y-98357534D01*
X173394620Y-98230826D01*
X173550826Y-98074620D01*
X173600443Y-98003756D01*
X173614327Y-97987210D01*
X173709592Y-97891947D01*
X173743268Y-97835003D01*
X173794337Y-97787321D01*
X173863079Y-97774817D01*
X173927668Y-97801462D01*
X173956732Y-97835004D01*
X173990405Y-97891943D01*
X173990408Y-97891947D01*
X174085669Y-97987208D01*
X174099558Y-98003761D01*
X174149170Y-98074615D01*
X174149175Y-98074621D01*
X174305378Y-98230824D01*
X174305384Y-98230829D01*
X174486333Y-98357531D01*
X174486335Y-98357532D01*
X174486338Y-98357534D01*
X174686550Y-98450894D01*
X174899932Y-98508070D01*
X175046743Y-98520914D01*
X175119998Y-98527323D01*
X175120000Y-98527323D01*
X175120002Y-98527323D01*
X175175017Y-98522509D01*
X175340068Y-98508070D01*
X175553450Y-98450894D01*
X175753662Y-98357534D01*
X175934620Y-98230826D01*
X176090826Y-98074620D01*
X176140443Y-98003756D01*
X176154327Y-97987210D01*
X176249592Y-97891947D01*
X176283268Y-97835003D01*
X176334337Y-97787321D01*
X176403079Y-97774817D01*
X176467668Y-97801462D01*
X176496732Y-97835004D01*
X176530405Y-97891943D01*
X176530408Y-97891947D01*
X176625669Y-97987208D01*
X176639558Y-98003761D01*
X176689170Y-98074615D01*
X176689175Y-98074621D01*
X176845378Y-98230824D01*
X176845384Y-98230829D01*
X177026333Y-98357531D01*
X177026335Y-98357532D01*
X177026338Y-98357534D01*
X177226550Y-98450894D01*
X177439932Y-98508070D01*
X177586743Y-98520914D01*
X177659998Y-98527323D01*
X177660000Y-98527323D01*
X177660002Y-98527323D01*
X177715017Y-98522509D01*
X177880068Y-98508070D01*
X178093450Y-98450894D01*
X178293662Y-98357534D01*
X178474620Y-98230826D01*
X178630826Y-98074620D01*
X178680443Y-98003756D01*
X178694327Y-97987210D01*
X178789592Y-97891947D01*
X178823268Y-97835003D01*
X178874337Y-97787321D01*
X178943079Y-97774817D01*
X179007668Y-97801462D01*
X179036732Y-97835004D01*
X179070405Y-97891943D01*
X179070408Y-97891947D01*
X179165669Y-97987208D01*
X179179558Y-98003761D01*
X179229170Y-98074615D01*
X179229175Y-98074621D01*
X179385378Y-98230824D01*
X179385384Y-98230829D01*
X179566333Y-98357531D01*
X179566335Y-98357532D01*
X179566338Y-98357534D01*
X179766550Y-98450894D01*
X179979932Y-98508070D01*
X180126743Y-98520914D01*
X180199998Y-98527323D01*
X180200000Y-98527323D01*
X180200002Y-98527323D01*
X180255017Y-98522509D01*
X180420068Y-98508070D01*
X180633450Y-98450894D01*
X180833662Y-98357534D01*
X181014620Y-98230826D01*
X181170826Y-98074620D01*
X181220443Y-98003756D01*
X181234327Y-97987210D01*
X181329592Y-97891947D01*
X181413564Y-97749959D01*
X181459587Y-97591548D01*
X181462500Y-97554534D01*
X181462500Y-97320540D01*
X181462972Y-97309732D01*
X181467323Y-97260000D01*
X181467323Y-97259997D01*
X181462972Y-97210265D01*
X181462500Y-97199458D01*
X181462500Y-95295473D01*
X181462499Y-95295458D01*
X181459587Y-95258453D01*
X181459586Y-95258447D01*
X181413565Y-95100045D01*
X181413564Y-95100042D01*
X181413564Y-95100041D01*
X181329592Y-94958053D01*
X181329590Y-94958051D01*
X181329587Y-94958047D01*
X181212952Y-94841412D01*
X181212943Y-94841405D01*
X181070957Y-94757435D01*
X181070954Y-94757434D01*
X180912552Y-94711413D01*
X180912546Y-94711412D01*
X180875541Y-94708500D01*
X180875534Y-94708500D01*
X179524466Y-94708500D01*
X179524458Y-94708500D01*
X179487453Y-94711412D01*
X179487447Y-94711413D01*
X179329045Y-94757434D01*
X179329042Y-94757435D01*
X179187056Y-94841405D01*
X179187047Y-94841412D01*
X179070412Y-94958047D01*
X179070408Y-94958053D01*
X179036732Y-95014996D01*
X178985662Y-95062679D01*
X178916921Y-95075182D01*
X178852331Y-95048536D01*
X178823268Y-95014996D01*
X178789592Y-94958053D01*
X178789589Y-94958050D01*
X178789587Y-94958047D01*
X178672952Y-94841412D01*
X178672943Y-94841405D01*
X178530957Y-94757435D01*
X178530954Y-94757434D01*
X178372552Y-94711413D01*
X178372546Y-94711412D01*
X178335541Y-94708500D01*
X178335534Y-94708500D01*
X176984466Y-94708500D01*
X176984458Y-94708500D01*
X176947453Y-94711412D01*
X176947447Y-94711413D01*
X176789045Y-94757434D01*
X176789042Y-94757435D01*
X176647056Y-94841405D01*
X176647047Y-94841412D01*
X176530412Y-94958047D01*
X176530408Y-94958053D01*
X176496732Y-95014996D01*
X176445662Y-95062679D01*
X176376921Y-95075182D01*
X176312331Y-95048536D01*
X176283268Y-95014996D01*
X176249592Y-94958053D01*
X176249589Y-94958050D01*
X176249587Y-94958047D01*
X176132952Y-94841412D01*
X176132943Y-94841405D01*
X175990957Y-94757435D01*
X175990954Y-94757434D01*
X175832552Y-94711413D01*
X175832546Y-94711412D01*
X175795541Y-94708500D01*
X175795534Y-94708500D01*
X174444466Y-94708500D01*
X174444458Y-94708500D01*
X174407453Y-94711412D01*
X174407447Y-94711413D01*
X174249045Y-94757434D01*
X174249042Y-94757435D01*
X174107056Y-94841405D01*
X174107047Y-94841412D01*
X173990412Y-94958047D01*
X173990408Y-94958053D01*
X173956732Y-95014996D01*
X173905662Y-95062679D01*
X173836921Y-95075182D01*
X173772331Y-95048536D01*
X173743268Y-95014996D01*
X173709592Y-94958053D01*
X173709589Y-94958050D01*
X173709587Y-94958047D01*
X173592952Y-94841412D01*
X173592943Y-94841405D01*
X173450957Y-94757435D01*
X173450954Y-94757434D01*
X173292552Y-94711413D01*
X173292546Y-94711412D01*
X173255541Y-94708500D01*
X173255534Y-94708500D01*
X171904466Y-94708500D01*
X171904458Y-94708500D01*
X171867453Y-94711412D01*
X171867447Y-94711413D01*
X171709045Y-94757434D01*
X171709042Y-94757435D01*
X171567056Y-94841405D01*
X171567047Y-94841412D01*
X171450412Y-94958047D01*
X171450408Y-94958053D01*
X171416732Y-95014996D01*
X171365662Y-95062679D01*
X171296921Y-95075182D01*
X171232331Y-95048536D01*
X171203268Y-95014996D01*
X171169592Y-94958053D01*
X171169589Y-94958050D01*
X171169587Y-94958047D01*
X171052952Y-94841412D01*
X171052943Y-94841405D01*
X170910957Y-94757435D01*
X170910954Y-94757434D01*
X170752552Y-94711413D01*
X170752546Y-94711412D01*
X170715541Y-94708500D01*
X170715534Y-94708500D01*
X169364466Y-94708500D01*
X169364458Y-94708500D01*
X169327453Y-94711412D01*
X169327447Y-94711413D01*
X169169045Y-94757434D01*
X169169042Y-94757435D01*
X169027056Y-94841405D01*
X169027047Y-94841412D01*
X168910412Y-94958047D01*
X168910408Y-94958053D01*
X168876732Y-95014996D01*
X168825662Y-95062679D01*
X168756921Y-95075182D01*
X168692331Y-95048536D01*
X168663268Y-95014996D01*
X168629592Y-94958053D01*
X168629589Y-94958050D01*
X168629587Y-94958047D01*
X168512952Y-94841412D01*
X168512943Y-94841405D01*
X168370957Y-94757435D01*
X168370954Y-94757434D01*
X168212552Y-94711413D01*
X168212546Y-94711412D01*
X168175541Y-94708500D01*
X168175534Y-94708500D01*
X166824466Y-94708500D01*
X166824458Y-94708500D01*
X166787453Y-94711412D01*
X166787447Y-94711413D01*
X166629045Y-94757434D01*
X166629042Y-94757435D01*
X166487056Y-94841405D01*
X166487047Y-94841412D01*
X166370412Y-94958047D01*
X166370408Y-94958053D01*
X166336732Y-95014996D01*
X166285662Y-95062679D01*
X166216921Y-95075182D01*
X166152331Y-95048536D01*
X166123268Y-95014996D01*
X166089592Y-94958053D01*
X166089589Y-94958050D01*
X166089587Y-94958047D01*
X165972952Y-94841412D01*
X165972943Y-94841405D01*
X165830957Y-94757435D01*
X165830954Y-94757434D01*
X165672552Y-94711413D01*
X165672546Y-94711412D01*
X165635541Y-94708500D01*
X165635534Y-94708500D01*
X164284466Y-94708500D01*
X164284458Y-94708500D01*
X164247453Y-94711412D01*
X164247447Y-94711413D01*
X164089045Y-94757434D01*
X164089042Y-94757435D01*
X163947056Y-94841405D01*
X163947047Y-94841412D01*
X163830412Y-94958047D01*
X163830405Y-94958056D01*
X163746435Y-95100042D01*
X163746434Y-95100045D01*
X163700413Y-95258447D01*
X163700412Y-95258453D01*
X163697500Y-95295458D01*
X163697500Y-97199458D01*
X163697028Y-97210265D01*
X163692677Y-97259997D01*
X163692677Y-97260000D01*
X163697028Y-97309732D01*
X163697500Y-97320540D01*
X163697500Y-97554541D01*
X163700412Y-97591546D01*
X163700413Y-97591552D01*
X163746434Y-97749954D01*
X163746435Y-97749957D01*
X163830405Y-97891943D01*
X163830406Y-97891944D01*
X163830408Y-97891947D01*
X163925669Y-97987208D01*
X163939558Y-98003761D01*
X163989170Y-98074615D01*
X163989175Y-98074621D01*
X164145378Y-98230824D01*
X164145384Y-98230829D01*
X164326333Y-98357531D01*
X164326335Y-98357532D01*
X164326338Y-98357534D01*
X164526550Y-98450894D01*
X164739932Y-98508070D01*
X164886743Y-98520914D01*
X164959998Y-98527323D01*
X164960000Y-98527323D01*
X164960002Y-98527323D01*
X165015017Y-98522509D01*
X165180068Y-98508070D01*
X165393450Y-98450894D01*
X165593662Y-98357534D01*
X165774620Y-98230826D01*
X165930826Y-98074620D01*
X165980443Y-98003756D01*
X165994327Y-97987210D01*
X166089592Y-97891947D01*
X166123268Y-97835003D01*
X166174337Y-97787321D01*
X166243079Y-97774817D01*
X166307668Y-97801462D01*
X166336732Y-97835004D01*
X166370405Y-97891943D01*
X166370408Y-97891947D01*
X166465669Y-97987208D01*
X166479558Y-98003761D01*
X166510837Y-98048433D01*
X166529174Y-98074620D01*
X166685380Y-98230826D01*
X166846623Y-98343729D01*
X166890248Y-98398306D01*
X166899500Y-98445304D01*
X166899500Y-105913330D01*
X166899499Y-105913348D01*
X166899499Y-106079054D01*
X166899498Y-106079054D01*
X166940424Y-106231789D01*
X166940425Y-106231790D01*
X166961455Y-106268214D01*
X166961456Y-106268216D01*
X167019475Y-106368709D01*
X167019481Y-106368717D01*
X167138349Y-106487585D01*
X167138355Y-106487590D01*
X171015139Y-110364374D01*
X171015149Y-110364385D01*
X171019479Y-110368715D01*
X171019480Y-110368716D01*
X171131284Y-110480520D01*
X171197677Y-110518851D01*
X171218095Y-110530639D01*
X171218097Y-110530641D01*
X171268213Y-110559576D01*
X171268215Y-110559577D01*
X171420942Y-110600500D01*
X171420943Y-110600500D01*
X176699903Y-110600500D01*
X176766942Y-110620185D01*
X176787584Y-110636819D01*
X177260826Y-111110061D01*
X177294311Y-111171384D01*
X177289327Y-111241076D01*
X177247455Y-111297009D01*
X177225550Y-111310124D01*
X177026590Y-111402901D01*
X176961811Y-111448258D01*
X177575905Y-112062352D01*
X177488429Y-112085792D01*
X177387070Y-112144311D01*
X177304311Y-112227070D01*
X177245792Y-112328429D01*
X177222352Y-112415905D01*
X176602807Y-111796360D01*
X176530810Y-111868357D01*
X176530800Y-111868370D01*
X176497021Y-111925487D01*
X176445952Y-111973170D01*
X176377210Y-111985673D01*
X176312621Y-111959027D01*
X176283558Y-111925486D01*
X176249594Y-111868056D01*
X176249587Y-111868047D01*
X176154334Y-111772794D01*
X176140440Y-111756236D01*
X176090827Y-111685381D01*
X176062987Y-111657541D01*
X175934620Y-111529174D01*
X175934616Y-111529171D01*
X175934615Y-111529170D01*
X175753666Y-111402468D01*
X175753662Y-111402466D01*
X175745521Y-111398670D01*
X175553450Y-111309106D01*
X175553447Y-111309105D01*
X175553445Y-111309104D01*
X175340070Y-111251930D01*
X175340062Y-111251929D01*
X175120002Y-111232677D01*
X175119998Y-111232677D01*
X174899937Y-111251929D01*
X174899929Y-111251930D01*
X174686554Y-111309104D01*
X174686548Y-111309107D01*
X174486340Y-111402465D01*
X174486338Y-111402466D01*
X174305381Y-111529172D01*
X174149172Y-111685382D01*
X174099558Y-111756237D01*
X174085666Y-111772792D01*
X173990413Y-111868046D01*
X173990408Y-111868053D01*
X173956732Y-111924996D01*
X173905662Y-111972679D01*
X173836921Y-111985182D01*
X173772331Y-111958536D01*
X173743268Y-111924996D01*
X173709592Y-111868053D01*
X173709589Y-111868050D01*
X173709587Y-111868047D01*
X173614334Y-111772794D01*
X173600440Y-111756236D01*
X173550827Y-111685381D01*
X173522987Y-111657541D01*
X173394620Y-111529174D01*
X173394616Y-111529171D01*
X173394615Y-111529170D01*
X173213666Y-111402468D01*
X173213662Y-111402466D01*
X173205521Y-111398670D01*
X173013450Y-111309106D01*
X173013447Y-111309105D01*
X173013445Y-111309104D01*
X172800070Y-111251930D01*
X172800062Y-111251929D01*
X172580002Y-111232677D01*
X172579998Y-111232677D01*
X172359937Y-111251929D01*
X172359929Y-111251930D01*
X172146554Y-111309104D01*
X172146548Y-111309107D01*
X171946340Y-111402465D01*
X171946338Y-111402466D01*
X171765381Y-111529172D01*
X171609172Y-111685382D01*
X171559558Y-111756237D01*
X171545666Y-111772792D01*
X171450413Y-111868046D01*
X171450408Y-111868053D01*
X171416732Y-111924996D01*
X171365662Y-111972679D01*
X171296921Y-111985182D01*
X171232331Y-111958536D01*
X171203268Y-111924996D01*
X171169592Y-111868053D01*
X171169589Y-111868050D01*
X171169587Y-111868047D01*
X171074334Y-111772794D01*
X171060440Y-111756236D01*
X171010827Y-111685381D01*
X170982987Y-111657541D01*
X170854620Y-111529174D01*
X170854616Y-111529171D01*
X170854615Y-111529170D01*
X170673666Y-111402468D01*
X170673662Y-111402466D01*
X170665521Y-111398670D01*
X170473450Y-111309106D01*
X170473447Y-111309105D01*
X170473445Y-111309104D01*
X170260070Y-111251930D01*
X170260062Y-111251929D01*
X170040002Y-111232677D01*
X170039998Y-111232677D01*
X169819937Y-111251929D01*
X169819929Y-111251930D01*
X169606554Y-111309104D01*
X169606548Y-111309107D01*
X169406340Y-111402465D01*
X169406338Y-111402466D01*
X169225381Y-111529172D01*
X169069172Y-111685382D01*
X169019558Y-111756237D01*
X169005666Y-111772792D01*
X168910413Y-111868046D01*
X168910408Y-111868053D01*
X168876732Y-111924996D01*
X168825662Y-111972679D01*
X168756921Y-111985182D01*
X168692331Y-111958536D01*
X168663268Y-111924996D01*
X168629592Y-111868053D01*
X168629589Y-111868050D01*
X168629587Y-111868047D01*
X168534334Y-111772794D01*
X168520440Y-111756236D01*
X168470827Y-111685381D01*
X168442987Y-111657541D01*
X168314620Y-111529174D01*
X168314616Y-111529171D01*
X168314615Y-111529170D01*
X168133666Y-111402468D01*
X168133662Y-111402466D01*
X168125521Y-111398670D01*
X167933450Y-111309106D01*
X167933447Y-111309105D01*
X167933445Y-111309104D01*
X167720070Y-111251930D01*
X167720062Y-111251929D01*
X167500002Y-111232677D01*
X167499997Y-111232677D01*
X167368212Y-111244205D01*
X167299712Y-111230438D01*
X167269725Y-111208358D01*
X163178421Y-107117052D01*
X163178414Y-107117046D01*
X163104729Y-107067812D01*
X163104729Y-107067813D01*
X163055491Y-107034913D01*
X162918917Y-106978343D01*
X162918907Y-106978340D01*
X162773920Y-106949500D01*
X162773918Y-106949500D01*
X159599934Y-106949500D01*
X159532895Y-106929815D01*
X159487140Y-106877011D01*
X159477196Y-106807853D01*
X159498358Y-106754378D01*
X159587102Y-106627639D01*
X159679575Y-106429330D01*
X159736207Y-106217977D01*
X159755277Y-106000000D01*
X159736207Y-105782023D01*
X159679575Y-105570670D01*
X159587102Y-105372362D01*
X159587100Y-105372359D01*
X159587099Y-105372357D01*
X159461599Y-105193124D01*
X159397073Y-105128598D01*
X159306877Y-105038402D01*
X159127639Y-104912898D01*
X159127640Y-104912898D01*
X159127638Y-104912897D01*
X159028484Y-104866661D01*
X158929330Y-104820425D01*
X158929326Y-104820424D01*
X158929322Y-104820422D01*
X158717977Y-104763793D01*
X158500002Y-104744723D01*
X158499998Y-104744723D01*
X158354682Y-104757436D01*
X158282023Y-104763793D01*
X158282020Y-104763793D01*
X158070677Y-104820422D01*
X158070668Y-104820426D01*
X157872361Y-104912898D01*
X157872357Y-104912900D01*
X157693121Y-105038402D01*
X157668343Y-105063181D01*
X157607020Y-105096666D01*
X157580662Y-105099500D01*
X153661303Y-105099500D01*
X153487341Y-105134103D01*
X153487333Y-105134105D01*
X153414945Y-105164090D01*
X153414944Y-105164090D01*
X153323459Y-105201983D01*
X153323447Y-105201990D01*
X153235040Y-105261063D01*
X153175961Y-105300537D01*
X152707094Y-105769404D01*
X152645771Y-105802889D01*
X152576079Y-105797905D01*
X152550522Y-105784825D01*
X152426552Y-105701990D01*
X152426540Y-105701983D01*
X152262667Y-105634106D01*
X152262658Y-105634103D01*
X152088694Y-105599500D01*
X152088691Y-105599500D01*
X144088691Y-105599500D01*
X135911309Y-105599500D01*
X135911306Y-105599500D01*
X135737341Y-105634103D01*
X135737332Y-105634106D01*
X135573459Y-105701983D01*
X135573446Y-105701990D01*
X135425965Y-105800535D01*
X135425961Y-105800538D01*
X135300538Y-105925961D01*
X135300535Y-105925965D01*
X135201990Y-106073446D01*
X135201983Y-106073459D01*
X135134106Y-106237332D01*
X135134103Y-106237341D01*
X135099500Y-106411304D01*
X135099500Y-106588695D01*
X135134104Y-106762658D01*
X135134107Y-106762670D01*
X135190061Y-106897755D01*
X135199500Y-106945207D01*
X135199500Y-107019527D01*
X135179815Y-107086566D01*
X135147336Y-107117541D01*
X135148650Y-107119253D01*
X135142204Y-107124199D01*
X135142202Y-107124200D01*
X135061865Y-107185845D01*
X135018851Y-107218851D01*
X134924198Y-107342205D01*
X134864699Y-107485848D01*
X134864698Y-107485850D01*
X134849500Y-107601298D01*
X134849500Y-108398703D01*
X134864696Y-108514142D01*
X134864699Y-108514151D01*
X134921176Y-108650499D01*
X134924200Y-108657798D01*
X135018851Y-108781149D01*
X135142202Y-108875800D01*
X135285849Y-108935301D01*
X135401299Y-108950500D01*
X136798700Y-108950499D01*
X136798703Y-108950499D01*
X136914142Y-108935303D01*
X136914146Y-108935301D01*
X136914151Y-108935301D01*
X137057798Y-108875800D01*
X137181149Y-108781149D01*
X137275800Y-108657798D01*
X137335301Y-108514151D01*
X137350500Y-108398701D01*
X137350499Y-107601300D01*
X137350499Y-107601298D01*
X137350499Y-107601296D01*
X137342520Y-107540683D01*
X137353286Y-107471648D01*
X137399667Y-107419393D01*
X137465459Y-107400500D01*
X139634541Y-107400500D01*
X139701580Y-107420185D01*
X139747335Y-107472989D01*
X139757480Y-107540685D01*
X139749500Y-107601298D01*
X139749500Y-108398703D01*
X139764696Y-108514142D01*
X139764699Y-108514151D01*
X139821176Y-108650499D01*
X139824200Y-108657798D01*
X139918851Y-108781149D01*
X140042202Y-108875800D01*
X140185849Y-108935301D01*
X140301299Y-108950500D01*
X140625637Y-108950499D01*
X140692676Y-108970183D01*
X140713318Y-108986818D01*
X141756315Y-110029815D01*
X141875484Y-110148983D01*
X141908969Y-110210306D01*
X141903985Y-110279998D01*
X141862113Y-110335931D01*
X141796649Y-110360348D01*
X141771619Y-110359603D01*
X141698672Y-110350000D01*
X141250000Y-110350000D01*
X141250000Y-111050000D01*
X142250000Y-111050000D01*
X142250000Y-110901330D01*
X142240396Y-110828382D01*
X142251161Y-110759346D01*
X142297541Y-110707090D01*
X142364810Y-110688205D01*
X142431611Y-110708686D01*
X142451016Y-110724515D01*
X142813181Y-111086680D01*
X142846666Y-111148003D01*
X142849500Y-111174361D01*
X142849500Y-111548703D01*
X142864696Y-111664142D01*
X142864699Y-111664151D01*
X142924093Y-111807541D01*
X142924200Y-111807798D01*
X143018851Y-111931149D01*
X143142202Y-112025800D01*
X143285849Y-112085301D01*
X143401299Y-112100500D01*
X144798700Y-112100499D01*
X144798703Y-112100499D01*
X144914142Y-112085303D01*
X144914146Y-112085301D01*
X144914151Y-112085301D01*
X145057798Y-112025800D01*
X145181149Y-111931149D01*
X145275800Y-111807798D01*
X145335301Y-111664151D01*
X145350500Y-111548701D01*
X145350500Y-111548670D01*
X147750000Y-111548670D01*
X147765185Y-111664019D01*
X147765187Y-111664024D01*
X147824633Y-111807541D01*
X147824633Y-111807542D01*
X147919207Y-111930792D01*
X148042458Y-112025366D01*
X148185975Y-112084812D01*
X148185980Y-112084814D01*
X148301329Y-112100000D01*
X148750000Y-112100000D01*
X149250000Y-112100000D01*
X149698671Y-112100000D01*
X149814019Y-112084814D01*
X149814024Y-112084812D01*
X149957541Y-112025366D01*
X149957542Y-112025366D01*
X150080792Y-111930792D01*
X150175366Y-111807542D01*
X150175366Y-111807541D01*
X150234812Y-111664024D01*
X150234814Y-111664019D01*
X150250000Y-111548670D01*
X150250000Y-111400000D01*
X149250000Y-111400000D01*
X149250000Y-112100000D01*
X148750000Y-112100000D01*
X148750000Y-111400000D01*
X147750000Y-111400000D01*
X147750000Y-111548670D01*
X145350500Y-111548670D01*
X145350499Y-110751329D01*
X147750000Y-110751329D01*
X147750000Y-110900000D01*
X148750000Y-110900000D01*
X148750000Y-110200000D01*
X148301329Y-110200000D01*
X148185980Y-110215185D01*
X148185975Y-110215187D01*
X148042458Y-110274633D01*
X148042457Y-110274633D01*
X147919207Y-110369207D01*
X147824633Y-110492457D01*
X147824633Y-110492458D01*
X147765187Y-110635975D01*
X147765185Y-110635980D01*
X147750000Y-110751329D01*
X145350499Y-110751329D01*
X145350499Y-110751300D01*
X145350499Y-110751296D01*
X145335303Y-110635857D01*
X145335301Y-110635852D01*
X145335301Y-110635849D01*
X145275800Y-110492202D01*
X145181149Y-110368851D01*
X145057798Y-110274200D01*
X145057794Y-110274198D01*
X144914151Y-110214699D01*
X144914149Y-110214698D01*
X144798702Y-110199500D01*
X144798701Y-110199500D01*
X144524361Y-110199500D01*
X144457322Y-110179815D01*
X144436680Y-110163181D01*
X143636680Y-109363181D01*
X143282675Y-109009175D01*
X143249191Y-108947854D01*
X143254175Y-108878162D01*
X143296047Y-108822229D01*
X143361511Y-108797812D01*
X143386539Y-108798556D01*
X143401299Y-108800500D01*
X144798700Y-108800499D01*
X144798703Y-108800499D01*
X144914142Y-108785303D01*
X144914146Y-108785301D01*
X144914151Y-108785301D01*
X145057798Y-108725800D01*
X145181149Y-108631149D01*
X145275800Y-108507798D01*
X145335301Y-108364151D01*
X145350500Y-108248701D01*
X145350499Y-107524499D01*
X145370183Y-107457461D01*
X145422987Y-107411706D01*
X145474499Y-107400500D01*
X147625500Y-107400500D01*
X147692539Y-107420185D01*
X147738294Y-107472989D01*
X147749500Y-107524500D01*
X147749500Y-108248703D01*
X147764696Y-108364142D01*
X147764699Y-108364151D01*
X147813161Y-108481149D01*
X147824200Y-108507798D01*
X147918851Y-108631149D01*
X148042202Y-108725800D01*
X148185849Y-108785301D01*
X148301299Y-108800500D01*
X148475636Y-108800499D01*
X148542676Y-108820183D01*
X148563318Y-108836818D01*
X149660608Y-109934108D01*
X149714820Y-109988319D01*
X149748305Y-110049642D01*
X149743321Y-110119334D01*
X149701449Y-110175267D01*
X149635985Y-110199684D01*
X149627139Y-110200000D01*
X149250000Y-110200000D01*
X149250000Y-110900000D01*
X150250000Y-110900000D01*
X150250000Y-110822861D01*
X150269685Y-110755822D01*
X150322489Y-110710067D01*
X150391647Y-110700123D01*
X150455203Y-110729148D01*
X150461681Y-110735180D01*
X150763181Y-111036680D01*
X150796666Y-111098003D01*
X150799500Y-111124361D01*
X150799500Y-111398703D01*
X150814696Y-111514142D01*
X150814699Y-111514151D01*
X150874093Y-111657541D01*
X150874200Y-111657798D01*
X150968851Y-111781149D01*
X151092202Y-111875800D01*
X151235849Y-111935301D01*
X151351299Y-111950500D01*
X152748700Y-111950499D01*
X152748703Y-111950499D01*
X152864142Y-111935303D01*
X152864146Y-111935301D01*
X152864151Y-111935301D01*
X153007798Y-111875800D01*
X153131149Y-111781149D01*
X153225800Y-111657798D01*
X153285301Y-111514151D01*
X153300500Y-111398701D01*
X153300500Y-111398670D01*
X155700000Y-111398670D01*
X155715185Y-111514019D01*
X155715187Y-111514024D01*
X155774633Y-111657541D01*
X155774633Y-111657542D01*
X155869207Y-111780792D01*
X155992458Y-111875366D01*
X156135975Y-111934812D01*
X156135980Y-111934814D01*
X156251329Y-111950000D01*
X156700000Y-111950000D01*
X157200000Y-111950000D01*
X157648671Y-111950000D01*
X157764019Y-111934814D01*
X157764024Y-111934812D01*
X157907541Y-111875366D01*
X157907542Y-111875366D01*
X158030792Y-111780792D01*
X158125366Y-111657542D01*
X158125366Y-111657541D01*
X158184812Y-111514024D01*
X158184814Y-111514019D01*
X158200000Y-111398670D01*
X158200000Y-111250000D01*
X157200000Y-111250000D01*
X157200000Y-111950000D01*
X156700000Y-111950000D01*
X156700000Y-111250000D01*
X155700000Y-111250000D01*
X155700000Y-111398670D01*
X153300500Y-111398670D01*
X153300499Y-110601329D01*
X155700000Y-110601329D01*
X155700000Y-110750000D01*
X156700000Y-110750000D01*
X157200000Y-110750000D01*
X158200000Y-110750000D01*
X158200000Y-110601329D01*
X158184814Y-110485980D01*
X158184812Y-110485975D01*
X158125366Y-110342458D01*
X158125366Y-110342457D01*
X158030792Y-110219207D01*
X157907541Y-110124633D01*
X157764024Y-110065187D01*
X157764019Y-110065185D01*
X157648671Y-110050000D01*
X157200000Y-110050000D01*
X157200000Y-110750000D01*
X156700000Y-110750000D01*
X156700000Y-110050000D01*
X156251329Y-110050000D01*
X156135980Y-110065185D01*
X156135975Y-110065187D01*
X155992458Y-110124633D01*
X155992457Y-110124633D01*
X155869207Y-110219207D01*
X155774633Y-110342457D01*
X155774633Y-110342458D01*
X155715187Y-110485975D01*
X155715185Y-110485980D01*
X155700000Y-110601329D01*
X153300499Y-110601329D01*
X153300499Y-110601300D01*
X153300499Y-110601296D01*
X153285303Y-110485857D01*
X153285301Y-110485852D01*
X153285301Y-110485849D01*
X153225800Y-110342202D01*
X153131149Y-110218851D01*
X153007798Y-110124200D01*
X153007794Y-110124198D01*
X152864151Y-110064699D01*
X152864149Y-110064698D01*
X152748702Y-110049500D01*
X152748701Y-110049500D01*
X152374361Y-110049500D01*
X152307322Y-110029815D01*
X152286680Y-110013181D01*
X151116322Y-108842822D01*
X151082837Y-108781499D01*
X151087821Y-108711807D01*
X151129693Y-108655874D01*
X151195157Y-108631457D01*
X151227747Y-108634570D01*
X151227791Y-108634240D01*
X151235848Y-108635300D01*
X151235849Y-108635301D01*
X151351299Y-108650500D01*
X152748700Y-108650499D01*
X152748703Y-108650499D01*
X152864142Y-108635303D01*
X152864146Y-108635301D01*
X152864151Y-108635301D01*
X153007798Y-108575800D01*
X153131149Y-108481149D01*
X153225800Y-108357798D01*
X153285301Y-108214151D01*
X153300500Y-108098701D01*
X153300499Y-107774360D01*
X153320183Y-107707322D01*
X153336813Y-107686685D01*
X154086681Y-106936819D01*
X154148004Y-106903334D01*
X154174362Y-106900500D01*
X155647315Y-106900500D01*
X155714354Y-106920185D01*
X155760109Y-106972989D01*
X155770053Y-107042147D01*
X155761876Y-107071952D01*
X155714700Y-107185845D01*
X155714698Y-107185850D01*
X155699500Y-107301298D01*
X155699500Y-108098703D01*
X155714696Y-108214142D01*
X155714699Y-108214151D01*
X155774089Y-108357532D01*
X155774200Y-108357798D01*
X155868851Y-108481149D01*
X155992202Y-108575800D01*
X156135849Y-108635301D01*
X156251299Y-108650500D01*
X157648700Y-108650499D01*
X157648703Y-108650499D01*
X157764142Y-108635303D01*
X157764146Y-108635301D01*
X157764151Y-108635301D01*
X157907798Y-108575800D01*
X158031149Y-108481149D01*
X158031150Y-108481146D01*
X158037596Y-108476201D01*
X158039759Y-108479021D01*
X158086802Y-108453334D01*
X158113160Y-108450500D01*
X162337770Y-108450500D01*
X162404809Y-108470185D01*
X162425451Y-108486819D01*
X164966276Y-111027644D01*
X164999761Y-111088967D01*
X164994777Y-111158659D01*
X164952905Y-111214592D01*
X164889402Y-111238853D01*
X164739937Y-111251929D01*
X164739929Y-111251930D01*
X164526554Y-111309104D01*
X164526548Y-111309107D01*
X164326340Y-111402465D01*
X164326338Y-111402466D01*
X164145381Y-111529172D01*
X163989172Y-111685382D01*
X163939558Y-111756237D01*
X163925666Y-111772792D01*
X163830413Y-111868046D01*
X163830405Y-111868056D01*
X163746435Y-112010042D01*
X163746434Y-112010045D01*
X163700413Y-112168447D01*
X163700412Y-112168453D01*
X163697500Y-112205458D01*
X163697500Y-112439458D01*
X163697028Y-112450265D01*
X163692677Y-112499997D01*
X163692677Y-112500000D01*
X163697028Y-112549732D01*
X163697500Y-112560540D01*
X163697500Y-114464541D01*
X163700412Y-114501546D01*
X163700413Y-114501552D01*
X163746434Y-114659954D01*
X163746435Y-114659957D01*
X163830405Y-114801943D01*
X163830412Y-114801952D01*
X163947047Y-114918587D01*
X163947051Y-114918590D01*
X163947053Y-114918592D01*
X164089041Y-115002564D01*
X164130816Y-115014701D01*
X164247447Y-115048586D01*
X164247450Y-115048586D01*
X164247452Y-115048587D01*
X164284466Y-115051500D01*
X164284474Y-115051500D01*
X165635526Y-115051500D01*
X165635534Y-115051500D01*
X165672548Y-115048587D01*
X165672550Y-115048586D01*
X165672552Y-115048586D01*
X165714323Y-115036449D01*
X165830959Y-115002564D01*
X165972947Y-114918592D01*
X166089592Y-114801947D01*
X166123268Y-114745003D01*
X166174337Y-114697321D01*
X166243079Y-114684817D01*
X166307668Y-114711462D01*
X166336732Y-114745004D01*
X166370406Y-114801944D01*
X166370412Y-114801952D01*
X166487047Y-114918587D01*
X166487051Y-114918590D01*
X166487053Y-114918592D01*
X166629041Y-115002564D01*
X166670816Y-115014701D01*
X166787447Y-115048586D01*
X166787450Y-115048586D01*
X166787452Y-115048587D01*
X166824466Y-115051500D01*
X166824474Y-115051500D01*
X168175526Y-115051500D01*
X168175534Y-115051500D01*
X168212548Y-115048587D01*
X168212550Y-115048586D01*
X168212552Y-115048586D01*
X168254323Y-115036449D01*
X168370959Y-115002564D01*
X168512947Y-114918592D01*
X168629592Y-114801947D01*
X168663268Y-114745003D01*
X168714337Y-114697321D01*
X168783079Y-114684817D01*
X168847668Y-114711462D01*
X168876732Y-114745004D01*
X168910406Y-114801944D01*
X168910412Y-114801952D01*
X169027047Y-114918587D01*
X169027051Y-114918590D01*
X169027053Y-114918592D01*
X169169041Y-115002564D01*
X169210816Y-115014701D01*
X169327447Y-115048586D01*
X169327450Y-115048586D01*
X169327452Y-115048587D01*
X169364466Y-115051500D01*
X169364474Y-115051500D01*
X170715526Y-115051500D01*
X170715534Y-115051500D01*
X170752548Y-115048587D01*
X170752550Y-115048586D01*
X170752552Y-115048586D01*
X170794323Y-115036449D01*
X170910959Y-115002564D01*
X171052947Y-114918592D01*
X171169592Y-114801947D01*
X171203268Y-114745003D01*
X171254337Y-114697321D01*
X171323079Y-114684817D01*
X171387668Y-114711462D01*
X171416732Y-114745004D01*
X171450406Y-114801944D01*
X171450412Y-114801952D01*
X171567047Y-114918587D01*
X171567051Y-114918590D01*
X171567053Y-114918592D01*
X171709041Y-115002564D01*
X171750816Y-115014701D01*
X171867447Y-115048586D01*
X171867450Y-115048586D01*
X171867452Y-115048587D01*
X171904466Y-115051500D01*
X171904474Y-115051500D01*
X173255526Y-115051500D01*
X173255534Y-115051500D01*
X173292548Y-115048587D01*
X173292550Y-115048586D01*
X173292552Y-115048586D01*
X173334323Y-115036449D01*
X173450959Y-115002564D01*
X173592947Y-114918592D01*
X173709592Y-114801947D01*
X173743268Y-114745003D01*
X173794337Y-114697321D01*
X173863079Y-114684817D01*
X173927668Y-114711462D01*
X173956732Y-114745004D01*
X173990406Y-114801944D01*
X173990412Y-114801952D01*
X174107047Y-114918587D01*
X174107051Y-114918590D01*
X174107053Y-114918592D01*
X174249041Y-115002564D01*
X174290816Y-115014701D01*
X174407447Y-115048586D01*
X174407450Y-115048586D01*
X174407452Y-115048587D01*
X174444466Y-115051500D01*
X174444474Y-115051500D01*
X175795526Y-115051500D01*
X175795534Y-115051500D01*
X175832548Y-115048587D01*
X175832550Y-115048586D01*
X175832552Y-115048586D01*
X175874323Y-115036449D01*
X175990959Y-115002564D01*
X176132947Y-114918592D01*
X176249592Y-114801947D01*
X176249778Y-114801634D01*
X176283558Y-114744514D01*
X176334626Y-114696830D01*
X176403368Y-114684326D01*
X176467958Y-114710971D01*
X176497022Y-114744513D01*
X176530803Y-114801634D01*
X176530810Y-114801643D01*
X176647356Y-114918189D01*
X176647365Y-114918196D01*
X176789243Y-115002102D01*
X176789246Y-115002103D01*
X176947526Y-115048088D01*
X176947532Y-115048089D01*
X176984518Y-115050999D01*
X177866089Y-115050999D01*
X177933128Y-115070683D01*
X177978883Y-115123487D01*
X177988827Y-115192646D01*
X177959802Y-115256202D01*
X177953770Y-115262680D01*
X177453270Y-115763181D01*
X177391947Y-115796666D01*
X177365589Y-115799500D01*
X135930097Y-115799500D01*
X135863058Y-115779815D01*
X135842416Y-115763181D01*
X130980533Y-110901298D01*
X134849500Y-110901298D01*
X134849500Y-111698703D01*
X134864696Y-111814142D01*
X134864699Y-111814151D01*
X134924093Y-111957541D01*
X134924200Y-111957798D01*
X135018851Y-112081149D01*
X135142202Y-112175800D01*
X135285849Y-112235301D01*
X135401299Y-112250500D01*
X136798700Y-112250499D01*
X136798703Y-112250499D01*
X136914142Y-112235303D01*
X136914146Y-112235301D01*
X136914151Y-112235301D01*
X137057798Y-112175800D01*
X137181149Y-112081149D01*
X137275800Y-111957798D01*
X137335301Y-111814151D01*
X137350500Y-111698701D01*
X137350500Y-111698670D01*
X139750000Y-111698670D01*
X139765185Y-111814019D01*
X139765187Y-111814024D01*
X139824633Y-111957541D01*
X139824633Y-111957542D01*
X139919207Y-112080792D01*
X140042458Y-112175366D01*
X140185975Y-112234812D01*
X140185980Y-112234814D01*
X140301329Y-112250000D01*
X140750000Y-112250000D01*
X141250000Y-112250000D01*
X141698671Y-112250000D01*
X141814019Y-112234814D01*
X141814024Y-112234812D01*
X141957541Y-112175366D01*
X141957542Y-112175366D01*
X142080792Y-112080792D01*
X142175366Y-111957542D01*
X142175366Y-111957541D01*
X142234812Y-111814024D01*
X142234814Y-111814019D01*
X142250000Y-111698670D01*
X142250000Y-111550000D01*
X141250000Y-111550000D01*
X141250000Y-112250000D01*
X140750000Y-112250000D01*
X140750000Y-111550000D01*
X139750000Y-111550000D01*
X139750000Y-111698670D01*
X137350500Y-111698670D01*
X137350499Y-110901329D01*
X139750000Y-110901329D01*
X139750000Y-111050000D01*
X140750000Y-111050000D01*
X140750000Y-110350000D01*
X140301329Y-110350000D01*
X140185980Y-110365185D01*
X140185975Y-110365187D01*
X140042458Y-110424633D01*
X140042457Y-110424633D01*
X139919207Y-110519207D01*
X139824633Y-110642457D01*
X139824633Y-110642458D01*
X139765187Y-110785975D01*
X139765185Y-110785980D01*
X139750000Y-110901329D01*
X137350499Y-110901329D01*
X137350499Y-110901300D01*
X137350499Y-110901298D01*
X137350499Y-110901296D01*
X137335303Y-110785857D01*
X137335301Y-110785850D01*
X137335301Y-110785849D01*
X137275800Y-110642202D01*
X137181149Y-110518851D01*
X137057798Y-110424200D01*
X137057794Y-110424198D01*
X136914151Y-110364699D01*
X136914149Y-110364698D01*
X136798701Y-110349500D01*
X135401296Y-110349500D01*
X135285857Y-110364696D01*
X135285848Y-110364699D01*
X135142205Y-110424198D01*
X135142202Y-110424199D01*
X135142202Y-110424200D01*
X135018851Y-110518851D01*
X134928975Y-110635980D01*
X134924198Y-110642205D01*
X134864699Y-110785848D01*
X134864698Y-110785850D01*
X134849500Y-110901298D01*
X130980533Y-110901298D01*
X113947766Y-93868531D01*
X113914281Y-93807208D01*
X113915672Y-93748757D01*
X113916863Y-93744309D01*
X113950063Y-93620408D01*
X113970659Y-93385000D01*
X113950063Y-93149592D01*
X113888903Y-92921337D01*
X113789035Y-92707171D01*
X113653495Y-92513599D01*
X113653494Y-92513597D01*
X113486402Y-92346506D01*
X113486396Y-92346501D01*
X113300842Y-92216575D01*
X113257217Y-92161998D01*
X113250023Y-92092500D01*
X113281546Y-92030145D01*
X113300842Y-92013425D01*
X113323026Y-91997891D01*
X113486401Y-91883495D01*
X113653495Y-91716401D01*
X113789035Y-91522830D01*
X113888903Y-91308663D01*
X113950063Y-91080408D01*
X113970659Y-90845000D01*
X113950063Y-90609592D01*
X113888903Y-90381337D01*
X113883616Y-90369999D01*
X158213687Y-90369999D01*
X158213688Y-90370000D01*
X159399999Y-90370000D01*
X159374979Y-90430402D01*
X159350000Y-90555981D01*
X159350000Y-90684019D01*
X159374979Y-90809598D01*
X159399999Y-90870000D01*
X158213687Y-90870000D01*
X158215112Y-90889022D01*
X158215114Y-90889031D01*
X158275142Y-91152033D01*
X158275148Y-91152052D01*
X158373709Y-91403181D01*
X158373708Y-91403181D01*
X158508600Y-91636818D01*
X158676810Y-91847748D01*
X158874571Y-92031242D01*
X159097483Y-92183220D01*
X159097485Y-92183221D01*
X159340539Y-92300269D01*
X159340537Y-92300269D01*
X159598337Y-92379790D01*
X159598343Y-92379792D01*
X159749999Y-92402650D01*
X159750000Y-92402649D01*
X159750000Y-91220001D01*
X159810402Y-91245021D01*
X159935981Y-91270000D01*
X160064019Y-91270000D01*
X160189598Y-91245021D01*
X160250000Y-91220001D01*
X160250000Y-92402650D01*
X160401656Y-92379792D01*
X160401662Y-92379790D01*
X160659461Y-92300269D01*
X160902516Y-92183221D01*
X160902517Y-92183220D01*
X161125428Y-92031242D01*
X161323189Y-91847748D01*
X161491399Y-91636818D01*
X161626290Y-91403181D01*
X161724851Y-91152052D01*
X161724857Y-91152033D01*
X161784885Y-90889031D01*
X161784887Y-90889022D01*
X161786312Y-90870000D01*
X160600001Y-90870000D01*
X160625021Y-90809598D01*
X160650000Y-90684019D01*
X160650000Y-90555981D01*
X160625021Y-90430402D01*
X160600001Y-90370000D01*
X161786312Y-90370000D01*
X161786312Y-90369999D01*
X161784887Y-90350977D01*
X161784885Y-90350968D01*
X161724857Y-90087966D01*
X161724851Y-90087947D01*
X161626290Y-89836818D01*
X161626291Y-89836818D01*
X161491399Y-89603181D01*
X161323189Y-89392251D01*
X161125428Y-89208757D01*
X160902517Y-89056779D01*
X160902516Y-89056778D01*
X160659460Y-88939730D01*
X160659462Y-88939730D01*
X160401665Y-88860210D01*
X160250000Y-88837349D01*
X160250000Y-90019998D01*
X160189598Y-89994979D01*
X160064019Y-89970000D01*
X159935981Y-89970000D01*
X159810402Y-89994979D01*
X159750000Y-90019998D01*
X159750000Y-88837349D01*
X159598334Y-88860210D01*
X159340538Y-88939730D01*
X159097485Y-89056778D01*
X159097483Y-89056779D01*
X158874571Y-89208757D01*
X158676810Y-89392251D01*
X158508600Y-89603181D01*
X158373709Y-89836818D01*
X158275148Y-90087947D01*
X158275142Y-90087966D01*
X158215114Y-90350968D01*
X158215112Y-90350977D01*
X158213687Y-90369999D01*
X113883616Y-90369999D01*
X113789035Y-90167171D01*
X113733575Y-90087966D01*
X113653496Y-89973600D01*
X113614004Y-89934108D01*
X113531179Y-89851283D01*
X113497696Y-89789963D01*
X113502680Y-89720271D01*
X113544551Y-89664337D01*
X113575529Y-89647422D01*
X113707086Y-89598354D01*
X113707093Y-89598350D01*
X113822187Y-89512190D01*
X113822190Y-89512187D01*
X113908350Y-89397093D01*
X113908354Y-89397086D01*
X113958596Y-89262379D01*
X113958598Y-89262372D01*
X113964999Y-89202844D01*
X113965000Y-89202827D01*
X113965000Y-88555000D01*
X113048012Y-88555000D01*
X113080925Y-88497993D01*
X113115000Y-88370826D01*
X113115000Y-88239174D01*
X113080925Y-88112007D01*
X113048012Y-88055000D01*
X113965000Y-88055000D01*
X113965000Y-87407172D01*
X113964999Y-87407155D01*
X113958598Y-87347627D01*
X113958596Y-87347620D01*
X113908354Y-87212913D01*
X113908350Y-87212906D01*
X113822190Y-87097812D01*
X113822187Y-87097809D01*
X113707093Y-87011649D01*
X113707086Y-87011645D01*
X113572379Y-86961403D01*
X113572372Y-86961401D01*
X113512844Y-86955000D01*
X112865000Y-86955000D01*
X112865000Y-87871988D01*
X112807993Y-87839075D01*
X112680826Y-87805000D01*
X112549174Y-87805000D01*
X112422007Y-87839075D01*
X112365000Y-87871988D01*
X112365000Y-86955000D01*
X111717155Y-86955000D01*
X111657627Y-86961401D01*
X111657620Y-86961403D01*
X111522913Y-87011645D01*
X111522906Y-87011649D01*
X111407812Y-87097809D01*
X111407809Y-87097812D01*
X111321649Y-87212906D01*
X111321645Y-87212913D01*
X111271403Y-87347620D01*
X111271401Y-87347627D01*
X111265000Y-87407155D01*
X111265000Y-88055000D01*
X112181988Y-88055000D01*
X112149075Y-88112007D01*
X112115000Y-88239174D01*
X112115000Y-88370826D01*
X112149075Y-88497993D01*
X112181988Y-88555000D01*
X111265000Y-88555000D01*
X111265000Y-89202844D01*
X111271401Y-89262372D01*
X111271403Y-89262379D01*
X111321645Y-89397086D01*
X111321649Y-89397093D01*
X111407809Y-89512187D01*
X111407812Y-89512190D01*
X111522906Y-89598350D01*
X111522913Y-89598354D01*
X111654470Y-89647421D01*
X111710403Y-89689292D01*
X111734821Y-89754756D01*
X111719970Y-89823029D01*
X111698819Y-89851284D01*
X111576503Y-89973600D01*
X111440965Y-90167169D01*
X111440964Y-90167171D01*
X111341098Y-90381335D01*
X111341094Y-90381344D01*
X111279938Y-90609586D01*
X111279936Y-90609596D01*
X111259341Y-90844999D01*
X53145971Y-90844999D01*
X53030194Y-86869999D01*
X147713687Y-86869999D01*
X147713688Y-86870000D01*
X148899999Y-86870000D01*
X148874979Y-86930402D01*
X148850000Y-87055981D01*
X148850000Y-87184019D01*
X148874979Y-87309598D01*
X148899999Y-87370000D01*
X147713687Y-87370000D01*
X147715112Y-87389022D01*
X147715114Y-87389031D01*
X147775142Y-87652033D01*
X147775148Y-87652052D01*
X147873709Y-87903181D01*
X147873708Y-87903181D01*
X148008600Y-88136818D01*
X148176810Y-88347748D01*
X148374571Y-88531242D01*
X148597483Y-88683220D01*
X148597485Y-88683221D01*
X148840539Y-88800269D01*
X148840537Y-88800269D01*
X149098337Y-88879790D01*
X149098343Y-88879792D01*
X149249999Y-88902650D01*
X149250000Y-88902649D01*
X149250000Y-87720001D01*
X149310402Y-87745021D01*
X149435981Y-87770000D01*
X149564019Y-87770000D01*
X149689598Y-87745021D01*
X149750000Y-87720001D01*
X149750000Y-88902650D01*
X149901656Y-88879792D01*
X149901662Y-88879790D01*
X150159461Y-88800269D01*
X150402516Y-88683221D01*
X150402517Y-88683220D01*
X150625428Y-88531242D01*
X150823189Y-88347748D01*
X150991399Y-88136818D01*
X151126290Y-87903181D01*
X151224851Y-87652052D01*
X151224857Y-87652033D01*
X151284885Y-87389031D01*
X151284887Y-87389022D01*
X151286312Y-87370000D01*
X150100001Y-87370000D01*
X150125021Y-87309598D01*
X150150000Y-87184019D01*
X150150000Y-87055981D01*
X150125021Y-86930402D01*
X150100001Y-86870000D01*
X151286312Y-86870000D01*
X151286312Y-86869999D01*
X151284887Y-86850977D01*
X151284885Y-86850968D01*
X151224857Y-86587966D01*
X151224851Y-86587947D01*
X151126290Y-86336818D01*
X151126291Y-86336818D01*
X150991399Y-86103181D01*
X150823189Y-85892251D01*
X150625428Y-85708757D01*
X150402517Y-85556779D01*
X150402516Y-85556778D01*
X150159460Y-85439730D01*
X150159462Y-85439730D01*
X149961644Y-85378711D01*
X185149500Y-85378711D01*
X185149500Y-85621288D01*
X185181161Y-85861785D01*
X185243947Y-86096104D01*
X185295306Y-86220095D01*
X185336776Y-86320212D01*
X185458064Y-86530289D01*
X185458066Y-86530292D01*
X185458067Y-86530293D01*
X185605733Y-86722736D01*
X185605739Y-86722743D01*
X185777256Y-86894260D01*
X185777263Y-86894266D01*
X185864758Y-86961403D01*
X185969711Y-87041936D01*
X186179788Y-87163224D01*
X186403900Y-87256054D01*
X186638211Y-87318838D01*
X186818586Y-87342584D01*
X186878711Y-87350500D01*
X186878712Y-87350500D01*
X187121289Y-87350500D01*
X187169388Y-87344167D01*
X187361789Y-87318838D01*
X187596100Y-87256054D01*
X187820212Y-87163224D01*
X188030289Y-87041936D01*
X188222738Y-86894265D01*
X188394265Y-86722738D01*
X188541936Y-86530289D01*
X188663224Y-86320212D01*
X188756054Y-86096100D01*
X188818838Y-85861789D01*
X188850500Y-85621288D01*
X188850500Y-85378712D01*
X188818838Y-85138211D01*
X188756054Y-84903900D01*
X188663224Y-84679788D01*
X188541936Y-84469711D01*
X188444038Y-84342128D01*
X188394266Y-84277263D01*
X188394260Y-84277256D01*
X188222743Y-84105739D01*
X188222736Y-84105733D01*
X188030293Y-83958067D01*
X188030292Y-83958066D01*
X188030289Y-83958064D01*
X187820212Y-83836776D01*
X187820205Y-83836773D01*
X187596104Y-83743947D01*
X187361785Y-83681161D01*
X187121289Y-83649500D01*
X187121288Y-83649500D01*
X186878712Y-83649500D01*
X186878711Y-83649500D01*
X186638214Y-83681161D01*
X186403895Y-83743947D01*
X186179794Y-83836773D01*
X186179785Y-83836777D01*
X185969706Y-83958067D01*
X185777263Y-84105733D01*
X185777256Y-84105739D01*
X185605739Y-84277256D01*
X185605733Y-84277263D01*
X185458067Y-84469706D01*
X185336777Y-84679785D01*
X185336773Y-84679794D01*
X185243947Y-84903895D01*
X185181161Y-85138214D01*
X185149500Y-85378711D01*
X149961644Y-85378711D01*
X149901665Y-85360210D01*
X149750000Y-85337349D01*
X149750000Y-86519998D01*
X149689598Y-86494979D01*
X149564019Y-86470000D01*
X149435981Y-86470000D01*
X149310402Y-86494979D01*
X149250000Y-86519998D01*
X149250000Y-85337349D01*
X149098334Y-85360210D01*
X148840538Y-85439730D01*
X148597485Y-85556778D01*
X148597483Y-85556779D01*
X148374571Y-85708757D01*
X148176810Y-85892251D01*
X148008600Y-86103181D01*
X147873709Y-86336818D01*
X147775148Y-86587947D01*
X147775142Y-86587966D01*
X147715114Y-86850968D01*
X147715112Y-86850977D01*
X147713687Y-86869999D01*
X53030194Y-86869999D01*
X52972195Y-84878711D01*
X58149500Y-84878711D01*
X58149500Y-85121288D01*
X58181161Y-85361785D01*
X58243947Y-85596104D01*
X58290610Y-85708757D01*
X58336776Y-85820212D01*
X58458064Y-86030289D01*
X58458066Y-86030292D01*
X58458067Y-86030293D01*
X58605733Y-86222736D01*
X58605739Y-86222743D01*
X58777256Y-86394260D01*
X58777262Y-86394265D01*
X58969711Y-86541936D01*
X59179788Y-86663224D01*
X59403900Y-86756054D01*
X59638211Y-86818838D01*
X59818586Y-86842584D01*
X59878711Y-86850500D01*
X59878712Y-86850500D01*
X60121289Y-86850500D01*
X60169388Y-86844167D01*
X60361789Y-86818838D01*
X60596100Y-86756054D01*
X60820212Y-86663224D01*
X61030289Y-86541936D01*
X61222738Y-86394265D01*
X61394265Y-86222738D01*
X61541936Y-86030289D01*
X61663224Y-85820212D01*
X61756054Y-85596100D01*
X61818838Y-85361789D01*
X61850500Y-85121288D01*
X61850500Y-84878712D01*
X61841980Y-84813992D01*
X132204500Y-84813992D01*
X132204500Y-85466007D01*
X132243907Y-85664119D01*
X132243909Y-85664127D01*
X132321212Y-85850752D01*
X132321217Y-85850762D01*
X132433441Y-86018718D01*
X132576281Y-86161558D01*
X132744237Y-86273782D01*
X132744241Y-86273784D01*
X132744244Y-86273786D01*
X132930873Y-86351091D01*
X133096777Y-86384091D01*
X133128992Y-86390499D01*
X133128996Y-86390500D01*
X133128997Y-86390500D01*
X133331004Y-86390500D01*
X133331005Y-86390499D01*
X133529127Y-86351091D01*
X133715756Y-86273786D01*
X133796110Y-86220094D01*
X133862786Y-86199217D01*
X133930166Y-86217701D01*
X133933865Y-86220078D01*
X134014244Y-86273786D01*
X134200873Y-86351091D01*
X134366777Y-86384091D01*
X134398992Y-86390499D01*
X134398996Y-86390500D01*
X134398997Y-86390500D01*
X134601004Y-86390500D01*
X134601005Y-86390499D01*
X134799127Y-86351091D01*
X134879798Y-86317674D01*
X134949267Y-86310205D01*
X134994658Y-86329962D01*
X134994886Y-86329546D01*
X134999540Y-86332087D01*
X135001562Y-86332967D01*
X135002669Y-86333796D01*
X135002670Y-86333796D01*
X135002671Y-86333797D01*
X135137517Y-86384091D01*
X135137516Y-86384091D01*
X135144444Y-86384835D01*
X135197127Y-86390500D01*
X136342872Y-86390499D01*
X136402483Y-86384091D01*
X136537331Y-86333796D01*
X136652546Y-86247546D01*
X136738796Y-86132331D01*
X136789091Y-85997483D01*
X136795500Y-85937873D01*
X136795499Y-84342128D01*
X136789091Y-84282517D01*
X136787131Y-84277263D01*
X136738797Y-84147671D01*
X136738793Y-84147664D01*
X136652547Y-84032455D01*
X136652544Y-84032452D01*
X136537335Y-83946206D01*
X136537328Y-83946202D01*
X136402482Y-83895908D01*
X136402483Y-83895908D01*
X136342883Y-83889501D01*
X136342881Y-83889500D01*
X136342873Y-83889500D01*
X136342864Y-83889500D01*
X135197129Y-83889500D01*
X135197123Y-83889501D01*
X135137516Y-83895908D01*
X135002672Y-83946202D01*
X135002665Y-83946206D01*
X135001556Y-83947037D01*
X135000258Y-83947520D01*
X134994887Y-83950454D01*
X134994465Y-83949681D01*
X134936090Y-83971449D01*
X134879800Y-83962325D01*
X134799127Y-83928909D01*
X134799119Y-83928907D01*
X134601007Y-83889500D01*
X134601003Y-83889500D01*
X134398997Y-83889500D01*
X134398992Y-83889500D01*
X134200880Y-83928907D01*
X134200872Y-83928909D01*
X134014244Y-84006213D01*
X133933891Y-84059904D01*
X133867213Y-84080782D01*
X133799833Y-84062297D01*
X133796109Y-84059904D01*
X133715755Y-84006213D01*
X133529127Y-83928909D01*
X133529119Y-83928907D01*
X133331007Y-83889500D01*
X133331003Y-83889500D01*
X133128997Y-83889500D01*
X133128992Y-83889500D01*
X132930880Y-83928907D01*
X132930872Y-83928909D01*
X132744247Y-84006212D01*
X132744237Y-84006217D01*
X132576281Y-84118441D01*
X132433441Y-84261281D01*
X132321217Y-84429237D01*
X132321212Y-84429247D01*
X132243909Y-84615872D01*
X132243907Y-84615880D01*
X132204500Y-84813992D01*
X61841980Y-84813992D01*
X61818838Y-84638211D01*
X61756054Y-84403900D01*
X61663224Y-84179788D01*
X61541936Y-83969711D01*
X61394265Y-83777262D01*
X61394260Y-83777256D01*
X61222743Y-83605739D01*
X61222736Y-83605733D01*
X61030293Y-83458067D01*
X61030292Y-83458066D01*
X61030289Y-83458064D01*
X60820212Y-83336776D01*
X60820205Y-83336773D01*
X60596104Y-83243947D01*
X60361785Y-83181161D01*
X60121289Y-83149500D01*
X60121288Y-83149500D01*
X59878712Y-83149500D01*
X59878711Y-83149500D01*
X59638214Y-83181161D01*
X59403895Y-83243947D01*
X59179794Y-83336773D01*
X59179785Y-83336777D01*
X58969706Y-83458067D01*
X58777263Y-83605733D01*
X58777256Y-83605739D01*
X58605739Y-83777256D01*
X58605733Y-83777263D01*
X58458067Y-83969706D01*
X58336777Y-84179785D01*
X58336773Y-84179794D01*
X58243947Y-84403895D01*
X58181161Y-84638214D01*
X58149500Y-84878711D01*
X52972195Y-84878711D01*
X52824563Y-79809998D01*
X134694532Y-79809998D01*
X134694532Y-79810001D01*
X134714364Y-80036686D01*
X134714366Y-80036697D01*
X134773258Y-80256488D01*
X134773261Y-80256497D01*
X134869431Y-80462732D01*
X134869432Y-80462734D01*
X134999954Y-80649141D01*
X135160858Y-80810045D01*
X135160861Y-80810047D01*
X135347266Y-80940568D01*
X135553504Y-81036739D01*
X135773308Y-81095635D01*
X135935230Y-81109801D01*
X135999998Y-81115468D01*
X136000000Y-81115468D01*
X136000002Y-81115468D01*
X136056673Y-81110509D01*
X136226692Y-81095635D01*
X136446496Y-81036739D01*
X136652734Y-80940568D01*
X136839139Y-80810047D01*
X137000047Y-80649139D01*
X137130568Y-80462734D01*
X137226739Y-80256496D01*
X137285635Y-80036692D01*
X137305468Y-79810000D01*
X137285635Y-79583308D01*
X137226739Y-79363504D01*
X137130568Y-79157266D01*
X137000047Y-78970861D01*
X137000045Y-78970858D01*
X136839141Y-78809954D01*
X136652734Y-78679432D01*
X136652732Y-78679431D01*
X136446497Y-78583261D01*
X136446488Y-78583258D01*
X136226697Y-78524366D01*
X136226693Y-78524365D01*
X136226692Y-78524365D01*
X136226691Y-78524364D01*
X136226686Y-78524364D01*
X136000002Y-78504532D01*
X135999998Y-78504532D01*
X135773313Y-78524364D01*
X135773302Y-78524366D01*
X135553511Y-78583258D01*
X135553502Y-78583261D01*
X135347267Y-78679431D01*
X135347265Y-78679432D01*
X135160858Y-78809954D01*
X134999954Y-78970858D01*
X134869432Y-79157265D01*
X134869431Y-79157267D01*
X134773261Y-79363502D01*
X134773258Y-79363511D01*
X134714366Y-79583302D01*
X134714364Y-79583313D01*
X134694532Y-79809998D01*
X52824563Y-79809998D01*
X52717087Y-76119998D01*
X88504532Y-76119998D01*
X88504532Y-76120001D01*
X88524364Y-76346686D01*
X88524366Y-76346697D01*
X88583258Y-76566488D01*
X88583261Y-76566497D01*
X88679431Y-76772732D01*
X88679432Y-76772734D01*
X88809954Y-76959141D01*
X88970858Y-77120045D01*
X88999471Y-77140080D01*
X89157266Y-77250568D01*
X89363504Y-77346739D01*
X89583308Y-77405635D01*
X89745230Y-77419801D01*
X89809998Y-77425468D01*
X89810000Y-77425468D01*
X89810002Y-77425468D01*
X89866673Y-77420509D01*
X90036692Y-77405635D01*
X90256496Y-77346739D01*
X90462734Y-77250568D01*
X90649139Y-77120047D01*
X90810047Y-76959139D01*
X90940568Y-76772734D01*
X91036739Y-76566496D01*
X91095635Y-76346692D01*
X91115468Y-76120000D01*
X91095635Y-75893308D01*
X91050916Y-75726415D01*
X91036741Y-75673511D01*
X91036738Y-75673502D01*
X90995687Y-75585468D01*
X90940568Y-75467266D01*
X90810047Y-75280861D01*
X90810045Y-75280858D01*
X90649141Y-75119954D01*
X90462734Y-74989432D01*
X90462732Y-74989431D01*
X90256497Y-74893261D01*
X90256488Y-74893258D01*
X90036697Y-74834366D01*
X90036693Y-74834365D01*
X90036692Y-74834365D01*
X90036691Y-74834364D01*
X90036686Y-74834364D01*
X89810002Y-74814532D01*
X89809998Y-74814532D01*
X89583313Y-74834364D01*
X89583302Y-74834366D01*
X89363511Y-74893258D01*
X89363502Y-74893261D01*
X89157267Y-74989431D01*
X89157265Y-74989432D01*
X88970858Y-75119954D01*
X88809954Y-75280858D01*
X88679432Y-75467265D01*
X88679431Y-75467267D01*
X88583261Y-75673502D01*
X88583258Y-75673511D01*
X88524366Y-75893302D01*
X88524364Y-75893313D01*
X88504532Y-76119998D01*
X52717087Y-76119998D01*
X52579611Y-71399998D01*
X60125019Y-71399998D01*
X60125019Y-71400001D01*
X60144918Y-71678223D01*
X60144919Y-71678230D01*
X60204207Y-71950774D01*
X60301689Y-72212134D01*
X60435361Y-72456938D01*
X60535602Y-72590843D01*
X61515387Y-71611058D01*
X61520889Y-71631591D01*
X61599881Y-71768408D01*
X61711592Y-71880119D01*
X61848409Y-71959111D01*
X61868940Y-71964612D01*
X60889155Y-72944396D01*
X61023061Y-73044637D01*
X61023061Y-73044638D01*
X61267865Y-73178310D01*
X61529225Y-73275792D01*
X61801769Y-73335080D01*
X61801776Y-73335081D01*
X62079999Y-73354981D01*
X62080001Y-73354981D01*
X62358223Y-73335081D01*
X62358230Y-73335080D01*
X62630774Y-73275792D01*
X62892134Y-73178310D01*
X63136942Y-73044635D01*
X63270842Y-72944396D01*
X63270843Y-72944396D01*
X62291058Y-71964612D01*
X62311591Y-71959111D01*
X62448408Y-71880119D01*
X62560119Y-71768408D01*
X62639111Y-71631591D01*
X62644612Y-71611059D01*
X63624396Y-72590843D01*
X63624396Y-72590842D01*
X63724635Y-72456942D01*
X63858310Y-72212134D01*
X63955792Y-71950774D01*
X64001643Y-71739998D01*
X104394532Y-71739998D01*
X104394532Y-71740001D01*
X104414364Y-71966686D01*
X104414366Y-71966697D01*
X104473258Y-72186488D01*
X104473261Y-72186497D01*
X104569431Y-72392732D01*
X104569432Y-72392734D01*
X104699954Y-72579141D01*
X104860858Y-72740045D01*
X104860861Y-72740047D01*
X105047266Y-72870568D01*
X105105275Y-72897618D01*
X105157714Y-72943791D01*
X105176866Y-73010984D01*
X105156650Y-73077865D01*
X105105275Y-73122382D01*
X105047267Y-73149431D01*
X105047265Y-73149432D01*
X104860858Y-73279954D01*
X104699954Y-73440858D01*
X104569432Y-73627265D01*
X104569431Y-73627267D01*
X104473261Y-73833502D01*
X104473258Y-73833511D01*
X104414366Y-74053302D01*
X104414364Y-74053313D01*
X104394532Y-74279998D01*
X104394532Y-74280001D01*
X104414364Y-74506686D01*
X104414366Y-74506697D01*
X104473258Y-74726488D01*
X104473261Y-74726497D01*
X104569431Y-74932732D01*
X104569432Y-74932734D01*
X104699954Y-75119141D01*
X104860858Y-75280045D01*
X104907693Y-75312839D01*
X105047266Y-75410568D01*
X105105275Y-75437618D01*
X105157714Y-75483791D01*
X105176866Y-75550984D01*
X105156650Y-75617865D01*
X105105275Y-75662382D01*
X105047267Y-75689431D01*
X105047265Y-75689432D01*
X104860858Y-75819954D01*
X104699954Y-75980858D01*
X104569432Y-76167265D01*
X104569431Y-76167267D01*
X104473261Y-76373502D01*
X104473258Y-76373511D01*
X104414366Y-76593302D01*
X104414364Y-76593313D01*
X104394532Y-76819998D01*
X104394532Y-76820001D01*
X104414364Y-77046686D01*
X104414366Y-77046697D01*
X104473258Y-77266488D01*
X104473261Y-77266497D01*
X104569431Y-77472732D01*
X104569432Y-77472734D01*
X104699954Y-77659141D01*
X104860858Y-77820045D01*
X104860861Y-77820047D01*
X105047266Y-77950568D01*
X105253504Y-78046739D01*
X105473308Y-78105635D01*
X105635230Y-78119801D01*
X105699998Y-78125468D01*
X105700000Y-78125468D01*
X105700002Y-78125468D01*
X105756673Y-78120509D01*
X105926692Y-78105635D01*
X106146496Y-78046739D01*
X106352734Y-77950568D01*
X106539139Y-77820047D01*
X106700047Y-77659139D01*
X106830568Y-77472734D01*
X106926739Y-77266496D01*
X106985635Y-77046692D01*
X107005468Y-76820000D01*
X106985635Y-76593308D01*
X106926739Y-76373504D01*
X106830568Y-76167266D01*
X106700047Y-75980861D01*
X106700045Y-75980858D01*
X106539141Y-75819954D01*
X106352734Y-75689432D01*
X106352728Y-75689429D01*
X106325038Y-75676517D01*
X106294724Y-75662381D01*
X106242285Y-75616210D01*
X106223133Y-75549017D01*
X106243348Y-75482135D01*
X106294725Y-75437618D01*
X106352734Y-75410568D01*
X106539139Y-75280047D01*
X106700047Y-75119139D01*
X106830568Y-74932734D01*
X106926739Y-74726496D01*
X106985635Y-74506692D01*
X107005468Y-74280000D01*
X106985635Y-74053308D01*
X106926739Y-73833504D01*
X106830568Y-73627266D01*
X106700047Y-73440861D01*
X106700045Y-73440858D01*
X106539141Y-73279954D01*
X106352734Y-73149432D01*
X106352728Y-73149429D01*
X106294725Y-73122382D01*
X106242285Y-73076210D01*
X106223133Y-73009017D01*
X106243348Y-72942135D01*
X106294725Y-72897618D01*
X106352734Y-72870568D01*
X106539139Y-72740047D01*
X106700047Y-72579139D01*
X106830568Y-72392734D01*
X106926739Y-72186496D01*
X106985635Y-71966692D01*
X107005161Y-71743511D01*
X107005468Y-71740001D01*
X107005468Y-71739998D01*
X106985635Y-71513313D01*
X106985635Y-71513308D01*
X106926739Y-71293504D01*
X106830568Y-71087266D01*
X106700047Y-70900861D01*
X106700045Y-70900858D01*
X106539143Y-70739956D01*
X106514536Y-70722726D01*
X106470912Y-70668149D01*
X106463719Y-70598650D01*
X106495241Y-70536296D01*
X106555471Y-70500882D01*
X106572404Y-70497861D01*
X106607483Y-70494091D01*
X106742331Y-70443796D01*
X106857546Y-70357546D01*
X106943796Y-70242331D01*
X106994091Y-70107483D01*
X107000500Y-70047873D01*
X107000499Y-69199998D01*
X112014532Y-69199998D01*
X112014532Y-69200001D01*
X112034364Y-69426686D01*
X112034366Y-69426697D01*
X112093258Y-69646488D01*
X112093261Y-69646497D01*
X112189431Y-69852732D01*
X112189432Y-69852734D01*
X112319954Y-70039141D01*
X112480858Y-70200045D01*
X112480861Y-70200047D01*
X112667266Y-70330568D01*
X112725275Y-70357618D01*
X112777714Y-70403791D01*
X112796866Y-70470984D01*
X112776650Y-70537865D01*
X112725275Y-70582382D01*
X112667267Y-70609431D01*
X112667265Y-70609432D01*
X112480858Y-70739954D01*
X112319954Y-70900858D01*
X112189432Y-71087265D01*
X112189431Y-71087267D01*
X112093261Y-71293502D01*
X112093258Y-71293511D01*
X112034366Y-71513302D01*
X112034364Y-71513313D01*
X112014532Y-71739998D01*
X112014532Y-71740001D01*
X112034364Y-71966686D01*
X112034366Y-71966697D01*
X112093258Y-72186488D01*
X112093261Y-72186497D01*
X112189431Y-72392732D01*
X112189432Y-72392734D01*
X112319954Y-72579141D01*
X112480858Y-72740045D01*
X112480861Y-72740047D01*
X112667266Y-72870568D01*
X112725275Y-72897618D01*
X112777714Y-72943791D01*
X112796866Y-73010984D01*
X112776650Y-73077865D01*
X112725275Y-73122382D01*
X112667267Y-73149431D01*
X112667265Y-73149432D01*
X112480858Y-73279954D01*
X112319954Y-73440858D01*
X112189432Y-73627265D01*
X112189431Y-73627267D01*
X112093261Y-73833502D01*
X112093258Y-73833511D01*
X112034366Y-74053302D01*
X112034364Y-74053313D01*
X112014532Y-74279998D01*
X112014532Y-74280001D01*
X112034364Y-74506686D01*
X112034366Y-74506697D01*
X112093258Y-74726488D01*
X112093261Y-74726497D01*
X112189431Y-74932732D01*
X112189432Y-74932734D01*
X112319954Y-75119141D01*
X112480858Y-75280045D01*
X112527693Y-75312839D01*
X112667266Y-75410568D01*
X112725865Y-75437893D01*
X112778305Y-75484065D01*
X112797457Y-75551258D01*
X112777242Y-75618139D01*
X112725867Y-75662657D01*
X112667515Y-75689867D01*
X112481179Y-75820342D01*
X112320342Y-75981179D01*
X112189865Y-76167517D01*
X112093734Y-76373673D01*
X112093730Y-76373682D01*
X112041127Y-76569999D01*
X112041128Y-76570000D01*
X113004314Y-76570000D01*
X112999920Y-76574394D01*
X112947259Y-76665606D01*
X112920000Y-76767339D01*
X112920000Y-76872661D01*
X112947259Y-76974394D01*
X112999920Y-77065606D01*
X113004314Y-77070000D01*
X112041128Y-77070000D01*
X112093730Y-77266317D01*
X112093734Y-77266326D01*
X112189865Y-77472482D01*
X112320342Y-77658820D01*
X112481179Y-77819657D01*
X112667517Y-77950134D01*
X112873673Y-78046265D01*
X112873682Y-78046269D01*
X113069999Y-78098872D01*
X113070000Y-78098871D01*
X113070000Y-77135686D01*
X113074394Y-77140080D01*
X113165606Y-77192741D01*
X113267339Y-77220000D01*
X113372661Y-77220000D01*
X113474394Y-77192741D01*
X113565606Y-77140080D01*
X113570000Y-77135686D01*
X113570000Y-78098872D01*
X113766317Y-78046269D01*
X113766326Y-78046265D01*
X113972482Y-77950134D01*
X114158820Y-77819657D01*
X114319657Y-77658820D01*
X114450134Y-77472482D01*
X114546265Y-77266326D01*
X114546269Y-77266317D01*
X114598872Y-77070000D01*
X113635686Y-77070000D01*
X113640080Y-77065606D01*
X113692741Y-76974394D01*
X113720000Y-76872661D01*
X113720000Y-76767339D01*
X113692741Y-76665606D01*
X113640080Y-76574394D01*
X113635686Y-76570000D01*
X114598872Y-76570000D01*
X114598872Y-76569999D01*
X114546269Y-76373682D01*
X114546265Y-76373673D01*
X114450134Y-76167517D01*
X114319657Y-75981179D01*
X114158820Y-75820342D01*
X113972482Y-75689865D01*
X113914133Y-75662657D01*
X113861694Y-75616484D01*
X113842542Y-75549291D01*
X113862758Y-75482410D01*
X113914129Y-75437895D01*
X113972734Y-75410568D01*
X114159139Y-75280047D01*
X114320047Y-75119139D01*
X114450568Y-74932734D01*
X114546739Y-74726496D01*
X114605635Y-74506692D01*
X114625468Y-74280000D01*
X114605635Y-74053308D01*
X114599962Y-74032135D01*
X158199500Y-74032135D01*
X158199500Y-76727870D01*
X158199501Y-76727876D01*
X158205908Y-76787483D01*
X158256202Y-76922328D01*
X158256206Y-76922335D01*
X158342452Y-77037544D01*
X158342455Y-77037547D01*
X158457664Y-77123793D01*
X158457671Y-77123797D01*
X158592517Y-77174091D01*
X158592516Y-77174091D01*
X158599444Y-77174835D01*
X158652127Y-77180500D01*
X161347872Y-77180499D01*
X161407483Y-77174091D01*
X161542331Y-77123796D01*
X161657546Y-77037546D01*
X161743796Y-76922331D01*
X161794091Y-76787483D01*
X161800500Y-76727873D01*
X161800499Y-74032128D01*
X161794091Y-73972517D01*
X161743796Y-73837669D01*
X161743795Y-73837668D01*
X161743793Y-73837664D01*
X161657547Y-73722455D01*
X161657544Y-73722452D01*
X161542335Y-73636206D01*
X161542328Y-73636202D01*
X161407482Y-73585908D01*
X161407483Y-73585908D01*
X161347883Y-73579501D01*
X161347881Y-73579500D01*
X161347873Y-73579500D01*
X161347865Y-73579500D01*
X160749500Y-73579500D01*
X160682461Y-73559815D01*
X160636706Y-73507011D01*
X160625500Y-73455500D01*
X160625500Y-72214188D01*
X160645185Y-72147149D01*
X160678377Y-72112613D01*
X160726836Y-72078681D01*
X160839139Y-72000047D01*
X161000047Y-71839139D01*
X161130568Y-71652734D01*
X161226739Y-71446496D01*
X161285635Y-71226692D01*
X161305468Y-71000000D01*
X161302253Y-70963258D01*
X161292277Y-70849225D01*
X161285635Y-70773308D01*
X161226739Y-70553504D01*
X161130568Y-70347266D01*
X161000047Y-70160861D01*
X161000045Y-70160858D01*
X160839141Y-69999954D01*
X160652734Y-69869432D01*
X160652732Y-69869431D01*
X160446497Y-69773261D01*
X160446488Y-69773258D01*
X160226697Y-69714366D01*
X160226693Y-69714365D01*
X160226692Y-69714365D01*
X160226691Y-69714364D01*
X160226686Y-69714364D01*
X160000002Y-69694532D01*
X159999998Y-69694532D01*
X159773313Y-69714364D01*
X159773302Y-69714366D01*
X159553511Y-69773258D01*
X159553502Y-69773261D01*
X159347267Y-69869431D01*
X159347265Y-69869432D01*
X159160858Y-69999954D01*
X158999954Y-70160858D01*
X158869432Y-70347265D01*
X158869431Y-70347267D01*
X158773261Y-70553502D01*
X158773258Y-70553511D01*
X158714366Y-70773302D01*
X158714364Y-70773313D01*
X158694532Y-70999998D01*
X158694532Y-71000001D01*
X158714364Y-71226686D01*
X158714366Y-71226697D01*
X158773258Y-71446488D01*
X158773261Y-71446497D01*
X158869431Y-71652732D01*
X158869432Y-71652734D01*
X158999954Y-71839141D01*
X159160858Y-72000045D01*
X159321623Y-72112613D01*
X159365248Y-72167189D01*
X159374500Y-72214188D01*
X159374500Y-73455500D01*
X159354815Y-73522539D01*
X159302011Y-73568294D01*
X159250500Y-73579500D01*
X158652129Y-73579500D01*
X158652123Y-73579501D01*
X158592516Y-73585908D01*
X158457671Y-73636202D01*
X158457664Y-73636206D01*
X158342455Y-73722452D01*
X158342452Y-73722455D01*
X158256206Y-73837664D01*
X158256202Y-73837671D01*
X158205908Y-73972517D01*
X158199501Y-74032116D01*
X158199501Y-74032123D01*
X158199500Y-74032135D01*
X114599962Y-74032135D01*
X114546739Y-73833504D01*
X114450568Y-73627266D01*
X114320047Y-73440861D01*
X114320045Y-73440858D01*
X114159141Y-73279954D01*
X113972734Y-73149432D01*
X113972728Y-73149429D01*
X113914725Y-73122382D01*
X113862285Y-73076210D01*
X113843133Y-73009017D01*
X113863348Y-72942135D01*
X113914725Y-72897618D01*
X113972734Y-72870568D01*
X114159139Y-72740047D01*
X114320047Y-72579139D01*
X114450568Y-72392734D01*
X114545106Y-72189998D01*
X134694532Y-72189998D01*
X134694532Y-72190001D01*
X134714364Y-72416686D01*
X134714366Y-72416697D01*
X134773258Y-72636488D01*
X134773261Y-72636497D01*
X134869431Y-72842732D01*
X134869432Y-72842734D01*
X134999954Y-73029141D01*
X135160858Y-73190045D01*
X135160861Y-73190047D01*
X135347266Y-73320568D01*
X135553504Y-73416739D01*
X135553509Y-73416740D01*
X135553511Y-73416741D01*
X135606415Y-73430916D01*
X135773308Y-73475635D01*
X135935230Y-73489801D01*
X135999998Y-73495468D01*
X136000000Y-73495468D01*
X136000002Y-73495468D01*
X136056673Y-73490509D01*
X136226692Y-73475635D01*
X136446496Y-73416739D01*
X136652734Y-73320568D01*
X136839139Y-73190047D01*
X137000047Y-73029139D01*
X137130568Y-72842734D01*
X137226739Y-72636496D01*
X137285635Y-72416692D01*
X137305468Y-72190000D01*
X137305161Y-72186496D01*
X137299801Y-72125230D01*
X137285635Y-71963308D01*
X137226739Y-71743504D01*
X137130568Y-71537266D01*
X137000047Y-71350861D01*
X137000045Y-71350858D01*
X136839141Y-71189954D01*
X136652734Y-71059432D01*
X136652732Y-71059431D01*
X136446497Y-70963261D01*
X136446488Y-70963258D01*
X136226697Y-70904366D01*
X136226693Y-70904365D01*
X136226692Y-70904365D01*
X136226691Y-70904364D01*
X136226686Y-70904364D01*
X136000002Y-70884532D01*
X135999998Y-70884532D01*
X135773313Y-70904364D01*
X135773302Y-70904366D01*
X135553511Y-70963258D01*
X135553502Y-70963261D01*
X135347267Y-71059431D01*
X135347265Y-71059432D01*
X135160858Y-71189954D01*
X134999954Y-71350858D01*
X134869432Y-71537265D01*
X134869431Y-71537267D01*
X134773261Y-71743502D01*
X134773258Y-71743511D01*
X134714366Y-71963302D01*
X134714364Y-71963313D01*
X134694532Y-72189998D01*
X114545106Y-72189998D01*
X114546739Y-72186496D01*
X114605635Y-71966692D01*
X114625161Y-71743511D01*
X114625468Y-71740001D01*
X114625468Y-71739998D01*
X114605635Y-71513313D01*
X114605635Y-71513308D01*
X114546739Y-71293504D01*
X114450568Y-71087266D01*
X114320047Y-70900861D01*
X114320045Y-70900858D01*
X114159141Y-70739954D01*
X113972734Y-70609432D01*
X113972728Y-70609429D01*
X113945038Y-70596517D01*
X113914724Y-70582381D01*
X113862285Y-70536210D01*
X113861124Y-70532135D01*
X147699500Y-70532135D01*
X147699500Y-73227870D01*
X147699501Y-73227876D01*
X147705908Y-73287483D01*
X147756202Y-73422328D01*
X147756206Y-73422335D01*
X147842452Y-73537544D01*
X147842455Y-73537547D01*
X147957664Y-73623793D01*
X147957671Y-73623797D01*
X148092517Y-73674091D01*
X148092516Y-73674091D01*
X148099444Y-73674835D01*
X148152127Y-73680500D01*
X150847872Y-73680499D01*
X150907483Y-73674091D01*
X151042331Y-73623796D01*
X151157546Y-73537546D01*
X151243796Y-73422331D01*
X151294091Y-73287483D01*
X151300500Y-73227873D01*
X151300499Y-70532128D01*
X151294091Y-70472517D01*
X151293519Y-70470984D01*
X151243797Y-70337671D01*
X151243793Y-70337664D01*
X151157547Y-70222455D01*
X151157544Y-70222452D01*
X151042335Y-70136206D01*
X151042328Y-70136202D01*
X150907482Y-70085908D01*
X150907483Y-70085908D01*
X150847883Y-70079501D01*
X150847881Y-70079500D01*
X150847873Y-70079500D01*
X150847865Y-70079500D01*
X150249500Y-70079500D01*
X150182461Y-70059815D01*
X150136706Y-70007011D01*
X150125500Y-69955500D01*
X150125500Y-68524188D01*
X150145185Y-68457149D01*
X150178377Y-68422613D01*
X150266568Y-68360861D01*
X150339139Y-68310047D01*
X150500047Y-68149139D01*
X150630568Y-67962734D01*
X150726739Y-67756496D01*
X150785635Y-67536692D01*
X150805468Y-67310000D01*
X150802253Y-67273258D01*
X150798184Y-67226739D01*
X150785635Y-67083308D01*
X150735588Y-66896530D01*
X150726741Y-66863511D01*
X150726738Y-66863502D01*
X150715377Y-66839139D01*
X150630568Y-66657266D01*
X150500047Y-66470861D01*
X150500045Y-66470858D01*
X150339141Y-66309954D01*
X150152734Y-66179432D01*
X150152732Y-66179431D01*
X149946497Y-66083261D01*
X149946488Y-66083258D01*
X149726697Y-66024366D01*
X149726693Y-66024365D01*
X149726692Y-66024365D01*
X149726691Y-66024364D01*
X149726686Y-66024364D01*
X149500002Y-66004532D01*
X149499998Y-66004532D01*
X149273313Y-66024364D01*
X149273302Y-66024366D01*
X149053511Y-66083258D01*
X149053502Y-66083261D01*
X148847267Y-66179431D01*
X148847265Y-66179432D01*
X148660858Y-66309954D01*
X148499954Y-66470858D01*
X148369432Y-66657265D01*
X148369431Y-66657267D01*
X148273261Y-66863502D01*
X148273258Y-66863511D01*
X148214366Y-67083302D01*
X148214364Y-67083313D01*
X148194532Y-67309998D01*
X148194532Y-67310001D01*
X148214364Y-67536686D01*
X148214366Y-67536697D01*
X148273258Y-67756488D01*
X148273261Y-67756497D01*
X148369431Y-67962732D01*
X148369432Y-67962734D01*
X148499954Y-68149141D01*
X148660858Y-68310045D01*
X148821623Y-68422613D01*
X148865248Y-68477189D01*
X148874500Y-68524188D01*
X148874500Y-69955500D01*
X148854815Y-70022539D01*
X148802011Y-70068294D01*
X148750500Y-70079500D01*
X148152129Y-70079500D01*
X148152123Y-70079501D01*
X148092516Y-70085908D01*
X147957671Y-70136202D01*
X147957664Y-70136206D01*
X147842455Y-70222452D01*
X147842452Y-70222455D01*
X147756206Y-70337664D01*
X147756202Y-70337671D01*
X147705908Y-70472517D01*
X147702900Y-70500500D01*
X147699501Y-70532123D01*
X147699500Y-70532135D01*
X113861124Y-70532135D01*
X113843133Y-70469017D01*
X113863348Y-70402135D01*
X113914725Y-70357618D01*
X113972734Y-70330568D01*
X114159139Y-70200047D01*
X114320047Y-70039139D01*
X114450568Y-69852734D01*
X114546739Y-69646496D01*
X114605635Y-69426692D01*
X114625468Y-69200000D01*
X114624230Y-69185855D01*
X114615809Y-69089597D01*
X114605635Y-68973308D01*
X114546739Y-68753504D01*
X114450568Y-68547266D01*
X114320047Y-68360861D01*
X114320045Y-68360858D01*
X114159141Y-68199954D01*
X113972734Y-68069432D01*
X113972732Y-68069431D01*
X113766497Y-67973261D01*
X113766488Y-67973258D01*
X113546697Y-67914366D01*
X113546693Y-67914365D01*
X113546692Y-67914365D01*
X113546691Y-67914364D01*
X113546686Y-67914364D01*
X113320002Y-67894532D01*
X113319998Y-67894532D01*
X113093313Y-67914364D01*
X113093302Y-67914366D01*
X112873511Y-67973258D01*
X112873502Y-67973261D01*
X112667267Y-68069431D01*
X112667265Y-68069432D01*
X112480858Y-68199954D01*
X112319954Y-68360858D01*
X112189432Y-68547265D01*
X112189431Y-68547267D01*
X112093261Y-68753502D01*
X112093258Y-68753511D01*
X112034366Y-68973302D01*
X112034364Y-68973313D01*
X112014532Y-69199998D01*
X107000499Y-69199998D01*
X107000499Y-68352128D01*
X106994091Y-68292517D01*
X106986928Y-68273313D01*
X106943797Y-68157671D01*
X106943793Y-68157664D01*
X106857547Y-68042455D01*
X106857544Y-68042452D01*
X106742335Y-67956206D01*
X106742328Y-67956202D01*
X106607482Y-67905908D01*
X106607483Y-67905908D01*
X106547883Y-67899501D01*
X106547881Y-67899500D01*
X106547873Y-67899500D01*
X106547864Y-67899500D01*
X104852129Y-67899500D01*
X104852123Y-67899501D01*
X104792516Y-67905908D01*
X104657671Y-67956202D01*
X104657664Y-67956206D01*
X104542455Y-68042452D01*
X104542452Y-68042455D01*
X104456206Y-68157664D01*
X104456202Y-68157671D01*
X104405908Y-68292517D01*
X104400573Y-68342146D01*
X104399501Y-68352123D01*
X104399500Y-68352135D01*
X104399500Y-70047870D01*
X104399501Y-70047876D01*
X104405908Y-70107483D01*
X104456202Y-70242328D01*
X104456206Y-70242335D01*
X104542452Y-70357544D01*
X104542455Y-70357547D01*
X104657664Y-70443793D01*
X104657671Y-70443797D01*
X104702618Y-70460561D01*
X104792517Y-70494091D01*
X104827596Y-70497862D01*
X104892144Y-70524599D01*
X104931993Y-70581991D01*
X104934488Y-70651816D01*
X104898836Y-70711905D01*
X104885464Y-70722725D01*
X104860858Y-70739954D01*
X104699954Y-70900858D01*
X104569432Y-71087265D01*
X104569431Y-71087267D01*
X104473261Y-71293502D01*
X104473258Y-71293511D01*
X104414366Y-71513302D01*
X104414364Y-71513313D01*
X104394532Y-71739998D01*
X64001643Y-71739998D01*
X64015080Y-71678230D01*
X64015081Y-71678223D01*
X64034981Y-71400001D01*
X64034981Y-71399998D01*
X64015081Y-71121776D01*
X64015080Y-71121769D01*
X63955792Y-70849225D01*
X63858310Y-70587865D01*
X63724638Y-70343061D01*
X63624396Y-70209155D01*
X62644612Y-71188940D01*
X62639111Y-71168409D01*
X62560119Y-71031592D01*
X62448408Y-70919881D01*
X62311591Y-70840889D01*
X62291059Y-70835387D01*
X63270843Y-69855602D01*
X63136938Y-69755362D01*
X63136938Y-69755361D01*
X62892134Y-69621689D01*
X62630774Y-69524207D01*
X62358230Y-69464919D01*
X62358223Y-69464918D01*
X62080001Y-69445019D01*
X62079999Y-69445019D01*
X61801776Y-69464918D01*
X61801769Y-69464919D01*
X61529225Y-69524207D01*
X61267865Y-69621689D01*
X61023061Y-69755361D01*
X61023054Y-69755366D01*
X60889156Y-69855601D01*
X60889155Y-69855602D01*
X61868941Y-70835387D01*
X61848409Y-70840889D01*
X61711592Y-70919881D01*
X61599881Y-71031592D01*
X61520889Y-71168409D01*
X61515387Y-71188940D01*
X60535602Y-70209155D01*
X60535601Y-70209156D01*
X60435366Y-70343054D01*
X60435361Y-70343061D01*
X60301689Y-70587865D01*
X60204207Y-70849225D01*
X60144919Y-71121769D01*
X60144918Y-71121776D01*
X60125019Y-71399998D01*
X52579611Y-71399998D01*
X52447277Y-66856530D01*
X57859500Y-66856530D01*
X57859500Y-67063469D01*
X57899868Y-67266412D01*
X57899870Y-67266420D01*
X57979058Y-67457596D01*
X58094024Y-67629657D01*
X58240342Y-67775975D01*
X58240345Y-67775977D01*
X58412402Y-67890941D01*
X58603580Y-67970130D01*
X58804670Y-68010129D01*
X58806530Y-68010499D01*
X58806534Y-68010500D01*
X58806535Y-68010500D01*
X59013466Y-68010500D01*
X59013467Y-68010499D01*
X59216420Y-67970130D01*
X59407598Y-67890941D01*
X59579655Y-67775977D01*
X59725977Y-67629655D01*
X59840941Y-67457598D01*
X59920130Y-67266420D01*
X59960500Y-67063465D01*
X59960500Y-66959992D01*
X65595280Y-66959992D01*
X65595280Y-66960007D01*
X65614140Y-67247757D01*
X65614144Y-67247784D01*
X65670402Y-67530615D01*
X65670407Y-67530635D01*
X65763100Y-67803702D01*
X65763104Y-67803712D01*
X65890653Y-68062356D01*
X66050876Y-68302146D01*
X66050881Y-68302152D01*
X66075835Y-68330608D01*
X66075838Y-68330608D01*
X67084153Y-67322293D01*
X67091049Y-67338942D01*
X67178599Y-67469970D01*
X67290030Y-67581401D01*
X67421058Y-67668951D01*
X67437705Y-67675846D01*
X66429390Y-68684160D01*
X66429390Y-68684161D01*
X66457854Y-68709124D01*
X66697643Y-68869346D01*
X66956287Y-68996895D01*
X66956297Y-68996899D01*
X67229364Y-69089592D01*
X67229384Y-69089597D01*
X67512215Y-69145855D01*
X67512242Y-69145859D01*
X67799993Y-69164720D01*
X67800007Y-69164720D01*
X68087757Y-69145859D01*
X68087784Y-69145855D01*
X68370615Y-69089597D01*
X68370635Y-69089592D01*
X68643702Y-68996899D01*
X68643712Y-68996895D01*
X68902356Y-68869346D01*
X69142141Y-68709126D01*
X69142147Y-68709121D01*
X69170608Y-68684162D01*
X69170608Y-68684161D01*
X68986445Y-68499998D01*
X88504532Y-68499998D01*
X88504532Y-68500001D01*
X88524364Y-68726686D01*
X88524366Y-68726697D01*
X88583258Y-68946488D01*
X88583261Y-68946497D01*
X88679431Y-69152732D01*
X88679432Y-69152734D01*
X88809954Y-69339141D01*
X88970858Y-69500045D01*
X88970861Y-69500047D01*
X89157266Y-69630568D01*
X89363504Y-69726739D01*
X89583308Y-69785635D01*
X89745230Y-69799801D01*
X89809998Y-69805468D01*
X89810000Y-69805468D01*
X89810002Y-69805468D01*
X89866673Y-69800509D01*
X90036692Y-69785635D01*
X90256496Y-69726739D01*
X90462734Y-69630568D01*
X90649139Y-69500047D01*
X90810047Y-69339139D01*
X90940568Y-69152734D01*
X91036739Y-68946496D01*
X91095635Y-68726692D01*
X91115468Y-68500000D01*
X91095635Y-68273308D01*
X91036739Y-68053504D01*
X90940568Y-67847266D01*
X90810047Y-67660861D01*
X90810045Y-67660858D01*
X90649141Y-67499954D01*
X90462734Y-67369432D01*
X90462732Y-67369431D01*
X90256497Y-67273261D01*
X90256488Y-67273258D01*
X90036697Y-67214366D01*
X90036693Y-67214365D01*
X90036692Y-67214365D01*
X90036691Y-67214364D01*
X90036686Y-67214364D01*
X89810002Y-67194532D01*
X89809998Y-67194532D01*
X89583313Y-67214364D01*
X89583302Y-67214366D01*
X89363511Y-67273258D01*
X89363502Y-67273261D01*
X89157267Y-67369431D01*
X89157265Y-67369432D01*
X88970858Y-67499954D01*
X88809954Y-67660858D01*
X88679432Y-67847265D01*
X88679431Y-67847267D01*
X88583261Y-68053502D01*
X88583258Y-68053511D01*
X88524366Y-68273302D01*
X88524364Y-68273313D01*
X88504532Y-68499998D01*
X68986445Y-68499998D01*
X68162293Y-67675846D01*
X68178942Y-67668951D01*
X68309970Y-67581401D01*
X68421401Y-67469970D01*
X68508951Y-67338942D01*
X68515846Y-67322293D01*
X69524161Y-68330608D01*
X69524162Y-68330608D01*
X69549121Y-68302147D01*
X69549126Y-68302141D01*
X69709346Y-68062356D01*
X69836895Y-67803712D01*
X69836899Y-67803702D01*
X69929592Y-67530635D01*
X69929597Y-67530615D01*
X69985855Y-67247784D01*
X69985859Y-67247757D01*
X70004720Y-66960007D01*
X70004720Y-66959992D01*
X69985859Y-66672242D01*
X69985855Y-66672215D01*
X69929597Y-66389384D01*
X69929592Y-66389364D01*
X69836899Y-66116297D01*
X69836895Y-66116287D01*
X69709346Y-65857643D01*
X69637421Y-65749999D01*
X91411127Y-65749999D01*
X91411128Y-65750000D01*
X92374314Y-65750000D01*
X92369920Y-65754394D01*
X92317259Y-65845606D01*
X92290000Y-65947339D01*
X92290000Y-66052661D01*
X92317259Y-66154394D01*
X92369920Y-66245606D01*
X92374314Y-66250000D01*
X91411128Y-66250000D01*
X91463730Y-66446317D01*
X91463734Y-66446326D01*
X91559865Y-66652482D01*
X91690342Y-66838820D01*
X91851179Y-66999657D01*
X92037517Y-67130134D01*
X92243673Y-67226265D01*
X92243682Y-67226269D01*
X92439999Y-67278872D01*
X92440000Y-67278871D01*
X92440000Y-66315686D01*
X92444394Y-66320080D01*
X92535606Y-66372741D01*
X92637339Y-66400000D01*
X92742661Y-66400000D01*
X92844394Y-66372741D01*
X92935606Y-66320080D01*
X92940000Y-66315686D01*
X92940000Y-67278872D01*
X93136317Y-67226269D01*
X93136326Y-67226265D01*
X93342482Y-67130134D01*
X93528820Y-66999657D01*
X93689657Y-66838820D01*
X93820134Y-66652482D01*
X93916265Y-66446326D01*
X93916269Y-66446317D01*
X93968872Y-66250000D01*
X93005686Y-66250000D01*
X93010080Y-66245606D01*
X93062741Y-66154394D01*
X93090000Y-66052661D01*
X93090000Y-65999998D01*
X99004532Y-65999998D01*
X99004532Y-66000001D01*
X99024364Y-66226686D01*
X99024366Y-66226697D01*
X99083258Y-66446488D01*
X99083261Y-66446497D01*
X99179431Y-66652732D01*
X99179432Y-66652734D01*
X99309954Y-66839141D01*
X99470858Y-67000045D01*
X99470861Y-67000047D01*
X99657266Y-67130568D01*
X99863504Y-67226739D01*
X100083308Y-67285635D01*
X100245230Y-67299801D01*
X100309998Y-67305468D01*
X100310000Y-67305468D01*
X100310002Y-67305468D01*
X100366673Y-67300509D01*
X100536692Y-67285635D01*
X100756496Y-67226739D01*
X100962734Y-67130568D01*
X101149139Y-67000047D01*
X101310047Y-66839139D01*
X101440568Y-66652734D01*
X101536739Y-66446496D01*
X101595635Y-66226692D01*
X101615468Y-66000000D01*
X101595635Y-65773308D01*
X101536739Y-65553504D01*
X101440568Y-65347266D01*
X101310047Y-65160861D01*
X101310045Y-65160858D01*
X101149141Y-64999954D01*
X100962734Y-64869432D01*
X100962732Y-64869431D01*
X100756497Y-64773261D01*
X100756488Y-64773258D01*
X100536697Y-64714366D01*
X100536693Y-64714365D01*
X100536692Y-64714365D01*
X100536691Y-64714364D01*
X100536686Y-64714364D01*
X100310002Y-64694532D01*
X100309998Y-64694532D01*
X100083313Y-64714364D01*
X100083302Y-64714366D01*
X99863511Y-64773258D01*
X99863502Y-64773261D01*
X99657267Y-64869431D01*
X99657265Y-64869432D01*
X99470858Y-64999954D01*
X99309954Y-65160858D01*
X99179432Y-65347265D01*
X99179431Y-65347267D01*
X99083261Y-65553502D01*
X99083258Y-65553511D01*
X99024366Y-65773302D01*
X99024364Y-65773313D01*
X99004532Y-65999998D01*
X93090000Y-65999998D01*
X93090000Y-65947339D01*
X93062741Y-65845606D01*
X93010080Y-65754394D01*
X93005686Y-65750000D01*
X93968872Y-65750000D01*
X93968872Y-65749999D01*
X93916269Y-65553682D01*
X93916265Y-65553673D01*
X93820134Y-65347517D01*
X93689657Y-65161179D01*
X93528820Y-65000342D01*
X93342482Y-64869865D01*
X93136328Y-64773734D01*
X92940000Y-64721127D01*
X92940000Y-65684314D01*
X92935606Y-65679920D01*
X92844394Y-65627259D01*
X92742661Y-65600000D01*
X92637339Y-65600000D01*
X92535606Y-65627259D01*
X92444394Y-65679920D01*
X92440000Y-65684314D01*
X92440000Y-64721127D01*
X92243671Y-64773734D01*
X92037517Y-64869865D01*
X91851179Y-65000342D01*
X91690342Y-65161179D01*
X91559865Y-65347517D01*
X91463734Y-65553673D01*
X91463730Y-65553682D01*
X91411127Y-65749999D01*
X69637421Y-65749999D01*
X69549124Y-65617854D01*
X69524161Y-65589390D01*
X69524160Y-65589390D01*
X68515846Y-66597705D01*
X68508951Y-66581058D01*
X68421401Y-66450030D01*
X68309970Y-66338599D01*
X68178942Y-66251049D01*
X68162293Y-66244152D01*
X69170608Y-65235838D01*
X69170608Y-65235835D01*
X69142152Y-65210881D01*
X69142146Y-65210876D01*
X68902356Y-65050653D01*
X68643712Y-64923104D01*
X68643702Y-64923100D01*
X68370635Y-64830407D01*
X68370615Y-64830402D01*
X68087784Y-64774144D01*
X68087757Y-64774140D01*
X67800007Y-64755280D01*
X67799993Y-64755280D01*
X67512242Y-64774140D01*
X67512215Y-64774144D01*
X67229384Y-64830402D01*
X67229364Y-64830407D01*
X66956297Y-64923100D01*
X66956287Y-64923104D01*
X66697643Y-65050653D01*
X66457851Y-65210878D01*
X66429390Y-65235837D01*
X67437706Y-66244152D01*
X67421058Y-66251049D01*
X67290030Y-66338599D01*
X67178599Y-66450030D01*
X67091049Y-66581058D01*
X67084153Y-66597706D01*
X66075837Y-65589390D01*
X66050878Y-65617851D01*
X65890653Y-65857643D01*
X65763104Y-66116287D01*
X65763100Y-66116297D01*
X65670407Y-66389364D01*
X65670402Y-66389384D01*
X65614144Y-66672215D01*
X65614140Y-66672242D01*
X65595280Y-66959992D01*
X59960500Y-66959992D01*
X59960500Y-66856535D01*
X59920130Y-66653580D01*
X59840941Y-66462402D01*
X59725977Y-66290345D01*
X59725975Y-66290342D01*
X59579657Y-66144024D01*
X59442921Y-66052661D01*
X59407598Y-66029059D01*
X59396268Y-66024366D01*
X59216420Y-65949870D01*
X59216412Y-65949868D01*
X59013469Y-65909500D01*
X59013465Y-65909500D01*
X58806535Y-65909500D01*
X58806530Y-65909500D01*
X58603587Y-65949868D01*
X58603579Y-65949870D01*
X58412403Y-66029058D01*
X58240342Y-66144024D01*
X58094024Y-66290342D01*
X57979058Y-66462403D01*
X57899870Y-66653579D01*
X57899868Y-66653587D01*
X57859500Y-66856530D01*
X52447277Y-66856530D01*
X52225335Y-59236530D01*
X62939500Y-59236530D01*
X62939500Y-59443469D01*
X62979868Y-59646412D01*
X62979870Y-59646420D01*
X63059058Y-59837596D01*
X63174024Y-60009657D01*
X63320342Y-60155975D01*
X63320345Y-60155977D01*
X63492402Y-60270941D01*
X63683580Y-60350130D01*
X63884670Y-60390129D01*
X63886530Y-60390499D01*
X63886534Y-60390500D01*
X63886535Y-60390500D01*
X64093466Y-60390500D01*
X64093467Y-60390499D01*
X64296420Y-60350130D01*
X64487598Y-60270941D01*
X64659655Y-60155977D01*
X64805977Y-60009655D01*
X64920941Y-59837598D01*
X65000130Y-59646420D01*
X65040500Y-59443465D01*
X65040500Y-59340000D01*
X66229778Y-59340000D01*
X66239181Y-59483469D01*
X66248644Y-59627837D01*
X66248646Y-59627849D01*
X66304917Y-59910745D01*
X66304921Y-59910760D01*
X66397642Y-60183905D01*
X66525219Y-60442606D01*
X66525223Y-60442613D01*
X66685478Y-60682452D01*
X66875672Y-60899327D01*
X67092547Y-61089521D01*
X67279475Y-61214422D01*
X67332389Y-61249778D01*
X67591098Y-61377359D01*
X67864247Y-61470081D01*
X68147161Y-61526356D01*
X68435000Y-61545222D01*
X68722839Y-61526356D01*
X69005753Y-61470081D01*
X69278902Y-61377359D01*
X69537611Y-61249778D01*
X69777454Y-61089520D01*
X69994327Y-60899327D01*
X70184520Y-60682454D01*
X70206082Y-60650185D01*
X70209139Y-60645610D01*
X70262751Y-60600804D01*
X70312241Y-60590500D01*
X148509952Y-60590500D01*
X148576991Y-60610185D01*
X148597628Y-60626814D01*
X148637633Y-60666819D01*
X148660862Y-60690048D01*
X148707143Y-60722454D01*
X148847266Y-60820568D01*
X149053504Y-60916739D01*
X149273308Y-60975635D01*
X149435230Y-60989801D01*
X149499998Y-60995468D01*
X149500000Y-60995468D01*
X149500002Y-60995468D01*
X149556673Y-60990509D01*
X149726692Y-60975635D01*
X149946496Y-60916739D01*
X150152734Y-60820568D01*
X150339139Y-60690047D01*
X150346734Y-60682452D01*
X150362368Y-60666819D01*
X150423691Y-60633334D01*
X150450049Y-60630500D01*
X170652759Y-60630500D01*
X170719798Y-60650185D01*
X170755861Y-60685610D01*
X170780478Y-60722452D01*
X170970672Y-60939327D01*
X171187547Y-61129521D01*
X171427386Y-61289776D01*
X171427393Y-61289780D01*
X171482632Y-61317021D01*
X171534052Y-61364326D01*
X171551733Y-61431922D01*
X171530063Y-61498346D01*
X171487216Y-61537065D01*
X171472787Y-61544943D01*
X171472784Y-61544945D01*
X171249439Y-61712138D01*
X171249421Y-61712154D01*
X171058395Y-61903181D01*
X170997072Y-61936666D01*
X170970714Y-61939500D01*
X160091578Y-61939500D01*
X159897173Y-61970290D01*
X159709970Y-62031117D01*
X159543409Y-62115985D01*
X159487114Y-62129500D01*
X159449336Y-62129500D01*
X159382297Y-62109815D01*
X159361655Y-62093181D01*
X159314648Y-62046174D01*
X159314646Y-62046172D01*
X159155405Y-61930476D01*
X159114104Y-61909432D01*
X158980030Y-61841117D01*
X158792826Y-61780290D01*
X158598422Y-61749500D01*
X158598417Y-61749500D01*
X158401583Y-61749500D01*
X158401578Y-61749500D01*
X158207173Y-61780290D01*
X158019969Y-61841117D01*
X157931914Y-61885985D01*
X157875619Y-61899500D01*
X73809286Y-61899500D01*
X73742247Y-61879815D01*
X73721605Y-61863181D01*
X73530578Y-61672154D01*
X73530560Y-61672138D01*
X73307215Y-61504945D01*
X73307207Y-61504940D01*
X73062342Y-61371233D01*
X73062338Y-61371231D01*
X72963230Y-61334266D01*
X72800923Y-61273729D01*
X72800919Y-61273728D01*
X72800916Y-61273727D01*
X72528299Y-61214422D01*
X72250001Y-61194518D01*
X72249999Y-61194518D01*
X71971700Y-61214422D01*
X71699083Y-61273727D01*
X71699078Y-61273728D01*
X71699077Y-61273729D01*
X71635875Y-61297301D01*
X71437661Y-61371231D01*
X71437657Y-61371233D01*
X71192792Y-61504940D01*
X71192784Y-61504945D01*
X70969439Y-61672138D01*
X70969421Y-61672154D01*
X70772154Y-61869421D01*
X70772138Y-61869439D01*
X70604945Y-62092784D01*
X70604940Y-62092792D01*
X70471233Y-62337657D01*
X70471231Y-62337661D01*
X70373727Y-62599083D01*
X70314422Y-62871700D01*
X70294518Y-63149998D01*
X70294518Y-63150001D01*
X70314422Y-63428299D01*
X70373727Y-63700916D01*
X70373729Y-63700923D01*
X70406953Y-63790000D01*
X70471231Y-63962338D01*
X70471233Y-63962342D01*
X70604940Y-64207207D01*
X70604945Y-64207215D01*
X70772138Y-64430560D01*
X70772154Y-64430578D01*
X70969421Y-64627845D01*
X70969439Y-64627861D01*
X71192784Y-64795054D01*
X71192792Y-64795059D01*
X71437657Y-64928766D01*
X71437661Y-64928768D01*
X71437663Y-64928769D01*
X71699077Y-65026271D01*
X71811159Y-65050653D01*
X71971700Y-65085577D01*
X71971702Y-65085577D01*
X71971706Y-65085578D01*
X72219014Y-65103265D01*
X72249999Y-65105482D01*
X72250000Y-65105482D01*
X72250001Y-65105482D01*
X72277881Y-65103487D01*
X72528294Y-65085578D01*
X72800923Y-65026271D01*
X73062337Y-64928769D01*
X73307213Y-64795056D01*
X73530568Y-64627855D01*
X73619541Y-64538882D01*
X73721605Y-64436819D01*
X73782928Y-64403334D01*
X73809286Y-64400500D01*
X158116829Y-64400500D01*
X158183868Y-64420185D01*
X158189715Y-64424182D01*
X158224595Y-64449524D01*
X158307454Y-64491742D01*
X158399969Y-64538882D01*
X158399971Y-64538882D01*
X158399974Y-64538884D01*
X158500318Y-64571487D01*
X158587173Y-64599709D01*
X158781578Y-64630500D01*
X158781583Y-64630500D01*
X158978416Y-64630500D01*
X159625857Y-64630500D01*
X159657949Y-64634724D01*
X159773308Y-64665635D01*
X159935230Y-64679801D01*
X159999998Y-64685468D01*
X160000000Y-64685468D01*
X160000002Y-64685468D01*
X160056673Y-64680509D01*
X160226692Y-64665635D01*
X160446496Y-64606739D01*
X160652734Y-64510568D01*
X160720776Y-64462924D01*
X160786981Y-64440598D01*
X160791898Y-64440500D01*
X170970714Y-64440500D01*
X171037753Y-64460185D01*
X171058395Y-64476819D01*
X171249421Y-64667845D01*
X171249439Y-64667861D01*
X171472784Y-64835054D01*
X171472792Y-64835059D01*
X171487749Y-64843226D01*
X171537155Y-64892630D01*
X171552008Y-64960903D01*
X171527592Y-65026368D01*
X171483169Y-65063270D01*
X171427650Y-65090649D01*
X171427644Y-65090653D01*
X171187851Y-65250878D01*
X171159390Y-65275837D01*
X172167706Y-66284152D01*
X172151058Y-66291049D01*
X172020030Y-66378599D01*
X171908599Y-66490030D01*
X171821049Y-66621058D01*
X171814153Y-66637706D01*
X170805837Y-65629390D01*
X170780878Y-65657851D01*
X170620653Y-65897643D01*
X170493104Y-66156287D01*
X170493100Y-66156297D01*
X170400407Y-66429364D01*
X170400402Y-66429384D01*
X170344144Y-66712215D01*
X170344140Y-66712242D01*
X170325280Y-66999992D01*
X170325280Y-67000007D01*
X170344140Y-67287757D01*
X170344144Y-67287784D01*
X170400402Y-67570615D01*
X170400407Y-67570635D01*
X170493100Y-67843702D01*
X170493104Y-67843712D01*
X170620653Y-68102356D01*
X170780876Y-68342146D01*
X170780881Y-68342152D01*
X170805835Y-68370608D01*
X170805838Y-68370608D01*
X171814153Y-67362293D01*
X171821049Y-67378942D01*
X171908599Y-67509970D01*
X172020030Y-67621401D01*
X172151058Y-67708951D01*
X172167705Y-67715846D01*
X171159390Y-68724160D01*
X171159390Y-68724161D01*
X171187854Y-68749124D01*
X171427643Y-68909346D01*
X171686287Y-69036895D01*
X171686297Y-69036899D01*
X171959364Y-69129592D01*
X171959384Y-69129597D01*
X172242215Y-69185855D01*
X172242242Y-69185859D01*
X172529993Y-69204720D01*
X172530007Y-69204720D01*
X172817757Y-69185859D01*
X172817784Y-69185855D01*
X173100615Y-69129597D01*
X173100635Y-69129592D01*
X173373702Y-69036899D01*
X173373712Y-69036895D01*
X173632356Y-68909346D01*
X173872141Y-68749126D01*
X173872147Y-68749121D01*
X173900608Y-68724162D01*
X173900608Y-68724161D01*
X172892293Y-67715846D01*
X172908942Y-67708951D01*
X173039970Y-67621401D01*
X173151401Y-67509970D01*
X173238951Y-67378942D01*
X173245846Y-67362293D01*
X174254161Y-68370608D01*
X174254162Y-68370608D01*
X174279121Y-68342147D01*
X174279126Y-68342141D01*
X174439346Y-68102356D01*
X174566895Y-67843712D01*
X174566899Y-67843702D01*
X174659592Y-67570635D01*
X174659597Y-67570615D01*
X174715855Y-67287784D01*
X174715859Y-67287757D01*
X174734720Y-67000007D01*
X174734720Y-66999992D01*
X174727938Y-66896530D01*
X180369500Y-66896530D01*
X180369500Y-67103469D01*
X180409868Y-67306412D01*
X180409870Y-67306420D01*
X180472489Y-67457596D01*
X180489059Y-67497598D01*
X180515177Y-67536686D01*
X180604024Y-67669657D01*
X180750342Y-67815975D01*
X180750345Y-67815977D01*
X180922402Y-67930941D01*
X181113580Y-68010130D01*
X181276075Y-68042452D01*
X181316530Y-68050499D01*
X181316534Y-68050500D01*
X181316535Y-68050500D01*
X181523466Y-68050500D01*
X181523467Y-68050499D01*
X181726420Y-68010130D01*
X181917598Y-67930941D01*
X182089655Y-67815977D01*
X182235977Y-67669655D01*
X182350941Y-67497598D01*
X182430130Y-67306420D01*
X182470500Y-67103465D01*
X182470500Y-66896535D01*
X182430130Y-66693580D01*
X182350941Y-66502402D01*
X182235977Y-66330345D01*
X182235975Y-66330342D01*
X182089657Y-66184024D01*
X181938848Y-66083258D01*
X181917598Y-66069059D01*
X181809695Y-66024364D01*
X181726420Y-65989870D01*
X181726412Y-65989868D01*
X181523469Y-65949500D01*
X181523465Y-65949500D01*
X181316535Y-65949500D01*
X181316530Y-65949500D01*
X181113587Y-65989868D01*
X181113579Y-65989870D01*
X180922403Y-66069058D01*
X180750342Y-66184024D01*
X180604024Y-66330342D01*
X180489058Y-66502403D01*
X180409870Y-66693579D01*
X180409868Y-66693587D01*
X180369500Y-66896530D01*
X174727938Y-66896530D01*
X174715859Y-66712242D01*
X174715855Y-66712215D01*
X174659597Y-66429384D01*
X174659592Y-66429364D01*
X174566899Y-66156297D01*
X174566895Y-66156287D01*
X174439346Y-65897643D01*
X174279124Y-65657854D01*
X174254161Y-65629390D01*
X174254160Y-65629390D01*
X173245846Y-66637705D01*
X173238951Y-66621058D01*
X173151401Y-66490030D01*
X173039970Y-66378599D01*
X172908942Y-66291049D01*
X172892293Y-66284152D01*
X173900608Y-65275838D01*
X173900608Y-65275835D01*
X173872152Y-65250881D01*
X173872146Y-65250876D01*
X173632358Y-65090655D01*
X173576830Y-65063271D01*
X173525411Y-65015965D01*
X173507730Y-64948370D01*
X173529400Y-64881945D01*
X173572248Y-64843227D01*
X173587213Y-64835056D01*
X173810568Y-64667855D01*
X174007855Y-64470568D01*
X174175056Y-64247213D01*
X174308769Y-64002337D01*
X174406271Y-63740923D01*
X174465578Y-63468294D01*
X174485482Y-63190000D01*
X174485482Y-63189998D01*
X175655019Y-63189998D01*
X175655019Y-63190001D01*
X175674918Y-63468223D01*
X175674919Y-63468230D01*
X175734207Y-63740774D01*
X175831689Y-64002134D01*
X175965361Y-64246938D01*
X176065602Y-64380843D01*
X177045387Y-63401058D01*
X177050889Y-63421591D01*
X177129881Y-63558408D01*
X177241592Y-63670119D01*
X177378409Y-63749111D01*
X177398940Y-63754612D01*
X176419155Y-64734396D01*
X176553061Y-64834637D01*
X176553061Y-64834638D01*
X176797865Y-64968310D01*
X177059225Y-65065792D01*
X177331769Y-65125080D01*
X177331776Y-65125081D01*
X177609999Y-65144981D01*
X177610001Y-65144981D01*
X177888223Y-65125081D01*
X177888230Y-65125080D01*
X178160774Y-65065792D01*
X178422134Y-64968310D01*
X178666942Y-64834635D01*
X178800842Y-64734396D01*
X178800843Y-64734396D01*
X177821058Y-63754612D01*
X177841591Y-63749111D01*
X177978408Y-63670119D01*
X178090119Y-63558408D01*
X178169111Y-63421591D01*
X178174612Y-63401059D01*
X179154396Y-64380843D01*
X179154396Y-64380842D01*
X179254635Y-64246942D01*
X179388310Y-64002134D01*
X179485792Y-63740774D01*
X179545080Y-63468230D01*
X179545081Y-63468223D01*
X179564981Y-63190001D01*
X179564981Y-63189998D01*
X179545081Y-62911776D01*
X179545080Y-62911769D01*
X179485792Y-62639225D01*
X179388310Y-62377865D01*
X179254638Y-62133061D01*
X179154396Y-61999155D01*
X178174612Y-62978940D01*
X178169111Y-62958409D01*
X178090119Y-62821592D01*
X177978408Y-62709881D01*
X177841591Y-62630889D01*
X177821059Y-62625387D01*
X178800843Y-61645602D01*
X178666938Y-61545362D01*
X178666938Y-61545361D01*
X178422134Y-61411689D01*
X178160774Y-61314207D01*
X177888230Y-61254919D01*
X177888223Y-61254918D01*
X177610001Y-61235019D01*
X177609999Y-61235019D01*
X177331776Y-61254918D01*
X177331769Y-61254919D01*
X177059225Y-61314207D01*
X176797865Y-61411689D01*
X176553061Y-61545361D01*
X176553054Y-61545366D01*
X176419156Y-61645601D01*
X176419155Y-61645602D01*
X177398941Y-62625387D01*
X177378409Y-62630889D01*
X177241592Y-62709881D01*
X177129881Y-62821592D01*
X177050889Y-62958409D01*
X177045387Y-62978940D01*
X176065602Y-61999155D01*
X176065601Y-61999156D01*
X175965366Y-62133054D01*
X175965361Y-62133061D01*
X175831689Y-62377865D01*
X175734207Y-62639225D01*
X175674919Y-62911769D01*
X175674918Y-62911776D01*
X175655019Y-63189998D01*
X174485482Y-63189998D01*
X174465578Y-62911706D01*
X174406271Y-62639077D01*
X174308769Y-62377663D01*
X174286927Y-62337663D01*
X174175059Y-62132792D01*
X174175054Y-62132784D01*
X174007861Y-61909439D01*
X174007845Y-61909421D01*
X173810578Y-61712154D01*
X173810560Y-61712138D01*
X173587215Y-61544945D01*
X173587213Y-61544944D01*
X173587211Y-61544943D01*
X173572784Y-61537065D01*
X173523380Y-61487661D01*
X173508527Y-61419388D01*
X173532943Y-61353924D01*
X173577365Y-61317021D01*
X173632611Y-61289778D01*
X173872454Y-61129520D01*
X174089327Y-60939327D01*
X174279520Y-60722454D01*
X174439778Y-60482611D01*
X174567359Y-60223902D01*
X174660081Y-59950753D01*
X174716356Y-59667839D01*
X174735222Y-59380000D01*
X174728440Y-59276530D01*
X185449500Y-59276530D01*
X185449500Y-59483469D01*
X185489868Y-59686412D01*
X185489870Y-59686420D01*
X185552489Y-59837596D01*
X185569059Y-59877598D01*
X185591217Y-59910760D01*
X185684024Y-60049657D01*
X185830342Y-60195975D01*
X185830345Y-60195977D01*
X186002402Y-60310941D01*
X186193580Y-60390130D01*
X186396530Y-60430499D01*
X186396534Y-60430500D01*
X186396535Y-60430500D01*
X186603466Y-60430500D01*
X186603467Y-60430499D01*
X186806420Y-60390130D01*
X186997598Y-60310941D01*
X187169655Y-60195977D01*
X187315977Y-60049655D01*
X187430941Y-59877598D01*
X187510130Y-59686420D01*
X187550500Y-59483465D01*
X187550500Y-59276535D01*
X187510130Y-59073580D01*
X187430941Y-58882402D01*
X187315977Y-58710345D01*
X187315975Y-58710342D01*
X187169657Y-58564024D01*
X187067991Y-58496094D01*
X186997598Y-58449059D01*
X186806420Y-58369870D01*
X186806412Y-58369868D01*
X186603469Y-58329500D01*
X186603465Y-58329500D01*
X186396535Y-58329500D01*
X186396530Y-58329500D01*
X186193587Y-58369868D01*
X186193579Y-58369870D01*
X186002403Y-58449058D01*
X185830342Y-58564024D01*
X185684024Y-58710342D01*
X185569058Y-58882403D01*
X185489870Y-59073579D01*
X185489868Y-59073587D01*
X185449500Y-59276530D01*
X174728440Y-59276530D01*
X174716356Y-59092161D01*
X174660081Y-58809247D01*
X174567359Y-58536098D01*
X174465476Y-58329500D01*
X174439780Y-58277393D01*
X174439776Y-58277386D01*
X174279521Y-58037547D01*
X174089327Y-57820672D01*
X173872452Y-57630478D01*
X173632613Y-57470223D01*
X173632606Y-57470219D01*
X173373905Y-57342642D01*
X173100760Y-57249921D01*
X173100754Y-57249919D01*
X173100753Y-57249919D01*
X173100751Y-57249918D01*
X173100745Y-57249917D01*
X172817849Y-57193646D01*
X172817839Y-57193644D01*
X172530000Y-57174778D01*
X172242161Y-57193644D01*
X172242155Y-57193645D01*
X172242150Y-57193646D01*
X171959254Y-57249917D01*
X171959239Y-57249921D01*
X171686094Y-57342642D01*
X171427393Y-57470219D01*
X171427386Y-57470223D01*
X171187547Y-57630478D01*
X170970672Y-57820672D01*
X170780478Y-58037547D01*
X170755861Y-58074390D01*
X170702249Y-58119196D01*
X170652759Y-58129500D01*
X149711578Y-58129500D01*
X149517172Y-58160291D01*
X149420683Y-58191642D01*
X149350841Y-58193637D01*
X149326074Y-58184198D01*
X149320020Y-58181113D01*
X149132828Y-58120291D01*
X148938422Y-58089500D01*
X148938417Y-58089500D01*
X70312241Y-58089500D01*
X70245202Y-58069815D01*
X70209139Y-58034390D01*
X70184521Y-57997547D01*
X69994327Y-57780672D01*
X69777452Y-57590478D01*
X69537613Y-57430223D01*
X69537606Y-57430219D01*
X69278905Y-57302642D01*
X69005760Y-57209921D01*
X69005754Y-57209919D01*
X69005753Y-57209919D01*
X69005751Y-57209918D01*
X69005745Y-57209917D01*
X68722849Y-57153646D01*
X68722839Y-57153644D01*
X68435000Y-57134778D01*
X68147161Y-57153644D01*
X68147155Y-57153645D01*
X68147150Y-57153646D01*
X67864254Y-57209917D01*
X67864239Y-57209921D01*
X67591094Y-57302642D01*
X67332393Y-57430219D01*
X67332386Y-57430223D01*
X67092547Y-57590478D01*
X66875672Y-57780672D01*
X66685478Y-57997547D01*
X66525223Y-58237386D01*
X66525219Y-58237393D01*
X66397642Y-58496094D01*
X66304921Y-58769239D01*
X66304917Y-58769254D01*
X66248646Y-59052150D01*
X66248644Y-59052161D01*
X66229778Y-59340000D01*
X65040500Y-59340000D01*
X65040500Y-59236535D01*
X65000130Y-59033580D01*
X64920941Y-58842402D01*
X64805977Y-58670345D01*
X64805975Y-58670342D01*
X64659657Y-58524024D01*
X64547461Y-58449058D01*
X64487598Y-58409059D01*
X64296420Y-58329870D01*
X64296412Y-58329868D01*
X64093469Y-58289500D01*
X64093465Y-58289500D01*
X63886535Y-58289500D01*
X63886530Y-58289500D01*
X63683587Y-58329868D01*
X63683579Y-58329870D01*
X63492403Y-58409058D01*
X63320342Y-58524024D01*
X63174024Y-58670342D01*
X63059058Y-58842403D01*
X62979870Y-59033579D01*
X62979868Y-59033587D01*
X62939500Y-59236530D01*
X52225335Y-59236530D01*
X52010406Y-51857288D01*
X52010618Y-51845620D01*
X52017075Y-51747114D01*
X52019189Y-51731049D01*
X52067045Y-51490463D01*
X52071241Y-51474802D01*
X52085610Y-51432472D01*
X52115344Y-51384655D01*
X53384655Y-50115344D01*
X53432472Y-50085610D01*
X53474803Y-50071240D01*
X53490463Y-50067045D01*
X53731048Y-50019190D01*
X53747102Y-50017075D01*
X53977060Y-50002003D01*
X53985584Y-50001740D01*
X192877960Y-50499562D01*
G37*
%TD.AperFunction*%
%TD*%
M02*
